<svg width="19" height="19" viewBox="0 0 19 19" fill="none" xmlns="http://www.w3.org/2000/svg">
<g clip-path="url(#clip0_610_1200)">
<path d="M13.7653 0H5.24008C2.34269 0 0 2.34269 0 5.24008V13.7653C0 16.6573 2.34269 19.0054 5.24008 19.0054H13.7653C16.6573 19.0054 19.0054 16.6627 19.0054 13.7653V5.24008C19.0054 2.34807 16.6627 0 13.7653 0ZM17.4651 13.7438C17.4651 15.801 15.7956 17.4651 13.7438 17.4651H5.26162C3.20437 17.4651 1.53486 15.7956 1.53486 13.7438V5.26162C1.53486 3.20437 3.20437 1.54025 5.26162 1.54025H13.7438C15.801 1.54025 17.4651 3.20975 17.4651 5.26162V13.7438Z" fill="#FAFAFA"/>
<path d="M9.50002 4.4917C6.73726 4.4917 4.49152 6.73206 4.49152 9.5002C4.49152 12.2683 6.73188 14.5087 9.50002 14.5087C12.2682 14.5087 14.5085 12.2683 14.5085 9.5002C14.5085 6.73206 12.2682 4.4917 9.50002 4.4917ZM9.50002 12.7638C7.69588 12.7638 6.23641 11.299 6.23641 9.5002C6.23641 7.70145 7.69588 6.2366 9.50002 6.2366C11.3042 6.2366 12.7636 7.70145 12.7636 9.5002C12.7636 11.299 11.2988 12.7638 9.50002 12.7638Z" fill="#FAFAFA"/>
<path d="M15.801 4.32479C15.801 4.94412 15.3001 5.45035 14.6754 5.45035C14.0507 5.45035 13.5499 4.9495 13.5499 4.32479C13.5499 3.70007 14.0507 3.19922 14.6754 3.19922C15.3001 3.19922 15.801 3.70007 15.801 4.32479Z" fill="#FAFAFA"/>
</g>
<defs>
<clipPath id="clip0_610_1200">
<rect width="19" height="19" fill="white"/>
</clipPath>
</defs>
</svg>
