<svg width="220" height="62" viewBox="0 0 220 62" fill="none" xmlns="http://www.w3.org/2000/svg">
<path opacity="0.99" d="M18.259 57.6576L24.6695 61.1951C25.8759 61.8597 27.3379 61.8801 28.5648 61.236L49.5344 49.6419C50.9351 48.8649 51.9268 47.5256 52.2642 45.9613L52.5607 44.5912H44.7188H29.8019C28.3808 44.5912 27.1335 43.6506 26.7347 42.2908L25.2113 37.0459L15.5394 43.5586C14.6397 44.1618 14.2512 45.2967 14.5886 46.3191L18.259 57.6576Z" fill="#2D337B"/>
<path opacity="0.99" d="M5.44828 49.9178L18.259 57.6676L14.6397 46.5234C14.2716 45.3783 14.701 44.131 15.6928 43.4562L25.2012 37.0457L18.2488 13.2236L8.06563 17.4666C6.31732 18.1925 5.01887 19.7057 4.56901 21.546L0.152214 39.4279C-0.174955 40.7672 0.0295261 42.1884 0.724762 43.3846L3.28078 47.7298C3.82265 48.6295 4.55878 49.3861 5.44828 49.9178Z" fill="#E51148"/>
<path d="M18.9236 41.2887L14.5477 25.7788C14.2308 24.6746 14.7522 23.4989 15.7746 22.9774L20.4164 20.6055L25.2114 37.056L18.9236 41.2887Z" fill="#F0E400"/>
<path opacity="0.99" d="M18.259 13.2338L19.6086 17.8653L26.8268 42.6279C27.1642 43.7935 28.2377 44.591 29.4441 44.591H44.7087H52.5505L55.0452 34.326C55.219 33.6103 55.219 32.8742 55.0452 32.1585L52.6016 22.0878C52.571 21.9549 52.5301 21.822 52.4892 21.6891L49.8922 14.021C49.5037 12.8862 48.6858 11.9558 47.6123 11.4241L24.6695 0.0958715C23.9743 -0.251746 23.1972 0.402594 23.4222 1.14895L25.5488 8.15243C25.8555 9.18506 25.3443 10.279 24.3526 10.688L18.259 13.2338Z" fill="#AD2685"/>
<path d="M64.758 58.332H64.2672C63.8889 58.332 63.5924 58.2195 63.3777 58.0048C63.163 57.7901 63.0608 57.4834 63.0608 57.0948V55.3056C63.0608 54.9171 63.163 54.6104 63.3777 54.3957C63.5924 54.181 63.8889 54.0685 64.2672 54.0685H64.758C65.1976 54.0685 65.4839 54.2117 65.6168 54.5082H65.6475V52.5656C65.6475 52.4838 65.6884 52.4531 65.7599 52.4531H66.1484C66.22 52.4531 66.2609 52.494 66.2609 52.5656V58.2093C66.2609 58.2911 66.22 58.3217 66.1484 58.3217H65.7599C65.6884 58.3217 65.6475 58.2808 65.6475 58.2093V57.8821H65.6168C65.4737 58.1786 65.1874 58.332 64.758 58.332ZM65.6475 57.0233V55.367C65.6475 55.1216 65.5759 54.9273 65.443 54.7944C65.3101 54.6615 65.1158 54.59 64.8704 54.59H64.3592C63.8992 54.59 63.664 54.8353 63.664 55.3159V57.0539C63.664 57.5345 63.8992 57.7799 64.3592 57.7799H64.8704C65.126 57.7799 65.3101 57.7083 65.443 57.5754C65.5861 57.4629 65.6475 57.2687 65.6475 57.0233Z" fill="url(#paint0_linear_379_177)"/>
<path d="M73.3053 53.3631V52.5758C73.3053 52.4941 73.3462 52.4634 73.4178 52.4634H73.8063C73.8881 52.4634 73.9188 52.5043 73.9188 52.5758V53.3631C73.9188 53.4449 73.8779 53.4756 73.8063 53.4756H73.4178C73.336 53.4756 73.3053 53.4449 73.3053 53.3631ZM73.3053 58.2093V54.181C73.3053 54.0992 73.3462 54.0686 73.4178 54.0686H73.8063C73.8881 54.0686 73.9188 54.1095 73.9188 54.181V58.2093C73.9188 58.2911 73.8779 58.3218 73.8063 58.3218H73.428C73.3462 58.332 73.3053 58.2911 73.3053 58.2093Z" fill="url(#paint1_linear_379_177)"/>
<path d="M82.5786 58.3318H82.1083C81.73 58.3318 81.4335 58.2194 81.2188 58.0047C81.0041 57.7899 80.9018 57.4832 80.9018 57.0947V55.3157C80.9018 54.9272 81.0143 54.6205 81.229 54.4058C81.4539 54.1911 81.7504 54.0786 82.1389 54.0786H83.9588C84.0406 54.0786 84.0713 54.1195 84.0713 54.1911V58.3523C84.0713 58.7408 83.9588 59.0373 83.7441 59.2622C83.5192 59.4871 83.2227 59.5894 82.8342 59.5894H81.3006C81.2188 59.5894 81.1779 59.5485 81.1779 59.4769V59.1702C81.1779 59.0884 81.2188 59.0577 81.3006 59.0577H82.7626C83.2329 59.0577 83.4681 58.8226 83.4681 58.342V57.9024H83.4374C83.284 58.1785 82.9978 58.3318 82.5786 58.3318ZM83.4681 57.0231V54.6818C83.4681 54.6307 83.4374 54.6103 83.3863 54.6103H82.2207C81.7504 54.6103 81.5153 54.8556 81.5153 55.3362V57.064C81.5153 57.5446 81.7504 57.7899 82.2207 57.7899H82.691C82.9466 57.7899 83.1307 57.7184 83.2636 57.5855C83.3965 57.4628 83.4681 57.2685 83.4681 57.0231Z" fill="url(#paint2_linear_379_177)"/>
<path d="M91.1258 53.3631V52.5758C91.1258 52.4941 91.1667 52.4634 91.2383 52.4634H91.6268C91.7086 52.4634 91.7393 52.5043 91.7393 52.5758V53.3631C91.7393 53.4449 91.6984 53.4756 91.6268 53.4756H91.2383C91.1667 53.4756 91.1258 53.4449 91.1258 53.3631ZM91.1258 58.2093V54.181C91.1258 54.0992 91.1667 54.0686 91.2383 54.0686H91.6268C91.7086 54.0686 91.7393 54.1095 91.7393 54.181V58.2093C91.7393 58.2911 91.6984 58.3218 91.6268 58.3218H91.2485C91.1667 58.332 91.1258 58.2911 91.1258 58.2093Z" fill="url(#paint3_linear_379_177)"/>
<path d="M98.9473 54.6003H98.4872C98.4054 54.6003 98.3747 54.5594 98.3747 54.4878V54.1811C98.3747 54.0993 98.4156 54.0687 98.4872 54.0687H98.9473C98.9984 54.0687 99.0291 54.0482 99.0291 53.9971V53.2814C99.0291 53.1996 99.07 53.1689 99.1415 53.1689H99.5198C99.5914 53.1689 99.6323 53.2098 99.6323 53.2814V53.9971C99.6323 54.0482 99.663 54.0687 99.7243 54.0687H100.614C100.696 54.0687 100.736 54.1096 100.736 54.1811V54.4878C100.736 54.5594 100.696 54.6003 100.614 54.6003H99.7243C99.663 54.6003 99.6323 54.6208 99.6323 54.6719V57.0848C99.6323 57.5551 99.8777 57.8004 100.368 57.8004H100.696C100.777 57.8004 100.818 57.8413 100.818 57.9129V58.2196C100.818 58.2912 100.777 58.3321 100.696 58.3321H100.297C99.9083 58.3321 99.6016 58.2299 99.3767 58.0151C99.1518 57.8004 99.0291 57.5039 99.0291 57.1154V54.6821C99.0291 54.6208 98.9984 54.6003 98.9473 54.6003Z" fill="url(#paint4_linear_379_177)"/>
<path d="M109.151 58.3318H108.711C108.323 58.3318 108.026 58.2193 107.801 58.0046C107.576 57.7899 107.474 57.4832 107.474 57.0947V55.3055C107.474 54.917 107.587 54.6102 107.801 54.3955C108.026 54.1808 108.323 54.0684 108.711 54.0684H110.531C110.613 54.0684 110.644 54.1093 110.644 54.1808V58.2091C110.644 58.2909 110.603 58.3216 110.531 58.3216H110.153C110.071 58.3216 110.04 58.2807 110.04 58.2091V57.8819H110.01C109.867 58.1784 109.58 58.3318 109.151 58.3318ZM110.04 57.0231V54.6716C110.04 54.6205 110.01 54.6 109.959 54.6H108.783C108.323 54.6 108.088 54.8454 108.088 55.3259V57.064C108.088 57.5445 108.323 57.7899 108.783 57.7899H109.263C109.519 57.7899 109.703 57.7183 109.836 57.5854C109.969 57.4627 110.04 57.2685 110.04 57.0231Z" fill="url(#paint5_linear_379_177)"/>
<path d="M118.189 58.332H117.811C117.729 58.332 117.698 58.2911 117.698 58.2195V52.5758C117.698 52.4941 117.739 52.4634 117.811 52.4634H118.189C118.271 52.4634 118.301 52.5043 118.301 52.5758V58.2195C118.312 58.2911 118.271 58.332 118.189 58.332Z" fill="url(#paint6_linear_379_177)"/>
<path d="M134.793 58.3322H133.3C133.218 58.3322 133.188 58.2914 133.188 58.2198V57.9233C133.188 57.8517 133.229 57.8108 133.3 57.8108H134.701C135.14 57.8108 135.355 57.6472 135.355 57.3303V57.1667C135.355 56.8702 135.212 56.6657 134.926 56.5533L133.934 56.1341C133.648 56.0216 133.443 55.8785 133.321 55.7251C133.198 55.5615 133.137 55.357 133.137 55.0912C133.137 54.4062 133.515 54.0586 134.261 54.0586H135.631C135.713 54.0586 135.744 54.0995 135.744 54.1711V54.4676C135.744 54.5391 135.703 54.58 135.631 54.58H134.363C134.159 54.58 134.006 54.6209 133.903 54.7027C133.801 54.7845 133.75 54.8867 133.75 54.9992V55.1423C133.75 55.3775 133.914 55.5513 134.231 55.674L135.222 56.1136C135.509 56.2261 135.713 56.3692 135.815 56.5533C135.917 56.7373 135.969 56.9929 135.969 57.3098C135.989 57.9949 135.59 58.3322 134.793 58.3322Z" fill="url(#paint7_linear_379_177)"/>
<path d="M144.69 58.3318H143.974C143.585 58.3318 143.289 58.2193 143.064 58.0046C142.839 57.7899 142.737 57.4832 142.737 57.0947V55.3055C142.737 54.917 142.849 54.6102 143.064 54.3955C143.289 54.1808 143.585 54.0684 143.974 54.0684H144.69C145.078 54.0684 145.375 54.1808 145.6 54.3955C145.825 54.6102 145.927 54.917 145.927 55.3055V57.0947C145.927 57.4832 145.814 57.7899 145.6 58.0046C145.375 58.2193 145.078 58.3318 144.69 58.3318ZM144.035 57.7899H144.618C145.088 57.7899 145.324 57.5548 145.324 57.0742V55.3157C145.324 54.8352 145.088 54.6 144.618 54.6H144.035C143.565 54.6 143.33 54.8352 143.33 55.3157V57.0742C143.34 57.5548 143.575 57.7899 144.035 57.7899Z" fill="url(#paint8_linear_379_177)"/>
<path d="M153.39 58.332H153.012C152.93 58.332 152.9 58.2911 152.9 58.2195V52.5758C152.9 52.4941 152.94 52.4634 153.012 52.4634H153.39C153.472 52.4634 153.503 52.5043 153.503 52.5758V58.2195C153.513 58.2911 153.472 58.332 153.39 58.332Z" fill="url(#paint9_linear_379_177)"/>
<path d="M162.193 58.3322H161.723C161.345 58.3322 161.048 58.2198 160.834 58.0051C160.619 57.7904 160.517 57.4837 160.517 57.0951V54.1813C160.517 54.0995 160.557 54.0688 160.629 54.0688H161.007C161.089 54.0688 161.12 54.1097 161.12 54.1813V57.0645C161.12 57.545 161.355 57.7904 161.815 57.7904H162.296C162.551 57.7904 162.735 57.7188 162.868 57.5859C163.001 57.453 163.073 57.2587 163.073 57.0133V54.1711C163.073 54.0893 163.114 54.0586 163.185 54.0586H163.563C163.645 54.0586 163.676 54.0995 163.676 54.1711V58.1993C163.676 58.2811 163.635 58.3118 163.563 58.3118H163.185C163.103 58.3118 163.073 58.2709 163.073 58.1993V57.8722H163.042C162.909 58.1789 162.623 58.3322 162.193 58.3322Z" fill="url(#paint10_linear_379_177)"/>
<path d="M170.853 54.6003H170.393C170.311 54.6003 170.281 54.5594 170.281 54.4878V54.1811C170.281 54.0993 170.321 54.0687 170.393 54.0687H170.853C170.904 54.0687 170.935 54.0482 170.935 53.9971V53.2814C170.935 53.1996 170.976 53.1689 171.047 53.1689H171.426C171.497 53.1689 171.538 53.2098 171.538 53.2814V53.9971C171.538 54.0482 171.569 54.0687 171.63 54.0687H172.52C172.601 54.0687 172.642 54.1096 172.642 54.1811V54.4878C172.642 54.5594 172.601 54.6003 172.52 54.6003H171.63C171.569 54.6003 171.538 54.6208 171.538 54.6719V57.0848C171.538 57.5551 171.784 57.8004 172.274 57.8004H172.601C172.683 57.8004 172.724 57.8413 172.724 57.9129V58.2196C172.724 58.2912 172.683 58.3321 172.601 58.3321H172.203C171.814 58.3321 171.507 58.2299 171.283 58.0151C171.058 57.8004 170.935 57.5039 170.935 57.1154V54.6821C170.945 54.6208 170.914 54.6003 170.853 54.6003Z" fill="url(#paint11_linear_379_177)"/>
<path d="M179.513 53.3631V52.5758C179.513 52.4941 179.554 52.4634 179.625 52.4634H180.014C180.096 52.4634 180.126 52.5043 180.126 52.5758V53.3631C180.126 53.4449 180.085 53.4756 180.014 53.4756H179.625C179.554 53.4756 179.513 53.4449 179.513 53.3631ZM179.513 58.2093V54.181C179.513 54.0992 179.554 54.0686 179.625 54.0686H180.014C180.096 54.0686 180.126 54.1095 180.126 54.181V58.2093C180.126 58.2911 180.085 58.3218 180.014 58.3218H179.636C179.554 58.332 179.513 58.2911 179.513 58.2093Z" fill="url(#paint12_linear_379_177)"/>
<path d="M189.052 58.3318H188.336C187.948 58.3318 187.651 58.2193 187.426 58.0046C187.201 57.7899 187.099 57.4832 187.099 57.0947V55.3055C187.099 54.917 187.212 54.6102 187.426 54.3955C187.651 54.1808 187.948 54.0684 188.336 54.0684H189.052C189.44 54.0684 189.737 54.1808 189.962 54.3955C190.187 54.6102 190.289 54.917 190.289 55.3055V57.0947C190.289 57.4832 190.177 57.7899 189.962 58.0046C189.737 58.2193 189.43 58.3318 189.052 58.3318ZM188.398 57.7899H188.98C189.451 57.7899 189.686 57.5548 189.686 57.0742V55.3157C189.686 54.8352 189.451 54.6 188.98 54.6H188.398C187.927 54.6 187.692 54.8352 187.692 55.3157V57.0742C187.692 57.5548 187.927 57.7899 188.398 57.7899Z" fill="url(#paint13_linear_379_177)"/>
<path d="M197.701 58.3318H197.323C197.241 58.3318 197.211 58.2909 197.211 58.2194V54.1911C197.211 54.1093 197.252 54.0786 197.323 54.0786H197.701C197.783 54.0786 197.814 54.1195 197.814 54.1911V54.5182H197.845C197.988 54.2217 198.264 54.0786 198.693 54.0786H199.163C199.542 54.0786 199.838 54.1911 200.053 54.4058C200.268 54.6205 200.37 54.9272 200.37 55.3157V58.2296C200.37 58.3114 200.329 58.342 200.257 58.342H199.879C199.797 58.342 199.767 58.3011 199.767 58.2296V55.3464C199.767 54.8659 199.532 54.6205 199.061 54.6205H198.591C198.335 54.6205 198.151 54.6921 198.018 54.825C197.885 54.9579 197.814 55.1521 197.814 55.3975V58.2398C197.824 58.2909 197.783 58.3318 197.701 58.3318Z" fill="url(#paint14_linear_379_177)"/>
<path d="M208.795 58.3322H207.302C207.22 58.3322 207.189 58.2914 207.189 58.2198V57.9233C207.189 57.8517 207.23 57.8108 207.302 57.8108H208.702C209.142 57.8108 209.357 57.6472 209.357 57.3303V57.1667C209.357 56.8702 209.214 56.6657 208.927 56.5533L207.936 56.1341C207.649 56.0216 207.445 55.8785 207.322 55.7251C207.2 55.5615 207.138 55.357 207.138 55.0912C207.138 54.4062 207.517 54.0586 208.263 54.0586H209.633C209.715 54.0586 209.745 54.0995 209.745 54.1711V54.4676C209.745 54.5391 209.704 54.58 209.633 54.58H208.365C208.161 54.58 208.007 54.6209 207.905 54.7027C207.803 54.7845 207.752 54.8867 207.752 54.9992V55.1423C207.752 55.3775 207.915 55.5513 208.232 55.674L209.224 56.1136C209.51 56.2261 209.715 56.3692 209.817 56.5533C209.919 56.7373 209.97 56.9929 209.97 57.3098C209.991 57.9949 209.592 58.3322 208.795 58.3322Z" fill="url(#paint15_linear_379_177)"/>
<path d="M66.5575 38.2522C65.1261 37.6184 63.9606 36.7084 63.0507 35.5326L66.2917 31.6475C67.6617 33.4981 69.2158 34.4182 70.9641 34.4182C73.3361 34.4182 74.522 33.0278 74.522 30.2468V19.3377H65.6782V13.6021H80.3191V29.9299C80.3191 33.0278 79.5523 35.3384 78.0187 36.8925C76.4851 38.4363 74.2256 39.2133 71.2606 39.2133C69.5532 39.2031 67.9889 38.8861 66.5575 38.2522Z" fill="url(#paint16_linear_379_177)"/>
<path d="M87.6906 22.0059H93.3036V39.2129H87.6906V22.0059Z" fill="url(#paint17_linear_379_177)"/>
<path d="M121.992 19.4292V35.8286C121.992 36.1762 121.982 36.5136 121.962 36.8408C121.798 39.8875 120.888 42.1879 119.222 43.742C117.371 45.4699 114.682 46.3287 111.134 46.3287C109.263 46.3287 107.495 46.1038 105.808 45.6437C104.131 45.1836 102.74 44.5293 101.636 43.6704L103.865 39.6422C104.683 40.3169 105.716 40.8486 106.963 41.2473C108.21 41.6461 109.458 41.8403 110.705 41.8403C112.647 41.8403 114.079 41.4007 114.999 40.5317C115.807 39.7648 116.257 38.6607 116.359 37.2088C116.369 37.0044 116.379 36.7794 116.379 36.5545V35.7263C114.917 37.3315 112.883 38.1392 110.265 38.1392C108.486 38.1392 106.871 37.7507 105.388 36.9737C103.916 36.1966 102.74 35.1027 101.882 33.6815C101.023 32.2706 100.583 30.6348 100.583 28.7944C100.583 26.9439 101.013 25.3183 101.882 23.9073C102.74 22.4964 103.916 21.3922 105.388 20.6152C106.861 19.8382 108.486 19.4496 110.265 19.4496C113.067 19.4496 115.203 20.3698 116.666 22.2204V19.4496H121.992V19.4292ZM115.04 32.2093C115.991 31.33 116.461 30.1849 116.461 28.774C116.461 27.3631 115.991 26.218 115.04 25.3387C114.089 24.4594 112.872 24.03 111.39 24.03C109.907 24.03 108.681 24.4697 107.719 25.3387C106.758 26.218 106.278 27.3631 106.278 28.774C106.278 30.1849 106.758 31.33 107.719 32.2093C108.681 33.0885 109.897 33.5179 111.39 33.5179C112.872 33.5179 114.089 33.0885 115.04 32.2093Z" fill="url(#paint18_linear_379_177)"/>
<path d="M132.605 38.7527C131.071 38.3539 129.844 37.8632 128.934 37.26L130.805 33.2317C131.664 33.7838 132.707 34.2336 133.934 34.5812C135.161 34.9289 136.357 35.1027 137.533 35.1027C139.905 35.1027 141.091 34.5199 141.091 33.3441C141.091 32.792 140.764 32.3933 140.12 32.1581C139.475 31.923 138.473 31.7185 137.134 31.5447C135.549 31.3096 134.241 31.0335 133.218 30.7166C132.186 30.4098 131.296 29.8577 130.54 29.0603C129.783 28.273 129.405 27.1381 129.405 25.6761C129.405 24.4492 129.763 23.3655 130.468 22.4248C131.174 21.474 132.206 20.7379 133.556 20.2165C134.905 19.6848 136.51 19.4292 138.361 19.4292C139.731 19.4292 141.091 19.5826 142.44 19.8791C143.79 20.1756 144.915 20.5947 145.804 21.1162L143.933 25.1036C142.226 24.1425 140.375 23.662 138.361 23.662C137.165 23.662 136.265 23.8255 135.662 24.1629C135.059 24.5003 134.762 24.9297 134.762 25.4614C134.762 26.0646 135.089 26.4838 135.733 26.719C136.378 26.9541 137.41 27.1893 138.821 27.404C140.406 27.6698 141.694 27.9458 142.706 28.2526C143.708 28.5491 144.587 29.1012 145.334 29.8884C146.08 30.6757 146.448 31.7799 146.448 33.201C146.448 34.3972 146.09 35.4707 145.365 36.4011C144.649 37.3315 143.596 38.0574 142.216 38.5789C140.835 39.0901 139.199 39.3559 137.308 39.3559C135.713 39.3457 134.139 39.1514 132.605 38.7527Z" fill="url(#paint19_linear_379_177)"/>
<path d="M168.307 21.5665C169.912 22.9979 170.72 25.1449 170.72 28.0179V39.0598H165.465V36.647C164.412 38.4464 162.449 39.3461 159.566 39.3461C158.083 39.3461 156.795 39.0905 155.701 38.5895C154.607 38.0886 153.779 37.3933 153.206 36.5038C152.634 35.6143 152.348 34.6124 152.348 33.4877C152.348 31.6883 153.022 30.2774 154.382 29.2448C155.732 28.2121 157.828 27.7009 160.66 27.7009H165.117C165.117 26.474 164.749 25.5334 164.003 24.8791C163.257 24.2247 162.142 23.8873 160.66 23.8873C159.627 23.8873 158.615 24.0509 157.623 24.3679C156.631 24.695 155.783 25.1245 155.088 25.6766L153.073 21.7607C154.127 21.0144 155.394 20.4418 156.867 20.0329C158.339 19.6239 159.852 19.4194 161.416 19.4194C164.402 19.4297 166.702 20.1351 168.307 21.5665ZM163.522 34.9089C164.269 34.4692 164.79 33.8149 165.107 32.9459V30.9726H161.263C158.962 30.9726 157.807 31.7292 157.807 33.2424C157.807 33.958 158.093 34.5306 158.656 34.9498C159.218 35.369 159.995 35.5837 160.977 35.5837C161.927 35.5734 162.786 35.3485 163.522 34.9089Z" fill="url(#paint20_linear_379_177)"/>
<path d="M209.991 19.4292L202.977 39.2127H197.579L193.223 27.1995L188.725 39.2127H183.326L176.354 19.4292H181.639L186.21 32.9556L190.954 19.4292H195.698L200.298 32.9556L205.012 19.4292H209.991Z" fill="url(#paint21_linear_379_177)"/>
<g opacity="0.99">
<path d="M88.4165 13.7041C88.0382 13.7041 87.7212 14.0108 87.7212 14.3993V18.5605C87.7212 18.9388 88.0279 19.2558 88.4165 19.2558H92.5776C92.9559 19.2558 93.2729 18.949 93.2729 18.5605V14.3993C93.2729 14.021 92.9662 13.7041 92.5776 13.7041H88.4165Z" fill="#AD2685"/>
</g>
<path d="M218.967 19.8183C218.272 20.5135 217.444 20.8612 216.463 20.8612C215.481 20.8612 214.653 20.5135 213.958 19.8183C213.273 19.1231 212.935 18.2949 212.935 17.3032C212.935 16.3319 213.283 15.4935 213.968 14.8085C214.653 14.1235 215.491 13.7759 216.463 13.7759C217.444 13.7759 218.282 14.1235 218.967 14.8085C219.663 15.4935 220 16.3319 220 17.3032C220 18.2949 219.652 19.1231 218.967 19.8183ZM214.305 15.1561C213.712 15.7491 213.416 16.4648 213.416 17.3134C213.416 18.162 213.712 18.8879 214.295 19.4809C214.888 20.0739 215.604 20.3806 216.452 20.3806C217.301 20.3806 218.017 20.0841 218.61 19.4809C219.203 18.8879 219.499 18.162 219.499 17.3134C219.499 16.475 219.203 15.7491 218.61 15.1561C218.017 14.5631 217.301 14.2564 216.452 14.2564C215.624 14.2666 214.898 14.5631 214.305 15.1561ZM216.391 15.3606C216.871 15.3606 217.229 15.4117 217.454 15.5037C217.853 15.6673 218.057 15.9945 218.057 16.4853C218.057 16.8329 217.935 17.0885 217.679 17.2521C217.546 17.3339 217.362 17.4054 217.117 17.4361C217.424 17.4872 217.638 17.6099 217.781 17.8144C217.925 18.0189 217.996 18.2233 217.996 18.4176V18.7039C217.996 18.7959 217.996 18.8879 218.006 18.9901C218.017 19.0924 218.027 19.164 218.037 19.1946L218.057 19.2457H217.413C217.413 19.2355 217.403 19.2151 217.403 19.2049C217.403 19.1946 217.393 19.1742 217.393 19.164L217.383 19.0413V18.7345C217.383 18.2847 217.26 17.9882 217.015 17.8451C216.871 17.7633 216.616 17.7224 216.258 17.7224H215.716V19.2457H215.031V15.3606H216.391ZM217.127 15.9741C216.953 15.882 216.677 15.8309 216.299 15.8309H215.716V17.2418H216.34C216.626 17.2418 216.851 17.2112 216.994 17.16C217.26 17.0578 217.393 16.8533 217.393 16.5568C217.393 16.2603 217.301 16.0661 217.127 15.9741Z" fill="url(#paint22_linear_379_177)"/>
<defs>
<linearGradient id="paint0_linear_379_177" x1="63.0558" y1="55.39" x2="66.2509" y2="55.39" gradientUnits="userSpaceOnUse">
<stop stop-color="white"/>
<stop offset="0.0429" stop-color="#FEFEFE"/>
<stop offset="0.4125" stop-color="#F8F8F8"/>
<stop offset="1" stop-color="#F6F6F6"/>
</linearGradient>
<linearGradient id="paint1_linear_379_177" x1="73.3022" y1="55.3942" x2="73.9127" y2="55.3942" gradientUnits="userSpaceOnUse">
<stop stop-color="white"/>
<stop offset="0.0429" stop-color="#FEFEFE"/>
<stop offset="0.4125" stop-color="#F8F8F8"/>
<stop offset="1" stop-color="#F6F6F6"/>
</linearGradient>
<linearGradient id="paint2_linear_379_177" x1="80.9055" y1="56.8328" x2="84.0756" y2="56.8328" gradientUnits="userSpaceOnUse">
<stop stop-color="white"/>
<stop offset="0.0429" stop-color="#FEFEFE"/>
<stop offset="0.4125" stop-color="#F8F8F8"/>
<stop offset="1" stop-color="#F6F6F6"/>
</linearGradient>
<linearGradient id="paint3_linear_379_177" x1="91.1268" y1="55.3942" x2="91.7373" y2="55.3942" gradientUnits="userSpaceOnUse">
<stop stop-color="white"/>
<stop offset="0.0429" stop-color="#FEFEFE"/>
<stop offset="0.4125" stop-color="#F8F8F8"/>
<stop offset="1" stop-color="#F6F6F6"/>
</linearGradient>
<linearGradient id="paint4_linear_379_177" x1="98.3703" y1="55.7414" x2="100.821" y2="55.7414" gradientUnits="userSpaceOnUse">
<stop stop-color="white"/>
<stop offset="0.0429" stop-color="#FEFEFE"/>
<stop offset="0.4125" stop-color="#F8F8F8"/>
<stop offset="1" stop-color="#F6F6F6"/>
</linearGradient>
<linearGradient id="paint5_linear_379_177" x1="107.479" y1="56.197" x2="110.649" y2="56.197" gradientUnits="userSpaceOnUse">
<stop stop-color="white"/>
<stop offset="0.0429" stop-color="#FEFEFE"/>
<stop offset="0.4125" stop-color="#F8F8F8"/>
<stop offset="1" stop-color="#F6F6F6"/>
</linearGradient>
<linearGradient id="paint6_linear_379_177" x1="117.7" y1="55.39" x2="118.311" y2="55.39" gradientUnits="userSpaceOnUse">
<stop stop-color="white"/>
<stop offset="0.0429" stop-color="#FEFEFE"/>
<stop offset="0.4125" stop-color="#F8F8F8"/>
<stop offset="1" stop-color="#F6F6F6"/>
</linearGradient>
<linearGradient id="paint7_linear_379_177" x1="133.15" y1="56.1975" x2="135.985" y2="56.1975" gradientUnits="userSpaceOnUse">
<stop stop-color="white"/>
<stop offset="0.0429" stop-color="#FEFEFE"/>
<stop offset="0.4125" stop-color="#F8F8F8"/>
<stop offset="1" stop-color="#F6F6F6"/>
</linearGradient>
<linearGradient id="paint8_linear_379_177" x1="142.735" y1="56.197" x2="145.93" y2="56.197" gradientUnits="userSpaceOnUse">
<stop stop-color="white"/>
<stop offset="0.0429" stop-color="#FEFEFE"/>
<stop offset="0.4125" stop-color="#F8F8F8"/>
<stop offset="1" stop-color="#F6F6F6"/>
</linearGradient>
<linearGradient id="paint9_linear_379_177" x1="152.898" y1="55.39" x2="153.509" y2="55.39" gradientUnits="userSpaceOnUse">
<stop stop-color="white"/>
<stop offset="0.0429" stop-color="#FEFEFE"/>
<stop offset="0.4125" stop-color="#F8F8F8"/>
<stop offset="1" stop-color="#F6F6F6"/>
</linearGradient>
<linearGradient id="paint10_linear_379_177" x1="160.518" y1="56.1975" x2="163.688" y2="56.1975" gradientUnits="userSpaceOnUse">
<stop stop-color="white"/>
<stop offset="0.0429" stop-color="#FEFEFE"/>
<stop offset="0.4125" stop-color="#F8F8F8"/>
<stop offset="1" stop-color="#F6F6F6"/>
</linearGradient>
<linearGradient id="paint11_linear_379_177" x1="170.279" y1="55.7414" x2="172.73" y2="55.7414" gradientUnits="userSpaceOnUse">
<stop stop-color="white"/>
<stop offset="0.0429" stop-color="#FEFEFE"/>
<stop offset="0.4125" stop-color="#F8F8F8"/>
<stop offset="1" stop-color="#F6F6F6"/>
</linearGradient>
<linearGradient id="paint12_linear_379_177" x1="179.514" y1="55.3942" x2="180.124" y2="55.3942" gradientUnits="userSpaceOnUse">
<stop stop-color="white"/>
<stop offset="0.0429" stop-color="#FEFEFE"/>
<stop offset="0.4125" stop-color="#F8F8F8"/>
<stop offset="1" stop-color="#F6F6F6"/>
</linearGradient>
<linearGradient id="paint13_linear_379_177" x1="187.092" y1="56.197" x2="190.287" y2="56.197" gradientUnits="userSpaceOnUse">
<stop stop-color="white"/>
<stop offset="0.0429" stop-color="#FEFEFE"/>
<stop offset="0.4125" stop-color="#F8F8F8"/>
<stop offset="1" stop-color="#F6F6F6"/>
</linearGradient>
<linearGradient id="paint14_linear_379_177" x1="197.213" y1="56.197" x2="200.383" y2="56.197" gradientUnits="userSpaceOnUse">
<stop stop-color="white"/>
<stop offset="0.0429" stop-color="#FEFEFE"/>
<stop offset="0.4125" stop-color="#F8F8F8"/>
<stop offset="1" stop-color="#F6F6F6"/>
</linearGradient>
<linearGradient id="paint15_linear_379_177" x1="207.158" y1="56.1975" x2="209.994" y2="56.1975" gradientUnits="userSpaceOnUse">
<stop stop-color="white"/>
<stop offset="0.0429" stop-color="#FEFEFE"/>
<stop offset="0.4125" stop-color="#F8F8F8"/>
<stop offset="1" stop-color="#F6F6F6"/>
</linearGradient>
<linearGradient id="paint16_linear_379_177" x1="63.0559" y1="26.4014" x2="80.3177" y2="26.4014" gradientUnits="userSpaceOnUse">
<stop stop-color="white"/>
<stop offset="0.0429" stop-color="#FEFEFE"/>
<stop offset="0.4125" stop-color="#F8F8F8"/>
<stop offset="1" stop-color="#F6F6F6"/>
</linearGradient>
<linearGradient id="paint17_linear_379_177" x1="87.6895" y1="30.6039" x2="93.2998" y2="30.6039" gradientUnits="userSpaceOnUse">
<stop stop-color="white"/>
<stop offset="0.0429" stop-color="#FEFEFE"/>
<stop offset="0.4125" stop-color="#F8F8F8"/>
<stop offset="1" stop-color="#F6F6F6"/>
</linearGradient>
<linearGradient id="paint18_linear_379_177" x1="100.597" y1="32.874" x2="121.995" y2="32.874" gradientUnits="userSpaceOnUse">
<stop stop-color="white"/>
<stop offset="0.0429" stop-color="#FEFEFE"/>
<stop offset="0.4125" stop-color="#F8F8F8"/>
<stop offset="1" stop-color="#F6F6F6"/>
</linearGradient>
<linearGradient id="paint19_linear_379_177" x1="128.935" y1="29.3857" x2="146.449" y2="29.3857" gradientUnits="userSpaceOnUse">
<stop stop-color="white"/>
<stop offset="0.0429" stop-color="#FEFEFE"/>
<stop offset="0.4125" stop-color="#F8F8F8"/>
<stop offset="1" stop-color="#F6F6F6"/>
</linearGradient>
<linearGradient id="paint20_linear_379_177" x1="152.341" y1="29.3862" x2="170.717" y2="29.3862" gradientUnits="userSpaceOnUse">
<stop stop-color="white"/>
<stop offset="0.0429" stop-color="#FEFEFE"/>
<stop offset="0.4125" stop-color="#F8F8F8"/>
<stop offset="1" stop-color="#F6F6F6"/>
</linearGradient>
<linearGradient id="paint21_linear_379_177" x1="176.369" y1="29.3138" x2="209.994" y2="29.3138" gradientUnits="userSpaceOnUse">
<stop stop-color="white"/>
<stop offset="0.0429" stop-color="#FEFEFE"/>
<stop offset="0.4125" stop-color="#F8F8F8"/>
<stop offset="1" stop-color="#F6F6F6"/>
</linearGradient>
<linearGradient id="paint22_linear_379_177" x1="212.929" y1="17.3225" x2="220.001" y2="17.3225" gradientUnits="userSpaceOnUse">
<stop stop-color="white"/>
<stop offset="0.0429" stop-color="#FEFEFE"/>
<stop offset="0.4125" stop-color="#F8F8F8"/>
<stop offset="1" stop-color="#F6F6F6"/>
</linearGradient>
</defs>
</svg>
