<svg width="115" height="115" viewBox="0 0 115 115" fill="none" xmlns="http://www.w3.org/2000/svg">
<g clip-path="url(#clip0_1067_4006)">
<path d="M74.3177 89.42V92.8849L51.917 105.933L40.4106 99.2227C37.326 97.4245 34.8104 93.0824 34.8322 89.5078L34.8541 80.5383L37.851 82.2709L60.2517 69.2006L60.2298 78.1918C60.2298 79.8585 61.3892 81.898 62.833 82.7094L74.3177 89.42Z" fill="#4C5C75"/>
<path d="M51.9195 102.477L74.3264 89.4227L74.3167 92.8832L51.9097 105.937L51.9195 102.477Z" fill="#1D2943"/>
<path d="M74.3234 89.4306L51.9207 102.477L40.4385 95.7659C38.9973 94.9373 37.8315 92.9188 37.8315 91.2403L37.8526 82.2739L60.2554 69.2067L60.2342 78.1945C60.2342 79.8518 61.4 81.8914 62.8412 82.7201L74.3234 89.4306Z" fill="#4C5C75"/>
<path d="M37.8523 82.266L37.827 91.2447C37.8223 92.9126 38.9958 94.9346 40.4302 95.7649L51.9194 102.477L51.9096 105.937L40.4204 99.2253C37.3215 97.4319 34.8127 93.0757 34.8228 89.506L34.8483 80.5273L37.8523 82.266Z" fill="#111D33"/>
<path d="M82.5866 53.1917V58.8277C82.5866 61.6566 80.6179 65.0777 78.1677 66.5032L17.5068 101.701C16.1505 102.49 14.9255 102.49 14.1161 101.832C14.1816 101.898 14.2692 101.964 14.3567 102.008L7.75035 98.1482C6.94083 97.7095 6.45963 96.7226 6.45963 95.3191L6.35028 44.1565C6.32838 41.3274 8.319 37.9064 10.7473 36.481L71.4301 1.28323C72.677 0.55964 73.7708 0.493785 74.5802 0.976315L81.1865 4.81407C81.121 4.79211 81.0772 4.74821 81.0116 4.74821C81.9085 5.14294 82.4773 6.17372 82.4773 7.68689L82.5647 53.1917H82.5866Z" fill="#4C5C75"/>
<path d="M6.3541 44.1552C6.33839 41.3377 8.32134 37.9101 10.7569 36.4858L71.4367 1.28709C72.6702 0.567262 73.7786 0.504495 74.5905 0.973961L81.1948 4.82466C80.3832 4.3552 79.2744 4.4175 78.041 5.12205L17.3614 40.3362C14.9259 41.7449 12.943 45.1884 12.9584 48.0057L13.0522 99.1596C13.0677 100.568 13.5517 101.539 14.348 102.008L7.74352 98.1581C6.94739 97.7039 6.46337 96.718 6.46337 95.3249L6.3541 44.1552Z" fill="#4C5C75"/>
<path d="M13.0519 99.1593L13.0585 93.5199L6.45068 89.6656L6.46311 95.3246C6.46311 96.7178 6.94689 97.7037 7.74326 98.1579L14.3478 102.008C13.5514 101.538 13.0674 100.568 13.0519 99.1593Z" fill="#B0B8CF"/>
<path d="M78.0416 5.1293C80.484 3.71573 82.4742 4.85284 82.4821 7.67763L82.5872 58.833C82.5952 61.6462 80.6178 65.0794 78.1757 66.493L17.4987 101.701C15.0564 103.114 13.0662 101.977 13.0582 99.1638L12.9531 48.0085C12.9452 45.1837 14.9225 41.7505 17.3648 40.3369L78.0416 5.1293Z" fill="#1D2943"/>
<path d="M82.5871 53.1887V58.8329C82.5951 61.6462 80.6177 65.0794 78.1756 66.4929L17.4986 101.701C15.0563 103.114 13.0661 101.977 13.0581 99.1637L13.0583 93.5198L82.5871 53.1887Z" fill="#E3E7F0"/>
<path d="M49.3389 75.1425C50.5922 74.417 51.6047 74.9954 51.6087 76.4393C51.6129 77.8829 50.6069 79.6294 49.3537 80.3546C48.1005 81.0801 47.0882 80.5018 47.084 79.0581C47.08 77.6142 48.0857 75.8678 49.3389 75.1425Z" fill="#1D2943"/>
<path d="M80.405 52.1095L15.1822 89.9506L15.1174 48.0064C15.0958 45.9557 16.6679 43.2358 18.4335 42.1998L79.1131 6.99238C79.6084 6.71169 79.9097 6.69006 80.0174 6.69006C80.1465 6.73332 80.3189 7.01401 80.3189 7.68307L80.405 52.1095Z" fill="white"/>
<path d="M47.4776 40.5135L41.6934 43.8611L41.7011 46.5847L47.4776 43.2416V40.5135Z" fill="#E3E7F0"/>
<path d="M68.2271 43.5474V46.275L77.4198 40.9545V38.2268L68.2271 43.5474Z" fill="#A92D94"/>
<path d="M77.4197 30.7047L41.7144 51.3705L41.7221 54.0939L77.4197 33.4326V30.7047Z" fill="#E3E7F0"/>
<path d="M77.4197 45L41.7144 65.6658L41.7221 68.3892L77.4197 47.7279V45Z" fill="#E3E7F0"/>
<path d="M67.1915 44L51 53.3714L51.0077 56.0948L67.1915 46.7278V44Z" fill="#E3E7F0"/>
<path d="M77.42 15.6615L61.1211 25.0949V27.8227L77.42 18.3894V15.6615Z" fill="#2C3B84"/>
<path d="M78.1704 50.7382L95.6621 40.646L78.1704 50.7382Z" fill="#4C5C75"/>
<g clip-path="url(#clip1_1067_4006)">
<path d="M28.293 79.9909V81.5766C28.293 81.9417 28.4742 82.2142 28.7236 82.3672L33.8027 85.3498L34.1356 79.8212L28.293 79.992V79.9909Z" fill="#A996EB"/>
<path d="M50.6483 36.2031C49.977 35.6961 49.053 35.6805 48.0324 36.279L27.7173 48.2005C25.664 49.4054 23.9995 52.6382 23.9995 55.4209V75.1759C23.9995 76.8252 24.584 77.9463 25.4882 78.3349L28.293 79.992L30.409 81.2427L55.7207 39.1801L50.6483 36.2031Z" fill="url(#paint0_linear_1067_4006)"/>
<path d="M53.1491 39.2873L32.834 51.2077C30.7807 52.4126 29.1162 55.6453 29.1162 58.428V78.183C29.1162 80.9657 30.7807 82.2443 32.834 81.0394L33.4097 80.7022V84.5837C33.4097 85.5541 34.6896 85.8735 35.1324 85.0148L39.0601 77.3868L53.1491 69.119C55.2025 67.9141 56.8669 64.6814 56.8669 61.8986V42.1437C56.8669 39.361 55.2025 38.0824 53.1491 39.2873Z" fill="url(#paint1_linear_1067_4006)"/>
<path d="M49.9747 65.989L40.2792 73.6649C39.8639 74.0022 39.6562 73.9363 39.6562 73.4673V53.3304C39.6562 52.8614 39.8639 52.5063 40.2792 52.2651L49.9747 46.7812C50.3702 46.5634 50.568 46.6617 50.568 47.0771V49.0949C50.568 49.5103 50.3702 49.8342 49.9747 50.0664L43.7784 53.7782C43.5411 53.9223 43.4224 54.1132 43.4224 54.3488V58.5285C43.4224 58.7641 43.5411 58.8032 43.7784 58.6458L48.8486 55.3315C49.2639 55.0635 49.4716 55.1406 49.4716 55.5615V57.605C49.4716 58.026 49.2639 58.3778 48.8486 58.6603L43.7784 62.17C43.5411 62.3364 43.4224 62.5374 43.4224 62.773V67.243C43.4224 67.4786 43.5411 67.5065 43.7784 67.3267L49.9747 62.7026C50.3702 62.4123 50.568 62.4759 50.568 62.8913V64.9092C50.568 65.3246 50.3702 65.6841 49.9747 65.989Z" fill="#565D68"/>
<path d="M81.9169 68.931L73.9424 64.3585L77.7433 61.942L81.9169 68.931Z" fill="#A92D94"/>
<path d="M84.9073 29.1603C85.4995 28.5 79.5643 26.0914 79.5643 26.0914C79.4027 25.9887 79.2363 25.8945 79.0674 25.8063H79.0662C76.6292 24.5341 73.5033 24.725 70.0944 26.6823C62.3095 31.1514 55.9995 43.1427 55.9995 53.4656C55.9995 59.1949 57.9445 63.2049 61.006 64.8758L66.321 67.9325C66.321 67.9325 84.3151 29.8205 84.9073 29.1603Z" fill="url(#paint2_linear_1067_4006)"/>
<path d="M89.8902 40.6327C89.8902 30.0097 83.6429 25.1265 75.9354 29.7262C68.2278 34.3258 61.9805 46.6674 61.9805 57.2917C61.9805 67.916 68.2278 72.7979 75.9354 68.1982C76.8555 67.6486 77.7564 66.9871 78.6272 66.2335L82.0456 68.9045C82.7047 69.4193 83.6489 68.9331 83.6489 68.0801V60.3917C87.4113 54.7003 89.8914 47.3264 89.8914 40.6327H89.8902Z" fill="#A92D94"/>
<path d="M83.9094 45.3453L75.5462 49.6362C73.0306 50.954 71.6121 53.1541 71.6121 55.5276C71.6121 56.661 72.0373 57.3745 72.8522 57.6463C73.5963 57.9169 74.4821 57.7507 75.4388 57.1961L80.6839 54.1916V57.3988L75.1553 60.7067C73.1711 61.9105 71.4692 62.2406 70.0519 61.6702C68.6701 61.089 67.9614 59.7614 67.9614 57.7228C67.9614 55.6841 68.5283 53.7402 69.6267 51.676C70.796 49.5306 72.2841 47.9616 74.1632 46.918C73.8798 46.8149 73.6317 46.6243 73.4191 46.3804C72.9231 45.8174 72.6751 44.9546 72.6751 43.8297C72.6396 42.018 73.3128 40.2754 74.6238 38.653C75.7222 37.3158 77.0686 36.3001 78.6288 35.6436C80.7193 34.7699 82.3846 34.7626 83.6259 35.6339L81.6772 38.8994C80.7914 38.539 79.941 38.5195 79.0552 38.9139C77.5316 39.5947 76.4332 41.1479 76.4332 42.6502C76.4332 44.7337 77.8151 45.1124 80.5445 43.78L83.9106 42.1539V45.3453H83.9094Z" fill="white"/>
</g>
</g>
<defs>
<linearGradient id="paint0_linear_1067_4006" x1="34.0521" y1="56.3757" x2="37.4843" y2="50.5269" gradientUnits="userSpaceOnUse">
<stop stop-color="#C5BAEB"/>
<stop offset="0.48" stop-color="#DFDAEF"/>
<stop offset="1" stop-color="#E9E5F6"/>
</linearGradient>
<linearGradient id="paint1_linear_1067_4006" x1="60.8212" y1="90.5442" x2="37.4043" y2="50.6395" gradientUnits="userSpaceOnUse">
<stop stop-color="#C5BAEB"/>
<stop offset="0.48" stop-color="#DFDAEF"/>
<stop offset="1" stop-color="#F2EDFF"/>
</linearGradient>
<linearGradient id="paint2_linear_1067_4006" x1="65.4123" y1="49.1028" x2="75.3078" y2="31.8678" gradientUnits="userSpaceOnUse">
<stop stop-color="#A92D94"/>
<stop offset="0.35" stop-color="#D14DBB"/>
<stop offset="0.7" stop-color="#F283DF"/>
<stop offset="0.9" stop-color="#EC93DD"/>
</linearGradient>
<clipPath id="clip0_1067_4006">
<rect width="113.252" height="113.533" fill="white" transform="translate(0.806152 0.666626)"/>
</clipPath>
<clipPath id="clip1_1067_4006">
<rect width="66" height="71" fill="white" transform="translate(23.9995 22)"/>
</clipPath>
</defs>
</svg>
