<svg width="120" height="125" viewBox="0 0 120 125" fill="none" xmlns="http://www.w3.org/2000/svg">
<path d="M20.1553 99.0382C20.1553 99.3232 20.2502 99.6081 20.4165 99.8693C20.2502 99.6556 20.179 99.4419 20.1553 99.2045V99.0382Z" fill="#1D2943"/>
<path d="M34.9967 108.466C34.783 108.394 34.5931 108.3 34.4031 108.204L21.271 100.605L34.4031 108.181C34.5931 108.276 34.783 108.371 34.9967 108.466Z" fill="#1D2943"/>
<path d="M20.1624 99.0827C20.1634 99.1234 20.1507 99.1637 20.1553 99.2045V99.0382C20.1553 99.0531 20.1618 99.0678 20.1624 99.0827Z" fill="#4C5C75"/>
<path d="M59.813 93.4339L46.6572 85.8349C45.1849 84.98 42.7864 84.98 41.3141 85.8349L21.2482 97.4945C20.494 97.9382 20.1491 98.5065 20.1629 99.0826C20.1721 99.3526 20.2594 99.6216 20.4169 99.8692C20.2507 99.6555 20.1795 99.4418 20.1558 99.2044V104.547C20.1558 105.117 20.512 105.687 21.2718 106.138L34.4039 113.714C35.8762 114.568 38.2984 114.568 39.7707 113.714L59.8368 102.03C60.5729 101.627 60.9291 101.08 60.9291 100.51V95.0011C60.9291 94.4312 60.5729 93.8613 59.813 93.4339ZM34.4039 108.204L21.2718 100.605L34.4039 108.181C34.5939 108.276 34.7838 108.371 34.9975 108.466C34.7838 108.394 34.5939 108.299 34.4039 108.204Z" fill="#4C5C75"/>
<path d="M20.1553 99.0382C20.1553 99.3232 20.2502 99.6081 20.4165 99.8693C20.2502 99.6556 20.179 99.4419 20.1553 99.2045V99.0382Z" fill="#4C5C75"/>
<path d="M34.9972 108.466C34.7834 108.394 34.5936 108.299 34.4036 108.204L21.2715 100.605L34.4036 108.181C34.5936 108.276 34.7834 108.371 34.9972 108.466Z" fill="#4C5C75"/>
<path d="M60.9199 94.9964L60.921 100.506C60.921 101.074 60.5616 101.623 59.8422 102.039L39.7608 113.717C38.3034 114.569 35.8808 114.569 34.4044 113.717L21.2692 106.128C20.5122 105.692 20.1525 105.125 20.1525 104.557L20.1514 99.0466C20.1514 99.6144 20.5108 100.163 21.2681 100.599L34.4033 108.189C35.8794 109.04 38.2833 109.04 39.7594 108.189L59.8221 96.5293C60.5602 96.1131 60.9199 95.5453 60.9199 94.9964Z" fill="#1D2943"/>
<path d="M59.8105 93.4307C61.2847 94.2819 61.2926 95.6773 59.8278 96.5284L39.7544 108.194C38.2898 109.045 35.881 109.045 34.4065 108.194L21.2589 100.603C19.7726 99.7448 19.7767 98.3565 21.2416 97.5054L41.3151 85.8399C42.7796 84.9887 45.1766 84.9818 46.6629 85.8399L59.8105 93.4307Z" fill="#4C5C75"/>
<path d="M37.0843 107.646C36.2878 107.646 35.5281 107.471 35.0001 107.166L21.8516 99.5754C21.4683 99.3541 21.3291 99.1388 21.3291 99.0474C21.3291 98.9581 21.4647 98.7462 21.8365 98.5295L41.91 86.8646C42.4358 86.5601 43.1931 86.3852 43.9863 86.3852C44.7798 86.3852 45.5393 86.5601 46.0697 86.8671L59.2172 94.4568C59.5968 94.6756 59.7347 94.8934 59.7347 94.9862C59.7347 95.0751 59.6016 95.2871 59.2322 95.5027L39.1585 107.169C38.6362 107.472 37.8801 107.646 37.0843 107.646Z" fill="#1D2943"/>
<path d="M47.1697 65.4871L47.0797 97.2321C47.0766 98.3241 46.359 99.413 44.9267 100.246C42.0273 101.93 37.3186 101.938 34.4005 100.253C32.9384 99.4092 32.2116 98.3051 32.2149 97.2019L32.3046 65.4569C32.3016 66.5601 33.0285 67.6642 34.4902 68.5082C37.4087 70.193 42.1173 70.1853 45.0165 68.5005C46.449 67.668 47.1667 66.5791 47.1697 65.4871Z" fill="#F3F1FC"/>
<path d="M44.9693 62.4186C47.8875 64.1033 47.9029 66.8233 45.0166 68.5006C42.1174 70.1854 37.4087 70.1931 34.4903 68.5083C31.5721 66.8233 31.5828 64.1033 34.4823 62.4186C37.3686 60.7412 42.0512 60.7335 44.9693 62.4186Z" fill="#E9E7FC"/>
<path d="M7.97314 49.1459C8.35303 48.4811 8.828 47.8399 9.32673 47.3174C8.828 47.8637 8.35303 48.4811 7.97314 49.1459Z" fill="#4C5C75"/>
<path d="M72.0184 12.0533C71.8997 11.9821 71.7572 11.9346 71.6147 11.887C71.7098 11.9108 71.8048 11.9583 71.8997 11.9821C71.9472 12.0057 71.971 12.0295 72.0184 12.0533Z" fill="#4C5C75"/>
<path d="M73.3007 14.808C73.3007 13.4306 72.802 12.4807 72.0183 12.0533C71.8996 11.9821 71.7571 11.9346 71.6146 11.887C71.7097 11.9108 71.8046 11.9583 71.8996 11.9821L65.7492 8.39631C64.9655 7.94512 63.8969 8.01628 62.7333 8.70503L4.62485 42.3067C2.29756 43.6603 0.397837 46.9374 0.421607 49.6446L0.516543 98.4919C0.516543 99.8217 0.991509 100.771 1.75143 101.199L8.06803 104.88C8.02063 104.856 7.97309 104.808 7.92555 104.761C8.68547 105.331 9.82541 105.307 11.0839 104.595L69.1688 70.9692C71.5197 69.6156 73.3956 66.3385 73.3956 63.6551L73.3007 14.808ZM7.97309 49.1458C8.35298 48.481 8.82794 47.8398 9.32668 47.3173C8.82794 47.8636 8.35298 48.481 7.97309 49.1458Z" fill="#1D2943"/>
<path d="M7.97314 49.1458C8.35303 48.481 8.828 47.8398 9.32673 47.3173C8.828 47.8635 8.35303 48.481 7.97314 49.1458Z" fill="#1D2943"/>
<path d="M72.0184 12.0533C71.8997 11.9821 71.7572 11.9346 71.6147 11.887C71.7098 11.9108 71.8048 11.9583 71.8997 11.9821C71.9472 12.0057 71.971 12.0295 72.0184 12.0533Z" fill="#1D2943"/>
<path d="M0.421964 49.6342C0.406862 46.9439 2.30498 43.6707 4.63665 42.3108L62.7234 8.6998C63.9042 8.01227 64.9655 7.95241 65.7425 8.40051L72.0648 12.0776C71.2875 11.6292 70.2265 11.6888 69.0456 12.3615L10.959 45.9873C8.62729 47.3324 6.72917 50.6207 6.744 53.311L6.83378 102.157C6.84861 103.503 7.31209 104.43 8.0743 104.878L1.75199 101.201C0.98978 100.768 0.526302 99.826 0.526302 98.4957L0.421964 49.6342Z" fill="#4C5C75"/>
<path d="M69.0464 12.3689C71.3844 11.0191 73.2896 12.1048 73.2973 14.8022L73.3978 63.65C73.4055 66.3364 71.5126 69.6148 69.1746 70.9646L11.0907 104.584C8.75272 105.934 6.84746 104.848 6.83978 102.162L6.73928 53.314C6.73159 50.6166 8.6245 47.3379 10.9625 45.9881L69.0464 12.3689Z" fill="#1D2943"/>
<path d="M73.396 58.2647V63.6551C73.396 66.3385 71.52 69.6156 69.1691 70.9692L11.0843 104.595C9.89693 105.26 8.82829 105.331 8.06837 104.856L1.77555 101.223C1.01563 100.795 0.493122 99.7979 0.516892 98.4681V93.0775L6.83364 96.7583L73.396 58.2647Z" fill="#C9CEE2"/>
<path d="M73.3976 58.2607V63.6501C73.4053 66.3365 71.5124 69.6149 69.1744 70.9647L11.0905 104.584C8.75254 105.934 6.84728 104.848 6.8396 102.162L6.82861 96.7533L73.3976 58.2607Z" fill="#C9CEE2"/>
<path d="M6.82487 102.106L6.83091 96.7578L0.514648 93.0826L0.52618 98.461C0.491584 99.802 1.02679 100.789 1.78372 101.22L8.05688 104.868C7.29988 104.422 6.8397 103.441 6.82487 102.106Z" fill="#9EA9C9"/>
<path d="M40.1062 79.224C41.3058 78.5313 42.275 79.0834 42.2789 80.462C42.283 81.8407 41.3201 83.5084 40.1202 84.2009C38.9206 84.8936 37.9516 84.3415 37.9478 82.9629C37.9436 81.5842 38.9066 79.9165 40.1062 79.224Z" fill="#1D2943"/>
<path d="M71.3091 57.2299L8.87324 93.3639L8.81125 53.3118C8.79059 51.3535 10.2955 48.7563 11.9855 47.7671L70.0724 14.1476C70.5463 13.8796 70.8349 13.859 70.9379 13.859C71.0617 13.9005 71.2267 14.1682 71.2267 14.8074L71.3091 57.2299Z" fill="white"/>
<path d="M66.3428 48.2911C66.3428 51.0932 64.3718 54.489 61.9495 55.8901L22.9573 78.4021C21.6037 79.1858 20.3688 79.1858 19.5615 78.5208C19.6564 78.5921 19.7277 78.6632 19.8227 78.7108L15.192 75.9798C14.3847 75.5286 13.9097 74.5551 13.9097 73.154L13.791 36.4888L18.4217 39.2198L66.2241 11.6022L66.3428 48.2911Z" fill="#E3E7F0"/>
<path d="M66.228 11.6129L66.3435 48.2864C66.3515 51.0874 64.383 54.4839 61.9567 55.8847L22.9554 78.4022C20.5178 79.8095 18.5478 78.6869 18.5398 75.8859L18.4243 39.2123L66.228 11.6129Z" fill="#E3E7F0"/>
<path d="M19.8161 78.7084L15.1904 75.9766C14.395 75.517 13.9177 74.5449 13.9001 73.1486L13.7939 36.4771L18.4198 39.2088L18.5436 75.8803C18.5436 77.2767 19.0384 78.2488 19.8161 78.7084Z" fill="#C9CEE2"/>
<path d="M62.8958 5.53285C63.3359 5.27874 63.7095 5.47873 63.711 5.9974L63.846 49.5567C63.8494 50.7497 62.9945 52.2304 61.9563 52.8298L22.955 75.3472C21.9054 75.9531 21.0563 75.4563 21.0529 74.2633L20.9214 31.9489C20.918 30.7429 21.7616 29.2817 22.8111 28.6757L62.8958 5.53285Z" fill="white"/>
<path d="M18.4241 39.2124L13.7905 36.4829L60.3596 8.14404L66.2278 11.6129L18.4241 39.2124Z" fill="#C3C7CF"/>
<path d="M66.2239 11.602L18.4215 39.2196L13.7909 36.4887L13.7671 31.5732C13.7671 28.771 15.7143 25.3752 18.1602 23.9742L58.2449 0.821004C59.1711 0.298497 60.0259 0.251102 60.6196 0.607218L65.1078 3.26685C65.7727 3.57558 66.2002 4.33549 66.2002 5.45167L66.2239 11.602Z" fill="#748BFD"/>
<path d="M65.2418 3.32796C64.6408 2.97444 63.8101 3.02741 62.8732 3.55775L22.8033 26.6947C20.3641 28.1087 18.4021 31.5025 18.4021 34.2951L18.4198 39.2089L13.794 36.4772L13.7764 31.5634C13.7764 28.7706 15.7206 25.377 18.1598 23.963L58.2475 0.82594C59.1666 0.295701 60.015 0.242731 60.616 0.596152L65.2418 3.32796Z" fill="#748BFD"/>
<path d="M62.8817 3.55647C64.7099 2.50096 66.2044 3.33967 66.2104 5.45333L66.2278 11.6129L18.4241 39.2124L18.4102 34.2977C18.4022 31.4967 20.3595 28.1067 22.797 26.6994L62.8817 3.55647Z" fill="#8FABFE"/>
<path d="M23.011 30.0232C24.0123 29.4451 24.836 29.9145 24.8393 31.065C24.8425 32.2041 24.0241 33.6216 23.0228 34.1996C22.0115 34.7835 21.2078 34.3026 21.2046 33.1635C21.2013 32.0129 21.9997 30.607 23.011 30.0232Z" fill="white"/>
<path d="M28.8186 26.6701C29.8199 26.092 30.6436 26.5614 30.6469 27.7119C30.6501 28.851 29.8317 30.2685 28.8304 30.8466C27.8192 31.4304 27.0154 30.9495 27.0122 29.8104C27.009 28.6599 27.8073 27.254 28.8186 26.6701Z" fill="white"/>
<path d="M34.6262 23.3172C35.6275 22.7391 36.4512 23.2085 36.4545 24.359C36.4577 25.4982 35.6393 26.9156 34.6381 27.4937C33.6267 28.0776 32.8231 27.5966 32.8198 26.4575C32.8166 25.307 33.6149 23.9011 34.6262 23.3172Z" fill="white"/>
<path d="M62.545 7.98425C63.0308 7.70377 63.4322 7.93249 63.4338 8.49068C63.4354 9.05985 63.0366 9.75051 62.5508 10.031L45.4244 19.9189C44.9386 20.1994 44.5373 19.9707 44.5356 19.4015C44.5341 18.8433 44.9328 18.1527 45.4186 17.8722L62.545 7.98425Z" fill="white"/>
<path d="M33.6011 35.2949L33.6336 46.7637L23.6526 52.5262L23.6201 41.0574L33.6011 35.2949Z" fill="#DBA660"/>
<path d="M47.3544 27.3542L47.3869 38.8231L37.3978 44.5903L37.3652 33.1215L47.3544 27.3542Z" fill="#8FABFE"/>
<path d="M61.1 19.4183L61.1325 30.8872L51.1434 36.6544L51.1108 25.1856L61.1 19.4183Z" fill="#FFD06C"/>
<path d="M33.646 51.5746L33.6486 52.4981L23.6677 58.2606L23.665 57.3371L33.646 51.5746Z" fill="#E3E7F0"/>
<path d="M31.3669 50.2665L31.3695 51.19L23.6603 55.6409L23.6577 54.7174L31.3669 50.2665Z" fill="#E3E7F0"/>
<path d="M61.69 38.1339L61.6926 39.0574L23.6603 61.0153L23.6577 60.0918L61.69 38.1339Z" fill="#E3E7F0"/>
<path d="M61.69 40.8212L61.6926 41.7448L23.6603 63.7027L23.6577 62.7792L61.69 40.8212Z" fill="#E3E7F0"/>
<path d="M61.69 43.5083L61.6926 44.4318L23.6603 66.3898L23.6577 65.4663L61.69 43.5083Z" fill="#E3E7F0"/>
<path d="M61.6926 49.8063L23.6603 71.7642L23.6577 68.1535L61.69 46.1955L61.6926 49.8063Z" fill="#57B3FE"/>
<path d="M45.112 42.3306L45.1146 43.2541L37.4054 47.705L37.4028 46.7815L45.112 42.3306Z" fill="#E3E7F0"/>
<path d="M47.3998 43.6341L47.4024 44.5576L37.4133 50.3249L37.4106 49.4013L47.3998 43.6341Z" fill="#E3E7F0"/>
<path d="M58.8576 34.3947L58.8602 35.3183L51.1511 39.7692L51.1484 38.8456L58.8576 34.3947Z" fill="#E3E7F0"/>
<path d="M61.1449 35.6982L61.1475 36.6218L51.1584 42.389L51.1558 41.4655L61.1449 35.6982Z" fill="#E3E7F0"/>
<path d="M30.0758 39.4582C30.3516 39.2989 30.6188 39.2573 30.8329 39.3351L32.6171 40.0014L31.5736 41.8087L30.8269 41.4172L30.8399 45.9801L26.433 48.5244L26.4202 43.9887L25.6869 45.1937L24.6367 44.6191L26.4705 41.8434C26.6805 41.5276 26.9442 41.2662 27.217 41.1087L27.6292 40.8707C27.622 41.5831 28.1192 41.7006 28.6275 41.4072C29.0966 41.1363 29.5751 40.5156 29.6755 39.6893C29.6852 39.6836 29.8712 39.5763 30.0758 39.4582Z" fill="white"/>
<path d="M45.0987 31.0959L46.319 36.2959L42.9318 38.2515L42.3736 36.53L41.8598 38.8705L38.4331 40.8489L39.62 34.2591L45.0987 31.0959Z" fill="white"/>
<path d="M59.1147 26.9131C58.8441 26.6975 58.468 26.7342 57.9864 27.0094C57.5048 27.2891 57.1287 27.6928 56.8627 28.211C56.6013 28.7247 56.4683 29.2705 56.4683 29.8255C56.4728 30.3851 56.6058 30.7749 56.8673 30.9859C57.1379 31.1969 57.514 31.1648 57.9956 30.8896C58.4772 30.6098 58.8579 30.2062 59.1193 29.6833C59.3807 29.1742 59.5137 28.6284 59.5137 28.0689C59.5092 27.5139 59.3761 27.124 59.1147 26.9131ZM57.4085 30.1237C57.2663 29.9906 57.1975 29.7476 57.1975 29.4081C57.1975 29.0687 57.2663 28.7431 57.4039 28.4495C57.5461 28.1514 57.7342 27.9359 57.9864 27.7937C58.2387 27.6469 58.4313 27.6377 58.5735 27.7753C58.7157 27.9083 58.7845 28.1514 58.7845 28.4908C58.7891 28.8302 58.7157 29.1513 58.5781 29.4494C58.4359 29.7476 58.2478 29.9585 57.991 30.1053C57.7433 30.2521 57.5507 30.2567 57.4085 30.1237Z" fill="#4C5C75"/>
<path d="M58.3397 23.2896C58.3397 23.3768 58.3167 23.4777 58.2663 23.5878L54.5741 32.5682C54.5374 32.6462 54.4962 32.7242 54.4411 32.793C54.3861 32.8664 54.331 32.9214 54.2668 32.9581C54.1751 33.0085 54.0925 33.0177 54.0237 32.981C53.955 32.9443 53.9229 32.8709 53.9229 32.7563C53.9229 32.6875 53.9366 32.6095 53.9687 32.527L57.693 23.4869C57.7618 23.3217 57.8581 23.2025 57.9865 23.1291C58.0829 23.0695 58.17 23.0557 58.2342 23.0832C58.303 23.1062 58.3351 23.1796 58.3397 23.2896Z" fill="#4C5C75"/>
<path d="M55.3674 25.106C55.1059 24.8904 54.7253 24.9271 54.2437 25.2069C53.7575 25.4821 53.3814 25.8857 53.12 26.404C52.8585 26.9223 52.7255 27.4635 52.7301 28.0184C52.7301 28.578 52.8631 28.9725 53.1291 29.1788C53.3906 29.3944 53.7713 29.3577 54.2528 29.0825C54.7344 28.8028 55.1151 28.3991 55.3765 27.8809C55.638 27.3672 55.771 26.826 55.7664 26.2664C55.7664 25.7068 55.6334 25.317 55.3674 25.106ZM54.8307 27.6423C54.6932 27.9405 54.5051 28.156 54.2528 28.2982C54.0006 28.445 53.808 28.4496 53.6658 28.3166C53.5282 28.1836 53.4502 27.9405 53.4502 27.6011C53.4502 27.2617 53.5236 26.936 53.6612 26.6425C53.8034 26.3443 53.9914 26.1288 54.2437 25.9866C54.4959 25.8398 54.6886 25.8352 54.8262 25.9682C54.9683 26.1013 55.0417 26.3443 55.0463 26.6838C55.0463 27.0232 54.9729 27.3488 54.8307 27.6423Z" fill="#4C5C75"/>
<path d="M46.3193 37.5182L50.6036 38.742L47.9535 39.818L46.9754 43.2477L46.3193 37.5182Z" fill="#F45170"/>
<path d="M36.7995 85.7395L19.0606 95.9981L12.0078 91.8424L13.5513 66.2195L31.2189 56.0084L32.0264 57.1008L35.1848 58.2643L36.7995 85.7395Z" fill="#FEBC1F"/>
<path d="M13.5405 66.2141L31.2193 56.0001L32.0185 57.103L35.1834 58.2699L17.5366 68.5639L15.6185 66.6457L13.5405 66.2141Z" fill="#FFD06C"/>
<path d="M31.8467 57.3292V59.9019L34.5488 58.3257L31.8467 57.3292Z" fill="#E59033"/>
<path d="M31.1429 56.3582L14.2935 66.0931L15.753 66.3963L17.5807 68.224L31.8467 59.902V57.3294L31.1429 56.3582Z" fill="#F9A83D"/>
<path d="M19.0719 95.9652L15.5122 91.1011L15.6208 66.645L17.5366 68.5607L19.0719 95.9652Z" fill="#F9A83D"/>
<path d="M15.6185 66.6459L13.5405 66.2144L12 91.8468L19.0658 95.9933L15.5099 91.0967L15.6185 66.6459Z" fill="#FEBC1F"/>
<path d="M35.1834 58.27L17.5366 68.564L19.0658 95.9932L36.7958 85.7469L35.1834 58.27Z" fill="#FEBC1F"/>
<path d="M12 91.8467L15.5099 91.0966L19.0658 95.9932L12 91.8467Z" fill="#FFD06C"/>
<path d="M20.7591 64.6785C20.7591 65.3034 20.3244 66.0643 19.7809 66.3768C19.4412 66.567 19.1423 66.5398 18.9657 66.336C18.857 66.2273 18.7891 66.0507 18.7891 65.8061C18.7891 65.1948 19.2239 64.4338 19.7673 64.1214C19.9303 64.0263 20.0662 63.9855 20.1885 63.9855C20.5281 63.9855 20.7591 64.2437 20.7591 64.6785Z" fill="#FFD06C"/>
<path d="M26.4653 61.3768C26.4653 62.0019 26.0305 62.7627 25.4871 63.0752C25.1338 63.279 24.8349 63.2383 24.6583 63.0345C24.5632 62.9121 24.5088 62.7355 24.5088 62.5182C24.5088 61.8931 24.9436 61.1323 25.4735 60.8198C25.6229 60.7247 25.7723 60.684 25.8947 60.684C26.2343 60.6704 26.4653 60.9285 26.4653 61.3768Z" fill="#FFD06C"/>
<path d="M20.3379 64.5018C20.3379 65.1268 19.9032 65.8876 19.3597 66.2002C19.2102 66.2817 19.0879 66.3224 18.9657 66.336C18.857 66.2273 18.7891 66.0507 18.7891 65.8061C18.7891 65.1948 19.2239 64.4338 19.7673 64.1214C19.9303 64.0263 20.0662 63.9855 20.1885 63.9855C20.2836 64.1078 20.3379 64.2844 20.3379 64.5018Z" fill="white"/>
<path d="M26.0577 61.2004C26.0577 61.8253 25.6229 62.5862 25.0659 62.8987C24.93 62.9938 24.7805 63.0346 24.6583 63.0346C24.5632 62.9122 24.5088 62.7356 24.5088 62.5183C24.5088 61.8932 24.9436 61.1324 25.4735 60.8199C25.6229 60.7248 25.7723 60.6841 25.8947 60.6841C25.9898 60.7927 26.0577 60.9693 26.0577 61.2004Z" fill="white"/>
<path d="M30.9451 63.2634C30.8151 63.1334 30.629 63.0775 30.4431 63.0775C30.2386 63.0775 30.0526 63.1334 29.8853 63.2449C29.2716 63.6168 28.8066 64.4165 28.8066 65.1417C28.8066 65.402 28.8624 65.6438 28.9926 65.8112C29.1414 65.9785 29.3459 66.0529 29.569 66.0529C29.7551 66.0529 29.941 65.9971 30.1084 65.8856C30.722 65.5508 31.2241 64.714 31.2241 63.9887C31.2241 63.6912 31.1126 63.4495 30.9451 63.2634ZM30.5547 64.7512C30.5547 64.7698 30.5361 64.7698 30.5361 64.7883C30.3873 64.993 30.2757 65.1603 30.1269 65.2905L30.1084 65.3091C30.0526 65.3648 29.9968 65.402 29.941 65.4393C29.9224 65.4579 29.9038 65.4764 29.8853 65.495C29.662 65.6252 29.4575 65.6252 29.3645 65.495C29.2902 65.4207 29.2529 65.2905 29.2529 65.1417C29.2529 64.9744 29.2902 64.8442 29.3273 64.714C29.4017 64.4908 29.4947 64.2863 29.6249 64.1189C29.7551 63.933 29.941 63.747 30.1084 63.6354C30.2014 63.5797 30.3315 63.561 30.4059 63.5424H30.4431C30.4989 63.5424 30.5918 63.561 30.629 63.6168C30.6849 63.6726 30.7592 63.8028 30.7592 63.9887C30.7592 64.2119 30.6663 64.4908 30.5547 64.7512Z" fill="#F45170"/>
<path d="M25.0688 66.4994C24.9386 66.3692 24.7527 66.3134 24.5666 66.3134C24.3621 66.3134 24.1762 66.3692 24.0088 66.4808C23.3951 66.8527 22.9302 67.6523 22.9302 68.3775C22.9302 68.6379 22.986 68.8796 23.1162 69.0471C23.265 69.2144 23.4695 69.2888 23.6927 69.2888C23.8786 69.2888 24.0646 69.233 24.2319 69.1214C24.8456 68.7867 25.3478 67.9498 25.3478 67.2246C25.3478 66.9271 25.2362 66.6853 25.0688 66.4994ZM24.7154 67.8569C24.7154 67.8941 24.6968 67.9498 24.6782 67.9871C24.6782 68.0057 24.6597 68.0057 24.6597 68.0243C24.548 68.1916 24.4551 68.3218 24.3249 68.4333C24.3064 68.4706 24.2878 68.5077 24.2505 68.5263L24.2319 68.5449C24.1762 68.6008 24.1204 68.6379 24.0646 68.6751C24.046 68.6937 24.0274 68.7123 24.0088 68.7308C23.7856 68.861 23.5811 68.861 23.4882 68.7308C23.4137 68.6565 23.3766 68.5263 23.3766 68.3775C23.3766 68.2102 23.4137 68.08 23.4509 67.9498C23.4509 67.9312 23.4695 67.9126 23.4695 67.8941C23.5439 67.6895 23.6368 67.5035 23.7484 67.3547C23.767 67.3361 23.767 67.3176 23.8043 67.299C23.9158 67.1316 24.0831 66.9643 24.2319 66.8712C24.3249 66.8155 24.4551 66.7969 24.5295 66.7783H24.5666C24.6225 66.7783 24.7154 66.7969 24.7527 66.8527C24.8084 66.9084 24.8829 67.0386 24.8829 67.2246C24.8829 67.4106 24.827 67.6337 24.7154 67.8569Z" fill="#F45170"/>
<path d="M30.5547 64.7513C30.5547 64.7699 30.5361 64.7699 30.5361 64.7884C30.3873 64.993 30.2757 65.1603 30.1269 65.2905L30.1084 65.3091C30.0526 65.3649 29.9968 65.4021 29.941 65.4393C29.9224 65.4579 29.9038 65.4764 29.8852 65.4951C29.662 65.6252 29.4575 65.6252 29.3645 65.4951C29.2902 65.4207 29.2529 65.2905 29.2529 65.1417C29.2529 64.9744 29.2902 64.8442 29.3273 64.7141C29.4017 64.4909 29.4947 64.2864 29.6249 64.119C29.7551 63.933 29.941 63.747 30.1084 63.6354C30.2013 63.5797 30.3315 63.5611 30.4059 63.5425H30.4431C30.4988 63.5425 30.5918 63.5611 30.629 63.6168C30.6849 63.6727 30.7592 63.8029 30.7592 63.9888C30.7592 64.2119 30.6663 64.4909 30.5547 64.7513Z" fill="#FFD06C"/>
<path d="M24.7153 67.8569C24.7153 67.8942 24.6967 67.9499 24.6781 67.9871C24.6781 68.0057 24.6596 68.0057 24.6596 68.0243C24.5479 68.1917 24.455 68.3218 24.3248 68.4334C24.3063 68.4706 24.2877 68.5078 24.2504 68.5264L24.2318 68.545C24.1761 68.6008 24.1202 68.6379 24.0645 68.6752C24.0459 68.6938 24.0273 68.7124 24.0087 68.7309C23.7855 68.8611 23.581 68.8611 23.488 68.7309C23.4136 68.6566 23.3765 68.5264 23.3765 68.3776C23.3765 68.2103 23.4136 68.0801 23.4508 67.9499C23.4508 67.9313 23.4694 67.9127 23.4694 67.8942C23.5438 67.6895 23.6367 67.5036 23.7483 67.3548C23.7669 67.3362 23.7669 67.3177 23.8041 67.2991C23.9157 67.1317 24.083 66.9643 24.2318 66.8713C24.3248 66.8155 24.455 66.7969 24.5294 66.7783H24.5665C24.6224 66.7783 24.7153 66.7969 24.7526 66.8528C24.8083 66.9085 24.8828 67.0387 24.8828 67.2246C24.8828 67.4106 24.8269 67.6338 24.7153 67.8569Z" fill="#FFD06C"/>
<path d="M31.0012 69.0284C31.0012 70.9624 29.6437 73.3056 27.9514 74.2354C27.4865 74.5144 27.0216 74.6259 26.5939 74.6259C26.2405 74.6259 25.9244 74.5515 25.6454 74.3842C25.0131 74.0308 24.6599 73.2683 24.6599 72.3014L24.6413 69.14C24.6413 68.8796 24.5297 68.6193 24.3251 68.4334C24.2693 68.3775 24.2135 68.3218 24.1392 68.2846L23.4697 67.8941C23.5441 67.6895 23.637 67.5035 23.7486 67.3547C23.7672 67.3361 23.7672 67.3176 23.8044 67.299L24.4739 67.6895C24.5668 67.7267 24.6413 67.7825 24.7156 67.8569C25.0876 68.173 25.3293 68.6379 25.3293 69.14V72.3014C25.3293 73.0081 25.5711 73.5659 25.9988 73.8077C26.4265 74.0495 26.9844 73.9936 27.6353 73.6403C29.0857 72.822 30.3131 70.702 30.3131 69.0284V65.8671C30.3131 65.6812 30.2573 65.5137 30.1643 65.3464C30.1457 65.3278 30.1457 65.3092 30.1271 65.2906C30.09 65.2349 30.0527 65.1976 30.0155 65.1604C29.9598 65.1047 29.9039 65.0488 29.811 64.9931L29.3275 64.7141C29.4019 64.491 29.4949 64.2864 29.6251 64.119L30.1643 64.4166C30.2388 64.4724 30.3131 64.5282 30.4061 64.6025C30.4619 64.6398 30.5176 64.6955 30.5549 64.7513C30.5735 64.77 30.5735 64.7885 30.592 64.8071C30.8524 65.0861 30.9826 65.4765 30.9826 65.8671L31.0012 69.0284Z" fill="#4C5C75"/>
<path d="M66.8142 86.9979C66.4239 86.8767 66.0604 86.8498 65.7373 86.8902C66.0604 86.8364 66.4239 86.8767 66.8142 86.9979Z" fill="#1D2943"/>
<path d="M70.4624 96.3402C70.5297 96.2998 70.5835 96.2595 70.6374 96.2191C70.6374 96.2325 70.6239 96.2325 70.6239 96.246C70.57 96.2863 70.5162 96.3268 70.4624 96.3402Z" fill="#1D2943"/>
<path d="M70.4625 85.7998C69.399 85.1806 68.4433 85.1267 67.7567 85.5306L65.0105 87.119C65.1721 87.0248 65.3337 86.971 65.5221 86.9171C64.5529 87.1594 63.9201 88.1018 63.9067 89.569C63.9067 91.9786 65.6028 94.9133 67.7028 96.1248C68.7933 96.7575 69.7759 96.7979 70.4625 96.3402C70.5298 96.2998 70.5836 96.2595 70.6375 96.219C70.6375 96.2325 70.624 96.2325 70.624 96.246L73.1413 94.7921C73.8279 94.4018 74.2452 93.5537 74.2452 92.3556C74.2587 89.9325 72.5625 87.0113 70.4625 85.7998ZM65.7375 86.8902C66.0606 86.8364 66.424 86.8767 66.8144 86.9979C66.424 86.8767 66.0606 86.8498 65.7375 86.8902Z" fill="#1D2943"/>
<path d="M66.8142 86.9979C66.4239 86.8767 66.0604 86.8498 65.7373 86.8902C66.0604 86.8364 66.4239 86.8767 66.8142 86.9979Z" fill="#1D2943"/>
<path d="M70.4624 96.3402C70.5297 96.2998 70.5835 96.2595 70.6374 96.2191C70.6374 96.2325 70.6239 96.2325 70.6239 96.246C70.57 96.2863 70.5162 96.3268 70.4624 96.3402Z" fill="#1D2943"/>
<path d="M74.2429 92.3534C74.2429 93.5511 73.8242 94.3983 73.1427 94.7975L70.3968 96.3845C71.0783 95.9951 71.4971 95.148 71.5068 93.9504C71.5068 91.5355 69.8224 88.6047 67.7192 87.3876C66.6578 86.7839 65.7036 86.7255 65.0122 87.1247L67.7581 85.5277C68.4495 85.1286 69.4036 85.187 70.4651 85.8004C72.5585 87.0079 74.2527 89.9387 74.2429 92.3534Z" fill="#1D2943"/>
<path d="M67.7234 87.3921C69.8247 88.6052 71.5164 91.5353 71.5096 93.9499C71.5026 96.3643 69.8 97.3347 67.6986 96.1214C65.6037 94.9119 63.9059 91.9783 63.9126 89.5637C63.9195 87.1492 65.6284 86.1825 67.7234 87.3921Z" fill="#4C5C75"/>
<path d="M70.4608 93.3511C70.4608 95.0996 69.2254 95.8011 67.7071 94.9216C66.1889 94.0421 64.9536 91.9168 64.9536 90.1681C64.964 88.4197 66.1995 87.7181 67.7177 88.5873C69.2462 89.4772 70.4713 91.5921 70.4608 93.3511Z" fill="white"/>
<path d="M67.707 93.4389C67.8942 93.5469 68.0409 93.8008 68.0402 94.0159C68.0396 94.2311 67.892 94.315 67.7049 94.2069C67.5244 94.1028 67.3777 93.8489 67.3784 93.6338C67.379 93.4188 67.5265 93.3347 67.707 93.4389Z" fill="#4C5C75"/>
<path d="M69.0201 90.5761C69.1055 90.6254 69.1904 90.7128 69.2544 90.824C69.3877 91.0547 69.387 91.2928 69.253 91.3616C69.1892 91.4017 69.1055 91.3919 69.0211 91.3432C68.9367 91.2945 68.8517 91.2069 68.785 91.0915C68.6585 90.8721 68.6523 90.6301 68.7865 90.5537C68.8527 90.516 68.9367 90.528 69.0201 90.5761Z" fill="#4C5C75"/>
<path d="M66.4044 92.0665C66.4898 92.1158 66.5747 92.2034 66.6387 92.3144C66.772 92.5452 66.7713 92.7833 66.6372 92.8598C66.5734 92.8961 66.4898 92.8843 66.4054 92.8357C66.321 92.7869 66.2359 92.7011 66.1693 92.5895C66.0427 92.3627 66.0366 92.1207 66.1708 92.0442C66.2371 92.0066 66.321 92.0185 66.4044 92.0665Z" fill="#4C5C75"/>
<path d="M65.8744 90.2652C66.0615 90.3734 66.2014 90.6234 66.201 90.8308C66.2003 91.0458 66.0594 91.1337 65.8722 91.0257C65.6784 90.9138 65.5385 90.6637 65.5391 90.4486C65.5398 90.2413 65.6806 90.1532 65.8744 90.2652Z" fill="#4C5C75"/>
<path d="M66.6471 89.3187C66.7804 89.5495 66.7797 89.7877 66.6456 89.8564C66.4859 89.9568 66.2726 89.7508 66.1777 89.5862C66.0443 89.3632 66.045 89.125 66.1792 89.0486C66.3385 88.9576 66.5537 89.1514 66.6471 89.3187Z" fill="#4C5C75"/>
<path d="M69.2457 93.8196C69.3791 94.0504 69.3783 94.2886 69.2443 94.3649C69.1805 94.4013 69.0968 94.3895 69.0125 94.3408C68.9279 94.292 68.8429 94.2064 68.7763 94.0949C68.643 93.864 68.6437 93.6258 68.7778 93.5495C68.9372 93.4586 69.1525 93.6522 69.2457 93.8196Z" fill="#4C5C75"/>
<path d="M67.7149 90.6198C68.263 90.9363 68.7027 91.6981 68.7008 92.3279C68.6992 92.9501 68.2565 93.2024 67.7084 92.886C67.1669 92.5731 66.7271 91.8115 66.729 91.1894C66.7308 90.5596 67.1733 90.3073 67.7149 90.6198Z" fill="#4C5C75"/>
<path d="M67.7189 89.2066C67.9061 89.3145 68.0526 89.5685 68.052 89.7836C68.0515 89.9986 67.9038 90.075 67.7167 89.9669C67.5362 89.8628 67.3896 89.6165 67.3901 89.4014C67.3908 89.1863 67.5383 89.1023 67.7189 89.2066Z" fill="#4C5C75"/>
<path d="M69.558 92.3917C69.7451 92.4998 69.8918 92.7537 69.8912 92.961C69.8905 93.1761 69.743 93.2603 69.5558 93.1522C69.3688 93.0441 69.2221 92.7902 69.2227 92.5751C69.2232 92.3677 69.3708 92.2837 69.558 92.3917Z" fill="#4C5C75"/>
<path d="M87.7338 99.6382C87.7607 99.6382 87.7877 99.6248 87.8146 99.6113C87.7607 99.6248 87.7204 99.6517 87.6665 99.6786C87.68 99.6651 87.7069 99.6517 87.7338 99.6382Z" fill="#1D2943"/>
<path d="M93.0508 98.386C91.9873 97.7668 91.0315 97.7129 90.3316 98.1167L87.7334 99.6379C87.7604 99.6379 87.7873 99.6245 87.8142 99.611C87.7604 99.6245 87.72 99.6514 87.6661 99.6783C86.9393 100.055 86.4815 100.917 86.4815 102.155C86.468 104.578 88.1777 107.526 90.2777 108.738C91.422 109.397 92.4585 109.411 93.1585 108.899L95.7431 107.405C96.4296 107.015 96.8469 106.167 96.8469 104.955C96.8469 102.532 95.1508 99.5975 93.0508 98.386ZM90.3046 99.9879C89.995 99.7994 89.6989 99.6783 89.4027 99.5841C89.6989 99.6648 89.995 99.7994 90.3046 99.9744C90.5604 100.123 90.8297 100.311 91.072 100.513C90.8297 100.311 90.5604 100.136 90.3046 99.9879Z" fill="#1D2943"/>
<path d="M87.7338 99.6381C87.7607 99.6381 87.7877 99.6247 87.8146 99.6113C87.7607 99.6247 87.7204 99.6516 87.6665 99.6786C87.68 99.6651 87.7069 99.6516 87.7338 99.6381Z" fill="#1D2943"/>
<path d="M96.8438 104.959C96.8438 106.16 96.4238 107.01 95.7401 107.411L92.9854 109.003C93.6691 108.612 94.0892 107.762 94.0989 106.561C94.0989 104.138 92.4091 101.198 90.2991 99.9773C89.2344 99.3716 88.2771 99.313 87.5835 99.7135L90.3382 98.1114C91.0318 97.711 91.9889 97.7696 93.0538 98.385C95.154 99.5963 96.8536 102.537 96.8438 104.959Z" fill="#1D2943"/>
<path d="M90.3034 99.9817C92.4115 101.199 94.1086 104.138 94.1018 106.561C94.0948 108.983 92.3867 109.956 90.2786 108.739C88.177 107.526 86.4737 104.583 86.4805 102.16C86.4874 99.738 88.2018 98.7683 90.3034 99.9817Z" fill="#4C5C75"/>
<path d="M93.0492 105.96C93.0492 107.714 91.8099 108.418 90.2867 107.535C88.7637 106.653 87.5244 104.521 87.5244 102.767C87.5348 101.013 88.7743 100.309 90.2974 101.181C91.8308 102.074 93.0598 104.195 93.0492 105.96Z" fill="white"/>
<path d="M90.2866 106.048C90.4745 106.156 90.6216 106.411 90.6209 106.627C90.6204 106.843 90.4723 106.927 90.2845 106.818C90.1035 106.714 89.9563 106.459 89.957 106.243C89.9576 106.028 90.1056 105.943 90.2866 106.048Z" fill="#4C5C75"/>
<path d="M91.6036 103.176C91.6894 103.225 91.7745 103.313 91.8387 103.425C91.9724 103.656 91.9717 103.895 91.8373 103.964C91.7734 104.004 91.6894 103.994 91.6047 103.945C91.52 103.897 91.4347 103.809 91.3678 103.693C91.2409 103.473 91.2347 103.23 91.3694 103.153C91.4358 103.116 91.52 103.128 91.6036 103.176Z" fill="#4C5C75"/>
<path d="M89.2152 104.92C89.3489 105.151 89.3482 105.39 89.2137 105.467C89.0532 105.558 88.8396 105.356 88.7444 105.196C88.6173 104.968 88.6112 104.726 88.7459 104.649C88.9088 104.556 89.1204 104.755 89.2152 104.92Z" fill="#4C5C75"/>
<path d="M88.4482 102.864C88.6359 102.973 88.7763 103.223 88.7758 103.431C88.7751 103.647 88.6338 103.735 88.446 103.627C88.2516 103.515 88.1112 103.264 88.1118 103.048C88.1125 102.84 88.2538 102.752 88.4482 102.864Z" fill="#4C5C75"/>
<path d="M89.2236 101.914C89.3573 102.146 89.3566 102.385 89.2221 102.454C89.0619 102.555 88.848 102.348 88.7527 102.183C88.6189 101.959 88.6196 101.72 88.7543 101.644C88.9141 101.552 89.13 101.747 89.2236 101.914Z" fill="#4C5C75"/>
<path d="M91.8305 106.43C91.9643 106.661 91.9636 106.9 91.8291 106.977C91.6691 107.068 91.4552 106.866 91.3596 106.706C91.2259 106.474 91.2266 106.235 91.3611 106.159C91.5211 106.068 91.737 106.262 91.8305 106.43Z" fill="#4C5C75"/>
<path d="M90.2947 103.22C90.8446 103.537 91.2857 104.302 91.2838 104.933C91.2822 105.558 90.8381 105.811 90.2882 105.493C89.745 105.179 89.3038 104.415 89.3057 103.791C89.3074 103.159 89.7514 102.906 90.2947 103.22Z" fill="#4C5C75"/>
<path d="M90.2986 101.802C90.4863 101.91 90.6334 102.165 90.6328 102.381C90.6322 102.597 90.4841 102.673 90.2964 102.565C90.1153 102.46 89.9682 102.213 89.9688 101.998C89.9695 101.782 90.1174 101.697 90.2986 101.802Z" fill="#4C5C75"/>
<path d="M92.1435 104.997C92.3313 105.106 92.4784 105.361 92.4778 105.569C92.4771 105.784 92.3292 105.869 92.1413 105.76C91.9537 105.652 91.8065 105.397 91.8071 105.181C91.8077 104.973 91.9558 104.889 92.1435 104.997Z" fill="#4C5C75"/>
<path d="M116.729 90.7806L116.716 97.6324L97.7082 108.684L97.7217 101.819L92.8486 96.2863L111.856 85.2478L116.729 90.7806Z" fill="#E9E7FC"/>
<path d="M97.725 101.82L116.733 90.7742L116.713 97.6378L97.7056 108.684L97.725 101.82Z" fill="#E9E7FC"/>
<path d="M92.8516 96.2923L111.859 85.2462L116.733 90.7742L97.7248 101.82L92.8516 96.2923Z" fill="#F3F1FC"/>
<path d="M94.6133 96.5783L111.624 86.6921L114.971 90.4885L97.9595 100.375L94.6133 96.5783Z" fill="#DEDFFB"/>
<path d="M97.7295 101.821L97.7069 108.683L94.0947 106.599V106.554C94.0947 104.131 92.3961 101.198 90.2899 99.9865C88.195 98.7748 86.4738 99.7373 86.4738 102.161V102.195L71.4925 93.5433C71.3227 91.2219 69.692 88.5722 67.7217 87.4285C65.7401 86.2735 64.1095 87.0661 63.9283 89.1724L59.8213 86.8065L59.8666 69.4133L85.9642 84.4843L92.849 96.2949L97.7295 101.821Z" fill="#DEDFFB"/>
<path d="M97.7295 101.819L97.7069 108.681L95.5667 107.447L94.0947 106.597V106.552C94.0947 104.129 92.3961 101.196 90.2899 99.9842C88.195 98.7726 86.4738 99.7351 86.4738 102.158V102.192L85.4547 101.603L71.4925 93.541C71.3227 91.2197 69.692 88.5699 67.7217 87.4263C65.7401 86.2712 64.1095 87.0639 63.9283 89.1701L59.8213 86.8042L59.8666 69.411L85.9642 84.4821L92.849 96.2927L97.7295 101.819Z" fill="#DEDFFB"/>
<path d="M91.3317 95.9303L79.7476 89.238V82.206L85.1376 85.3087L91.3317 95.9303Z" fill="#4C5C75"/>
<path d="M91.3317 95.9303L86.9041 93.3712L83.8241 91.5934L82.9522 91.0951L82.0463 90.5629L79.7476 89.238V82.206L81.1404 83.01L82.0463 83.5309L82.9182 84.0292L85.1376 85.3087L86.1455 87.0412L91.3317 95.9303Z" fill="#423D9B"/>
<path d="M72.9648 94.3903L71.4928 93.541C71.3229 91.2197 69.6923 88.5699 67.722 87.4263C65.7403 86.2712 64.1097 87.0639 63.9285 89.1701L62.7056 88.468C62.8641 85.4446 65.1062 84.2669 67.8465 85.8523C70.5982 87.4489 72.8403 91.197 72.9648 94.3903Z" fill="#E9E7FC"/>
<path d="M95.5666 107.277V107.447L94.0946 106.597V106.552C94.0946 104.129 92.396 101.196 90.2898 99.9842C88.1949 98.7726 86.4737 99.7351 86.4737 102.158V102.192L85.4546 101.603V101.434C85.4659 98.229 87.7419 96.9381 90.5276 98.5461C93.3245 100.165 95.578 104.061 95.5666 107.277Z" fill="#E9E7FC"/>
<path d="M98.3736 108.293L98.1697 108.161L97.1064 107.873L98.3683 106.983L98.3736 108.293Z" fill="#111D33"/>
<path d="M117.308 96.0574V97.3497L98.3678 108.294L97.7082 108.684V108.671L95.689 107.553V106.248L96.2543 105.911L97.7082 106.705L116.729 95.7208L117.308 96.0574Z" fill="#111D33"/>
<path d="M117.307 96.0529L98.2803 107.036L97.706 107.369L95.6943 106.245L96.2573 105.912L97.706 106.703L116.733 95.7199L117.307 96.0529Z" fill="#4C5C75"/>
<path d="M117.307 96.0529V97.3531L98.374 108.294L97.7061 108.681V107.369L98.374 106.982L117.307 96.0529Z" fill="#1D2943"/>
<path d="M95.6942 106.245L95.689 107.555L97.7049 108.675L97.7102 107.365L95.6942 106.245Z" fill="#111D33"/>
<path d="M100.618 101.823C101.114 101.537 101.523 101.759 101.525 102.351C101.526 102.931 101.12 103.625 100.624 103.911C100.119 104.203 99.719 103.975 99.7173 103.394C99.7157 102.802 100.113 102.114 100.618 101.823Z" fill="#FFD06C"/>
<path d="M98.8877 102.553L102.337 100.562L102.345 103.186L98.8951 105.177L98.8877 102.553ZM100.624 103.911C101.12 103.625 101.526 102.931 101.525 102.351C101.523 101.759 101.114 101.537 100.618 101.823C100.113 102.115 99.7157 102.802 99.7173 103.394C99.719 103.975 100.119 104.203 100.624 103.911Z" fill="#F45170"/>
<path d="M113.823 94.1985C114.319 93.9124 114.719 94.1403 114.72 94.732C114.722 95.3126 114.325 96.0005 113.829 96.2865C113.324 96.5783 112.915 96.3562 112.913 95.7756C112.911 95.1837 113.318 94.4903 113.823 94.1985Z" fill="#FFD06C"/>
<path d="M112.093 94.9293L115.543 92.9376L115.55 95.5615L112.101 97.5532L112.093 94.9293ZM113.83 96.2866C114.325 96.0005 114.722 95.3126 114.721 94.732C114.719 94.1403 114.319 93.9125 113.824 94.1986C113.318 94.4904 112.912 95.1836 112.913 95.7756C112.915 96.3562 113.324 96.5783 113.83 96.2866Z" fill="#F45170"/>
<path d="M111.549 95.3662L111.551 96.0473L102.884 101.052L102.882 100.37L111.549 95.3662Z" fill="white"/>
<path d="M111.554 96.8514L111.556 97.5324L102.888 102.537L102.886 101.856L111.554 96.8514Z" fill="white"/>
<path d="M80.8878 91.1225C80.8449 91.1225 80.8015 91.1116 80.7616 91.089L79.5658 90.4001C79.4451 90.3307 79.4037 90.1759 79.4731 90.0552C79.5426 89.9345 79.6959 89.8931 79.8181 89.9626L81.0139 90.6514C81.1346 90.7209 81.176 90.8756 81.1065 90.9963C81.0597 91.0771 80.975 91.1225 80.8878 91.1225Z" fill="#4C5C75"/>
<path d="M111.857 85.2478L92.8489 96.2863L85.9566 84.4806L59.8682 69.4171L78.8758 58.3652L104.964 73.4286L111.857 85.2478Z" fill="#DEDFFB"/>
<path d="M104.971 73.434L85.9629 84.4801L59.8701 69.4155L78.8779 58.3693L104.971 73.434Z" fill="#F3F1FC"/>
<path d="M62.1289 69.412L78.8795 59.678L102.711 73.4371L85.9612 83.1712L62.1289 69.412Z" fill="#DEDFFB"/>
<path d="M85.9629 84.4801L104.971 73.434L111.86 85.2462L92.8517 96.2924L85.9629 84.4801Z" fill="#E9E7FC"/>
<path d="M87.5122 84.8891L104.562 74.9808L110.31 84.8371L93.2603 94.7453L87.5122 84.8891Z" fill="#423D9B"/>
<g opacity="0.3">
<path d="M98.0012 78.7975L96.3027 92.9748L93.2566 94.7413L91.7393 92.1369L92.9848 81.7077L98.0012 78.7975Z" fill="white"/>
<path d="M106.086 77.5972L104.841 88.015L100.934 90.2798L102.621 76.1025L104.558 74.9814L106.086 77.5972Z" fill="white"/>
<path d="M100.889 77.1216L99.1904 91.2989L97.7183 92.1482L99.4168 77.9709L100.889 77.1216Z" fill="white"/>
</g>
<g opacity="0.3">
<path d="M86.9039 93.3712L83.8239 91.5934L82.918 84.0292L85.1374 85.3087L86.1452 87.0412L86.9039 93.3712Z" fill="white"/>
<path d="M82.9519 91.0951L82.046 90.5629L81.1401 83.01L82.046 83.5309L82.9519 91.0951Z" fill="white"/>
</g>
<path d="M71.199 103.67L71.2122 99.5725L62.3027 94.4286L52.7045 100.007L52.6914 104.104L53.2804 104.444L52.7045 104.779L52.6914 108.877L61.6008 114.021L71.199 108.443L71.2122 104.345L70.6231 104.005L71.199 103.67Z" fill="#FEBC1F"/>
<path d="M61.6137 109.923L71.2119 104.345L71.1988 108.443L61.6006 114.021L61.6137 109.923Z" fill="#FEBC1F"/>
<path d="M52.7041 104.779L62.3024 99.2012L71.2118 104.345L61.6135 109.923L52.7041 104.779Z" fill="#FFD06C"/>
<path d="M61.6139 109.923L61.6008 114.021L52.6914 108.877L52.7045 104.779L61.6139 109.923Z" fill="#F9A83D"/>
<path d="M58.0554 107.868L58.0423 111.966L56.25 110.931L56.2631 106.834L58.0554 107.868Z" fill="#DEDFFB"/>
<path d="M56.2632 106.834L65.8614 101.256L67.6538 102.291L58.0555 107.868L56.2632 106.834Z" fill="#F3F1FC"/>
<path d="M63.3347 112.371L63.3352 112.576L62.1246 113.275L62.124 113.07L63.3347 112.371Z" fill="#4C5C75"/>
<path d="M62.3983 111.693L62.6641 111.944L62.4819 112.05L62.4839 112.738L62.3146 112.835L62.3127 112.147L62.1348 112.25L62.3983 111.693Z" fill="#4C5C75"/>
<path d="M63.0536 111.315L63.3194 111.566L63.1415 111.669L63.1435 112.357L62.9742 112.455L62.9723 111.767L62.79 111.872L63.0536 111.315Z" fill="#4C5C75"/>
<path d="M64.221 111.181C64.221 111.156 64.2127 111.147 64.1877 111.156C64.171 111.172 64.1543 111.197 64.1543 111.222V111.389L63.6792 111.664C63.6792 111.372 63.871 111.014 64.121 110.839V110.797C64.121 110.756 64.146 110.714 64.1794 110.689C64.2127 110.672 64.246 110.689 64.246 110.731V110.772C64.4479 110.663 64.6878 110.761 64.6878 111.089L64.221 111.356V111.181Z" fill="#4C5C75"/>
<path d="M64.221 111.181V111.356L64.1543 111.389V111.222C64.1543 111.197 64.171 111.172 64.1877 111.156C64.2127 111.147 64.221 111.156 64.221 111.181Z" fill="#4C5C75"/>
<path d="M64.2294 111.881C64.2294 111.981 64.1544 112.114 64.0627 112.164C63.971 112.214 63.896 112.173 63.896 112.073C63.896 112.048 63.9127 112.023 63.9294 112.006C63.946 111.998 63.9627 112.006 63.9627 112.031C63.9627 112.089 64.0044 112.114 64.0627 112.081C64.1127 112.056 64.1544 111.981 64.1544 111.923V111.222C64.1544 111.197 64.1711 111.172 64.1878 111.156C64.2128 111.147 64.2211 111.156 64.2211 111.181V111.356L64.2294 111.881Z" fill="#4C5C75"/>
<path d="M66.8397 104.737C66.7744 104.775 66.7741 104.836 66.8389 104.874L67.8491 105.461C67.9139 105.498 68.0188 105.498 68.0841 105.461L69.945 104.386C70.0102 104.349 70.0085 104.289 69.9436 104.251L68.9335 103.664C68.8687 103.627 68.7659 103.625 68.7006 103.663L66.8397 104.737Z" fill="#4C5C75"/>
<path d="M61.6137 105.15L71.2119 99.5725L71.1988 103.67L61.6006 109.248L61.6137 105.15Z" fill="#FEBC1F"/>
<path d="M52.7041 100.007L62.3024 94.4286L71.2118 99.5725L61.6135 105.15L52.7041 100.007Z" fill="#FFD06C"/>
<path d="M61.6139 105.15L61.6008 109.248L52.6914 104.104L52.7045 100.007L61.6139 105.15Z" fill="#F9A83D"/>
<path d="M58.0554 103.096L58.0423 107.194L56.25 106.159L56.2631 102.061L58.0554 103.096Z" fill="#DEDFFB"/>
<path d="M56.2632 102.061L65.8614 96.4832L67.6538 97.518L58.0555 103.096L56.2632 102.061Z" fill="#F3F1FC"/>
<path d="M63.3347 107.599L63.3352 107.803L62.1246 108.502L62.124 108.298L63.3347 107.599Z" fill="#4C5C75"/>
<path d="M62.3983 106.921L62.6641 107.172L62.4819 107.277L62.4839 107.965L62.3146 108.063L62.3127 107.375L62.1348 107.478L62.3983 106.921Z" fill="#4C5C75"/>
<path d="M63.0536 106.543L63.3194 106.794L63.1415 106.896L63.1435 107.584L62.9742 107.682L62.9723 106.994L62.79 107.099L63.0536 106.543Z" fill="#4C5C75"/>
<path d="M64.221 106.408C64.221 106.383 64.2127 106.375 64.1877 106.383C64.171 106.4 64.1543 106.425 64.1543 106.45V106.616L63.6792 106.892C63.6792 106.6 63.871 106.241 64.121 106.066V106.025C64.121 105.983 64.146 105.941 64.1794 105.916C64.2127 105.9 64.246 105.916 64.246 105.958V106C64.4479 105.891 64.6878 105.988 64.6878 106.316L64.221 106.583V106.408Z" fill="#4C5C75"/>
<path d="M64.221 106.408V106.583L64.1543 106.617V106.45C64.1543 106.425 64.171 106.4 64.1877 106.383C64.2127 106.375 64.221 106.383 64.221 106.408Z" fill="#4C5C75"/>
<path d="M64.2294 107.108C64.2294 107.208 64.1544 107.342 64.0627 107.392C63.971 107.442 63.896 107.4 63.896 107.3C63.896 107.275 63.9127 107.25 63.9294 107.233C63.946 107.225 63.9627 107.233 63.9627 107.258C63.9627 107.317 64.0044 107.342 64.0627 107.308C64.1127 107.283 64.1544 107.208 64.1544 107.15V106.45C64.1544 106.425 64.1711 106.4 64.1878 106.383C64.2128 106.375 64.2211 106.383 64.2211 106.408V106.583L64.2294 107.108Z" fill="#4C5C75"/>
<path d="M66.8397 99.9648C66.7744 100.003 66.7741 100.063 66.8389 100.101L67.8491 100.688C67.9139 100.726 68.0188 100.726 68.0841 100.688L69.945 99.6136C70.0102 99.5759 70.0085 99.5164 69.9436 99.4787L68.9335 98.8917C68.8687 98.854 68.7659 98.8528 68.7006 98.8904L66.8397 99.9648Z" fill="#4C5C75"/>
<path d="M81.6219 109.209L81.5949 117.609L74.6623 121.634L66.7334 117.057L66.7603 108.657L73.693 104.632L76.52 106.261L77.5026 106.827L77.7719 106.988L78.7545 107.554L81.6219 109.209Z" fill="#AA6256"/>
<path d="M81.6171 109.205L74.6845 113.234L74.6587 121.635L81.5913 117.606L81.6171 109.205Z" fill="#BF7D5A"/>
<path d="M66.7559 108.656L74.6845 113.234L81.6171 109.205L73.6884 104.627L66.7559 108.656Z" fill="#DBA660"/>
<path d="M66.7558 108.656L66.73 117.057L74.6587 121.635L74.6845 113.234L66.7558 108.656Z" fill="#AA6256"/>
<path d="M78.7569 107.553L76.5224 106.263L69.5898 110.292L71.8244 111.582L78.7569 107.553Z" fill="#F3F1FC"/>
<path d="M71.8244 111.582V114.371L70.7071 112.601L69.5898 113.063V110.292L71.8244 111.582Z" fill="#DEDFFB"/>
<path d="M70.4067 118.51L74.0161 120.594L74.0213 118.281L70.4146 116.197L70.4067 118.51Z" fill="#4C5C75"/>
<path d="M73.3667 118.193L73.3618 119.925L73.6211 120.075L73.626 118.342L73.3667 118.193Z" fill="#E3E7F0"/>
<path d="M72.8848 117.914L72.8799 119.647L73.0628 119.753L73.0677 118.02L72.8848 117.914Z" fill="#E3E7F0"/>
<path d="M70.8086 116.716L70.8037 118.449L70.9866 118.554L70.9916 116.821L70.8086 116.716Z" fill="#E3E7F0"/>
<path d="M71.8477 117.315L71.8428 119.048L72.0257 119.154L72.0306 117.421L71.8477 117.315Z" fill="#E3E7F0"/>
<path d="M71.2891 116.993L71.2842 118.726L71.5435 118.876L71.5484 117.143L71.2891 116.993Z" fill="#E3E7F0"/>
<path d="M72.3282 117.593L72.3232 119.326L72.5825 119.475L72.5874 117.743L72.3282 117.593Z" fill="#E3E7F0"/>
<path d="M77.7718 106.985L77.5077 106.832L70.5752 110.861L70.8393 111.013L77.7718 106.985Z" fill="#E9E7FC"/>
<path d="M61.9173 81.1589C62.2579 81.3556 62.5262 81.8267 62.5251 82.2118L62.5192 84.3077C62.5181 84.6928 62.248 84.853 61.9074 84.6564L59.8291 83.4565L59.839 79.959L61.9173 81.1589Z" fill="#F45170"/>
</svg>
