<svg width="120" height="119" viewBox="0 0 120 119" fill="none" xmlns="http://www.w3.org/2000/svg">
<g clip-path="url(#clip0_1067_3549)">
<path d="M82.7782 93.3764V97.0083L59.1309 110.685L46.9842 103.651C43.728 101.766 41.0724 97.2152 41.0954 93.4685L41.1185 84.0672L44.2822 85.8831L67.9295 72.1835L67.9064 81.6076C67.9064 83.3546 69.1302 85.4923 70.6544 86.3427L82.7782 93.3764Z" fill="#4C5C75"/>
<path d="M59.1334 107.061L82.7873 93.3789L82.7769 97.006L59.123 110.688L59.1334 107.061Z" fill="#1D2943"/>
<path d="M82.7843 93.3873L59.1349 107.062L47.0138 100.028C45.4923 99.1591 44.2617 97.0435 44.2617 95.2841L44.284 85.886L67.9334 72.1896L67.9111 81.6101C67.9111 83.3473 69.1417 85.4851 70.6631 86.3537L82.7843 93.3873Z" fill="#4C5C75"/>
<path d="M44.2836 85.8775L44.2569 95.2884C44.2519 97.0367 45.4907 99.156 47.0049 100.026L59.1335 107.061L59.1231 110.688L46.9945 103.653C43.7232 101.774 41.0748 97.2077 41.0855 93.466L41.1125 84.0551L44.2836 85.8775Z" fill="#111D33"/>
<path d="M91.5073 55.4035V61.3109C91.5073 64.276 89.429 67.8618 86.8425 69.356L22.8058 106.248C21.3741 107.076 20.0809 107.076 19.2265 106.386C19.2957 106.455 19.3881 106.524 19.4805 106.57L12.5065 102.525C11.6519 102.065 11.1439 101.031 11.1439 99.5594L11.0285 45.9333C11.0054 42.968 13.1068 39.3822 15.6702 37.8882L79.73 0.995663C81.0463 0.237228 82.2009 0.168202 83.0553 0.673966L90.0293 4.69651C89.9601 4.6735 89.9139 4.62748 89.8447 4.62748C90.7914 5.04121 91.3919 6.12162 91.3919 7.70766L91.4842 55.4035H91.5073Z" fill="#4C5C75"/>
<path d="M11.0323 45.9322C11.0157 42.979 13.109 39.3865 15.6801 37.8935L79.7367 0.999997C81.0388 0.245504 82.209 0.179714 83.066 0.671785L90.0378 4.7079C89.181 4.21583 88.0106 4.28113 86.7085 5.0196L22.6522 41.9294C20.0811 43.4058 17.9878 47.0152 18.0041 49.9681L18.1032 103.585C18.1195 105.062 18.6304 106.079 19.4711 106.571L12.4991 102.535C11.6586 102.059 11.1477 101.026 11.1477 99.5657L11.0323 45.9322Z" fill="#4C5C75"/>
<path d="M18.1029 103.584L18.1098 97.6735L11.1343 93.6337L11.1474 99.5651C11.1474 101.025 11.6581 102.059 12.4988 102.535L19.4708 106.57C18.6302 106.078 18.1192 105.061 18.1029 103.584Z" fill="#B0B8CF"/>
<path d="M86.7096 5.02696C89.2879 3.54532 91.3888 4.73718 91.3972 7.69799L91.5081 61.3165C91.5166 64.2652 89.4292 67.8637 86.8512 69.3453L22.7976 106.248C20.2193 107.73 18.1184 106.538 18.11 103.589L17.999 49.9707C17.9906 47.0099 20.078 43.4114 22.6562 41.9298L86.7096 5.02696Z" fill="#1D2943"/>
<path d="M91.5075 55.4008V61.3167C91.516 64.2654 89.4286 67.8639 86.8506 69.3456L22.797 106.248C20.2188 107.73 18.1178 106.538 18.1094 103.589L18.1096 97.6738L91.5075 55.4008Z" fill="#E3E7F0"/>
<path d="M56.4092 78.4112C57.7322 77.6508 58.8011 78.257 58.8053 79.7704C58.8097 81.2836 57.7477 83.1141 56.4248 83.8743C55.1019 84.6347 54.0332 84.0285 54.0288 82.5154C54.0246 81.002 55.0863 79.1714 56.4092 78.4112Z" fill="#1D2943"/>
<path d="M89.2041 54.2693L20.3518 93.9324L20.2834 49.9685C20.2607 47.8191 21.9202 44.9682 23.7841 43.8823L87.8404 6.97972C88.3632 6.68551 88.6813 6.66284 88.795 6.66284C88.9313 6.70818 89.1133 7.00239 89.1133 7.70366L89.2041 54.2693Z" fill="white"/>
<path d="M86.8457 52.8319L105.311 42.2538L86.8457 52.8319Z" fill="#4C5C75"/>
<path d="M88.0902 42.5221C88.0902 42.8226 88.0409 43.13 87.9494 43.4166C87.858 43.71 87.7383 43.9616 87.5976 44.2131C87.4638 44.4367 87.295 44.7093 87.0838 45.0237C86.8234 45.422 86.6193 45.7504 86.4926 46.0159C86.366 46.2535 86.3238 46.4772 86.3238 46.7426C86.3238 46.9034 86.2604 47.092 86.1478 47.2598C86.0352 47.4345 85.9085 47.5672 85.7467 47.6581C85.7044 47.679 85.6692 47.7 85.627 47.707C85.634 47.707 85.634 47.7139 85.6411 47.7139L86.2393 48.0563C86.3871 48.1332 86.4575 48.2869 86.4575 48.5036C86.4575 48.7342 86.3871 48.9648 86.2463 49.2163C86.1056 49.4539 85.9366 49.6356 85.7326 49.7544C85.5425 49.8592 85.3736 49.8732 85.2259 49.7963L84.6277 49.4539C84.501 49.3561 84.4306 49.2023 84.4306 48.9787C84.4306 48.7621 84.501 48.5245 84.6206 48.2939C84.7684 48.0494 84.9514 47.8607 85.1344 47.7559C85.1837 47.7279 85.2399 47.7 85.2892 47.686C85.2821 47.686 85.2751 47.679 85.2751 47.679L84.7121 47.3576C84.6277 47.3087 84.5713 47.2039 84.5713 47.0571C84.5713 46.7007 84.6347 46.3513 84.7403 46.009C84.8529 45.6945 84.9795 45.401 85.1344 45.1425C85.2611 44.8979 85.4581 44.5835 85.6903 44.2271C85.9156 43.8917 86.0985 43.6122 86.2041 43.4026C86.2885 43.2279 86.3308 43.0532 86.3308 42.8925C86.3308 42.8086 86.3238 42.7247 86.3097 42.6479C86.1548 42.6898 85.9578 42.7737 85.7115 42.9134C85.5144 43.0322 85.2962 43.186 85.1062 43.3467C84.9021 43.5213 84.7191 43.717 84.5713 43.8987C84.4799 44.0315 84.3673 44.1293 84.2617 44.1922C84.128 44.262 83.9943 44.283 83.8887 44.2271C83.8746 44.2201 83.8676 44.2201 83.8606 44.2062L83.2694 43.8707C83.1709 43.8149 83.1216 43.696 83.1216 43.5493C83.1216 43.4026 83.1779 43.137 83.4312 42.8086C83.7057 42.4662 83.9943 42.1518 84.2617 41.9142C84.5432 41.6696 84.8599 41.446 85.1907 41.2573C85.8733 40.866 86.4222 40.7543 86.8586 40.901C86.9008 40.922 86.9431 40.9429 86.9853 40.9639L87.5553 41.2993C87.9072 41.474 88.0902 41.8863 88.0902 42.5221Z" fill="#FFD06C"/>
<path d="M82.2301 27.9384C81.9476 27.772 82.6591 34.7947 82.2301 35.044L69.9095 43.6451C68.5703 44.4139 67.572 45.5125 67.5825 47.05L64.9244 51.0555C64.9349 51.8139 62.5809 52.8915 63.0204 53.141L60.8022 51.8735C60.3733 51.6138 60.1012 51.0839 60.1012 50.3256L60.0698 40.3527C60.0698 38.8152 61.158 36.9556 62.4972 36.1764L78.9239 26.7644C79.3528 26.5151 79.7399 26.4943 80.012 26.6605L82.2301 27.9384Z" fill="#DF3260"/>
<path d="M69.3294 50.3568C70.2566 50.7086 70.5828 53.7886 67.2054 56.1847L64.9873 54.9069C67.2891 52.2786 67.1217 49.2348 67.1112 49.0789L69.3294 50.3568Z" fill="#DF3260"/>
<path d="M81.1343 28.0411C81.9827 27.5548 82.673 27.9453 82.6758 28.9132L82.7101 40.9248C82.7129 41.9003 82.027 43.0721 81.1787 43.5584L73.3963 48.0197C73.1069 52.1399 67.4987 55.9858 67.2036 56.1883C69.4978 53.56 69.3365 50.5122 69.328 50.3518L64.7521 52.9749C63.4094 53.7446 62.317 53.1341 62.3127 51.6022L62.2842 41.6334C62.2798 40.0938 63.3651 38.2273 64.7078 37.4576L81.1343 28.0411Z" fill="#F45170"/>
<path d="M74.4299 40.3629C74.4299 41.2992 73.7683 42.4452 72.9449 42.9134C72.5297 43.151 72.1497 43.1719 71.8822 43.0112L71.8048 42.9623L71.0166 42.5081C70.7421 42.3544 70.5732 42.0329 70.5732 41.5578C70.5732 40.6145 71.2348 39.4895 72.0511 39.0143C72.4734 38.7767 72.8464 38.7418 73.1209 38.9165L73.9161 39.3776L73.9865 39.4196C74.261 39.5663 74.4228 39.8947 74.4299 40.3629Z" fill="white"/>
<path d="M79.4478 37.484C79.4548 38.4203 78.7862 39.5663 77.9628 40.0345C77.5054 40.293 77.0902 40.293 76.8227 40.0834C76.8509 40.1113 76.879 40.1253 76.9072 40.1463L76.0275 39.6362C75.7671 39.4895 75.5981 39.147 75.5981 38.6789C75.5981 37.7495 76.2597 36.6036 77.0761 36.1284C77.4843 35.8978 77.8784 35.8768 78.1458 36.0306L78.9622 36.5057C78.9763 36.5127 78.9903 36.5197 79.0044 36.5337C79.2789 36.6804 79.4478 37.0088 79.4478 37.484Z" fill="white"/>
<path d="M69.405 43.2418C69.405 44.1782 68.7434 45.3172 67.92 45.7923C67.3907 46.0918 66.9261 46.0437 66.6624 45.7232C66.7174 45.7938 66.7785 45.8552 66.8503 45.8971L65.9847 45.3871C65.7172 45.2403 65.5483 44.8979 65.5483 44.4437C65.5483 43.5004 66.2099 42.3544 67.0403 41.8792C67.4485 41.6486 67.8215 41.6277 68.096 41.7814L68.9757 42.2845C68.9616 42.2775 68.9405 42.2635 68.9194 42.2635C69.222 42.4033 69.405 42.7457 69.405 43.2418Z" fill="white"/>
<path d="M67.9108 42.3933C68.7337 41.9216 69.4025 42.3 69.4052 43.2389C69.4079 44.1769 68.7434 45.3206 67.9205 45.7923C67.0983 46.2636 66.4294 45.8843 66.4268 44.9463C66.4241 44.0074 67.0886 42.8646 67.9108 42.3933Z" fill="#D3DAEA"/>
<path d="M72.9327 39.5145C73.7556 39.0428 74.4245 39.4212 74.4272 40.3601C74.4299 41.2981 73.7653 42.4418 72.9424 42.9135C72.1203 43.3848 71.4514 43.0055 71.4487 42.0675C71.4461 41.1286 72.1106 39.9858 72.9327 39.5145Z" fill="#D3DAEA"/>
<path d="M68.0932 41.7804L68.9764 42.2863C68.7046 42.1345 68.3309 42.1514 67.9063 42.3875C67.091 42.8597 66.4286 44.0065 66.4286 44.951C66.4286 45.4062 66.5985 45.7435 66.8532 45.8954L65.9869 45.3893C65.7152 45.2376 65.5454 44.9003 65.5454 44.4449C65.5454 43.5005 66.2078 42.3537 67.0401 41.8816C67.4477 41.6455 67.8214 41.6286 68.0932 41.7804Z" fill="white"/>
<path d="M73.1205 38.9133L73.9868 39.4192C73.7151 39.2506 73.3414 39.2843 72.9337 39.5204C72.1185 39.9927 71.439 41.1226 71.456 42.067C71.456 42.5391 71.6089 42.8596 71.8806 43.0114L71.0144 42.5055C70.7427 42.3536 70.5728 42.0332 70.5728 41.561C70.5728 40.6166 71.2352 39.4866 72.0505 39.0145C72.4751 38.7784 72.8488 38.7446 73.1205 38.9133Z" fill="white"/>
<path d="M79.0146 36.5354C78.7428 36.3837 78.3692 36.4006 77.9616 36.6366C77.1293 37.1088 76.4668 38.2556 76.4668 39.1831C76.4668 39.6554 76.6367 39.9758 76.9085 40.1444L76.0252 39.6385C75.7704 39.4867 75.6006 39.1495 75.6006 38.6772C75.6006 37.7497 76.263 36.6029 77.0783 36.1307C77.4859 35.8946 77.8765 35.8778 78.1484 36.0295L79.0146 36.5354Z" fill="white"/>
<path d="M77.9547 36.6357C78.7776 36.164 79.4465 36.5425 79.4492 37.4813C79.4518 38.4193 78.7873 39.563 77.9644 40.0347C77.1423 40.506 76.4734 40.1267 76.4707 39.1887C76.468 38.2498 77.1326 37.107 77.9547 36.6357Z" fill="#D3DAEA"/>
<path d="M92.0775 36.6539C90.5586 35.7832 93.1619 43.8203 90.5219 45.3285C85.9744 47.9407 84.2063 47.2487 84.2153 51.3779C84.2243 53.1283 78.0279 52.6954 79.14 53.3327L77.2233 52.2376C76.1203 51.5913 75.4512 50.3614 75.4512 48.6199C75.4332 44.4906 79.1129 39.0239 83.6695 36.4115C86.3004 34.9035 88.651 34.6791 90.1608 35.5588L92.0775 36.6539Z" fill="#FFD06C"/>
<path d="M87.53 51.1693L89.4467 52.2735C89.1302 52.2735 88.6692 52.3026 88.4522 52.1769L86.7344 50.9718C86.9513 51.0975 87.2135 51.1693 87.53 51.1693Z" fill="#FFDE9B"/>
<path d="M85.5804 37.5187C90.1348 34.9079 93.8387 36.1358 93.8504 40.265C93.8603 43.7093 91.3056 48.0762 87.8216 50.9441C88.0491 51.6318 88.5135 52.2759 89.4443 52.2766C89.2962 52.3446 86.4822 53.6382 84.9477 52.8423C80.7099 54.955 77.3701 53.6504 77.3589 49.7187C77.3471 45.5895 81.0261 40.1295 85.5804 37.5187Z" fill="#FEBC1F"/>
<path d="M88.0902 42.5221C88.0902 42.8226 88.0409 43.13 87.9494 43.4166C87.858 43.71 87.7383 43.9616 87.5976 44.2131C87.4638 44.4367 87.295 44.7093 87.0838 45.0237C86.8234 45.422 86.6193 45.7504 86.4926 46.0159C86.366 46.2535 86.3238 46.4772 86.3238 46.7426C86.3238 46.9034 86.2604 47.092 86.1478 47.2598C86.0352 47.4345 85.9085 47.5672 85.7467 47.6581C85.7044 47.679 85.6692 47.7 85.627 47.707C85.634 47.707 85.634 47.7139 85.6411 47.7139L86.2393 48.0563C86.3871 48.1332 86.4575 48.2869 86.4575 48.5036C86.4575 48.7342 86.3871 48.9648 86.2463 49.2163C86.1056 49.4539 85.9366 49.6356 85.7326 49.7544C85.5425 49.8592 85.3736 49.8732 85.2259 49.7963L84.6277 49.4539C84.501 49.3561 84.4306 49.2023 84.4306 48.9787C84.4306 48.7621 84.501 48.5245 84.6206 48.2939C84.7684 48.0494 84.9514 47.8607 85.1344 47.7559C85.1837 47.7279 85.2399 47.7 85.2892 47.686C85.2821 47.686 85.2751 47.679 85.2751 47.679L84.7121 47.3576C84.6277 47.3087 84.5713 47.2039 84.5713 47.0571C84.5713 46.7007 84.6347 46.3513 84.7403 46.009C84.8529 45.6945 84.9795 45.401 85.1344 45.1425C85.2611 44.8979 85.4581 44.5835 85.6903 44.2271C85.9156 43.8917 86.0985 43.6122 86.2041 43.4026C86.2885 43.2279 86.3308 43.0532 86.3308 42.8925C86.3308 42.8086 86.3238 42.7247 86.3097 42.6479C86.1548 42.6898 85.9578 42.7737 85.7115 42.9134C85.5144 43.0322 85.2962 43.186 85.1062 43.3467C84.9021 43.5213 84.7191 43.717 84.5713 43.8987C84.4799 44.0315 84.3673 44.1293 84.2617 44.1922C84.128 44.262 83.9943 44.283 83.8887 44.2271C83.8746 44.2201 83.8676 44.2201 83.8606 44.2062L83.2694 43.8707C83.1709 43.8149 83.1216 43.696 83.1216 43.5493C83.1216 43.4026 83.1779 43.137 83.4312 42.8086C83.7057 42.4662 83.9943 42.1518 84.2617 41.9142C84.5432 41.6696 84.8599 41.446 85.1907 41.2573C85.8733 40.866 86.4222 40.7543 86.8586 40.901C86.9008 40.922 86.9431 40.9429 86.9853 40.9639L87.5553 41.2993C87.9072 41.474 88.0902 41.8863 88.0902 42.5221Z" fill="#F1F6FA"/>
<path d="M85.7336 48.1053L85.1338 47.7592C85.319 47.653 85.5021 47.6304 85.6397 47.7113L86.2395 48.0574C86.1019 47.9764 85.9188 47.9991 85.7336 48.1053Z" fill="#E9E7FC"/>
<path d="M85.654 47.7192L86.2538 48.0653C86.2491 48.0626 86.2443 48.0599 86.2395 48.0574L85.6396 47.7113C85.6445 47.7138 85.6493 47.7165 85.654 47.7192Z" fill="#E9E7FC"/>
<path d="M85.2268 49.7992L84.627 49.4531C84.5015 49.3573 84.4303 49.2057 84.4297 48.9763C84.4291 48.7593 84.4992 48.5267 84.6237 48.2938L85.2235 48.6399C85.099 48.8727 85.0289 49.1054 85.0295 49.3224C85.0301 49.5518 85.1013 49.7034 85.2268 49.7992Z" fill="#E9E7FC"/>
<path d="M85.2233 48.6399L84.6235 48.2938C84.7684 48.0478 84.952 47.8633 85.1337 47.7592L85.7335 48.1052C85.5518 48.2094 85.3682 48.3939 85.2233 48.6399Z" fill="#E9E7FC"/>
<path d="M85.7335 48.1052C85.9187 47.9991 86.1017 47.9764 86.2394 48.0574C86.3865 48.1345 86.4577 48.2862 86.4583 48.5031C86.459 48.7325 86.3889 48.9652 86.2427 49.2167C86.1018 49.4526 85.9336 49.636 85.7326 49.7512C85.5424 49.8602 85.3737 49.87 85.2266 49.7991C85.1011 49.7034 85.03 49.5517 85.0293 49.3223C85.0287 49.1054 85.0988 48.8727 85.2233 48.6399C85.3681 48.3939 85.5518 48.2094 85.7335 48.1052Z" fill="#F8F9FE"/>
<path d="M85.3129 47.7029L84.7131 47.3568C84.6242 47.3055 84.5717 47.2012 84.5713 47.0572C84.5703 46.6976 84.6346 46.3503 84.7424 46.009L85.3422 46.3551C85.2344 46.6964 85.1701 47.0437 85.1711 47.4033C85.1715 47.5473 85.2239 47.6516 85.3129 47.7029Z" fill="#E9E7FC"/>
<path d="M85.3425 46.3551L84.7427 46.009C84.8506 45.6925 84.9804 45.4008 85.1321 45.14L85.7319 45.4861C85.5802 45.7469 85.4504 46.0386 85.3425 46.3551Z" fill="#E9E7FC"/>
<path d="M85.7316 45.4861L85.1318 45.14C85.2618 44.8979 85.4568 44.5812 85.6898 44.2303C85.9174 43.8949 86.0962 43.6123 86.2045 43.4012L86.8043 43.7473C86.696 43.9584 86.5172 44.241 86.2896 44.5764C86.0566 44.9273 85.8616 45.244 85.7316 45.4861Z" fill="#E9E7FC"/>
<path d="M86.124 42.3248L86.7238 42.6709C86.9009 42.7731 86.9328 43.0171 86.9334 43.2386C86.9339 43.3998 86.8854 43.5704 86.8042 43.7473L86.2044 43.4012C86.2856 43.2243 86.3341 43.0537 86.3336 42.8925C86.333 42.671 86.3011 42.427 86.124 42.3248Z" fill="#E9E7FC"/>
<path d="M86.9856 40.9651L87.5854 41.3112C87.5445 41.2876 87.5012 41.2673 87.4556 41.2504C87.0252 41.0997 86.4758 41.2097 85.7912 41.6022L85.1914 41.2561C85.876 40.8636 86.4254 40.7536 86.8558 40.9043C86.9014 40.9213 86.9447 40.9415 86.9856 40.9651Z" fill="#E9E7FC"/>
<path d="M83.8668 44.2155L83.267 43.8694C83.1718 43.8145 83.1196 43.6995 83.1191 43.5494C83.1187 43.4006 83.1778 43.137 83.4327 42.8108C83.7038 42.4691 83.9914 42.149 84.2628 41.9127C84.5451 41.6701 84.8601 41.4461 85.1916 41.2561L85.7914 41.6022C85.4599 41.7922 85.1449 42.0162 84.8626 42.2588C84.5912 42.4951 84.3036 42.8152 84.0325 43.1569C83.7776 43.4831 83.7185 43.7467 83.7189 43.8955C83.7194 44.0455 83.7716 44.1606 83.8668 44.2155Z" fill="#E9E7FC"/>
<path d="M85.7912 41.6021C86.4758 41.2097 87.0252 41.0997 87.4555 41.2504C87.8696 41.4042 88.0885 41.8313 88.0905 42.5194C88.0914 42.8232 88.0433 43.1302 87.9515 43.4187C87.8544 43.7103 87.7354 43.9648 87.5946 44.2132C87.4646 44.4367 87.2967 44.7069 87.0854 45.0205C86.8198 45.4211 86.6194 45.7471 86.4895 46.014C86.365 46.2531 86.3221 46.4763 86.3229 46.7429C86.3233 46.9041 86.2586 47.0902 86.1448 47.261C86.0364 47.4349 85.9062 47.5655 85.7486 47.6558C85.5965 47.743 85.455 47.7682 85.346 47.7189C85.2371 47.6758 85.1715 47.5644 85.171 47.4032C85.17 47.0437 85.2343 46.6963 85.3422 46.3551C85.4501 46.0386 85.5799 45.7469 85.7315 45.4861C85.8615 45.244 86.0565 44.9273 86.2895 44.5764C86.5171 44.241 86.6959 43.9584 86.8041 43.7473C86.8853 43.5704 86.9338 43.3998 86.9333 43.2387C86.9321 42.8047 86.8109 42.2843 85.7133 42.9135C85.5123 43.0287 85.295 43.1843 85.105 43.3491C84.9041 43.5202 84.7197 43.719 84.5732 43.8961C84.477 44.0284 84.37 44.1278 84.2635 44.1888C84.1301 44.2653 83.9976 44.2815 83.8884 44.2266C83.7794 44.1773 83.7192 44.0566 83.7188 43.8954C83.7183 43.7466 83.7774 43.483 84.0323 43.1568C84.3034 42.8151 84.591 42.4951 84.8624 42.2587C85.1447 42.0162 85.4597 41.7921 85.7912 41.6021Z" fill="#F8F9FE"/>
<path d="M115.267 56.5708C115.141 57.9618 114.184 59.4908 113.074 60.1449C112.984 60.2001 112.893 60.2462 112.812 60.2922C112.307 61.5266 111.413 62.6688 110.429 63.2491C110.321 63.3136 110.212 63.3689 110.095 63.4242C109.4 63.7281 108.795 63.6913 108.371 63.3597C108.407 63.3965 108.452 63.4242 108.497 63.4518L108.055 63.1846L104.661 66.5007L103.235 65.6533L104.571 61.7569L104.291 61.5911C103.623 61.1949 103.253 60.283 103.379 59.0118C103.578 56.9761 104.959 54.7469 106.575 53.7982C106.683 53.7245 106.791 53.6692 106.909 53.6139C107.486 52.5454 108.299 51.6243 109.183 51.0992C109.319 51.0255 109.436 50.961 109.572 50.9058C110.303 50.5742 110.935 50.5926 111.413 50.8782L112.081 51.2742C112.135 51.2374 112.189 51.2098 112.234 51.1729C112.307 51.1361 112.37 51.0992 112.433 51.0716C112.794 50.915 113.11 50.9242 113.345 51.0623L114.717 51.873C114.735 51.8822 114.753 51.8914 114.762 51.9006C115.096 52.0849 115.276 52.527 115.222 53.1349C115.159 53.6876 114.915 54.2864 114.581 54.7654C115.078 55.0233 115.349 55.6589 115.267 56.5708Z" fill="#DEDFFB"/>
<path d="M103.207 84.1765C102.989 84.9763 103.425 87.5138 103.207 87.8265C102.989 88.1368 97.2981 89.7171 96.3811 89.6957C95.4665 89.6718 93.0664 86.1794 92.9565 85.7783C92.8489 85.3773 90.3833 75.5184 90.3833 75.5184L91.8664 71.8923L93.8524 74.0049L97.7894 75.337L100.327 73.9381L101.24 69.8823L101.637 71.0448L103.687 73.8211L103.27 77.7885C103.27 77.7885 103.425 83.3745 103.207 84.1765Z" fill="white"/>
<path d="M107.369 86.3529C107.312 86.7885 107.217 87.224 107.066 87.524C106.677 88.2982 102.599 92.9437 95.0683 94.6084C95.0683 94.6084 87.1302 95.9924 86.7129 92.3921L86.4853 78.6395C86.4853 78.6395 85.8309 74.7198 91.3696 71.7486L100.076 88.9273C101.043 85.8884 101.404 81.6107 101.546 76.8877C101.527 74.5166 101.479 72.2519 101.328 70.6453V70.6356C101.309 70.3744 101.271 70.113 101.233 69.8808C101.233 69.8808 104.676 68.7 105.766 71.497C106.696 73.8875 107.274 82.0849 107.435 84.4173C107.473 85.0658 107.454 85.7142 107.369 86.3529Z" fill="#748BFD"/>
<path d="M100.788 85.9041C100.633 86.8781 100.383 87.8933 100.072 88.9338L98.8091 86.4398L98.0538 76.3749L97.3949 76.2185C97.3949 76.2185 97.0957 74.9223 97.1223 74.8802C97.1498 74.838 98.04 73.6505 98.04 73.6505C98.04 73.6505 99.0257 73.7835 99.1762 73.8219C99.3267 73.8603 100.34 74.9364 100.34 74.9364L99.7562 75.7783L99.0468 76.1342L100.788 85.9041Z" fill="#4C5C75"/>
<path d="M92.774 68.0434C92.745 68.9171 92.5766 69.8245 92.3281 70.7513C93.9437 72.7898 95.9009 74.0888 98.2234 74.5965C98.2234 74.5965 100.662 71.9177 100.124 69.2946C99.5856 66.6714 92.774 68.0434 92.774 68.0434Z" fill="#F5C9C6"/>
<path d="M101.354 61.0363C101.354 61.0363 102.175 69.6677 98.5826 70.3325C94.2054 71.1427 90.88 65.7405 90.88 65.7405L89.7329 61.9093L91.8889 59.8768L97.6792 58.3472C97.6792 58.3472 99.9378 58.5357 99.9994 58.5777C100.061 58.6196 101.354 61.0363 101.354 61.0363Z" fill="#F4D6D4"/>
<path d="M98.2238 74.5974C97.7558 75.314 97.3987 76.0749 97.1775 76.89C94.2848 75.7268 92.2685 74.0598 91.3691 71.7494L92.3282 70.752C93.9443 72.7899 95.9009 74.0888 98.2238 74.5974Z" fill="#E9E7FC"/>
<path d="M100.155 75.9815L100.046 76.187C99.6163 75.4883 99.0005 74.9676 98.2241 74.5977C98.2241 74.5977 100.663 71.9183 100.125 69.295L101.239 69.8823C101.24 69.8914 101.242 69.9005 101.243 69.9097C101.543 71.9963 101.138 74.1265 100.155 75.9815Z" fill="#E9E7FC"/>
<path d="M94.7971 82.3984V80.3507L92.8659 78.5605L91.3701 71.7489C94.5007 77.5529 97.4165 83.2857 100.072 88.9322L94.7971 82.3984Z" fill="#656FEA"/>
<path d="M102.289 77.6229L103.032 79.3772L100.072 88.9327C101.039 85.8899 101.195 81.6193 101.339 76.8898C101.316 74.5138 101.486 72.2502 101.329 70.6459L101.238 69.8817L103.057 74.7793L102.289 77.6229Z" fill="#656FEA"/>
<path d="M101.355 61.0361C102.272 57.1385 100.842 54.0794 96.7504 54.1295C94.7208 53.1874 92.5961 53.6976 90.9233 55.5265C89.6437 57.0205 89.0107 58.8279 89.0107 60.9423C89.0108 61.5138 89.0954 62.0831 89.2763 62.624C89.6299 63.681 90.1838 64.7179 90.8805 65.7403C90.5144 63.2653 90.4579 61.3018 92.1 62.1445C92.4925 61.1385 93.0639 60.834 93.7981 61.1679C95.7709 61.6919 97.6486 61.6896 99.3801 60.8807C99.6942 60.759 99.9628 60.4796 100.215 60.1435C100.655 59.814 101.02 60.2643 101.355 61.0361Z" fill="#8A4852"/>
<path d="M93.5081 64.9244C93.5073 65.3262 93.3685 65.6088 93.1439 65.7415L92.7563 65.9666C92.98 65.8339 93.1196 65.5505 93.1204 65.1496C93.1226 64.3401 92.5657 63.3549 91.8751 62.9487C91.5287 62.7444 91.2141 62.7248 90.9873 62.8597L91.375 62.6346C91.6017 62.5005 91.9164 62.5193 92.2635 62.7236C92.9534 63.1306 93.5103 64.1149 93.5081 64.9244Z" fill="#9EA9C9"/>
<path d="M91.8754 62.9482C92.5657 63.355 93.1227 64.3401 93.1205 65.149C93.1182 65.9575 92.5576 66.2841 91.8672 65.8773C91.1778 65.4711 90.6203 64.4858 90.6226 63.6773C90.6248 62.8683 91.1859 62.542 91.8754 62.9482Z" fill="#E3E7F0"/>
<path d="M91.1909 63.5631C91.3176 63.4884 91.2456 64.1155 91.4389 64.2292C91.8234 64.4566 91.8727 64.438 91.8716 64.8895C91.8705 65.1125 92.3019 65.2219 92.1774 65.2955L92.3314 65.2041C92.4559 65.1305 92.5335 64.9722 92.5346 64.7492C92.5357 64.2977 92.2243 63.7482 91.8398 63.5208C91.6464 63.407 91.4717 63.397 91.3449 63.4717L91.1909 63.5631Z" fill="#CC104A"/>
<path d="M91.6861 63.6125C91.3018 63.3861 90.9891 63.568 90.9878 64.0194C90.9865 64.4701 91.2973 65.0193 91.6816 65.2457C92.0666 65.4726 92.3794 65.2907 92.3806 64.84C92.3819 64.3886 92.0711 63.8393 91.6861 63.6125Z" fill="#F45170"/>
<path d="M98.2677 59.5755L97.6758 59.2241L97.6653 55.7154C97.6632 54.7857 97.3399 54.1302 96.8193 53.8218L97.4113 54.1731C97.9319 54.4815 98.2551 55.137 98.2572 56.0667L98.2677 59.5755Z" fill="#F8F9FE"/>
<path d="M95.3505 54.0748C97.0539 53.0712 98.4443 53.9542 98.4499 55.9517L98.4596 59.4609L98.2667 59.5746L98.2569 56.0654C98.2517 54.1937 96.9488 53.436 95.3513 54.3772C93.7551 55.3176 92.4607 57.6056 92.4659 59.4773L92.4756 62.9866L92.2813 63.1011L92.105 59.6222C92.0994 57.6247 93.6471 55.0785 95.3505 54.0748Z" fill="#9EA9C9"/>
<path d="M96.9648 54.1328V61.5074C97.7962 61.444 98.603 61.2446 99.3802 60.8816C99.6943 60.7598 99.9628 60.4804 100.215 60.1444C100.655 59.8148 101.02 60.2652 101.355 61.037C102.255 57.2088 100.89 54.1918 96.9648 54.1328Z" fill="#8A4852"/>
<path d="M99.7704 67.5801C99.2874 67.7616 98.8044 67.8914 98.3384 67.9692C98.296 67.9778 98.2451 67.9865 98.2028 67.9865C97.8469 67.9865 97.5333 67.753 97.4147 67.4158H97.33C94.5675 67.4158 93.1862 65.228 93.1777 65.202C93.1099 65.1069 93.1439 64.9686 93.2371 64.908C93.3388 64.8475 93.4659 64.8734 93.5252 64.9772C93.5845 65.0637 94.8217 67.0266 97.3892 66.992C97.4401 66.6375 97.7028 66.3435 98.0756 66.2916C98.4316 66.2311 98.8129 66.1273 99.1942 65.9803C99.6264 65.816 100.109 66.0408 100.27 66.4905C100.431 66.9315 100.203 67.4158 99.7704 67.5801Z" fill="#4C5C75"/>
<path d="M113.205 53.9508L114.636 54.7993C114.616 54.7876 114.596 54.7767 114.576 54.7663L113.145 53.9178C113.165 53.9282 113.185 53.9392 113.205 53.9508Z" fill="#DEDFFB"/>
<path d="M108.494 63.4471L107.063 62.5987C106.925 62.5169 106.803 62.409 106.699 62.2772L108.129 63.1257C108.234 63.2575 108.356 63.3653 108.494 63.4471Z" fill="#DEDFFB"/>
<path d="M113.347 51.0596L114.778 51.9081C114.541 51.7678 114.226 51.7605 113.868 51.9201C113.801 51.9494 113.734 51.9832 113.667 52.0227C113.567 52.0819 113.467 52.154 113.37 52.2437L111.939 51.3952C112.036 51.3056 112.136 51.2335 112.236 51.1742C112.303 51.1347 112.371 51.101 112.437 51.0716C112.796 50.912 113.111 50.9193 113.347 51.0596Z" fill="#DEDFFB"/>
<path d="M104.665 66.5007L103.234 65.6522L104.584 61.7272L106.014 62.5757L104.665 66.5007Z" fill="#DEDFFB"/>
<path d="M112.842 51.73C112.362 51.44 111.729 51.4317 110.998 51.7549C110.876 51.8129 110.747 51.8792 110.617 51.9537C109.732 52.4758 108.911 53.3955 108.343 54.4645L106.906 53.6193C107.482 52.5504 108.302 51.6223 109.187 51.1003C109.317 51.0257 109.439 50.9594 109.569 50.9014C110.3 50.5782 110.933 50.5948 111.412 50.8765L112.842 51.73Z" fill="#DEDFFB"/>
<path d="M105.726 62.4431L104.295 61.5946C103.626 61.1982 103.257 60.2818 103.381 59.0129C103.575 56.9788 104.959 54.7443 106.572 53.7939C106.683 53.7285 106.795 53.6693 106.908 53.6166L108.339 54.4651C108.226 54.5178 108.114 54.577 108.003 54.6424C106.39 55.5928 105.006 57.8273 104.812 59.8614C104.688 61.1303 105.057 62.0467 105.726 62.4431Z" fill="#DEDFFB"/>
<path d="M115.269 56.5692C115.139 57.9613 114.189 59.4943 113.076 60.1406C112.987 60.1987 112.898 60.2484 112.808 60.2898C112.305 61.5244 111.412 62.668 110.429 63.248C110.324 63.3143 110.21 63.3723 110.096 63.422C109.252 63.7949 108.545 63.654 108.131 63.1238L104.664 66.5045L106.012 62.5768C105.168 62.2868 104.672 61.3008 104.81 59.8589C105.005 57.8288 106.394 55.5915 108.001 54.6468C108.115 54.5806 108.229 54.5143 108.342 54.4645C108.911 53.3956 109.731 52.4758 110.616 51.9538C110.746 51.8792 110.876 51.8129 110.998 51.7549C112.045 51.2909 112.898 51.5146 113.369 52.2438C113.466 52.1526 113.564 52.0864 113.669 52.0201C113.734 51.9869 113.799 51.9538 113.864 51.9206C114.717 51.5477 115.318 52.0947 115.22 53.1305C115.163 53.6856 114.92 54.2822 114.579 54.7628C115.074 55.0197 115.35 55.6578 115.269 56.5692Z" fill="#F3F1FC"/>
<path d="M112.707 57.0763L110.27 61.3778L107.824 59.953C107.229 59.6082 107.229 58.4829 107.816 57.4483C108.109 56.922 108.491 56.5227 108.883 56.2958C109.274 56.0689 109.656 56.0145 109.959 56.1869C110.083 56.2595 110.19 56.3775 110.261 56.5136C110.332 56.2868 110.43 56.0508 110.563 55.8239C110.857 55.3067 111.239 54.9074 111.631 54.6805C112.013 54.4536 112.404 54.3992 112.698 54.5716C113.294 54.9164 113.294 56.0326 112.707 57.0763Z" fill="#F45170"/>
<path d="M97.5467 53.9349C96.9842 53.6007 96.2075 53.6479 95.349 54.1512C93.6466 55.1559 92.2653 57.5979 92.2716 59.5943L92.28 63.5143C92.0885 63.3149 91.8912 63.1966 91.6881 63.163L91.6797 59.243C91.6734 57.2466 93.0546 54.8046 94.7591 53.7999C95.6156 53.2965 96.3922 53.2494 96.9548 53.5836L97.5467 53.9349Z" fill="#E3E7F0"/>
<path d="M57.8496 65.3187L54.3975 63.3268C54.6865 63.4936 55.01 63.6444 55.3718 63.7794L58.824 65.7714C58.4621 65.6364 58.1387 65.4855 57.8496 65.3187Z" fill="#B28AFD"/>
<path d="M55.0279 43.7291C54.8085 43.6013 54.5132 43.6163 54.1802 43.8117L51.1119 57.4881L45.098 59.1726L42.159 66.1694C41.493 66.5451 38.26 68.6647 38.26 69.4162L34.5539 73.2698L30.5348 76.8861C30.5348 77.2619 30.671 77.5249 30.883 77.6452L26.6902 75.2259C26.4783 75.1057 26.3421 74.8426 26.3421 74.4668L26.3194 66.7187L26.2891 56.3327C26.2891 55.5811 26.8189 54.6643 27.485 54.2886L36.2347 49.2759L46.1349 43.5944H46.1425L49.9875 41.3925C50.3129 41.1971 50.6157 41.182 50.8352 41.3098L55.0279 43.7291Z" fill="#B28AFD"/>
<path d="M58.8236 65.7713C56.4139 66.3899 54.3387 66.2268 52.5078 65.6569L31.7342 77.5646C31.0747 77.9434 30.5394 77.6385 30.5366 76.8864L30.4849 58.7544C30.4828 58.0023 31.0154 57.0872 31.6749 56.7091L54.178 43.8089C54.8368 43.4308 55.3729 43.7343 55.3749 44.4864L55.4184 59.5606C55.5053 62.6458 55.9634 64.7041 58.8236 65.7713Z" fill="#986FF9"/>
<path d="M33.5383 57.8944C32.6923 57.8944 31.9113 58.1885 31.3689 58.6723C30.8266 59.1562 30.4795 59.8107 30.4795 60.5696C30.4795 59.0897 29.1128 57.8944 27.4316 57.8944C28.2668 57.8944 29.037 57.5909 29.5901 57.1165C30.1324 56.6422 30.4795 55.9592 30.4795 55.2192C30.4795 55.9592 30.8266 56.6422 31.3689 57.1165C31.9113 57.5909 32.6923 57.8944 33.5383 57.8944Z" fill="white"/>
<path d="M49.2857 53.7633C48.1397 53.103 47.9751 56.3375 46.2239 57.3408C44.1974 58.5027 42.7356 60.4445 41.5896 62.8024C40.7718 64.4873 41.5427 64.6283 41.5469 66.282C41.5527 68.2516 39.2385 68.3431 40.3688 68.9949L37.9857 67.6108C36.8569 66.9589 36.1561 65.5731 36.1504 63.602C36.1461 61.9483 36.6314 60.1473 37.4506 58.4625C38.5951 56.1045 40.3948 53.9776 42.4214 52.8156C44.1725 51.8124 45.7581 51.7188 46.9026 52.3792L49.2857 53.7633Z" fill="#FFD06C"/>
<path d="M44.8037 54.1997C48.2813 52.2061 51.1089 53.8034 51.1202 57.7698C51.1315 61.7349 48.3224 66.5661 44.8447 68.5596C41.3693 70.5519 38.5441 68.9507 38.5327 64.9856C38.5214 61.0192 41.3283 56.1919 44.8037 54.1997Z" fill="#FFDE9B"/>
<path d="M48.494 60.2993C48.7236 60.1676 48.9034 60.3179 48.8392 60.618C48.5268 62.0915 47.8219 63.5791 46.8949 64.7656C46.4865 64.368 45.7161 64.385 44.8325 64.8915C43.949 65.398 43.1799 66.2648 42.7739 67.1305C41.8465 67.0097 41.1355 66.339 40.8146 65.2349C40.7486 65.0073 40.9283 64.653 41.1565 64.5222C41.1776 64.5101 41.1992 64.4999 41.221 64.4919C42.3429 64.0814 43.4874 63.5359 44.6522 62.8681C45.8916 62.1577 47.1539 61.309 48.4367 60.3373C48.4561 60.3227 48.4752 60.3101 48.494 60.2993Z" fill="#1D2943"/>
<path d="M42.0143 59.8815C42.6713 59.5049 43.2066 59.8078 43.2087 60.5574C43.2109 61.3069 42.6791 62.2215 42.0221 62.5982C41.3662 62.9741 40.8298 62.6719 40.8276 61.9223C40.8255 61.1727 41.3584 60.2575 42.0143 59.8815ZM42.0217 62.4547C42.6096 62.1177 43.0849 61.2989 43.083 60.6294C43.0811 59.96 42.6026 59.688 42.0147 60.025C41.4279 60.3614 40.9515 61.1808 40.9534 61.8502C40.9553 62.5197 41.4349 62.7911 42.0217 62.4547Z" fill="#111D33"/>
<path d="M42.015 60.025C42.6029 59.6879 43.0813 59.96 43.0832 60.6294C43.0852 61.2989 42.6098 62.1177 42.0219 62.4547C41.4351 62.791 40.9555 62.5197 40.9536 61.8502C40.9517 61.1808 41.4282 60.3613 42.015 60.025ZM42.1609 61.8494C42.4169 61.7027 42.6246 61.3454 42.6238 61.0533C42.623 60.7612 42.4139 60.6429 42.1578 60.7897C41.9018 60.9364 41.6941 61.2937 41.6949 61.5858C41.6958 61.8779 41.9049 61.9962 42.1609 61.8494Z" fill="white"/>
<path d="M42.1578 60.7897C42.4138 60.643 42.6229 60.7613 42.6237 61.0534C42.6245 61.3454 42.4168 61.7027 42.1608 61.8495C41.9048 61.9962 41.6957 61.8779 41.6948 61.5858C41.694 61.2938 41.9017 60.9365 42.1578 60.7897Z" fill="#111D33"/>
<path d="M42.0118 58.9575C42.2848 58.801 42.5592 58.7382 42.7806 58.7912C43.0032 58.8384 43.1727 59.0092 43.2166 59.2766C42.9331 58.9497 42.4703 58.9833 42.0127 59.2457C41.555 59.508 41.0946 60.0036 40.814 60.6539C40.855 60.3378 41.0242 59.9728 41.2446 59.6704C41.465 59.3654 41.7388 59.114 42.0118 58.9575Z" fill="#111D33"/>
<path d="M47.5374 56.8593C48.1253 56.5223 48.6038 56.7943 48.6057 57.4638C48.6076 58.1332 48.1323 58.952 47.5444 59.289C46.9576 59.6254 46.478 59.354 46.4761 58.6846C46.4742 58.0151 46.9506 57.1957 47.5374 56.8593ZM47.6833 58.6838C47.9393 58.537 48.1471 58.1798 48.1463 57.8877C48.1454 57.5956 47.9363 57.4773 47.6803 57.624C47.4243 57.7708 47.2165 58.1281 47.2174 58.4201C47.2182 58.7122 47.4273 58.8306 47.6833 58.6838Z" fill="white"/>
<path d="M47.6802 57.6241C47.9362 57.4773 48.1453 57.5956 48.1462 57.8877C48.147 58.1798 47.9392 58.5371 47.6832 58.6838C47.4272 58.8306 47.2181 58.7123 47.2173 58.4202C47.2165 58.1281 47.4242 57.7708 47.6802 57.6241Z" fill="#111D33"/>
<path d="M47.5368 56.7159C48.1938 56.3392 48.7291 56.6421 48.7312 57.3917C48.7333 58.1413 48.2015 59.0559 47.5445 59.4325C46.8887 59.8085 46.3522 59.5063 46.3501 58.7567C46.348 58.0071 46.8809 57.0918 47.5368 56.7159ZM47.5441 59.289C48.132 58.952 48.6074 58.1332 48.6055 57.4638C48.6036 56.7943 48.1251 56.5223 47.5372 56.8593C46.9504 57.1957 46.4739 58.0151 46.4758 58.6846C46.4778 59.3541 46.9573 59.6254 47.5441 59.289Z" fill="#111D33"/>
<path d="M47.5343 55.7918C47.8073 55.6353 48.0817 55.5725 48.3031 55.6255C48.5256 55.6727 48.6952 55.8435 48.7391 56.1109C48.4556 55.7841 47.9928 55.8177 47.5351 56.08C47.0775 56.3424 46.6171 56.838 46.3364 57.4882C46.3775 57.1721 46.5455 56.8078 46.767 56.5048C46.9874 56.1998 47.2613 55.9483 47.5343 55.7918Z" fill="#111D33"/>
<path d="M44.8326 64.8916C45.7161 64.3851 46.4865 64.368 46.895 64.7656C46.2868 65.5453 45.5829 66.1948 44.8341 66.624C44.0865 67.0526 43.3835 67.211 42.7739 67.1306C43.1799 66.2648 43.949 65.3981 44.8326 64.8916Z" fill="#F45170"/>
</g>
<defs>
<clipPath id="clip0_1067_3549">
<rect width="109.787" height="115.297" fill="white" transform="translate(5.17627 0.349365)"/>
</clipPath>
</defs>
</svg>
