<svg width="114" height="115" viewBox="0 0 114 115" fill="none" xmlns="http://www.w3.org/2000/svg">
<g clip-path="url(#clip0_1067_2228)">
<path d="M73.8825 89.42V92.885L51.3982 105.933L39.8488 99.2228C36.7528 97.4245 34.2278 93.0824 34.2497 89.5078L34.2716 80.5384L37.2798 82.2709L59.764 69.2006L59.7421 78.1919C59.7421 79.8586 60.9057 81.898 62.355 82.7094L73.8825 89.42Z" fill="#4C5C75"/>
<path d="M51.4005 102.477L73.891 89.4229L73.8812 92.8833L51.3906 105.937L51.4005 102.477Z" fill="#1D2943"/>
<path d="M73.8883 89.4306L51.402 102.477L39.8769 95.7659C38.4303 94.9373 37.2603 92.9188 37.2603 91.2403L37.2814 82.2739L59.7677 69.2067L59.7465 78.1945C59.7465 79.8518 60.9167 81.8914 62.3632 82.7201L73.8883 89.4306Z" fill="#4C5C75"/>
<path d="M37.2811 82.2662L37.2557 91.2448C37.251 92.9127 38.4289 94.9347 39.8686 95.765L51.4007 102.477L51.3908 105.937L39.8587 99.2255C36.7483 97.432 34.2301 93.0759 34.2403 89.5061L34.2659 80.5275L37.2811 82.2662Z" fill="#111D33"/>
<path d="M82.1821 53.1917V58.8277C82.1821 61.6567 80.2061 65.0777 77.7467 66.5032L16.8594 101.701C15.4981 102.49 14.2685 102.49 13.4561 101.832C13.5219 101.898 13.6098 101.964 13.6976 102.008L7.06661 98.1482C6.25407 97.7096 5.77107 96.7227 5.77107 95.3192L5.66131 44.1566C5.63933 41.3275 7.63738 37.9064 10.0747 36.4811L70.984 1.28329C72.2356 0.559701 73.3334 0.493846 74.1458 0.976376L80.7768 4.81413C80.711 4.79218 80.6671 4.74827 80.6013 4.74827C81.5014 5.143 82.0724 6.17378 82.0724 7.68695L82.1601 53.1917H82.1821Z" fill="#4C5C75"/>
<path d="M5.66513 44.1553C5.64936 41.3378 7.63971 37.9103 10.0843 36.4859L70.9906 1.28722C72.2286 0.567384 73.3413 0.504617 74.1562 0.974083L80.7851 4.82479C79.9704 4.35532 78.8576 4.41762 77.6195 5.12217L16.7135 40.3363C14.2689 41.745 12.2786 45.1885 12.2941 48.0058L12.3882 99.1597C12.4037 100.569 12.8896 101.539 13.6889 102.008L7.05974 98.1582C6.26064 97.7041 5.77482 96.7181 5.77482 95.325L5.66513 44.1553Z" fill="#4C5C75"/>
<path d="M12.3881 99.1594L12.3947 93.5199L5.76221 89.6657L5.77468 95.3247C5.77468 96.7178 6.26027 97.7038 7.05961 98.1579L13.6888 102.008C12.8894 101.538 12.4036 100.568 12.3881 99.1594Z" fill="#B0B8CF"/>
<path d="M77.6204 5.12937C80.0719 3.7158 82.0695 4.8529 82.0775 7.67769L82.183 58.833C82.191 61.6463 80.2063 65.0795 77.7551 66.4931L16.8516 101.701C14.4002 103.114 12.4025 101.977 12.3945 99.1638L12.2891 48.0085C12.2811 45.1837 14.2658 41.7505 16.7172 40.337L77.6204 5.12937Z" fill="#1D2943"/>
<path d="M82.1825 53.1888V58.833C82.1905 61.6463 80.2058 65.0795 77.7545 66.493L16.8511 101.701C14.3997 103.114 12.402 101.977 12.394 99.1638L12.3943 93.5199L82.1825 53.1888Z" fill="#E3E7F0"/>
<path d="M48.8102 75.1425C50.0681 74.417 51.0844 74.9954 51.0884 76.4393C51.0927 77.8829 50.0829 79.6294 48.825 80.3546C47.5672 81.0801 46.5511 80.5018 46.5469 79.0581C46.5428 77.6142 47.5524 75.8678 48.8102 75.1425Z" fill="#1D2943"/>
<path d="M79.9923 52.1096L14.5262 89.9506L14.4612 48.0064C14.4395 45.9558 16.0175 43.2358 17.7896 42.1998L78.6956 6.99244C79.1927 6.71175 79.4952 6.69012 79.6033 6.69012C79.7329 6.73338 79.9059 7.01407 79.9059 7.68313L79.9923 52.1096Z" fill="white"/>
<path d="M46.9425 40.5136L41.1367 43.8612L41.1445 46.5848L46.9425 43.2416V40.5136Z" fill="#E3E7F0"/>
<path d="M76.9964 23.1833L50.2397 38.6122V41.3402L76.9964 25.9113V23.1833Z" fill="#E3E7F0"/>
<path d="M63.6504 45.9227L20.6011 70.7463L20.6085 73.4696L63.6504 48.6503V45.9227Z" fill="#E3E7F0"/>
<path d="M67.7695 43.5474V46.2751L76.9966 40.9545V38.2269L67.7695 43.5474Z" fill="#A92D94"/>
<path d="M76.9963 45.6889L20.6221 78.2556L20.6298 80.9791L76.9963 48.4167V45.6889Z" fill="#E3E7F0"/>
<path d="M76.9963 30.7049L41.1577 51.3707L41.1655 54.0941L76.9963 33.4327V30.7049Z" fill="#E3E7F0"/>
<path d="M57.3672 26.9804L41.1152 36.3518L41.123 39.0752L57.3672 29.7082V26.9804Z" fill="#E3E7F0"/>
<path d="M76.9964 15.6616L60.6367 25.095V27.8229L76.9964 18.3895V15.6616Z" fill="#F94F72"/>
<path d="M22.4083 64.7161C19.32 64.7161 17.4693 62.2104 17.4571 58.0127C17.4384 51.272 22.1984 43.0348 28.0684 39.6499C29.6261 38.7515 31.1529 38.2769 32.4839 38.2769C35.5773 38.2769 37.4312 40.7806 37.4434 44.9745C37.4621 51.7151 32.6983 59.955 26.8237 63.3424C25.2654 64.2415 23.7386 64.7161 22.4083 64.7161Z" fill="#2C3B84"/>
<path d="M31.6213 52.6311C31.9539 52.7974 32.2915 52.9608 32.629 53.1183C32.6895 53.1528 32.6947 53.196 32.6346 53.3C31.6808 54.9714 30.575 56.3038 29.4909 57.2667C27.8557 58.7174 26.9026 58.9809 25.9242 59.3234C25.9042 59.33 25.8862 59.3373 25.8698 59.3468C25.8285 59.3706 25.7972 59.408 25.7686 59.4824C25.6801 59.7028 25.3579 60.5034 25.1939 60.8821C24.5471 59.9096 23.9154 58.9572 23.2686 57.9731C24.61 57.2342 25.9162 56.5157 27.2626 55.7739C27.2075 55.9085 27.4202 55.382 26.7479 57.0409C26.708 57.1505 26.7132 57.1995 26.8136 57.1474C27.1754 56.9676 27.5322 56.8138 27.8939 56.6053C28.9404 55.9894 30.3724 54.6292 31.4304 52.747C31.482 52.6578 31.5295 52.5859 31.6213 52.6311Z" fill="white"/>
<path d="M28.7565 43.207C31.2617 42.5212 32.9616 43.6024 33.6293 45.7042C33.6394 45.7214 33.6802 45.9116 33.726 46.0757C34.1932 45.8063 34.7458 45.4935 34.9015 45.4037L34.9167 45.4469C34.2372 47.1265 33.5677 48.7946 32.8681 50.5146C32.2263 49.5334 31.5946 48.5753 30.9528 47.6056L32.0379 46.9799C31.9973 46.8704 31.9618 46.7697 31.9162 46.6747C31.2285 45.2226 29.9052 44.7972 28.3848 45.2288C28.2793 45.2608 28.254 45.2234 28.2737 45.0907C28.3728 44.5427 28.4669 43.9977 28.5609 43.4526C28.5858 43.2871 28.6173 43.2473 28.7565 43.207Z" fill="white"/>
<path d="M22.3839 47.6268C23.6711 46.955 25.3962 45.9439 26.3479 45.4681C25.6583 47.1766 24.9838 48.8533 24.2892 50.5647C24.1073 50.2885 23.9355 50.0353 23.7535 49.759C22.5477 52.1637 22.2064 54.2488 22.7098 56.0895C22.213 56.555 21.7111 57.0234 21.1842 57.5178C21.1333 57.3277 21.0775 57.1635 21.0368 56.9849C20.4566 54.227 21.4996 50.9264 22.955 48.5102C22.8946 48.5046 22.4042 47.6959 22.3839 47.6268Z" fill="white"/>
<path d="M77.7495 50.7383L95.3065 40.6461L77.7495 50.7383Z" fill="#4C5C75"/>
<path d="M105.05 79.5091L108.902 83.0102L105.016 85.2586L104.994 92.8648L73.0414 111.422L58.9524 103.29L58.9748 95.6389L55.1445 93.4353L58.986 89.923L55.1445 86.4107L87.097 67.8648L90.9496 71.3771L94.8023 67.8648L108.902 75.9968L105.05 79.5091Z" fill="#FEBC1F"/>
<path d="M108.897 75.9964L105.045 79.5047L90.9453 71.3771L94.7972 67.8688L108.897 75.9964Z" fill="#F9A83D"/>
<path d="M55.1387 86.4159L58.9905 89.9242L90.949 71.3772L87.0972 67.8689L55.1387 86.4159Z" fill="#FEBC1F"/>
<path d="M60.4814 89.9246L73.0839 97.1942L90.9463 86.8218V72.2345L60.4814 89.9246Z" fill="#FEBC1F"/>
<path d="M90.9463 72.2345V86.8218L103.549 79.5038L90.9463 72.2345Z" fill="#F9A83D"/>
<path d="M90.9452 71.3733L58.9937 89.9267L73.085 98.0551L105.037 79.5017L90.9452 71.3733ZM73.0853 97.1975L60.4857 89.9268L90.9486 72.2311L103.548 79.5018L90.9486 86.8173L73.0853 97.1975Z" fill="#FFD06C"/>
<path d="M100.144 88.3459L88.317 95.1692L77.9686 89.1625L77.9351 76.6345L89.7618 69.8112L100.11 75.8179L100.144 88.3459Z" fill="#BF7D5A"/>
<path d="M77.9316 76.6367L88.2777 82.6417L88.3163 95.1639L77.9702 89.1589L77.9316 76.6367Z" fill="#AA6256"/>
<path d="M100.11 75.8189L88.2777 82.642L77.9316 76.637L89.7643 69.8138L100.11 75.8189Z" fill="#DBA660"/>
<path d="M100.11 75.8188L100.149 88.341L88.3164 95.1641L88.2778 82.6419L100.11 75.8188Z" fill="#BF7D5A"/>
<path d="M95.8763 78.2563V80.4935L92.5501 82.451V80.1803L82.2017 74.1736L85.5391 72.2496L95.8763 78.2563Z" fill="#1D2943"/>
<path d="M82.2002 74.1751L85.535 72.2522L95.881 78.2573L92.5462 80.1802L82.2002 74.1751Z" fill="#4C5C75"/>
<path d="M92.5459 80.1802V82.4456L95.8807 80.4969V78.2573L92.5459 80.1802Z" fill="#1D2943"/>
<path d="M83.6704 73.3273L84.0645 73.1001L94.4105 79.1052L94.0164 79.3324L83.6704 73.3273Z" fill="#111D33"/>
<path d="M86.01 96.5454L74.172 103.369L63.8348 97.362L63.79 84.8452L75.628 78.0219L85.9652 84.0286L86.01 96.5454Z" fill="#BF7D5A"/>
<path d="M63.7915 84.8443L74.1376 90.8493L74.1761 103.372L63.8301 97.3665L63.7915 84.8443Z" fill="#AA6256"/>
<path d="M85.9707 84.0261L74.1381 90.8493L63.792 84.8442L75.6246 78.0211L85.9707 84.0261Z" fill="#DBA660"/>
<path d="M85.9703 84.0261L86.0089 96.5483L74.1763 103.371L74.1377 90.8492L85.9703 84.0261Z" fill="#BF7D5A"/>
<path d="M81.743 86.4667V88.7038L78.4055 90.6501V88.3906L68.0571 82.3839L71.3946 80.46L81.743 86.4667Z" fill="#1D2943"/>
<path d="M68.0601 82.3825L71.3948 80.4596L81.7408 86.4647L78.4061 88.3876L68.0601 82.3825Z" fill="#4C5C75"/>
<path d="M78.4058 88.3877V90.6531L81.7405 88.7043V86.4647L78.4058 88.3877Z" fill="#1D2943"/>
<path d="M69.5303 81.5347L69.9243 81.3075L80.2703 87.3126L79.8763 87.5398L69.5303 81.5347Z" fill="#111D33"/>
<path d="M73.0853 98.0516L73.044 111.417L58.9492 103.289L58.9904 89.9241L73.0853 98.0516Z" fill="#FEBC1F"/>
<path d="M73.0853 98.0516L69.2334 101.56L55.1387 93.4323L58.9905 89.9241L73.0853 98.0516Z" fill="#F9A83D"/>
<path d="M69.3268 107.36L69.3257 107.744L71.6018 109.056L71.6029 108.672L69.3268 107.36Z" fill="#1D2943"/>
<path d="M71.0872 106.087L70.5874 106.558L70.93 106.756L70.9264 108.048L71.2446 108.231L71.2482 106.939L71.5827 107.132L71.0872 106.087Z" fill="#1D2943"/>
<path d="M69.8558 105.376L69.356 105.848L69.6904 106.041L69.6868 107.333L70.0049 107.516L70.0086 106.224L70.3513 106.422L69.8558 105.376Z" fill="#1D2943"/>
<path d="M65.9532 104.391L65.9317 105.398C65.9317 105.591 66.0819 105.848 66.2535 105.955C66.4252 106.041 66.5754 105.977 66.5754 105.784C66.5754 105.72 66.5325 105.677 66.5111 105.655C66.4682 105.634 66.4467 105.655 66.4467 105.698C66.4467 105.805 66.3609 105.848 66.2535 105.784C66.1462 105.741 66.0819 105.591 66.0819 105.484V104.455L66.9832 104.991C66.9832 104.434 66.6184 103.726 66.1462 103.405V103.319C66.1462 103.233 66.0819 103.148 66.0175 103.105C65.9532 103.084 65.8887 103.105 65.8887 103.191V103.276C65.6956 103.148 65.481 103.169 65.3307 103.255C65.1592 103.341 65.0518 103.555 65.0518 103.877L65.9532 104.391Z" fill="#1D2943"/>
<path d="M71.9125 109.762L68.9199 108.036C68.8937 108.02 68.877 107.992 68.877 107.962L68.8864 104.53C68.8864 104.5 68.9031 104.472 68.9293 104.456C68.9566 104.441 68.988 104.441 69.0153 104.456L72.0079 106.182C72.0341 106.197 72.0508 106.226 72.0508 106.256L72.0414 109.687C72.0414 109.718 72.0246 109.746 71.9984 109.762C71.9848 109.769 71.9701 109.773 71.9555 109.773C71.9408 109.773 71.9261 109.769 71.9125 109.762ZM69.0582 104.679L69.0488 107.913L71.8696 109.539L71.879 106.305L69.0582 104.679Z" fill="#1D2943"/>
<path d="M67.4657 107.198L64.4731 105.472C64.4469 105.456 64.4302 105.428 64.4302 105.398L64.4396 101.966C64.4396 101.936 64.4564 101.908 64.4826 101.892C64.5098 101.877 64.5412 101.877 64.5685 101.892L67.5621 103.618C67.5883 103.633 67.6051 103.662 67.6051 103.692L67.5946 107.124C67.5946 107.154 67.5779 107.182 67.5517 107.198C67.538 107.205 67.5234 107.209 67.5087 107.209C67.494 107.209 67.4794 107.205 67.4657 107.198ZM64.6115 102.115L64.602 105.349L67.4238 106.975L67.4333 103.741L64.6115 102.115Z" fill="#1D2943"/>
<path d="M63.019 104.634L60.0264 102.908C60.0002 102.892 59.9834 102.864 59.9834 102.834L59.9939 99.4022C59.9939 99.3719 60.0106 99.3436 60.0368 99.3279C60.0641 99.3133 60.0955 99.3133 60.1228 99.3279L63.1154 101.054C63.1416 101.069 63.1583 101.098 63.1583 101.128L63.1478 104.56C63.1478 104.59 63.1311 104.618 63.1049 104.634C63.0913 104.641 63.0766 104.645 63.0619 104.645C63.0473 104.645 63.0326 104.641 63.019 104.634ZM60.1647 99.5509L60.1552 102.785L62.977 104.411L62.9865 101.177L60.1647 99.5509Z" fill="#1D2943"/>
<path d="M60.8796 100.345L60.877 101.274C60.8759 101.664 61.1201 102.129 61.4431 102.383L61.4413 103.046L61.2738 102.949C61.2098 102.913 61.1581 102.942 61.1579 103.016C61.1576 103.088 61.2091 103.177 61.273 103.214L61.8568 103.551C61.9201 103.587 61.9719 103.558 61.9721 103.485C61.9723 103.412 61.9209 103.323 61.8576 103.286L61.6905 103.19L61.6923 102.526C61.8334 102.579 61.9599 102.573 62.0567 102.517C62.1827 102.446 62.261 102.292 62.2616 102.073L62.2643 101.144L60.8796 100.345Z" fill="#1D2943"/>
<path d="M105.04 79.5046L104.999 92.8699L73.0444 111.417L73.0857 98.0516L105.04 79.5046Z" fill="#F9A83D"/>
<path d="M73.0854 98.0517L76.9373 101.56L108.897 83.013L105.045 79.5048L73.0854 98.0517Z" fill="#FEBC1F"/>
<path d="M101.291 77.3415V77.9863H100.922L103.548 79.5019L90.9486 86.8174L73.0853 97.1977L60.4857 89.927L58.9937 89.9268L73.085 98.0552L105.037 79.5018L101.291 77.3415Z" fill="#FFD06C"/>
</g>
<defs>
<clipPath id="clip0_1067_2228">
<rect width="113.674" height="113.533" fill="white" transform="translate(0.0966797 0.666687)"/>
</clipPath>
</defs>
</svg>
