<svg width="115" height="115" viewBox="0 0 115 115" fill="none" xmlns="http://www.w3.org/2000/svg">
<g clip-path="url(#clip0_1067_2792)">
<path d="M84.232 9.70129C83.2516 9.12599 83.5287 11.5652 82.0156 12.439L26.6023 45.9694C23.5974 47.6956 19.5579 48.9915 19.5579 52.4438L17.5726 55.4124L10.6467 51.3847L10.6255 48.5718C10.6255 45.1194 13.0548 40.8999 16.0596 39.1738L73.4275 6.05727C74.9406 5.18347 76.3044 5.09827 77.3061 5.6737L84.232 9.70129Z" fill="#141F56"/>
<path d="M19.2773 108.319L12.3514 104.291C11.3711 103.737 10.7743 102.522 10.7743 100.796L10.6465 51.3846L17.5724 55.4124L38.8897 87.285C38.8897 89.0113 18.297 107.765 19.2773 108.319Z" fill="#DEDFFB"/>
<path d="M85.9606 65.4142C85.9606 68.8878 83.5313 73.086 80.5264 74.8334L23.1585 107.95C20.1538 109.676 17.7031 108.291 17.7031 104.839L17.5752 55.4059L85.8327 16.0028L85.9606 65.4142Z" fill="#F8F9FE"/>
<path d="M21.113 104.839L20.9902 57.3731L82.439 21.8986L82.5504 65.4224C82.5504 67.6637 80.769 70.7479 78.8117 71.8863L21.4543 104.997C21.3326 105.067 21.2233 105.122 21.1286 105.161C21.1193 105.07 21.113 104.961 21.113 104.839Z" fill="white"/>
<path d="M85.8327 13.1911V16.0041L17.575 55.4072L17.5537 52.6156C17.5537 49.142 19.9831 44.9437 22.988 43.1964L80.3559 10.0797C83.3606 8.33225 85.8114 9.73882 85.8327 13.1911Z" fill="#2C3B84"/>
<path d="M50.0925 31.8216C49.8154 31.6512 49.6343 34.741 49.208 34.9969L25.3296 45.6096C24.4773 46.0784 25.4894 47.1897 25.4894 48.1487C25.4894 48.6388 23.9657 49.0619 24.2428 49.2111L23.1561 48.5718C22.879 48.4226 22.7085 48.0816 22.7085 47.5915C22.7085 46.6325 23.3904 45.4391 24.2216 44.9703L47.9189 31.2889C48.345 31.0331 48.7287 31.0118 49.0056 31.1823L50.0925 31.8216Z" fill="white"/>
<path d="M50.543 32.7968C50.543 33.7556 49.8611 34.9278 49.0299 35.4179L25.3326 49.0992C24.4802 49.5895 23.7983 49.2058 23.7983 48.2256C23.7983 47.2666 24.4802 46.0945 25.3113 45.6044L49.0086 31.923C49.8611 31.4329 50.543 31.8164 50.543 32.7968Z" fill="#D3DAEA"/>
<path d="M66.7227 23.4537C66.7227 24.6472 65.8916 26.075 64.8686 26.6716C64.3359 26.97 63.8671 27.0126 63.5261 26.7995L63.4622 26.7569L63.4195 26.7356L62.4394 26.1602C62.0983 25.9684 61.8853 25.5422 61.8853 24.9668C61.8853 23.7734 62.7164 22.3243 63.7606 21.7275C64.272 21.4293 64.7408 21.408 65.0818 21.5997L66.1899 22.2391C66.1687 22.2178 66.126 22.2178 66.1047 22.2178C66.4883 22.3882 66.7227 22.8144 66.7227 23.4537Z" fill="#D3DAEA"/>
<path d="M72.4763 18.6163C72.8173 18.808 73.0304 19.2342 73.0304 19.8097C73.0304 21.003 72.1993 22.4521 71.1551 23.0489C70.5584 23.3898 70.0257 23.3685 69.6846 23.0701L68.747 22.5161C68.4061 22.3243 68.1929 21.9194 68.1929 21.3226C68.1929 20.1292 69.024 18.7015 70.0469 18.1048C70.5796 17.8065 71.0485 17.7638 71.3894 17.977L72.3911 18.5736C72.4124 18.5949 72.455 18.5949 72.4763 18.6163Z" fill="#D3DAEA"/>
<path d="M79.3172 16.1868C79.3172 17.3589 78.486 18.808 77.4632 19.4047C76.9517 19.7031 76.4828 19.7243 76.1419 19.5326C76.0993 19.5113 76.0566 19.4899 76.0354 19.4686L75.0337 18.8933C74.714 18.7014 74.501 18.2752 74.501 17.6786C74.501 16.5065 75.3321 15.0574 76.355 14.4607C76.8664 14.1623 77.3566 14.141 77.6975 14.3328L78.6992 14.9294C79.0828 15.1213 79.3172 15.5475 79.3172 16.1868Z" fill="#D3DAEA"/>
<path d="M64.8478 22.3833C65.8802 21.7872 66.7194 22.2655 66.7228 23.4518C66.7261 24.6371 65.8924 26.0823 64.8599 26.6784C63.8284 27.274 62.9892 26.7946 62.9858 25.6094C62.9825 24.423 63.8162 22.9789 64.8478 22.3833Z" fill="#D3DAEA"/>
<path d="M71.1485 18.7456C72.181 18.1495 73.0202 18.6278 73.0236 19.8141C73.0269 20.9994 72.1932 22.4446 71.1607 23.0407C70.1292 23.6363 69.29 23.1569 69.2866 21.9717C69.2833 20.7853 70.117 19.3412 71.1485 18.7456Z" fill="#D3DAEA"/>
<path d="M65.0765 21.6088L66.1845 22.2481C65.8436 22.0562 65.3747 22.0776 64.8419 22.376C63.8191 22.9726 62.9879 24.4218 62.9879 25.6152C62.9879 26.1905 63.2011 26.6167 63.5207 26.8086L62.4338 26.1692C62.0929 25.9774 61.8799 25.5512 61.8799 24.9758C61.8799 23.7824 62.7109 22.3333 63.7552 21.7367C64.2667 21.4383 64.7354 21.417 65.0765 21.6088Z" fill="white"/>
<path d="M71.3841 17.986L72.4709 18.6253C72.13 18.4123 71.6611 18.4548 71.1497 18.7532C70.1268 19.3499 69.2744 20.7777 69.2957 21.9711C69.2957 22.5677 69.4875 22.9726 69.8284 23.1645L68.7416 22.5252C68.4007 22.3333 68.1875 21.9284 68.1875 21.3318C68.1875 20.1384 69.0186 18.7105 70.0415 18.1139C70.5743 17.8155 71.0432 17.7728 71.3841 17.986Z" fill="white"/>
<path d="M78.779 14.9812C78.438 14.7894 77.9692 14.8108 77.4578 15.109C76.4136 15.7058 75.5825 17.1549 75.5825 18.3269C75.5825 18.9237 75.7955 19.3286 76.1366 19.5416L75.0284 18.9024C74.7087 18.7105 74.4956 18.2844 74.4956 17.6876C74.4956 16.5156 75.3267 15.0665 76.3496 14.4697C76.861 14.1715 77.3511 14.1501 77.6922 14.3419L78.779 14.9812Z" fill="white"/>
<path d="M77.4493 15.1078C78.4818 14.5117 79.321 14.99 79.3243 16.1763C79.3277 17.3616 78.4939 18.8068 77.4615 19.4029C76.43 19.9984 75.5908 19.5191 75.5874 18.3338C75.584 17.1475 76.4178 15.7033 77.4493 15.1078Z" fill="#D3DAEA"/>
<path d="M29.9619 91.7841L29.9771 97.1455L25.3057 99.8426L25.2905 94.4811L29.9619 91.7841Z" fill="#BF7D5A"/>
<path d="M36.8977 87.7798L36.902 89.2891L33.7914 91.085L33.7871 89.5757L36.8977 87.7798Z" fill="#DEDFFB"/>
<path d="M59.8755 74.5135L59.8797 76.0228L46.514 83.7395L46.5098 82.2302L59.8755 74.5135Z" fill="#57B3FE"/>
<path d="M81.193 66.0135L81.1973 67.5228L57.7084 81.0842L57.7041 79.5749L81.193 66.0135Z" fill="#DEDFFB"/>
<path d="M72.9882 66.9427L72.9925 68.452L61.7592 74.9376L61.7549 73.4283L72.9882 66.9427Z" fill="#DEDFFB"/>
<path d="M44.9817 83.1123L44.986 84.6216L38.8197 88.1817L38.8154 86.6724L44.9817 83.1123Z" fill="#DEDFFB"/>
<path d="M36.9085 91.5814L36.9127 93.0907L33.8021 94.8866L33.7979 93.3773L36.9085 91.5814Z" fill="#DEDFFB"/>
<path d="M55.5223 80.8346L55.5266 82.3439L38.8305 91.9834L38.8262 90.4741L55.5223 80.8346Z" fill="#DEDFFB"/>
<path d="M29.9619 83.2163L29.9771 88.5778L25.3057 91.2748L25.2905 85.9133L29.9619 83.2163Z" fill="#F45170"/>
<path d="M36.8977 79.212L36.902 80.7213L33.7914 82.5172L33.7871 81.0079L36.8977 79.212Z" fill="#DEDFFB"/>
<path d="M59.8755 65.9458L59.8797 67.4551L46.514 75.1718L46.5098 73.6625L59.8755 65.9458Z" fill="#DEDFFB"/>
<path d="M81.193 57.4458L81.1973 58.9551L57.7084 72.5164L57.7041 71.0071L81.193 57.4458Z" fill="#DEDFFB"/>
<path d="M72.9882 58.3751L72.9925 59.8844L61.7592 66.37L61.7549 64.8607L72.9882 58.3751Z" fill="#F45170"/>
<path d="M44.9817 74.5446L44.986 76.0539L38.8197 79.6139L38.8154 78.1046L44.9817 74.5446Z" fill="#DEDFFB"/>
<path d="M36.9085 83.0137L36.9127 84.523L33.8021 86.3189L33.7979 84.8096L36.9085 83.0137Z" fill="#DEDFFB"/>
<path d="M55.5223 72.2668L55.5266 73.7761L38.8305 83.4157L38.8262 81.9064L55.5223 72.2668Z" fill="#DEDFFB"/>
<path d="M29.9619 74.6486L29.9771 80.01L25.3057 82.7071L25.2905 77.3456L29.9619 74.6486Z" fill="#8FABFE"/>
<path d="M36.8977 70.6443L36.902 72.1536L33.7914 73.9495L33.7871 72.4402L36.8977 70.6443Z" fill="#DBA660"/>
<path d="M59.8755 57.3781L59.8797 58.8873L46.514 66.604L46.5098 65.0947L59.8755 57.3781Z" fill="#DEDFFB"/>
<path d="M81.193 48.8781L81.1973 50.3873L57.7084 63.9487L57.7041 62.4394L81.193 48.8781Z" fill="#DEDFFB"/>
<path d="M72.9882 49.8073L72.9925 51.3165L61.7592 57.8021L61.7549 56.2928L72.9882 49.8073Z" fill="#DEDFFB"/>
<path d="M44.9817 65.9768L44.986 67.4861L38.8197 71.0462L38.8154 69.5369L44.9817 65.9768Z" fill="#DEDFFB"/>
<path d="M36.9085 74.4459L36.9127 75.9552L33.8021 77.7511L33.7979 76.2418L36.9085 74.4459Z" fill="#DEDFFB"/>
<path d="M55.5223 63.6991L55.5266 65.2084L38.8305 74.8479L38.8262 73.3386L55.5223 63.6991Z" fill="#DEDFFB"/>
<path d="M81.2286 27.7834L69.5737 34.5124L69.5781 36.0217L81.2286 29.2952V27.7834Z" fill="#DEDFFB"/>
<path d="M68.0461 35.3944L68.0504 36.9037L61.8842 40.4638L61.8799 38.9545L68.0461 35.3944Z" fill="#DEDFFB"/>
<path d="M78.5868 33.1167L78.5911 34.626L61.8949 44.2655L61.8906 42.7562L78.5868 33.1167Z" fill="#FFD06C"/>
<path d="M81.2286 36.0176L69.5737 42.7465L69.5781 44.2558L81.2286 37.5294V36.0176Z" fill="#DEDFFB"/>
<path d="M68.0461 43.6285L68.0504 45.1378L61.8842 48.6979L61.8799 47.1886L68.0461 43.6285Z" fill="#DEDFFB"/>
<path d="M78.5868 41.3508L78.5911 42.8601L61.8949 52.4997L61.8906 50.9904L78.5868 41.3508Z" fill="#6BB4F9"/>
<path d="M93.5059 71.3549C94.1599 70.9774 94.8984 70.691 95.7427 70.5215L95.7833 84.8309L75.9011 96.3098L75.8833 90.0269C75.9315 89.8426 76.8475 86.3405 79.5919 84.7561C79.9689 84.5384 80.3795 84.3603 80.8258 84.237C82.9394 83.6529 84.3696 83.5672 85.5268 82.8991C86.3928 82.3991 87.1058 81.5734 87.8385 79.9682C89.2487 76.8787 90.4474 73.1211 93.5059 71.3549Z" fill="#78E75A"/>
<path d="M82.7121 76.5764C83.836 75.9275 84.7044 76.4609 84.7079 77.7137C84.7116 79.0051 83.849 80.4993 82.7251 81.1482C81.6349 81.7776 80.7385 81.2989 80.7349 80.0076C80.7313 78.7548 81.6219 77.2058 82.7121 76.5764Z" fill="#EFC348"/>
<path d="M73.0715 104.266L71.1169 103.13L70.9995 61.719L72.9541 62.8549L73.0715 104.266Z" fill="#F9A83D"/>
<path d="M72.9541 62.8548L70.9995 61.7189L101.69 44L103.644 45.1359L72.9541 62.8548Z" fill="#FFD06C"/>
<path d="M103.644 45.1359L103.762 86.547L73.0715 104.266L72.9541 62.8548L103.644 45.1359Z" fill="#FEBC1F"/>
<path d="M101.827 55.8805L101.908 86.605L74.0149 102.709L73.9346 71.9844L101.827 55.8805Z" fill="white"/>
<path d="M78.0888 62.7731C79.097 62.191 79.9157 62.6579 79.919 63.8161C79.9223 64.9666 79.1088 66.3758 78.1007 66.9579C77.0994 67.536 76.2806 67.0691 76.2774 65.9186C76.2741 64.7604 77.0875 63.3512 78.0888 62.7731Z" fill="#FEBC1F"/>
<path d="M78.0849 61.4414C79.7309 60.491 81.0726 61.256 81.0779 63.147C81.0833 65.0385 79.7503 67.3472 78.1044 68.2975C76.4584 69.2478 75.1167 68.4833 75.1113 66.5918C75.106 64.7008 76.439 62.3916 78.0849 61.4414ZM78.1006 66.958C79.1087 66.3759 79.9222 64.9667 79.9189 63.8162C79.9156 62.6579 79.0968 62.1911 78.0887 62.7732C77.0874 63.3512 76.2739 64.7605 76.2772 65.9187C76.2805 67.0692 77.0993 67.5361 78.1006 66.958Z" fill="white"/>
<path d="M99.8029 53.561C100.043 53.4223 100.244 53.5369 100.245 53.822C100.246 54.0982 100.046 54.4441 99.8058 54.5828L84.8332 63.2273C84.5848 63.3707 84.3919 63.2515 84.3911 62.9753C84.3903 62.6901 84.5819 62.3489 84.8303 62.2055L99.8029 53.561Z" fill="white"/>
<path d="M99.7946 50.4956C100.035 50.3568 100.236 50.4714 100.237 50.7571C100.237 51.0333 100.038 51.3786 99.7975 51.5174L84.8249 60.1619C84.5765 60.3052 84.3836 60.1865 84.3828 59.9103C84.382 59.6247 84.5736 59.2834 84.822 59.14L99.7946 50.4956Z" fill="white"/>
<path d="M99.3593 60.4232C99.4275 60.3838 99.4913 60.3785 99.5414 60.4018C99.5871 60.4331 99.6146 60.4905 99.6148 60.5688L99.6189 62.0215C99.6194 62.1783 99.506 62.3746 99.365 62.456C99.2286 62.5348 99.1146 62.4697 99.1141 62.313L99.1108 61.1477L98.1012 61.7306C97.9602 61.812 97.8461 61.7469 97.8457 61.5901C97.8452 61.4283 97.9586 61.2319 98.0996 61.1505L99.3593 60.4232Z" fill="#B0B8CF"/>
<path d="M99.3724 64.9958C99.5134 64.9144 99.6274 64.9741 99.6279 65.1362L99.6367 68.2561C99.6371 68.4128 99.5238 68.6089 99.3828 68.6903C99.2464 68.7691 99.1323 68.7043 99.1319 68.5475L99.123 65.4277C99.1226 65.2655 99.2359 65.0746 99.3724 64.9958Z" fill="#B0B8CF"/>
<path d="M99.3899 71.23C99.5309 71.1486 99.645 71.2137 99.6454 71.3705L99.6543 74.4903C99.6547 74.6522 99.5414 74.8485 99.4004 74.9299C99.264 75.0087 99.1499 74.9436 99.1495 74.7818L99.1406 71.6619C99.1402 71.5052 99.2535 71.3088 99.3899 71.23Z" fill="#B0B8CF"/>
<path d="M99.4075 77.4646C99.5485 77.3832 99.6626 77.448 99.663 77.6101L99.6718 80.7246C99.6723 80.8867 99.559 81.0831 99.418 81.1645C99.2816 81.2432 99.1675 81.1782 99.167 81.016L99.1582 77.9016C99.1577 77.7394 99.2711 77.5433 99.4075 77.4646Z" fill="#B0B8CF"/>
<path d="M99.4255 83.7039C99.5665 83.6225 99.6805 83.6824 99.681 83.8443L99.6851 85.2971C99.6853 85.3756 99.6583 85.4645 99.6129 85.5429C99.5631 85.6294 99.4995 85.6922 99.4312 85.7316L98.1715 86.4643C98.0305 86.5457 97.9165 86.4806 97.916 86.3185C97.9156 86.1566 98.0289 85.9602 98.1699 85.8788L99.1795 85.2959L99.1762 84.1358C99.1757 83.9739 99.2891 83.7826 99.4255 83.7039Z" fill="#B0B8CF"/>
<path d="M95.9002 87.1892C96.0366 87.1104 96.1507 87.1754 96.1511 87.3373C96.1516 87.4995 96.0383 87.6958 95.9018 87.7746L93.6325 89.0848C93.4915 89.1662 93.3774 89.1012 93.377 88.939C93.3765 88.7771 93.4898 88.5808 93.6308 88.4994L95.9002 87.1892Z" fill="#B0B8CF"/>
<path d="M91.3616 89.8095C91.498 89.7307 91.6121 89.7958 91.6126 89.9577C91.613 90.1199 91.4997 90.3162 91.3632 90.395L89.0939 91.7052C88.9529 91.7866 88.8388 91.7215 88.8384 91.5594C88.8379 91.3975 88.9512 91.2011 89.0922 91.1197L91.3616 89.8095Z" fill="#B0B8CF"/>
<path d="M86.8185 92.4325C86.9595 92.3511 87.0735 92.4162 87.074 92.5781C87.0744 92.7403 86.9611 92.9366 86.8201 93.018L84.5508 94.3282C84.4143 94.407 84.3003 94.3419 84.2998 94.1798C84.2993 94.0179 84.4127 93.8215 84.5491 93.7428L86.8185 92.4325Z" fill="#B0B8CF"/>
<path d="M82.2799 95.053C82.4209 94.9716 82.5349 95.0367 82.5354 95.1986C82.5359 95.3608 82.4225 95.5571 82.2815 95.6385L80.0122 96.9487C79.8758 97.0275 79.7617 96.9624 79.7612 96.8002C79.7608 96.6383 79.8741 96.442 80.0105 96.3632L82.2799 95.053Z" fill="#B0B8CF"/>
<path d="M76.477 96.9531C76.6135 96.8744 76.7275 96.9343 76.728 97.0962L76.7313 98.2564L77.7409 97.6735C77.8818 97.5921 77.9959 97.6571 77.9964 97.819C77.9968 97.9812 77.8835 98.1721 77.7425 98.2535L76.4828 98.9809C76.4146 99.0202 76.3508 99.0309 76.3006 99.0022C76.255 98.9763 76.2275 98.9189 76.2273 98.8404L76.2231 97.3877C76.2227 97.2258 76.336 97.0345 76.477 96.9531Z" fill="#B0B8CF"/>
<path d="M76.4594 90.7137C76.5959 90.635 76.7099 90.6997 76.7104 90.8619L76.7192 93.9763C76.7197 94.1385 76.6064 94.3349 76.4699 94.4136C76.3289 94.495 76.2149 94.43 76.2144 94.2678L76.2056 91.1534C76.2051 90.9912 76.3184 90.7951 76.4594 90.7137Z" fill="#B0B8CF"/>
<path d="M77.6708 72.9451C77.8118 72.8637 77.9259 72.9288 77.9263 73.0907C77.9268 73.2474 77.8134 73.4438 77.6725 73.5252L76.6629 74.1081L76.6662 75.2733C76.6666 75.4301 76.5533 75.6265 76.4168 75.7052C76.2759 75.7866 76.1618 75.7216 76.1613 75.5648L76.1572 74.1121C76.157 74.0338 76.1841 73.9449 76.2294 73.8611C76.2793 73.78 76.3429 73.7118 76.4111 73.6724L77.6708 72.9451Z" fill="#B0B8CF"/>
<path d="M95.8303 62.4608C95.9668 62.382 96.0809 62.447 96.0813 62.6089C96.0818 62.7657 95.9684 62.9621 95.832 63.0408L93.5626 64.351C93.4216 64.4324 93.3076 64.3674 93.3071 64.2106C93.3067 64.0487 93.42 63.8524 93.561 63.771L95.8303 62.4608Z" fill="#B0B8CF"/>
<path d="M91.2918 65.0811C91.4282 65.0024 91.5423 65.0674 91.5427 65.2293C91.5432 65.3861 91.4298 65.5824 91.2934 65.6612L89.024 66.9714C88.8831 67.0528 88.769 66.9878 88.7686 66.831C88.7681 66.6691 88.8814 66.4727 89.0224 66.3913L91.2918 65.0811Z" fill="#B0B8CF"/>
<path d="M97.8459 61.5902C97.8464 61.7469 97.9604 61.812 98.1014 61.7306L99.111 61.1477L99.1143 62.313C99.1148 62.4697 99.2289 62.5348 99.3653 62.456L99.3725 64.9958C99.2361 65.0745 99.1227 65.2655 99.1232 65.4277L99.132 68.5475C99.1325 68.7043 99.2465 68.7691 99.3829 68.6903L99.3902 71.23C99.2537 71.3088 99.1404 71.5052 99.1408 71.6619L99.1497 74.7818C99.1501 74.9437 99.2642 75.0087 99.4006 74.9299L99.4078 77.4646C99.2714 77.5434 99.1581 77.7394 99.1585 77.9016L99.1674 81.016C99.1678 81.1782 99.2819 81.2433 99.4183 81.1645L99.4255 83.704C99.2891 83.7827 99.1757 83.974 99.1762 84.1359L99.1795 85.296L98.1699 85.8789C98.0289 85.9603 97.9156 86.1566 97.916 86.3185L96.1515 87.3373C96.151 87.1754 96.037 87.1103 95.9005 87.1891L93.6312 88.4993C93.4902 88.5807 93.3768 88.7771 93.3773 88.939L91.6128 89.9577C91.6123 89.7958 91.4982 89.7308 91.3618 89.8096L89.0924 91.1198C88.9515 91.2012 88.8381 91.3975 88.8386 91.5594L87.074 92.5782C87.0736 92.4163 86.9595 92.3512 86.8185 92.4326L84.5492 93.7428C84.4127 93.8216 84.2994 94.0179 84.2999 94.1798L82.5353 95.1986C82.5349 95.0367 82.4208 94.9717 82.2798 95.053L80.0104 96.3633C79.874 96.442 79.7607 96.6384 79.7611 96.8003L77.9966 97.819C77.9961 97.6571 77.8821 97.5921 77.7411 97.6735L76.7315 98.2564L76.7282 97.0962C76.7277 96.9343 76.6137 96.8744 76.4772 96.9532L76.47 94.4137C76.6065 94.3349 76.7198 94.1386 76.7193 93.9764L76.7105 90.862C76.7101 90.6998 76.596 90.635 76.4595 90.7138L76.4524 88.1791C76.5888 88.1004 76.7021 87.904 76.7017 87.7421L76.6928 84.6223C76.6924 84.4655 76.5783 84.4005 76.4419 84.4792L76.4347 81.9395C76.5711 81.8607 76.6844 81.6647 76.684 81.5079L76.6752 78.3881C76.6747 78.2259 76.5606 78.1662 76.4242 78.245L76.417 75.7052C76.5534 75.6265 76.6668 75.4301 76.6663 75.2733L76.663 74.1081L77.6726 73.5252C77.8136 73.4438 77.9269 73.2474 77.9265 73.0907L79.691 72.0719C79.6915 72.2287 79.8056 72.2937 79.942 72.215L82.2113 70.9047C82.3523 70.8233 82.4657 70.627 82.4652 70.4702L84.2298 69.4515C84.2302 69.6082 84.3443 69.6733 84.4807 69.5945L86.7501 68.2843C86.8911 68.2029 87.0044 68.0066 87.0039 67.8498L88.7685 66.831C88.7689 66.9878 88.883 67.0529 89.024 66.9715L91.2933 65.6613C91.4298 65.5825 91.5431 65.3861 91.5427 65.2294L93.3072 64.2106C93.3076 64.3674 93.4217 64.4324 93.5627 64.351L95.8321 63.0408C95.9685 62.9621 96.0818 62.7657 96.0814 62.6089L97.8459 61.5902Z" fill="#F3F1FC"/>
<path d="M76.4243 78.2449C76.5607 78.1662 76.6748 78.2258 76.6752 78.388L76.6841 81.5078C76.6845 81.6646 76.5712 81.8607 76.4347 81.9394C76.2938 82.0208 76.1797 81.9561 76.1793 81.7993L76.1704 78.6795C76.17 78.5173 76.2833 78.3263 76.4243 78.2449Z" fill="#B0B8CF"/>
<path d="M76.4418 84.4792C76.5783 84.4004 76.6924 84.4655 76.6928 84.6223L76.7016 87.7421C76.7021 87.904 76.5888 88.1003 76.4523 88.1791C76.3114 88.2605 76.1973 88.1954 76.1968 88.0335L76.188 84.9137C76.1875 84.7569 76.3009 84.5606 76.4418 84.4792Z" fill="#B0B8CF"/>
<path d="M86.7482 67.7043C86.8891 67.6229 87.0032 67.6879 87.0037 67.8498C87.0041 68.0066 86.8908 68.2029 86.7498 68.2843L84.4804 69.5946C84.344 69.6733 84.2299 69.6083 84.2295 69.4515C84.229 69.2896 84.3424 69.0933 84.4788 69.0145L86.7482 67.7043Z" fill="#B0B8CF"/>
<path d="M82.2096 70.3246C82.3505 70.2432 82.4646 70.3083 82.4651 70.4702C82.4655 70.627 82.3522 70.8233 82.2112 70.9047L79.9419 72.2149C79.8054 72.2937 79.6914 72.2286 79.6909 72.0718C79.6905 71.91 79.8038 71.7136 79.9402 71.6348L82.2096 70.3246Z" fill="#B0B8CF"/>
<path d="M56.731 48.1571C53.6295 46.3554 52.1566 60.0577 47.4185 62.7946C37.9973 68.2342 43.6782 71.1561 43.7126 81.9733C43.7263 87.3509 29.5126 87.9463 32.5728 89.7274L29.3368 87.8412C26.2766 86.067 24.3786 82.2778 24.358 76.9002C24.3305 66.083 31.9362 52.9002 41.3574 47.4606C46.0955 44.7237 50.3867 44.4692 53.4881 46.2778L56.731 48.1571Z" fill="#D9DDDD"/>
<path d="M44.5958 49.3435C54.0092 43.9086 61.6738 48.2764 61.7044 59.0932C61.7351 69.915 54.1203 83.1043 44.7069 88.5391C35.2847 93.9791 27.6289 89.6062 27.5982 78.7844C27.5676 67.9676 35.1735 54.7834 44.5958 49.3435Z" fill="#EAEFEF"/>
<path d="M58.8666 60.7041C58.8806 69.6363 52.5887 80.5627 44.8082 85.0428C37.0419 89.5229 30.6938 85.9135 30.6798 76.9814C30.6517 68.0492 36.9435 57.1368 44.7241 52.6426C52.4906 48.1625 58.8385 51.7719 58.8666 60.7041Z" fill="#F94F72"/>
<path d="M55.9315 62.3894C55.9597 69.4678 50.9598 78.119 44.8084 81.6722C38.643 85.2254 33.629 82.3604 33.6011 75.282C33.587 68.2178 38.5727 59.5665 44.7242 56.0133C50.8895 52.4601 55.9175 55.3252 55.9315 62.3894Z" fill="white"/>
<path d="M52.8857 64.1605C52.8995 69.3058 49.2757 75.5855 44.7942 78.172C40.3128 80.7585 36.675 78.6699 36.6612 73.5246C36.6473 68.3791 40.2714 62.0996 44.739 59.5131C49.2204 56.9266 52.8719 59.0151 52.8857 64.1605Z" fill="#F94F72"/>
<path d="M50.8975 65.3892C50.9047 67.4216 50.158 69.6884 48.9617 71.6652C47.8718 73.468 46.4073 75.0316 44.793 75.962C43.1715 76.8973 41.6949 77.0253 40.5978 76.4743C39.4039 75.8798 38.6548 74.483 38.6499 72.4603C38.6378 68.5768 41.3711 63.8426 44.7544 61.8899C48.1352 59.9373 50.8878 61.5057 50.8975 65.3892Z" fill="#EAEFEF"/>
<path d="M46.1649 65.8636C46.1755 65.8783 46.1868 65.8927 46.1991 65.9064C46.5015 66.2449 47.3396 66.2097 47.3838 66.2079C47.3508 66.5451 47.3101 66.7686 47.308 66.7804C48.2405 67.2449 47.0906 68.7489 47.0301 68.8281C46.9284 69.4701 46.6956 70.0858 46.3865 70.6347C45.8986 71.5009 45.2198 72.2019 44.5626 72.5814C44.0205 72.8944 43.4933 72.9887 43.0998 72.7768C42.769 72.5968 42.5352 72.206 42.4635 71.552C41.2427 71.3989 42.1022 69.818 42.1475 69.7348L42.1217 69.2619C42.3648 69.198 42.6208 69.0829 42.8817 68.9322C44.4307 68.0379 46.1382 65.8971 46.1649 65.8636Z" fill="#FFD651"/>
<path d="M44.311 64.548C45.359 63.9428 46.2695 64.0034 46.3174 64.0066C47.4698 63.7637 47.4722 65.3219 47.3839 66.2062C47.3837 66.2078 46.5014 66.2448 46.1991 65.9064C46.1868 65.8926 46.1755 65.8783 46.1652 65.8632C46.1382 65.8971 44.4307 68.0379 42.8817 68.9322C42.6208 69.0828 42.3648 69.198 42.1217 69.2619L42.0747 68.4822C42.0332 67.7341 42.2885 66.8162 42.7993 66.019C43.2554 65.3075 43.7942 64.8464 44.311 64.548Z" fill="#383736"/>
<path d="M46.3894 71.1212C46.3909 71.3533 46.4406 71.5445 46.5276 71.6884C46.4823 71.6139 46.4469 71.5269 46.4229 71.4279L46.4249 71.6436C46.4385 74.1797 43.117 76.0853 43.1034 73.5721L43.1001 72.7767C43.4936 72.9886 44.0208 72.8943 44.5629 72.5813C45.2201 72.2019 45.8989 71.5009 46.3868 70.6346L46.3894 71.1212Z" fill="#EFC348"/>
<path d="M48.9616 71.6652C47.8717 73.468 46.4072 75.0315 44.7929 75.962C43.1714 76.8972 41.6948 77.0253 40.5977 76.4743C40.9312 75.933 41.3734 75.4641 41.864 75.179C42.2047 74.9832 42.5165 74.6449 42.7388 74.2534C42.775 74.193 42.8065 74.1325 42.8354 74.0697C42.9998 73.7266 43.0965 73.3665 43.0965 73.0354V72.7768L43.1013 73.5719C43.1013 73.6178 43.1037 73.6637 43.1085 73.7072C43.1085 74.5997 43.9804 75.1848 45.0708 74.3114C45.785 73.7565 46.4242 72.6296 46.4242 71.6579V71.4283C46.4242 71.4308 46.4266 71.4332 46.4266 71.4356C46.4314 71.4525 46.4362 71.4694 46.4411 71.4863C46.4435 71.4936 46.4435 71.5009 46.4483 71.5081C46.4532 71.5226 46.458 71.5371 46.4628 71.5492C46.4628 71.554 46.4652 71.5613 46.4677 71.5661C46.4677 71.5685 46.4677 71.5685 46.4701 71.5709C46.4701 71.5733 46.4701 71.5758 46.4725 71.5782C46.4725 71.5782 46.4725 71.5806 46.4749 71.5806V71.583C46.4773 71.5878 46.4797 71.5951 46.4822 71.5999C46.4942 71.6241 46.5063 71.6482 46.5184 71.67C46.5208 71.6748 46.5257 71.6821 46.5281 71.6869V71.6894C46.6537 71.8754 46.8036 71.9672 46.9824 71.9914C47.0549 71.9987 47.0622 71.9987 47.0694 71.9987C47.241 72.0011 47.4343 71.9479 47.6349 71.8295C47.7388 71.7715 47.8306 71.7232 47.9225 71.6869C48.198 71.5758 48.4396 71.5419 48.6523 71.5709C48.7659 71.583 48.8674 71.6144 48.9616 71.6652Z" fill="#638DFF"/>
<path d="M52.3628 64.7947L52.3609 64.1263L51.306 64.7353L51.0192 64.9009L51.306 64.7353C51.1476 60.9393 48.417 59.3779 45.0345 61.1613L45.0355 61.4909H45.0354L45.0345 61.1613L45.0311 59.9492L44.4493 60.285L44.4527 61.4975C41.0786 63.6184 38.3688 68.3195 38.2325 72.2833L38.5088 72.1237L38.5107 72.7921L38.5107 72.7922L38.5088 72.1237L38.2325 72.2833L37.1724 72.8953L37.1743 73.5638L38.2346 72.9516H38.2346C38.3951 76.7467 41.1218 78.3007 44.4954 76.5254L44.4988 77.7439L45.0806 77.408L45.0771 76.1898L45.0762 75.8663L44.4944 76.2022L45.0762 75.8663L45.0771 76.1898C48.4572 74.0692 51.1691 69.3739 51.3077 65.4039L52.3628 64.7947ZM44.787 75.6954C41.5009 77.5927 38.8193 76.0645 38.8085 72.2824C38.7978 68.5064 41.462 63.8918 44.7482 61.9946C48.0343 60.0973 50.7212 61.6225 50.7318 65.3985C50.7426 69.1805 48.0731 73.7982 44.787 75.6954Z" fill="white"/>
<path d="M67.0571 81.7097L69.2692 86.6621L60.6823 81.7013L59.1278 78.2347L48.1185 71.9402L48.047 71.899C48.0387 71.8962 48.0332 71.8907 48.0277 71.8852C47.9039 71.7889 47.8296 71.6156 47.8296 71.3789C47.8269 70.8452 48.201 70.1958 48.6633 69.929C48.8586 69.8162 49.0402 69.7886 49.1833 69.8382L49.3263 69.9207L59.4442 75.7035L61.0537 74.006L69.6406 78.9638L67.0571 81.7097Z" fill="#38425D"/>
</g>
<defs>
<clipPath id="clip0_1067_2792">
<rect width="113.252" height="113.533" fill="white" transform="translate(0.806152 0.666626)"/>
</clipPath>
</defs>
</svg>
