<svg width="115" height="115" viewBox="0 0 115 115" fill="none" xmlns="http://www.w3.org/2000/svg">
<g clip-path="url(#clip0_1067_4054)">
<path d="M74.3177 89.42V92.8849L51.917 105.933L40.4106 99.2227C37.326 97.4245 34.8104 93.0824 34.8322 89.5078L34.8541 80.5383L37.851 82.2709L60.2517 69.2006L60.2298 78.1918C60.2298 79.8585 61.3892 81.898 62.833 82.7094L74.3177 89.42Z" fill="#4C5C75"/>
<path d="M51.9195 102.477L74.3264 89.4227L74.3167 92.8832L51.9097 105.937L51.9195 102.477Z" fill="#1D2943"/>
<path d="M74.3234 89.4306L51.9207 102.477L40.4385 95.7659C38.9973 94.9373 37.8315 92.9188 37.8315 91.2403L37.8526 82.2739L60.2554 69.2067L60.2342 78.1945C60.2342 79.8518 61.4 81.8914 62.8412 82.7201L74.3234 89.4306Z" fill="#4C5C75"/>
<path d="M37.8523 82.266L37.827 91.2447C37.8223 92.9126 38.9958 94.9346 40.4302 95.7649L51.9194 102.477L51.9096 105.937L40.4204 99.2253C37.3215 97.4319 34.8127 93.0757 34.8228 89.506L34.8483 80.5273L37.8523 82.266Z" fill="#111D33"/>
<path d="M82.5866 53.1917V58.8277C82.5866 61.6566 80.6179 65.0777 78.1677 66.5032L17.5068 101.701C16.1505 102.49 14.9255 102.49 14.1161 101.832C14.1816 101.898 14.2692 101.964 14.3567 102.008L7.75035 98.1482C6.94083 97.7095 6.45963 96.7226 6.45963 95.3191L6.35028 44.1565C6.32838 41.3274 8.319 37.9064 10.7473 36.481L71.4301 1.28323C72.677 0.55964 73.7708 0.493785 74.5802 0.976315L81.1865 4.81407C81.121 4.79211 81.0772 4.74821 81.0116 4.74821C81.9085 5.14294 82.4773 6.17372 82.4773 7.68689L82.5647 53.1917H82.5866Z" fill="#4C5C75"/>
<path d="M6.3541 44.1552C6.33839 41.3377 8.32134 37.9101 10.7569 36.4858L71.4367 1.28709C72.6702 0.567262 73.7786 0.504495 74.5905 0.973961L81.1948 4.82466C80.3832 4.3552 79.2744 4.4175 78.041 5.12205L17.3614 40.3362C14.9259 41.7449 12.943 45.1884 12.9584 48.0057L13.0522 99.1596C13.0677 100.568 13.5517 101.539 14.348 102.008L7.74352 98.1581C6.94739 97.7039 6.46337 96.718 6.46337 95.3249L6.3541 44.1552Z" fill="#4C5C75"/>
<path d="M13.0519 99.1593L13.0585 93.5199L6.45068 89.6656L6.46311 95.3246C6.46311 96.7178 6.94689 97.7037 7.74326 98.1579L14.3478 102.008C13.5514 101.538 13.0674 100.568 13.0519 99.1593Z" fill="#B0B8CF"/>
<path d="M78.0416 5.1293C80.484 3.71573 82.4742 4.85284 82.4821 7.67763L82.5872 58.833C82.5952 61.6462 80.6178 65.0794 78.1757 66.493L17.4987 101.701C15.0564 103.114 13.0662 101.977 13.0582 99.1638L12.9531 48.0085C12.9452 45.1837 14.9225 41.7505 17.3648 40.3369L78.0416 5.1293Z" fill="#1D2943"/>
<path d="M82.5871 53.1887V58.8329C82.5951 61.6462 80.6177 65.0794 78.1756 66.4929L17.4986 101.701C15.0563 103.114 13.0661 101.977 13.0581 99.1637L13.0583 93.5198L82.5871 53.1887Z" fill="#E3E7F0"/>
<path d="M49.3389 75.1425C50.5922 74.417 51.6047 74.9954 51.6087 76.4393C51.6129 77.8829 50.6069 79.6294 49.3537 80.3546C48.1005 81.0801 47.0882 80.5018 47.084 79.0581C47.08 77.6142 48.0857 75.8678 49.3389 75.1425Z" fill="#1D2943"/>
<path d="M80.405 52.1095L15.1822 89.9506L15.1174 48.0064C15.0958 45.9557 16.6679 43.2358 18.4335 42.1998L79.1131 6.99238C79.6084 6.71169 79.9097 6.69006 80.0174 6.69006C80.1465 6.73332 80.3189 7.01401 80.3189 7.68307L80.405 52.1095Z" fill="white"/>
<path d="M78.1704 50.7382L95.6621 40.646L78.1704 50.7382Z" fill="#4C5C75"/>
<g clip-path="url(#clip1_1067_4054)">
<path d="M74.3259 58.7099V61.8538C74.3259 63.7106 73.0882 65.5675 70.6314 66.9832C65.6992 69.8328 57.7006 69.8328 52.7315 66.9832C50.2377 65.5491 49 63.6739 49 61.7986V58.6548C49 60.53 50.3485 62.2582 52.8423 63.6739C57.8114 66.5235 65.6992 66.45 70.6314 63.6003C73.0698 62.1847 74.3259 60.5668 74.3259 58.7099Z" fill="#FFD06C"/>
<path d="M70.6318 63.8393C69.6712 64.4093 68.5813 64.8505 67.4176 65.1814C66.5124 65.4572 65.5518 65.6594 64.5728 65.7697C64.0371 65.8433 63.5199 65.8984 62.9657 65.9352C60.5643 66.0823 58.1074 65.8249 55.9092 65.163C54.7639 64.8321 53.6925 64.3725 52.7319 63.8393C47.7812 60.9897 47.7628 56.3751 52.6949 53.5254C53.6555 52.9738 54.7454 52.5142 55.9092 52.1833C58.1074 51.5398 60.5643 51.2824 62.9657 51.4295C63.5014 51.4663 64.0371 51.5214 64.5728 51.595C65.5518 51.7237 66.4939 51.9259 67.4176 52.1833C68.5629 52.5326 69.6343 52.9738 70.5764 53.507C75.5455 56.3567 75.564 60.9713 70.6318 63.8209V63.8393Z" fill="#F9A83D"/>
<path d="M61.7094 64.6299C58.6615 64.6299 55.7982 63.9497 53.6554 62.7179C51.6973 61.5964 50.6074 60.1624 50.6074 58.6732C50.6074 57.2024 51.6788 55.7684 53.6184 54.6469C55.7428 53.4151 58.606 52.7349 61.654 52.7349C64.702 52.7349 67.5652 53.4151 69.6896 54.6285C71.6661 55.7684 72.7376 57.2024 72.7376 58.6916C72.7376 60.1624 71.6661 61.5964 69.7265 62.7179C67.6022 63.9497 64.7389 64.6299 61.691 64.6299H61.7094Z" fill="#FFD06C"/>
<path d="M64.2585 60.2727L61.8386 58.8754C60.6748 59.2983 59.6958 59.5189 58.883 59.5557C58.0887 59.5924 57.3313 59.4086 56.6109 58.9857C55.8904 58.5629 55.5579 58.0849 55.6134 57.5333C55.6688 56.9818 56.0567 56.467 56.8325 55.9706L56.2045 55.6213L56.9988 55.1617L57.6269 55.5294C58.6059 55.033 59.7882 54.7204 61.1551 54.5734L61.4876 55.6948C60.5455 55.7868 59.7143 55.989 58.9754 56.3015L61.3214 57.662H61.3583C62.5406 57.2208 63.5566 56.9818 64.3878 56.945C65.2191 56.9082 65.9949 57.0921 66.7338 57.515C67.4543 57.9378 67.7868 58.4342 67.7314 58.9857C67.6759 59.5557 67.2326 60.0888 66.4198 60.6036L67.3065 61.1184L66.5122 61.578L65.607 61.0449C64.3509 61.6332 62.8731 61.9641 61.1736 62.0376L61.0073 60.8794C62.3189 60.8242 63.3903 60.622 64.2585 60.2543V60.2727ZM65.0898 59.8315C65.4408 59.5741 65.644 59.3351 65.6809 59.0777C65.7363 58.8387 65.607 58.618 65.3115 58.4526C65.0159 58.2871 64.7019 58.2136 64.3509 58.2136C63.9999 58.2136 63.5011 58.3239 62.8361 58.5261L65.0713 59.8131L65.0898 59.8315ZM58.1626 56.7428C57.8116 56.9818 57.6453 57.2024 57.6084 57.4414C57.5899 57.6804 57.7008 57.8643 57.9963 58.0297C58.2734 58.1952 58.569 58.2687 58.9015 58.2687C59.234 58.2687 59.6958 58.1768 60.3239 57.993L58.1626 56.7428Z" fill="#F9A83D"/>
<path d="M74.3259 53.4886V56.6324C74.3259 58.4893 73.0882 60.3462 70.6314 61.7618C65.6992 64.6115 57.7006 64.6115 52.7315 61.7618C50.2377 60.3278 49 58.4341 49 56.5589V53.415C49 55.2903 50.3485 57.0185 52.8423 58.4341C57.8114 61.2838 65.6992 61.2102 70.6314 58.3606C73.0698 56.9449 74.3259 55.3271 74.3259 53.4702V53.4886Z" fill="#FFD06C"/>
<path d="M70.6318 58.618C69.6712 59.1879 68.5813 59.6292 67.4176 59.9601C66.5124 60.2359 65.5518 60.4381 64.5728 60.5484C64.0371 60.622 63.5199 60.6771 62.9657 60.7139C60.5643 60.861 58.1074 60.6036 55.9092 59.9417C54.7639 59.6108 53.6925 59.1512 52.7319 58.618C47.7812 55.7684 47.7628 51.1537 52.6949 48.3041C53.6555 47.7525 54.7454 47.2929 55.9092 46.962C58.1074 46.3185 60.5643 46.0611 62.9657 46.2082C63.5014 46.245 64.0371 46.3001 64.5728 46.3737C65.5518 46.5024 66.4939 46.7046 67.4176 46.962C68.5629 47.3113 69.6343 47.7525 70.5764 48.2857C75.5455 51.1354 75.564 55.75 70.6318 58.5996V58.618Z" fill="#F9A83D"/>
<path d="M61.7094 59.3902C58.6615 59.3902 55.7982 58.7099 53.6554 57.4781C51.6973 56.3566 50.6074 54.9226 50.6074 53.4334C50.6074 51.9627 51.6788 50.5286 53.6184 49.4071C55.7428 48.1754 58.606 47.4951 61.654 47.4951C64.702 47.4951 67.5652 48.1754 69.6896 49.3888C71.6661 50.5286 72.7376 51.9627 72.7376 53.4518C72.7376 54.9226 71.6661 56.3566 69.7265 57.4781C67.6022 58.7099 64.7389 59.3902 61.691 59.3902H61.7094Z" fill="#FFD06C"/>
<path d="M64.2585 55.0514L61.8386 53.6541C60.6748 54.077 59.6958 54.2976 58.883 54.3344C58.0887 54.3711 57.3313 54.1873 56.6109 53.7644C55.8904 53.3416 55.5579 52.8636 55.6134 52.312C55.6688 51.7605 56.0567 51.2457 56.8325 50.7493L56.2045 50.4L56.9988 49.9404L57.6269 50.3081C58.6059 49.8117 59.7882 49.4991 61.1551 49.3521L61.4876 50.4735C60.5455 50.5655 59.7143 50.7677 58.9754 51.0802L61.3214 52.4407H61.3583C62.5406 51.9995 63.5566 51.7605 64.3878 51.7237C65.2191 51.6869 65.9949 51.8708 66.7338 52.2936C67.4543 52.7165 67.7868 53.2129 67.7314 53.7644C67.6759 54.3344 67.2326 54.8675 66.4198 55.3823L67.3065 55.8971L66.5122 56.3567L65.607 55.8235C64.3509 56.4119 62.8731 56.7428 61.1736 56.8163L61.0073 55.6581C62.3189 55.6029 63.3903 55.4007 64.2585 55.033V55.0514ZM65.0898 54.6101C65.4408 54.3528 65.644 54.1137 65.6809 53.8564C65.7363 53.6174 65.607 53.3967 65.3115 53.2313C65.0159 53.0658 64.7019 52.9923 64.3509 52.9923C63.9999 52.9923 63.5011 53.1026 62.8361 53.3048L65.0713 54.5918L65.0898 54.6101ZM58.1626 51.5215C57.8116 51.7605 57.6453 51.9811 57.6084 52.2201C57.5899 52.4591 57.7008 52.643 57.9963 52.8084C58.2734 52.9739 58.569 53.0474 58.9015 53.0474C59.234 53.0474 59.6958 52.9555 60.3239 52.7716L58.1626 51.5215Z" fill="#F9A83D"/>
<path d="M74.3259 49.205V52.3488C74.3259 54.2057 73.0882 56.0626 70.6314 57.4782C65.6992 60.3279 57.7006 60.3279 52.7315 57.4782C50.2377 56.0258 49 54.1506 49 52.2753V49.1315C49 51.0067 50.3485 52.7349 52.8423 54.1506C57.8114 57.0002 65.6992 56.9267 70.6314 54.077C73.0698 52.6614 74.3259 51.0435 74.3259 49.1866V49.205Z" fill="#FFD06C"/>
<path d="M70.6318 54.316C69.6712 54.8859 68.5813 55.3272 67.4176 55.6581C66.5124 55.9339 65.5518 56.1361 64.5728 56.2464C64.0371 56.32 63.5199 56.3751 62.9657 56.4119C60.5643 56.559 58.1074 56.3016 55.9092 55.6397C54.7639 55.3088 53.6925 54.8492 52.7319 54.316C47.7812 51.4663 47.7628 46.8517 52.6949 44.0021C53.6555 43.4505 54.7454 42.9909 55.9092 42.66C58.1074 42.0165 60.5643 41.7591 62.9657 41.9062C63.5014 41.943 64.0371 41.9981 64.5728 42.0717C65.5518 42.2003 66.4939 42.4026 67.4176 42.66C68.5629 43.0093 69.6343 43.4505 70.5764 43.9837C75.5455 46.8333 75.564 51.448 70.6318 54.2976V54.316Z" fill="#F9A83D"/>
<path d="M61.7094 55.1066C58.6615 55.1066 55.7982 54.4263 53.6554 53.1946C51.6973 52.0731 50.6074 50.6391 50.6074 49.1499C50.6074 47.6791 51.6788 46.2451 53.6184 45.1236C55.7428 43.8918 58.606 43.2115 61.654 43.2115C64.702 43.2115 67.5652 43.8918 69.6896 45.1052C71.6661 46.2451 72.7376 47.6791 72.7376 49.1683C72.7376 50.6391 71.6661 52.0731 69.7265 53.1946C67.6022 54.4263 64.7389 55.1066 61.691 55.1066H61.7094Z" fill="#FFD06C"/>
<path d="M64.2585 50.7494L61.8386 49.3521C60.6748 49.775 59.6958 49.9956 58.883 50.0324C58.0887 50.0691 57.3313 49.8853 56.6109 49.4624C55.8904 49.0396 55.5579 48.5616 55.6134 48.01C55.6688 47.4585 56.0567 46.9437 56.8325 46.4473L56.2045 46.098L56.9988 45.6384L57.6269 46.0061C58.6059 45.5097 59.7882 45.1971 61.1551 45.05L61.4876 46.1715C60.5455 46.2635 59.7143 46.4657 58.9754 46.7782L61.3214 48.1387H61.3583C62.5406 47.6975 63.5566 47.4585 64.3878 47.4217C65.2191 47.3849 65.9949 47.5688 66.7338 47.9916C67.4543 48.4145 67.7868 48.9109 67.7314 49.4624C67.6759 50.0324 67.2326 50.5655 66.4198 51.0803L67.3065 51.5951L66.5122 52.0547L65.607 51.5215C64.3509 52.1099 62.8731 52.4408 61.1736 52.5143L61.0073 51.3561C62.3189 51.3009 63.3903 51.0987 64.2585 50.731V50.7494ZM65.0898 50.3081C65.4408 50.0507 65.644 49.8117 65.6809 49.5544C65.7363 49.3154 65.607 49.0947 65.3115 48.9293C65.0159 48.7638 64.7019 48.6903 64.3509 48.6903C63.9999 48.6903 63.5011 48.8006 62.8361 49.0028L65.0713 50.2898L65.0898 50.3081ZM58.1626 47.2195C57.8116 47.4585 57.6453 47.6791 57.6084 47.9181C57.5899 48.1571 57.7008 48.3409 57.9963 48.5064C58.2734 48.6719 58.569 48.7454 58.9015 48.7454C59.234 48.7454 59.6958 48.6535 60.3239 48.4696L58.1626 47.2195Z" fill="#F9A83D"/>
<path d="M74.3259 44.9029V48.0468C74.3259 49.9036 73.0882 51.7605 70.6314 53.1761C65.6992 56.0258 57.7006 56.0258 52.7315 53.1761C50.2377 51.7421 49 49.8669 49 47.9916V44.8478C49 46.723 50.3485 48.4512 52.8423 49.8669C57.8114 52.7165 65.6992 52.643 70.6314 49.7933C73.0698 48.3777 74.3259 46.7598 74.3259 44.9029Z" fill="#FFD06C"/>
<path d="M70.6318 50.0323C69.6712 50.6023 68.5813 51.0435 67.4176 51.3744C66.5124 51.6502 65.5518 51.8524 64.5728 51.9627C64.0371 52.0363 63.5199 52.0914 62.9657 52.1282C60.5643 52.2753 58.1074 52.0179 55.9092 51.356C54.7639 51.0251 53.6925 50.5655 52.7319 50.0323C47.7812 47.1827 47.7628 42.568 52.6949 39.7184C53.6555 39.1668 54.7454 38.7072 55.9092 38.3763C58.1074 37.7328 60.5643 37.4754 62.9657 37.6225C63.5014 37.6593 64.0371 37.7144 64.5728 37.788C65.5518 37.9167 66.4939 38.1189 67.4176 38.3763C68.5629 38.7256 69.6343 39.1668 70.5764 39.7C75.5455 42.5497 75.564 47.1643 70.6318 50.0139V50.0323Z" fill="#F9A83D"/>
<path d="M61.7094 50.8229C58.6615 50.8229 55.7982 50.1427 53.6554 48.9109C51.6973 47.7894 50.6074 46.3554 50.6074 44.8662C50.6074 43.3954 51.6788 41.9614 53.6184 40.8399C55.7428 39.6081 58.606 38.9279 61.654 38.9279C64.702 38.9279 67.5652 39.6081 69.6896 40.8215C71.6661 41.9614 72.7376 43.3954 72.7376 44.8846C72.7376 46.3554 71.6661 47.7894 69.7265 48.9109C67.6022 50.1427 64.7389 50.8229 61.691 50.8229H61.7094Z" fill="#FFD06C"/>
<path d="M64.2585 46.4657L61.8386 45.0684C60.6748 45.4913 59.6958 45.7119 58.883 45.7487C58.0887 45.7854 57.3313 45.6016 56.6109 45.1787C55.8904 44.7559 55.5579 44.2779 55.6134 43.7263C55.6688 43.1748 56.0567 42.66 56.8325 42.1636L56.2045 41.8143L56.9988 41.3547L57.6269 41.7224C58.6059 41.226 59.7882 40.9134 61.1551 40.7664L61.4876 41.8878C60.5455 41.9798 59.7143 42.182 58.9754 42.4945L61.3214 43.855H61.3583C62.5406 43.4138 63.5566 43.1748 64.3878 43.138C65.2191 43.1012 65.9949 43.2851 66.7338 43.7079C67.4543 44.1308 67.7868 44.6272 67.7314 45.1787C67.6759 45.7487 67.2326 46.2818 66.4198 46.7966L67.3065 47.3114L66.5122 47.771L65.607 47.2378C64.3509 47.8262 62.8731 48.1571 61.1736 48.2306L61.0073 47.0724C62.3189 47.0172 63.3903 46.815 64.2585 46.4473V46.4657ZM65.0898 46.0244C65.4408 45.7671 65.644 45.5281 65.6809 45.2707C65.7363 45.0317 65.607 44.811 65.3115 44.6456C65.0159 44.4801 64.7019 44.4066 64.3509 44.4066C63.9999 44.4066 63.5011 44.5169 62.8361 44.7191L65.0713 46.0061L65.0898 46.0244ZM58.1626 42.9358C57.8116 43.1748 57.6453 43.3954 57.6084 43.6344C57.5899 43.8734 57.7008 44.0573 57.9963 44.2227C58.2734 44.3882 58.569 44.4617 58.9015 44.4617C59.234 44.4617 59.6958 44.3698 60.3239 44.186L58.1626 42.9358Z" fill="#F9A83D"/>
<path d="M74.3259 40.6192V43.763C74.3259 45.6199 73.0882 47.4768 70.6314 48.8924C65.6992 51.7421 57.7006 51.7421 52.7315 48.8924C50.2377 47.4584 49 45.5647 49 43.6895V40.5457C49 42.4209 50.3485 44.1491 52.8423 45.5647C57.8114 48.4144 65.6992 48.3409 70.6314 45.4912C73.0698 44.0756 74.3259 42.4577 74.3259 40.6008V40.6192Z" fill="#FFD06C"/>
<path d="M70.6318 45.7486C69.6712 46.3186 68.5813 46.7598 67.4176 47.0907C66.5124 47.3665 65.5518 47.5687 64.5728 47.679C64.0371 47.7526 63.5199 47.8077 62.9657 47.8445C60.5643 47.9916 58.1074 47.7342 55.9092 47.0723C54.7639 46.7414 53.6925 46.2818 52.7319 45.7486C47.7812 42.899 47.7628 38.2844 52.6949 35.4347C53.6555 34.8831 54.7454 34.4235 55.9092 34.0926C58.1074 33.4491 60.5643 33.1917 62.9657 33.3388C63.5014 33.3756 64.0371 33.4307 64.5728 33.5043C65.5518 33.633 66.4939 33.8352 67.4176 34.0926C68.5629 34.4419 69.6343 34.8831 70.5764 35.4163C75.5455 38.266 75.564 42.8806 70.6318 45.7302V45.7486Z" fill="#F9A83D"/>
<path d="M61.7094 46.5208C58.6615 46.5208 55.7982 45.8405 53.6554 44.6087C51.6973 43.4873 50.6074 42.0532 50.6074 40.5641C50.6074 39.0933 51.6788 37.6592 53.6184 36.5378C55.7428 35.306 58.606 34.6257 61.654 34.6257C64.702 34.6257 67.5652 35.306 69.6896 36.5194C71.6661 37.6592 72.7376 39.0933 72.7376 40.5824C72.7376 42.0532 71.6661 43.4873 69.7265 44.6087C67.6022 45.8405 64.7389 46.5208 61.691 46.5208H61.7094Z" fill="#FFD06C"/>
<path d="M64.2585 42.182L61.8386 40.7847C60.6748 41.2076 59.6958 41.4282 58.883 41.465C58.0887 41.5017 57.3313 41.3179 56.6109 40.895C55.8904 40.4722 55.5579 39.9942 55.6134 39.4426C55.6688 38.8911 56.0567 38.3763 56.8325 37.8799L56.2045 37.5306L56.9988 37.071L57.6269 37.4387C58.6059 36.9423 59.7882 36.6297 61.1551 36.4827L61.4876 37.6041C60.5455 37.6961 59.7143 37.8983 58.9754 38.2108L61.3214 39.5713H61.3583C62.5406 39.1301 63.5566 38.8911 64.3878 38.8543C65.2191 38.8176 65.9949 39.0014 66.7338 39.4243C67.4543 39.8471 67.7868 40.3435 67.7314 40.895C67.6759 41.465 67.2326 41.9981 66.4198 42.5129L67.3065 43.0277L66.5122 43.4873L65.607 42.9542C64.3509 43.5425 62.8731 43.8734 61.1736 43.9469L61.0073 42.7887C62.3189 42.7335 63.3903 42.5313 64.2585 42.1636V42.182ZM65.0898 41.7408C65.4408 41.4834 65.644 41.2444 65.6809 40.987C65.7363 40.748 65.607 40.5273 65.3115 40.3619C65.0159 40.1964 64.7019 40.1229 64.3509 40.1229C63.9999 40.1229 63.5011 40.2332 62.8361 40.4354L65.0713 41.7224L65.0898 41.7408ZM58.1626 38.6521C57.8116 38.8911 57.6453 39.1117 57.6084 39.3507C57.5899 39.5897 57.7008 39.7736 57.9963 39.939C58.2734 40.1045 58.569 40.178 58.9015 40.178C59.234 40.178 59.6958 40.0861 60.3239 39.9023L58.1626 38.6521Z" fill="#F9A83D"/>
<path d="M74.3259 36.3171V39.4609C74.3259 41.3178 73.0882 43.1747 70.6314 44.5903C65.6992 47.44 57.7006 47.44 52.7315 44.5903C50.2377 43.1563 49 41.281 49 39.4058V36.262C49 38.1372 50.3485 39.8654 52.8423 41.281C57.8114 44.1307 65.6992 44.0572 70.6314 41.2075C73.0698 39.7919 74.3259 38.174 74.3259 36.3171Z" fill="#FFD06C"/>
<path d="M70.6318 41.4466C69.6712 42.0166 68.5813 42.4578 67.4176 42.7887C66.5124 43.0645 65.5518 43.2667 64.5728 43.377C64.0371 43.4506 63.5199 43.5057 62.9657 43.5425C60.5643 43.6896 58.1074 43.4322 55.9092 42.7703C54.7639 42.4394 53.6925 41.9798 52.7319 41.4466C47.7812 38.597 47.7628 33.9823 52.6949 31.1327C53.6555 30.5811 54.7454 30.1215 55.9092 29.7906C58.1074 29.1471 60.5643 28.8897 62.9842 29.0368C63.5199 29.0736 64.0556 29.1287 64.5913 29.2023C65.5703 29.331 66.5124 29.5332 67.436 29.7906C68.5813 30.1399 69.6528 30.5811 70.5949 31.1143C75.564 33.964 75.5825 38.5786 70.6503 41.4282L70.6318 41.4466Z" fill="#F9A83D"/>
<path d="M61.7094 42.2371C58.6615 42.2371 55.7982 41.5568 53.6554 40.3251C51.6973 39.2036 50.6074 37.7695 50.6074 36.2804C50.6074 34.8096 51.6788 33.3756 53.6184 32.2541C55.7428 31.0223 58.606 30.342 61.654 30.342C64.702 30.342 67.5652 31.0223 69.6896 32.2357C71.6661 33.3756 72.7376 34.8096 72.7376 36.2988C72.7376 37.7695 71.6661 39.2036 69.7265 40.3251C67.6022 41.5568 64.7389 42.2371 61.691 42.2371H61.7094Z" fill="#FFD06C"/>
<path d="M57.83 37.6961C57.7192 37.5674 57.5714 37.5123 57.3682 37.4755C57.165 37.4571 56.8325 37.4755 56.3892 37.5123C55.9458 37.549 55.5764 37.5674 55.2993 37.5674C54.5234 37.5674 54.0247 37.3652 53.7476 37.0343C53.6183 36.8504 53.5813 36.6849 53.6368 36.5011C53.6922 36.3172 53.84 36.1518 54.0801 35.9863C54.3202 35.8208 54.6158 35.6922 55.0037 35.5818C55.3916 35.4715 55.7426 35.4164 56.1121 35.4164C56.4815 35.4164 56.7956 35.4532 57.0911 35.5635C57.3867 35.6554 57.6084 35.8025 57.7746 35.9863L56.6663 36.2989C56.5369 36.1518 56.3707 36.0599 56.149 36.0231C55.9274 35.9863 55.6872 36.0231 55.4101 36.0966C55.133 36.1702 54.9668 36.2621 54.8744 36.3724C54.7821 36.4827 54.7821 36.593 54.8744 36.7033C54.9668 36.8136 55.1146 36.8688 55.3547 36.8872C55.5948 36.9056 55.9089 36.8872 56.2968 36.8504C57.0172 36.7769 57.6084 36.7769 58.0332 36.8504C58.4581 36.9239 58.7906 37.0894 59.0123 37.3284C59.2524 37.6042 59.2524 37.8616 59.0123 38.119C58.7721 38.3764 58.3473 38.6154 57.7377 38.7992C57.3128 38.9279 56.8879 39.0014 56.4631 39.0198C56.0382 39.0198 55.6687 39.0014 55.3732 38.8911C55.0591 38.7808 54.8375 38.6337 54.6712 38.4131L55.798 38.0822C56.0751 38.4315 56.5924 38.505 57.3128 38.2844C57.5899 38.2109 57.7746 38.1006 57.867 38.0087C57.9593 37.8983 57.9593 37.788 57.867 37.6777L57.83 37.6961Z" fill="#F9A83D"/>
<path d="M63.0021 36.3723L61.0071 36.9606L61.2103 37.696L59.9911 38.0637L59.1968 34.4419L60.1943 34.1661L65.2188 36.501L63.9996 36.8687L63.0021 36.3723ZM60.8408 36.3723L62.2078 35.9679L60.4344 35.0486L60.8408 36.3723Z" fill="#F9A83D"/>
<path d="M66.6414 34.681L65.7363 34.9383L66.8816 35.9679L65.7363 36.3172L62.6514 33.4492L64.6095 32.8976C65.2375 32.7138 65.7917 32.6586 66.3089 32.7138C66.8262 32.7689 67.2326 32.916 67.5651 33.1734C67.7867 33.3572 67.8976 33.5411 67.8976 33.7065C67.8976 33.872 67.7683 34.0559 67.5281 34.2213L70.0589 34.9751H70.0958L68.8582 35.3796L66.6414 34.681ZM65.2191 34.4787L66.1242 34.2213C66.4013 34.1478 66.586 34.0375 66.6414 33.9272C66.7153 33.8169 66.6599 33.6882 66.5121 33.5595C66.3644 33.4308 66.1612 33.3389 65.9395 33.3205C65.7178 33.2837 65.4407 33.3205 65.1452 33.394L64.2585 33.6514L65.2006 34.4971L65.2191 34.4787Z" fill="#F9A83D"/>
<path d="M74.3259 81.2682V84.4121C74.3259 86.2689 73.0882 88.1258 70.6314 89.5415C65.6992 92.3911 57.7006 92.3911 52.7315 89.5415C50.2377 88.1074 49 86.2138 49 84.3385V81.1947C49 83.07 50.3485 84.7981 52.8423 86.2138C57.8114 89.0635 65.6992 88.9899 70.6314 86.1402C73.0698 84.7246 74.3259 83.1067 74.3259 81.2499V81.2682Z" fill="#FFD06C"/>
<path d="M70.6318 86.3977C69.6712 86.9676 68.5813 87.4088 67.4176 87.7398C66.5124 88.0156 65.5518 88.2178 64.5728 88.3281C64.0371 88.4016 63.5199 88.4568 62.9657 88.4936C60.5643 88.6406 58.1074 88.3832 55.9092 87.7214C54.7639 87.3905 53.6925 86.9308 52.7319 86.3977C47.7812 83.548 47.7628 78.9334 52.6949 76.0837C53.6555 75.5322 54.7454 75.0726 55.9092 74.7416C58.1074 74.0982 60.5643 73.8408 62.9657 73.9879C63.5014 74.0246 64.0371 74.0798 64.5728 74.1533C65.5518 74.282 66.4939 74.4842 67.4176 74.7416C68.5629 75.091 69.6343 75.5322 70.5764 76.0654C75.5455 78.915 75.564 83.5296 70.6318 86.3793V86.3977Z" fill="#F9A83D"/>
<path d="M61.6909 87.1698C58.6429 87.1698 55.7797 86.4896 53.6368 85.2578C51.6787 84.1363 50.5889 82.7023 50.5889 81.2131C50.5889 79.7423 51.6603 78.3083 53.5999 77.1868C55.7242 75.955 58.5875 75.2748 61.6355 75.2748C64.6834 75.2748 67.5467 75.955 69.671 77.1684C71.6476 78.3083 72.719 79.7423 72.719 81.2315C72.719 82.7023 71.6476 84.1363 69.708 85.2578C67.5836 86.4896 64.7204 87.1698 61.6724 87.1698H61.6909Z" fill="#FFD06C"/>
<path d="M64.2585 82.831L61.8386 81.4338C60.6748 81.8566 59.6958 82.0773 58.883 82.114C58.0887 82.1508 57.3313 81.9669 56.6109 81.5441C55.8904 81.1212 55.5579 80.6432 55.6134 80.0917C55.6688 79.5401 56.0567 79.0254 56.8325 78.529L56.2045 78.1797L56.9988 77.72L57.6269 78.0877C58.6059 77.5913 59.7882 77.2788 61.1551 77.1317L61.4876 78.2532C60.5455 78.3451 59.7143 78.5474 58.9754 78.8599L61.3214 80.2204H61.3583C62.5406 79.7791 63.5566 79.5401 64.3878 79.5034C65.2191 79.4666 65.9949 79.6504 66.7338 80.0733C67.4543 80.4962 67.7868 80.9925 67.7314 81.5441C67.6759 82.114 67.2326 82.6472 66.4198 83.162L67.3065 83.6767L66.5122 84.1364L65.607 83.6032C64.3509 84.1915 62.8731 84.5225 61.1736 84.596L61.0073 83.4377C62.3189 83.3826 63.3903 83.1804 64.2585 82.8127V82.831ZM65.0898 82.3898C65.4408 82.1324 65.644 81.8934 65.6809 81.636C65.7363 81.397 65.607 81.1764 65.3115 81.0109C65.0159 80.8455 64.7019 80.7719 64.3509 80.7719C63.9999 80.7719 63.5011 80.8822 62.8361 81.0845L65.0713 82.3714L65.0898 82.3898ZM58.1626 79.3011C57.8116 79.5401 57.6453 79.7608 57.6084 79.9998C57.5899 80.2388 57.7008 80.4226 57.9963 80.5881C58.2734 80.7535 58.569 80.8271 58.9015 80.8271C59.234 80.8271 59.6958 80.7352 60.3239 80.5513L58.1626 79.3011Z" fill="#F9A83D"/>
<path d="M74.3259 76.4514V79.5952C74.3259 81.4521 73.0882 83.309 70.6314 84.7246C65.6992 87.5743 57.7006 87.5743 52.7315 84.7246C50.2377 83.2906 49 81.4153 49 79.5401V76.3962C49 78.2715 50.3485 79.9997 52.8423 81.4153C57.8114 84.265 65.6992 84.1914 70.6314 81.3418C73.0698 79.9261 74.3259 78.3083 74.3259 76.4514Z" fill="#FFD06C"/>
<path d="M70.6318 81.5808C69.6712 82.1507 68.5813 82.592 67.4176 82.9229C66.5124 83.1987 65.5518 83.4009 64.5728 83.5112C64.0371 83.5847 63.5199 83.6399 62.9657 83.6767C60.5643 83.8237 58.1074 83.5664 55.9092 82.9045C54.7639 82.5736 53.6925 82.1139 52.7319 81.5808C47.7812 78.7311 47.7628 74.1165 52.6949 71.2668C53.6555 70.7153 54.7454 70.2557 55.9092 69.9247C58.1074 69.2813 60.5643 69.0239 62.9657 69.171C63.5014 69.2077 64.0371 69.2629 64.5728 69.3364C65.5518 69.4651 66.4939 69.6674 67.4176 69.9247C68.5629 70.2741 69.6343 70.7153 70.5764 71.2485C75.5455 74.0981 75.564 78.7127 70.6318 81.5624V81.5808Z" fill="#F9A83D"/>
<path d="M61.6909 82.3714C58.6429 82.3714 55.7797 81.6911 53.6368 80.4593C51.6787 79.3378 50.5889 77.9038 50.5889 76.4146C50.5889 74.9439 51.6603 73.5098 53.5999 72.3884C55.7242 71.1566 58.5875 70.4763 61.6355 70.4763C64.6834 70.4763 67.5467 71.1566 69.671 72.37C71.6476 73.5098 72.719 74.9439 72.719 76.433C72.719 77.9038 71.6476 79.3378 69.708 80.4593C67.5836 81.6911 64.7204 82.3714 61.6724 82.3714H61.6909Z" fill="#FFD06C"/>
<path d="M64.2585 78.0141L61.8386 76.6169C60.6748 77.0397 59.6958 77.2604 58.883 77.2971C58.0887 77.3339 57.3313 77.1501 56.6109 76.7272C55.8904 76.3043 55.5579 75.8263 55.6134 75.2748C55.6688 74.7232 56.0567 74.2085 56.8325 73.7121L56.2045 73.3628L56.9988 72.9031L57.6269 73.2708C58.6059 72.7744 59.7882 72.4619 61.1551 72.3148L61.4876 73.4363C60.5455 73.5282 59.7143 73.7305 58.9754 74.043L61.3214 75.4035H61.3583C62.5406 74.9622 63.5566 74.7232 64.3878 74.6865C65.2191 74.6497 65.9949 74.8336 66.7338 75.2564C67.4543 75.6793 67.7868 76.1757 67.7314 76.7272C67.6759 77.2971 67.2326 77.8303 66.4198 78.3451L67.3065 78.8599L66.5122 79.3195L65.607 78.7863C64.3509 79.3746 62.8731 79.7056 61.1736 79.7791L61.0073 78.6208C62.3189 78.5657 63.3903 78.3635 64.2585 77.9958V78.0141ZM65.0898 77.5729C65.4408 77.3155 65.644 77.0765 65.6809 76.8191C65.7363 76.5801 65.607 76.3595 65.3115 76.194C65.0159 76.0286 64.7019 75.955 64.3509 75.955C63.9999 75.955 63.5011 76.0653 62.8361 76.2676L65.0713 77.5545L65.0898 77.5729ZM58.1626 74.4842C57.8116 74.7232 57.6453 74.9439 57.6084 75.1829C57.5899 75.4219 57.7008 75.6057 57.9963 75.7712C58.2734 75.9367 58.569 76.0102 58.9015 76.0102C59.234 76.0102 59.6958 75.9183 60.3239 75.7344L58.1626 74.4842Z" fill="#F9A83D"/>
<path d="M74.3259 71.9655V75.1093C74.3259 76.9662 73.0882 78.8231 70.6314 80.2387C65.6992 83.0884 57.7006 83.0884 52.7315 80.2387C50.2377 78.8047 49 76.9111 49 75.0358V71.892C49 73.7672 50.3485 75.4954 52.8423 76.9111C57.8114 79.7607 65.6992 79.6872 70.6314 76.8375C73.0698 75.4219 74.3259 73.804 74.3259 71.9471V71.9655Z" fill="#FFD06C"/>
<path d="M70.6318 77.0952C69.6712 77.6651 68.5813 78.1064 67.4176 78.4373C66.5124 78.7131 65.5518 78.9153 64.5728 79.0256C64.0371 79.0991 63.5199 79.1543 62.9657 79.1911C60.5643 79.3381 58.1074 79.0808 55.9092 78.4189C54.7639 78.088 53.6925 77.6283 52.7319 77.0952C47.7812 74.2455 47.7628 69.6309 52.6949 66.7812C53.6555 66.2297 54.7454 65.7701 55.9092 65.4391C58.1074 64.7957 60.5643 64.5383 62.9657 64.6854C63.5014 64.7221 64.0371 64.7773 64.5728 64.8508C65.5518 64.9795 66.4939 65.1818 67.4176 65.4391C68.5629 65.7885 69.6343 66.2297 70.5764 66.7629C75.5455 69.6125 75.564 74.2271 70.6318 77.0768V77.0952Z" fill="#F9A83D"/>
<path d="M61.6909 77.8855C58.6429 77.8855 55.7797 77.2053 53.6368 75.9735C51.6787 74.852 50.5889 73.418 50.5889 71.9288C50.5889 70.458 51.6603 69.024 53.5999 67.9025C55.7242 66.6707 58.5875 65.9905 61.6355 65.9905C64.6834 65.9905 67.5467 66.6707 69.671 67.8841C71.6476 69.024 72.719 70.458 72.719 71.9472C72.719 73.418 71.6476 74.852 69.708 75.9735C67.5836 77.2053 64.7204 77.8855 61.6724 77.8855H61.6909Z" fill="#FFD06C"/>
<path d="M64.2585 73.5283L61.8386 72.131C60.6748 72.5539 59.6958 72.7745 58.883 72.8113C58.0887 72.8481 57.3313 72.6642 56.6109 72.2414C55.8904 71.8185 55.5579 71.3405 55.6134 70.7889C55.6688 70.2374 56.0567 69.7226 56.8325 69.2262L56.2045 68.8769L56.9988 68.4173L57.6269 68.785C58.6059 68.2886 59.7882 67.9761 61.1551 67.829L61.4876 68.9505C60.5455 69.0424 59.7143 69.2446 58.9754 69.5572L61.3214 70.9176H61.3583C62.5406 70.4764 63.5566 70.2374 64.3878 70.2006C65.2191 70.1639 65.9949 70.3477 66.7338 70.7706C67.4543 71.1934 67.7868 71.6898 67.7314 72.2414C67.6759 72.8113 67.2326 73.3445 66.4198 73.8592L67.3065 74.374L66.5122 74.8336L65.607 74.3005C64.3509 74.8888 62.8731 75.2197 61.1736 75.2933L61.0073 74.135C62.3189 74.0798 63.3903 73.8776 64.2585 73.5099V73.5283ZM65.0898 73.0871C65.4408 72.8297 65.644 72.5907 65.6809 72.3333C65.7363 72.0943 65.607 71.8737 65.3115 71.7082C65.0159 71.5427 64.7019 71.4692 64.3509 71.4692C63.9999 71.4692 63.5011 71.5795 62.8361 71.7817L65.0713 73.0687L65.0898 73.0871ZM58.1626 69.9984C57.8116 70.2374 57.6453 70.458 57.6084 70.697C57.5899 70.936 57.7008 71.1199 57.9963 71.2853C58.2734 71.4508 58.569 71.5243 58.9015 71.5243C59.234 71.5243 59.6958 71.4324 60.3239 71.2486L58.1626 69.9984Z" fill="#F9A83D"/>
<g opacity="0.25">
<path d="M62.9652 64.6851V79.1908C60.5638 79.3379 58.1069 79.0805 55.9087 78.4186V65.4205C58.1069 64.777 60.5638 64.5196 62.9652 64.6667V64.6851Z" fill="white"/>
<path d="M67.417 65.4389V78.437C66.5119 78.7128 65.5513 78.915 64.5723 79.0253V64.8322C65.5513 64.9608 66.4934 65.1631 67.417 65.4205V65.4389Z" fill="white"/>
</g>
<path d="M100.335 66.7258V69.8696C100.335 71.7265 99.0975 73.5834 96.6407 74.999C91.7085 77.8487 83.7099 77.8487 78.7407 74.999C76.2469 73.565 75.0093 71.6897 75.0093 69.8145V66.6707C75.0093 68.5459 76.3578 70.2741 78.8516 71.6897C83.8207 74.5394 91.7085 74.4659 96.6407 71.6162C99.079 70.2006 100.335 68.5827 100.335 66.7258Z" fill="#FFD06C"/>
<path d="M96.6591 71.8552C95.6986 72.4251 94.6087 72.8664 93.4449 73.1973C92.5398 73.4731 91.5792 73.6753 90.6001 73.7856C90.0644 73.8592 89.5472 73.9143 88.993 73.9511C86.5916 74.0982 84.1347 73.8408 81.9365 73.1789C80.7912 72.848 79.7198 72.3884 78.7592 71.8552C73.8086 69.0055 73.7901 64.3909 78.7223 61.5413C79.6829 60.9897 80.7727 60.5301 81.9365 60.1992C84.1347 59.5557 86.5916 59.2983 88.993 59.4454C89.5287 59.4821 90.0644 59.5373 90.6001 59.6108C91.5792 59.7395 92.5213 59.9418 93.4449 60.1992C94.5902 60.5485 95.6616 60.9897 96.6037 61.5229C101.573 64.3725 101.591 68.9871 96.6591 71.8368V71.8552Z" fill="#F9A83D"/>
<path d="M87.7182 72.6458C84.6702 72.6458 81.807 71.9655 79.6642 70.7337C77.7061 69.6123 76.6162 68.1782 76.6162 66.6891C76.6162 65.2183 77.6876 63.7842 79.6272 62.6628C81.7516 61.431 84.6148 60.7507 87.6628 60.7507C90.7108 60.7507 93.574 61.431 95.6984 62.6444C97.6749 63.7842 98.7463 65.2183 98.7463 66.7074C98.7463 68.1782 97.6749 69.6123 95.7353 70.7337C93.611 71.9655 90.7477 72.6458 87.6998 72.6458H87.7182Z" fill="#FFD06C"/>
<path d="M90.2678 68.2886L87.8479 66.8913C86.6841 67.3142 85.7051 67.5348 84.8923 67.5715C84.098 67.6083 83.3406 67.4245 82.6202 67.0016C81.8997 66.5788 81.5672 66.1008 81.6226 65.5492C81.6781 64.9977 82.066 64.4829 82.8418 63.9865L82.2138 63.6372L83.0081 63.1776L83.6361 63.5453C84.6152 63.0489 85.7974 62.7363 87.1644 62.5892L87.4969 63.7107C86.5548 63.8026 85.7235 64.0049 84.9846 64.3174L87.3307 65.6779H87.3676C88.5499 65.2367 89.5658 64.9977 90.3971 64.9609C91.2284 64.9241 92.0042 65.108 92.7431 65.5308C93.4636 65.9537 93.7961 66.4501 93.7406 67.0016C93.6852 67.5715 93.2419 68.1047 92.4291 68.6195L93.3158 69.1343L92.5215 69.5939L91.6163 69.0607C90.3602 69.649 88.8824 69.98 87.1829 70.0535L87.0166 68.8953C88.3282 68.8401 89.3996 68.6379 90.2678 68.2702V68.2886ZM91.0991 67.8473C91.45 67.5899 91.6532 67.3509 91.6902 67.0935C91.7456 66.8545 91.6163 66.6339 91.3207 66.4684C91.0252 66.303 90.7111 66.2294 90.3602 66.2294C90.0092 66.2294 89.5104 66.3398 88.8454 66.542L91.0806 67.8289L91.0991 67.8473ZM84.1719 64.7587C83.8209 64.9977 83.6546 65.2183 83.6177 65.4573C83.5992 65.6963 83.71 65.8801 84.0056 66.0456C84.2827 66.2111 84.5782 66.2846 84.9108 66.2846C85.2433 66.2846 85.7051 66.1927 86.3331 66.0088L84.1719 64.7587Z" fill="#F9A83D"/>
<path d="M100.335 61.5045V64.6483C100.335 66.5052 99.0975 68.3621 96.6407 69.7777C91.7085 72.6274 83.7099 72.6274 78.7407 69.7777C76.2469 68.3437 75.0093 66.4684 75.0093 64.5932V61.4493C75.0093 63.3246 76.3578 65.0528 78.8516 66.4684C83.8207 69.3181 91.7085 69.2445 96.6407 66.3949C99.079 64.9792 100.335 63.3614 100.335 61.5045Z" fill="#FFD06C"/>
<path d="M96.6591 66.6339C95.6986 67.2038 94.6087 67.6451 93.4449 67.976C92.5398 68.2518 91.5792 68.454 90.6001 68.5643C90.0644 68.6378 89.5472 68.693 88.993 68.7298C86.5916 68.8768 84.1347 68.6195 81.9365 67.9576C80.7912 67.6267 79.7198 67.167 78.7592 66.6339C73.8086 63.7842 73.7901 59.1696 78.7223 56.3199C79.6829 55.7684 80.7727 55.3088 81.9365 54.9778C84.1347 54.3344 86.5916 54.077 88.993 54.2241C89.5287 54.2608 90.0644 54.316 90.6001 54.3895C91.5792 54.5182 92.5213 54.7205 93.4449 54.9778C94.5902 55.3272 95.6616 55.7684 96.6037 56.3016C101.573 59.1512 101.591 63.7658 96.6591 66.6155V66.6339Z" fill="#F9A83D"/>
<path d="M87.7182 67.406C84.6702 67.406 81.807 66.7258 79.6642 65.494C77.7061 64.3725 76.6162 62.9385 76.6162 61.4493C76.6162 59.9785 77.6876 58.5445 79.6272 57.423C81.7516 56.1912 84.6148 55.511 87.6628 55.511C90.7108 55.511 93.574 56.1912 95.6984 57.4046C97.6749 58.5445 98.7463 59.9785 98.7463 61.4677C98.7463 62.9385 97.6749 64.3725 95.7353 65.494C93.611 66.7258 90.7477 67.406 87.6998 67.406H87.7182Z" fill="#FFD06C"/>
<path d="M90.2678 63.0672L87.8479 61.67C86.6841 62.0928 85.7051 62.3135 84.8923 62.3502C84.098 62.387 83.3406 62.2032 82.6202 61.7803C81.8997 61.3574 81.5672 60.8794 81.6226 60.3279C81.6781 59.7763 82.066 59.2616 82.8418 58.7652L82.2138 58.4159L83.0081 57.9562L83.6361 58.3239C84.6152 57.8275 85.7974 57.515 87.1644 57.3679L87.4969 58.4894C86.5548 58.5813 85.7235 58.7836 84.9846 59.0961L87.3307 60.4566H87.3676C88.5499 60.0153 89.5658 59.7763 90.3971 59.7396C91.2284 59.7028 92.0042 59.8867 92.7431 60.3095C93.4636 60.7324 93.7961 61.2288 93.7406 61.7803C93.6852 62.3502 93.2419 62.8834 92.4291 63.3982L93.3158 63.913L92.5215 64.3726L91.6163 63.8394C90.3602 64.4277 88.8824 64.7587 87.1829 64.8322L87.0166 63.6739C88.3282 63.6188 89.3996 63.4166 90.2678 63.0489V63.0672ZM91.0991 62.626C91.45 62.3686 91.6532 62.1296 91.6902 61.8722C91.7456 61.6332 91.6163 61.4126 91.3207 61.2471C91.0252 61.0817 90.7111 61.0081 90.3602 61.0081C90.0092 61.0081 89.5104 61.1184 88.8454 61.3207L91.0806 62.6076L91.0991 62.626ZM84.1719 59.5373C83.8209 59.7763 83.6546 59.997 83.6177 60.236C83.5992 60.475 83.71 60.6588 84.0056 60.8243C84.2827 60.9897 84.5782 61.0633 84.9108 61.0633C85.2433 61.0633 85.7051 60.9714 86.3331 60.7875L84.1719 59.5373Z" fill="#F9A83D"/>
<path d="M100.335 56.2649V59.4087C100.335 61.2656 99.0975 63.1224 96.6407 64.5381C91.7085 67.3877 83.7099 67.3877 78.7407 64.5381C76.2469 63.1041 75.0093 61.2288 75.0093 59.3535V56.2097C75.0093 58.085 76.3578 59.8132 78.8516 61.2288C83.8207 64.0785 91.7085 64.0049 96.6407 61.1553C99.079 59.7396 100.335 58.1217 100.335 56.2649Z" fill="#FFD06C"/>
<path d="M96.6591 61.3943C95.6986 61.9642 94.6087 62.4054 93.4449 62.7364C92.5398 63.0121 91.5792 63.2144 90.6001 63.3247C90.0644 63.3982 89.5472 63.4534 88.993 63.4901C86.5916 63.6372 84.1347 63.3798 81.9365 62.718C80.7912 62.387 79.7198 61.9274 78.7592 61.3943C73.8086 58.5446 73.7901 53.93 78.7223 51.0803C79.6829 50.5288 80.7727 50.0691 81.9365 49.7382C84.1347 49.0947 86.5916 48.8374 88.993 48.9844C89.5287 49.0212 90.0644 49.0764 90.6001 49.1499C91.5792 49.2786 92.5213 49.4808 93.4449 49.7382C94.5902 50.0875 95.6616 50.5288 96.6037 51.0619C101.573 53.9116 101.591 58.5262 96.6591 61.3759V61.3943Z" fill="#F9A83D"/>
<path d="M87.7182 62.1848C84.6702 62.1848 81.807 61.5046 79.6642 60.2728C77.7061 59.1513 76.6162 57.7173 76.6162 56.2281C76.6162 54.7573 77.6876 53.3233 79.6272 52.2018C81.7516 50.97 84.6148 50.2898 87.6628 50.2898C90.7108 50.2898 93.574 50.97 95.6984 52.1834C97.6749 53.3233 98.7463 54.7573 98.7463 56.2465C98.7463 57.7173 97.6749 59.1513 95.7353 60.2728C93.611 61.5046 90.7477 62.1848 87.6998 62.1848H87.7182Z" fill="#FFD06C"/>
<path d="M90.2678 57.8276L87.8479 56.4304C86.6841 56.8532 85.7051 57.0738 84.8923 57.1106C84.098 57.1474 83.3406 56.9635 82.6202 56.5407C81.8997 56.1178 81.5672 55.6398 81.6226 55.0883C81.6781 54.5367 82.066 54.0219 82.8418 53.5256L82.2138 53.1762L83.0081 52.7166L83.6361 53.0843C84.6152 52.5879 85.7974 52.2754 87.1644 52.1283L87.4969 53.2498C86.5548 53.3417 85.7235 53.5439 84.9846 53.8565L87.3307 55.217H87.3676C88.5499 54.7757 89.5658 54.5367 90.3971 54.5C91.2284 54.4632 92.0042 54.647 92.7431 55.0699C93.4636 55.4927 93.7961 55.9891 93.7406 56.5407C93.6852 57.1106 93.2419 57.6438 92.4291 58.1585L93.3158 58.6733L92.5215 59.1329L91.6163 58.5998C90.3602 59.1881 88.8824 59.519 87.1829 59.5926L87.0166 58.4343C88.3282 58.3792 89.3996 58.1769 90.2678 57.8092V57.8276ZM91.0991 57.3864C91.45 57.129 91.6532 56.89 91.6902 56.6326C91.7456 56.3936 91.6163 56.173 91.3207 56.0075C91.0252 55.842 90.7111 55.7685 90.3602 55.7685C90.0092 55.7685 89.5104 55.8788 88.8454 56.0811L91.0806 57.368L91.0991 57.3864ZM84.1719 54.2977C83.8209 54.5367 83.6546 54.7573 83.6177 54.9963C83.5992 55.2353 83.71 55.4192 84.0056 55.5847C84.2827 55.7501 84.5782 55.8237 84.9108 55.8237C85.2433 55.8237 85.7051 55.7317 86.3331 55.5479L84.1719 54.2977Z" fill="#F9A83D"/>
<path d="M100.335 51.7789V54.9227C100.335 56.7796 99.0975 58.6365 96.6407 60.0521C91.7085 62.9018 83.7099 62.9018 78.7407 60.0521C76.2469 58.6181 75.0093 56.7428 75.0093 54.8676V51.7238C75.0093 53.599 76.3578 55.3272 78.8516 56.7428C83.8207 59.5925 91.7085 59.519 96.6407 56.6693C99.079 55.2537 100.335 53.6358 100.335 51.7789Z" fill="#FFD06C"/>
<path d="M96.6591 56.9083C95.6986 57.4782 94.6087 57.9195 93.4449 58.2504C92.5398 58.5262 91.5792 58.7284 90.6001 58.8387C90.0644 58.9123 89.5472 58.9674 88.993 59.0042C86.5916 59.1513 84.1347 58.8939 81.9365 58.232C80.7912 57.9011 79.7198 57.4415 78.7592 56.9083C73.8086 54.0586 73.7901 49.444 78.7223 46.5944C79.6829 46.0428 80.7727 45.5832 81.9365 45.2523C84.1347 44.6088 86.5916 44.3514 88.993 44.4985C89.5287 44.5352 90.0644 44.5904 90.6001 44.6639C91.5792 44.7926 92.5213 44.9949 93.4449 45.2523C94.5902 45.6016 95.6616 46.0428 96.6037 46.576C101.573 49.4256 101.591 54.0402 96.6591 56.8899V56.9083Z" fill="#F9A83D"/>
<path d="M87.7182 57.6989C84.6702 57.6989 81.807 57.0186 79.6642 55.7868C77.7061 54.6654 76.6162 53.2313 76.6162 51.7422C76.6162 50.2714 77.6876 48.8373 79.6272 47.7159C81.7516 46.4841 84.6148 45.8038 87.6628 45.8038C90.7108 45.8038 93.574 46.4841 95.6984 47.6975C97.6749 48.8373 98.7463 50.2714 98.7463 51.7605C98.7463 53.2313 97.6749 54.6654 95.7353 55.7868C93.611 57.0186 90.7477 57.6989 87.6998 57.6989H87.7182Z" fill="#FFD06C"/>
<path d="M84.3009 53.2496L82.2504 53.8563L82.4167 54.6469L81.1605 55.0329L80.5879 51.1353L81.6224 50.8412L86.5545 53.4151L85.2984 53.8012L84.3194 53.268L84.3009 53.2496ZM82.1211 53.2128L83.525 52.8084L81.7886 51.7972L82.1211 53.2128Z" fill="#F9A83D"/>
<path d="M89.1779 50.8963L86.9611 51.5398L87.7739 52.3671L90.4155 51.5766L90.9328 52.073L87.0905 53.2312L84.1533 50.1058L87.7739 49.0946L88.3096 49.591L85.7789 50.308L86.4993 51.0434L88.6976 50.3999L89.1963 50.8779L89.1779 50.8963Z" fill="#F9A83D"/>
<path d="M91.6162 51.8708L88.4204 48.9108L90.0829 48.4512C90.5632 48.3225 91.0435 48.2489 91.5607 48.2673C92.078 48.2673 92.5583 48.3409 93.0201 48.4879C93.4819 48.635 93.8883 48.8373 94.2023 49.0946L94.3686 49.2233C94.6826 49.4807 94.8673 49.7381 94.9043 50.0139C94.9412 50.2897 94.8119 50.5287 94.5533 50.7677C94.2947 51.0067 93.9068 51.1905 93.408 51.3376L91.6346 51.8708H91.6162ZM90.0645 49.0946L92.2442 51.0434L92.8169 50.878C93.2787 50.7493 93.5373 50.5654 93.5927 50.3448C93.6481 50.1242 93.5188 49.8668 93.2048 49.591L93.0201 49.444C92.6691 49.1498 92.2996 48.9659 91.8933 48.8924C91.4869 48.8005 91.062 48.8373 90.6186 48.9476L90.0645 49.113V49.0946Z" fill="#F9A83D"/>
<g opacity="0.25">
<path d="M88.993 44.4984V59.0041C86.5916 59.1512 84.1348 58.8938 81.9365 58.232V45.2338C84.1348 44.5904 86.5916 44.333 88.993 44.48V44.4984Z" fill="white"/>
<path d="M93.4449 45.2522V58.2503C92.5397 58.5261 91.5791 58.7284 90.6001 58.8387V44.6455C91.5791 44.7742 92.5212 44.9764 93.4449 45.2338V45.2522Z" fill="white"/>
</g>
<path d="M115.058 81.0844L116 81.6359V88.5487L101.702 96.8035L101.148 97.116L96.6777 99.7083L82.3245 108.018L64.5908 97.833V90.9203L65.5329 90.3872L64.5908 89.8356V82.9229L78.9255 74.6497L79.4797 74.3187L83.3774 72.0574L83.9316 71.7265L98.2478 63.4532L115.981 73.6385V80.5512L115.039 81.0844H115.058Z" fill="#C9CEE2"/>
<path d="M116 81.6175V88.5302L82.3062 108V101.087L96.6224 92.8139L97.1766 92.5014L101.111 90.2216L101.684 89.8907L116 81.5991V81.6175Z" fill="#E9E7FC"/>
<path d="M82.343 101.087V108L64.5908 97.8146V90.9019L82.343 101.087Z" fill="#DEDFFB"/>
<path d="M116 81.6175L82.3245 101.087L64.5908 90.9019L98.2663 71.4323L116 81.6175Z" fill="#F3F1FC"/>
<path d="M105.859 82.4448L101.647 84.89L101 84.5223L105.212 82.0771L105.859 82.4448Z" fill="#78E75A"/>
<path d="M101.98 81.1001C101.983 80.237 100.769 79.5338 99.2697 79.5293C97.77 79.5249 96.5522 80.221 96.5496 81.084C96.547 81.9471 97.7607 82.6503 99.2604 82.6547C100.76 82.6592 101.978 81.9631 101.98 81.1001Z" fill="#72D561"/>
<path d="M101.555 79.7607C102.829 80.4961 102.848 81.6911 101.555 82.4265C100.28 83.1619 98.2111 83.1619 96.918 82.4265C95.6434 81.6911 95.6249 80.4961 96.918 79.7607C98.1926 79.0253 100.262 79.0253 101.555 79.7607ZM97.3428 82.2058C98.3958 82.8126 100.114 82.8126 101.167 82.2058C102.22 81.5991 102.22 80.6064 101.167 79.9997C100.114 79.393 98.3958 79.393 97.3428 79.9997C96.2899 80.6064 96.2899 81.5991 97.3428 82.2058Z" fill="#78E75A"/>
<path d="M104.104 82.2609L101.277 83.8972L100.982 83.7317L103.808 82.0955L104.104 82.2609Z" fill="#78E75A"/>
<path d="M107.891 80.5512C106.875 81.1395 106.893 82.0955 107.891 82.6654L84.1533 96.399C83.1373 95.8106 81.4747 95.8106 80.4588 96.399L72.7188 91.9498C73.7347 91.3615 73.7347 90.4055 72.7188 89.8172L96.456 76.0836C97.472 76.6719 99.1345 76.6719 100.132 76.0836L107.872 80.5328L107.891 80.5512ZM87.2567 88.0154C89.3995 89.2472 92.5029 89.4495 94.1839 88.475C95.8649 87.5006 95.4954 85.7173 93.3526 84.4855C91.2098 83.2537 88.1064 83.0515 86.4254 84.0259C84.7444 85.0003 85.1138 86.7836 87.2567 88.0154ZM80.0339 92.1888C81.3085 92.9242 83.3959 92.9242 84.6705 92.1888C85.9451 91.4534 85.9451 90.2584 84.6705 89.523C83.3959 88.7876 81.3085 88.7876 80.0339 89.523C78.7593 90.2584 78.7778 91.4534 80.0339 92.1888ZM101.573 79.7422C100.298 79.0068 98.2109 79.0068 96.9363 79.7422C95.6617 80.4776 95.6617 81.6726 96.9363 82.408C98.2109 83.1434 100.298 83.1434 101.573 82.408C102.848 81.6726 102.848 80.4776 101.573 79.7422ZM76.3763 89.8539L82.1028 86.5446L81.4563 86.1769L75.7298 89.4862L76.3763 89.8539ZM96.8809 77.2603L91.1544 80.5695L91.8009 80.9372L97.5274 77.628L96.8809 77.2603ZM101.665 84.8716L105.877 82.4264L105.23 82.0587L101.019 84.5039L101.665 84.8716ZM84.7444 94.6524L88.9561 92.2072L88.3096 91.8395L84.0979 94.2847L84.7444 94.6524ZM84.3934 93.6412L87.2197 92.005L86.9242 91.8395L84.0979 93.4757L84.3934 93.6412ZM77.7987 89.8539L80.625 88.2177L80.3294 88.0522L77.5031 89.6885L77.7987 89.8539ZM103.827 82.0587L101 83.695L101.296 83.8604L104.122 82.2242L103.827 82.0587ZM97.2318 78.2714L94.4055 79.9077L94.7011 80.0731L97.5274 78.4369L97.2318 78.2714Z" fill="white"/>
<path d="M97.5091 78.4553L94.6828 80.0915L94.3872 79.9261L97.2135 78.2898L97.5091 78.4553Z" fill="#78E75A"/>
<path d="M93.1862 84.5958C95.1997 85.7541 95.5507 87.4455 93.9621 88.3647C92.3734 89.284 89.4363 89.0817 87.4043 87.9235C85.3723 86.7652 85.0213 85.0738 86.6285 84.1546C88.2171 83.2353 91.1542 83.4376 93.1862 84.5958Z" fill="#72D561"/>
<path d="M93.796 84.2465C96.2344 85.6437 96.6593 87.7029 94.7381 88.806C92.817 89.9274 89.2518 89.6884 86.8134 88.2728C84.375 86.8755 83.9501 84.8164 85.8713 83.6949C87.7924 82.5735 91.3576 82.8125 93.796 84.2281V84.2465ZM87.423 87.9419C89.4365 89.1001 92.3736 89.3023 93.9807 88.3831C95.5694 87.4639 95.2184 85.7724 93.2049 84.6142C91.1729 83.4559 88.2358 83.2537 86.6471 84.173C85.0585 85.0922 85.4095 86.7836 87.423 87.9419Z" fill="#78E75A"/>
<path d="M97.4907 77.6464L91.7642 80.9557L91.1177 80.588L96.8442 77.2787L97.4907 77.6464Z" fill="#78E75A"/>
<path d="M80.5882 88.2545L77.7619 89.8907L77.4663 89.7252L80.2926 88.089L80.5882 88.2545Z" fill="#78E75A"/>
<path d="M82.0845 86.563L76.358 89.8723L75.7114 89.5046L81.4379 86.1953L82.0845 86.563Z" fill="#78E75A"/>
<path d="M84.6337 89.5414C85.9083 90.2768 85.9268 91.4718 84.6337 92.2072C83.3591 92.9426 81.2902 92.9426 79.9971 92.2072C78.7225 91.4718 78.704 90.2768 79.9971 89.5414C81.2717 88.806 83.3591 88.806 84.6337 89.5414ZM80.4219 91.9866C81.4749 92.5933 83.1928 92.5933 84.2458 91.9866C85.2987 91.3799 85.2987 90.3871 84.2458 89.7804C83.1928 89.1737 81.4749 89.1737 80.4219 89.7804C79.369 90.3871 79.369 91.3799 80.4219 91.9866Z" fill="#78E75A"/>
<path d="M87.1829 92.0417L84.3566 93.6779L84.061 93.5125L86.8873 91.8762L87.1829 92.0417Z" fill="#78E75A"/>
<path d="M88.9379 92.2439L84.7261 94.6891L84.0796 94.3214L88.2913 91.8762L88.9379 92.2439Z" fill="#78E75A"/>
<path d="M85.065 90.8914C85.0675 90.0284 83.8539 89.3251 82.3542 89.3207C80.8545 89.3163 79.6366 90.0123 79.6341 90.8754C79.6315 91.7385 80.8451 92.4417 82.3449 92.4461C83.8446 92.4506 85.0624 91.7545 85.065 90.8914Z" fill="#72D561"/>
<path d="M98.285 72.7008L113.783 81.6175L82.3247 99.8186L66.8262 90.9019L98.285 72.7008ZM84.1534 96.399L107.891 82.6654C106.875 82.0771 106.856 81.1211 107.891 80.5512L100.151 76.102C99.1347 76.6903 97.4906 76.6903 96.4746 76.102L72.7374 89.8356C73.7534 90.4239 73.7534 91.3799 72.7374 91.9682L80.4774 96.4173C81.4934 95.829 83.1375 95.829 84.1719 96.4173L84.1534 96.399Z" fill="#78E75A"/>
<path d="M101.683 89.9091L101.129 90.2401L83.3955 80.0548L83.9497 79.7239L101.683 89.9091Z" fill="#F45170"/>
<path d="M97.2131 92.483L96.659 92.8139L78.9253 82.6287L79.4795 82.2977L97.2131 92.483Z" fill="#F45170"/>
<path d="M101.111 90.2216L97.2132 92.483L79.4795 82.2977L83.3772 80.0364L101.111 90.2216Z" fill="#C9CEE2"/>
<path d="M115.335 83.6215C113.026 85.0187 110.698 86.416 108.352 87.7948L101.333 91.8947L94.2761 95.9394C91.9116 97.2815 89.5471 98.6052 87.1826 99.9105C89.4917 98.5132 91.8192 97.116 94.1652 95.7371L101.185 91.6373L108.241 87.5926C110.606 86.2505 112.97 84.9268 115.335 83.6215Z" fill="#C9CEE2"/>
<path d="M109.646 90.718C108.038 91.7292 106.413 92.7036 104.806 93.678L99.9105 96.5644L94.9783 99.3773C93.3158 100.297 91.6717 101.216 89.9907 102.098C91.5978 101.087 93.2049 100.113 94.8305 99.1383L99.7258 96.2519L104.658 93.439C106.32 92.5197 107.965 91.6005 109.646 90.718Z" fill="#C9CEE2"/>
<path d="M103.549 92.4646C101.942 93.4758 100.317 94.4502 98.7095 95.4246L93.8143 98.311L88.8821 101.124C87.2196 102.043 85.5755 102.962 83.8945 103.845C85.5016 102.834 87.1088 101.859 88.7343 100.885L93.6296 97.9985L98.5618 95.1856C100.224 94.2663 101.868 93.3471 103.549 92.4646Z" fill="#C9CEE2"/>
<path d="M65.7729 93.6597C66.8998 94.2296 67.9897 94.8179 69.098 95.4246C70.2064 96.0313 71.2778 96.6564 72.3677 97.2631C73.4391 97.9066 74.5289 98.5317 75.6004 99.1751C76.6718 99.8186 77.7432 100.48 78.7776 101.179C77.6508 100.609 76.5609 100.021 75.4526 99.4141C74.3627 98.8074 73.2728 98.1824 72.1829 97.5757C71.1115 96.9322 70.0216 96.3071 68.9502 95.6636C67.8788 95.0202 66.8074 94.3583 65.7729 93.6597Z" fill="#C9CEE2"/>
<path d="M68.5068 97.2079C69.6337 97.7778 70.7235 98.3661 71.8319 98.9728C72.9403 99.5795 74.0117 100.205 75.1015 100.811C76.173 101.455 77.2628 102.08 78.3342 102.723C79.4057 103.367 80.4771 104.029 81.5115 104.727C80.3847 104.157 79.2948 103.569 78.1865 102.962C77.0966 102.356 76.0067 101.731 74.9168 101.124C73.8454 100.48 72.7555 99.8553 71.6841 99.2118C70.6127 98.5684 69.5413 97.9065 68.5068 97.2079Z" fill="#C9CEE2"/>
<path d="M64.7754 97.024C65.9022 97.594 66.9921 98.1823 68.1005 98.789C69.2088 99.3957 70.2802 100.021 71.3701 100.627C72.4415 101.271 73.5314 101.896 74.6028 102.54C75.6742 103.183 76.7456 103.845 77.7801 104.543C76.6533 103.974 75.5634 103.385 74.455 102.779C73.3651 102.172 72.2753 101.547 71.1854 100.94C70.114 100.297 69.0241 99.6715 67.9527 99.028C66.8813 98.3845 65.8099 97.7227 64.7754 97.024Z" fill="#C9CEE2"/>
<path d="M101.702 96.7851L101.129 97.116V90.2217H101.111L101.683 89.8907L101.702 96.7851Z" fill="#DF3260"/>
<path d="M101.13 97.116L97.2319 99.3774V92.5014L97.2134 92.483L101.111 90.2217L101.13 97.116Z" fill="#9EA9C9"/>
<path d="M116 73.6385V80.5512L82.3062 100.021V93.1081L96.6224 84.8349L97.1766 84.5224L101.111 82.2426L101.684 81.9117L116 73.6201V73.6385Z" fill="#E9E7FC"/>
<path d="M82.343 93.1081V100.021L64.5908 89.8356V82.9229L82.343 93.1081Z" fill="#DEDFFB"/>
<path d="M116 73.6385L82.3245 93.1081L64.5908 82.9229L98.2663 63.4532L116 73.6385Z" fill="#F3F1FC"/>
<path d="M105.859 74.4658L101.647 76.911L101 76.5433L105.212 74.0981L105.859 74.4658Z" fill="#78E75A"/>
<path d="M101.962 73.1157C101.965 72.2526 100.751 71.5494 99.2511 71.545C97.7514 71.5405 96.5336 72.2366 96.531 73.0996C96.5285 73.9627 97.7421 74.6659 99.2418 74.6704C100.742 74.6748 101.959 73.9787 101.962 73.1157Z" fill="#72D561"/>
<path d="M101.555 71.7632C102.829 72.4986 102.848 73.6936 101.555 74.429C100.28 75.1644 98.2111 75.1644 96.918 74.429C95.6434 73.6936 95.6249 72.4986 96.918 71.7632C98.1926 71.0278 100.262 71.0278 101.555 71.7632ZM97.3428 74.2084C98.3958 74.8151 100.114 74.8151 101.167 74.2084C102.22 73.6017 102.22 72.6089 101.167 72.0022C100.114 71.3955 98.3958 71.3955 97.3428 72.0022C96.2899 72.6089 96.2899 73.6017 97.3428 74.2084Z" fill="#78E75A"/>
<path d="M104.104 74.2819L101.277 75.9182L100.982 75.7527L103.808 74.1165L104.104 74.2819Z" fill="#78E75A"/>
<path d="M107.891 72.5722C106.875 73.1605 106.893 74.1165 107.891 74.6864L84.1533 88.4199C83.1373 87.8316 81.4747 87.8316 80.4588 88.4199L72.7188 83.9708C73.7347 83.3825 73.7347 82.4265 72.7188 81.8381L96.456 68.1046C97.472 68.6929 99.1345 68.6929 100.132 68.1046L107.872 72.5538L107.891 72.5722ZM87.2567 80.0364C89.3995 81.2682 92.5029 81.4705 94.1839 80.496C95.8649 79.5216 95.4954 77.7383 93.3526 76.5065C91.2098 75.2747 88.1064 75.0725 86.4254 76.0469C84.7444 77.0213 85.1138 78.8046 87.2567 80.0364ZM80.0339 84.2098C81.3085 84.9452 83.3959 84.9452 84.6705 84.2098C85.9451 83.4744 85.9451 82.2794 84.6705 81.544C83.3959 80.8086 81.3085 80.8086 80.0339 81.544C78.7593 82.2794 78.7778 83.4744 80.0339 84.2098ZM101.573 71.7632C100.298 71.0278 98.2109 71.0278 96.9363 71.7632C95.6617 72.4986 95.6617 73.6936 96.9363 74.429C98.2109 75.1644 100.298 75.1644 101.573 74.429C102.848 73.6936 102.848 72.4986 101.573 71.7632ZM76.3763 81.8749L82.1028 78.5656L81.4563 78.1979L75.7298 81.5072L76.3763 81.8749ZM96.8809 69.2812L91.1544 72.5905L91.8009 72.9582L97.5274 69.6489L96.8809 69.2812ZM101.665 76.8926L105.877 74.4474L105.23 74.0797L101.019 76.5249L101.665 76.8926ZM77.7987 81.8749L80.625 80.2387L80.3294 80.0732L77.5031 81.7095L77.7987 81.8749ZM103.827 74.0797L101 75.716L101.296 75.8814L104.122 74.2452L103.827 74.0797ZM97.2318 70.2924L94.4055 71.9287L94.7011 72.0941L97.5274 70.4579L97.2318 70.2924Z" fill="white"/>
<path d="M97.5091 70.4763L94.6828 72.1125L94.3872 71.9471L97.2135 70.3108L97.5091 70.4763Z" fill="white"/>
<path d="M93.1862 76.6168C95.1997 77.775 95.5507 79.4665 93.9621 80.3857C92.3734 81.305 89.4363 81.1027 87.4043 79.9445C85.3723 78.7862 85.0213 77.0948 86.6285 76.1756C88.2171 75.2563 91.1542 75.4585 93.1862 76.6168Z" fill="#72D561"/>
<path d="M93.796 76.2675C96.2344 77.6647 96.6593 79.7239 94.7381 80.827C92.817 81.9484 89.2518 81.7094 86.8134 80.2938C84.375 78.8965 83.9501 76.8374 85.8713 75.7159C87.7924 74.5945 91.3576 74.8335 93.796 76.2491V76.2675ZM87.423 79.9629C89.4365 81.1211 92.3736 81.3233 93.9807 80.4041C95.5694 79.4849 95.2184 77.7934 93.2049 76.6352C91.1729 75.4769 88.2358 75.2747 86.6471 76.194C85.0585 77.1132 85.4095 78.8046 87.423 79.9629Z" fill="#78E75A"/>
<path d="M97.4907 69.6674L91.7642 72.9767L91.1177 72.609L96.8442 69.2997L97.4907 69.6674Z" fill="white"/>
<path d="M80.5882 80.257L77.7619 81.8933L77.4663 81.7278L80.2926 80.0916L80.5882 80.257Z" fill="#78E75A"/>
<path d="M82.0845 78.584L76.358 81.8933L75.7114 81.5256L81.4379 78.2163L82.0845 78.584Z" fill="#78E75A"/>
<path d="M84.6337 81.5624C85.9083 82.2978 85.9268 83.4928 84.6337 84.2282C83.3591 84.9636 81.2902 84.9636 79.9971 84.2282C78.7225 83.4928 78.704 82.2978 79.9971 81.5624C81.2717 80.827 83.3591 80.827 84.6337 81.5624ZM80.4219 84.0076C81.4749 84.6143 83.1928 84.6143 84.2458 84.0076C85.2987 83.4009 85.2987 82.4081 84.2458 81.8014C83.1928 81.1947 81.4749 81.1947 80.4219 81.8014C79.369 82.4081 79.369 83.4009 80.4219 84.0076Z" fill="#78E75A"/>
<path d="M85.065 82.9072C85.0675 82.0441 83.8539 81.3409 82.3542 81.3365C80.8545 81.332 79.6366 82.0281 79.6341 82.8911C79.6315 83.7542 80.8451 84.4574 82.3448 84.4619C83.8446 84.4663 85.0624 83.7702 85.065 82.9072Z" fill="#72D561"/>
<path d="M98.285 64.7218L113.783 73.6385L82.3247 91.8396L66.8262 82.9229L98.285 64.7218ZM84.1534 88.42L107.891 74.6864C106.875 74.0981 106.856 73.1421 107.891 72.5722L100.151 68.123C99.1347 68.7113 97.4906 68.7113 96.4746 68.123L72.7374 81.8565C73.7534 82.4449 73.7534 83.4009 72.7374 83.9892L80.4774 88.4384C81.4934 87.85 83.1375 87.85 84.1719 88.4384L84.1534 88.42Z" fill="#78E75A"/>
<path d="M101.683 81.9117L101.129 82.2426L83.3955 72.0574L83.9497 71.7264L101.683 81.9117Z" fill="#F45170"/>
<path d="M97.2131 84.504L96.659 84.8349L78.9253 74.6497L79.4795 74.3187L97.2131 84.504Z" fill="#F45170"/>
<path d="M101.111 82.2426L97.2132 84.504L79.4795 74.3187L83.3772 72.0574L101.111 82.2426Z" fill="#C9CEE2"/>
<path d="M115.335 75.6425C113.026 77.0397 110.698 78.437 108.352 79.8158L101.333 83.9157L94.2761 87.9604C91.9116 89.3024 89.5471 90.6262 87.1826 91.9315C89.4917 90.5342 91.8192 89.137 94.1652 87.7581L101.185 83.6583L108.241 79.6136C110.606 78.2715 112.97 76.9478 115.335 75.6425Z" fill="#C9CEE2"/>
<path d="M109.646 82.739C108.038 83.7502 106.413 84.7246 104.806 85.699L99.9105 88.5854L94.9783 91.3983C93.3158 92.3176 91.6717 93.2368 89.9907 94.1193C91.5978 93.1081 93.2049 92.1337 94.8305 91.1593L99.7258 88.2729L104.658 85.46C106.32 84.5407 107.965 83.6215 109.646 82.739Z" fill="#C9CEE2"/>
<path d="M103.549 84.4856C101.942 85.4968 100.317 86.4712 98.7095 87.4456L93.8143 90.332L88.8821 93.1449C87.2196 94.0641 85.5755 94.9834 83.8945 95.8659C85.5016 94.8547 87.1088 93.8803 88.7343 92.9059L93.6296 90.0195L98.5618 87.2066C100.224 86.2873 101.868 85.3681 103.549 84.4856Z" fill="#C9CEE2"/>
<path d="M65.7729 85.6807C66.8998 86.2506 67.9897 86.8389 69.098 87.4456C70.2064 88.0523 71.2778 88.6774 72.3677 89.2841C73.4391 89.9276 74.5289 90.5527 75.6004 91.1961C76.6718 91.8396 77.7432 92.5015 78.7776 93.2001C77.6508 92.6302 76.5609 92.0418 75.4526 91.4351C74.3627 90.8284 73.2728 90.2034 72.1829 89.5967C71.1115 88.9532 70.0216 88.3281 68.9502 87.6846C67.8788 87.0411 66.8074 86.3793 65.7729 85.6807Z" fill="#C9CEE2"/>
<path d="M68.5068 89.2289C69.6337 89.7988 70.7235 90.3871 71.8319 90.9938C72.9403 91.6005 74.0117 92.2256 75.1015 92.8323C76.173 93.4758 77.2628 94.1009 78.3342 94.7444C79.4057 95.3878 80.4771 96.0497 81.5115 96.7483C80.3847 96.1784 79.2948 95.5901 78.1865 94.9834C77.0966 94.3767 76.0067 93.7516 74.9168 93.1449C73.8454 92.5014 72.7555 91.8763 71.6841 91.2328C70.6127 90.5894 69.5413 89.9275 68.5068 89.2289Z" fill="#C9CEE2"/>
<path d="M64.7754 89.045C65.9022 89.615 66.9921 90.2033 68.1005 90.81C69.2088 91.4167 70.2802 92.0418 71.3701 92.6485C72.4415 93.292 73.5314 93.917 74.6028 94.5605C75.6742 95.204 76.7456 95.8658 77.7801 96.5645C76.6533 95.9945 75.5634 95.4062 74.455 94.7995C73.3651 94.1928 72.2753 93.5677 71.1854 92.961C70.114 92.3176 69.0241 91.6925 67.9527 91.049C66.8813 90.4055 65.8099 89.7437 64.7754 89.045Z" fill="#C9CEE2"/>
<path d="M101.702 88.8061L101.129 89.137V82.2427H101.111L101.683 81.9117L101.702 88.8061Z" fill="#DF3260"/>
<path d="M101.13 89.137L97.2319 91.3984V84.5224L97.2134 84.504L101.111 82.2427L101.13 89.137Z" fill="#9EA9C9"/>
<g opacity="0.25">
<path d="M62.9838 29.0367V43.5424C60.5823 43.6895 58.1255 43.4321 55.9272 42.7702V29.7905C58.107 29.147 60.5639 28.8896 62.9838 29.0367Z" fill="white"/>
<path d="M67.417 29.8089V42.807C66.5119 43.0828 65.5513 43.285 64.5723 43.3953V29.2021C65.5513 29.3308 66.4934 29.5331 67.417 29.7905V29.8089Z" fill="white"/>
</g>
</g>
</g>
<defs>
<clipPath id="clip0_1067_4054">
<rect width="113.252" height="113.533" fill="white" transform="translate(0.806152 0.666626)"/>
</clipPath>
<clipPath id="clip1_1067_4054">
<rect width="67" height="79" fill="white" transform="translate(49 29)"/>
</clipPath>
</defs>
</svg>
