<svg width="116" height="115" viewBox="0 0 116 115" fill="none" xmlns="http://www.w3.org/2000/svg">
<path d="M84.1327 13.6901L14.083 54.2361L8.48682 50.9581L78.5367 10.4121L84.1327 13.6901Z" fill="#DEDFFB"/>
<path d="M84.2864 67.2381C84.2864 69.2401 82.9038 71.682 81.1482 72.6941L17.3748 109.61C16.4969 110.116 15.7289 110.16 15.1583 109.808C15.0924 109.786 15.0266 109.742 14.9827 109.698L9.56211 106.574C8.99165 106.222 8.64044 105.518 8.64044 104.528L8.46484 50.9801L14.083 54.2361L84.1327 13.6901L84.2864 67.2381Z" fill="#DEDFFB"/>
<path d="M15.1582 109.819L9.55457 106.564C8.9815 106.212 8.63132 105.51 8.63132 104.521L8.47217 50.9767L14.0756 54.2324L14.2349 107.777C14.2349 108.798 14.5851 109.5 15.1582 109.819Z" fill="#DEDFFB"/>
<path d="M14.0884 54.2309L8.47852 50.9627L78.5282 10.4189L84.1381 13.6871L14.0884 54.2309Z" fill="#F3F1FC"/>
<path d="M84.1385 13.6871L84.2791 67.2482C84.2847 69.2386 82.9071 71.6778 81.1588 72.6897L17.3702 109.61C15.6423 110.61 14.2351 109.782 14.2295 107.792L14.0889 54.2309L84.1385 13.6871Z" fill="#F3F1FC"/>
<path d="M84.1547 9.97209V13.6462L14.083 54.2141L8.48681 50.9361L8.46484 47.2621C8.46484 45.2821 9.86938 42.8181 11.6032 41.8062L75.3765 4.91212C76.2543 4.38414 77.0443 4.34009 77.6149 4.69217L83.1012 7.88206C83.7377 8.19009 84.1327 8.91613 84.1547 9.97209Z" fill="#1D2943"/>
<path d="M77.6177 4.68204C77.0462 4.34911 76.2549 4.39372 75.3777 4.90159L11.6095 41.8098C9.86131 42.8216 8.46332 45.2725 8.46877 47.2629L8.47926 50.9394L14.0891 54.2077L14.0788 50.5312C14.0732 48.5409 15.4711 46.0898 17.2193 45.0779L80.9877 8.16973C81.8649 7.66205 82.6562 7.61744 83.2277 7.95037L77.6177 4.68204Z" fill="#1D2943"/>
<path d="M80.9875 8.16965C82.7357 7.1578 84.143 7.98514 84.1486 9.97556L84.159 13.652L14.089 54.2076L14.0786 50.5311C14.073 48.5407 15.471 46.0897 17.2192 45.0779L80.9875 8.16965Z" fill="#4C5C75"/>
<path d="M19.1704 46.2617C20.0852 45.7323 20.8194 46.1517 20.8224 47.2055C20.8254 48.2826 20.096 49.5492 19.1812 50.0786C18.2665 50.6081 17.5324 50.1886 17.5293 49.1115C17.5263 48.0577 18.2557 46.7912 19.1704 46.2617Z" fill="white"/>
<path d="M25.3297 42.6968C26.2444 42.1673 26.9989 42.575 27.0019 43.6288C27.0049 44.7059 26.2552 45.9842 25.3405 46.5136C24.4257 47.0431 23.6915 46.6237 23.6885 45.5465C23.6855 44.4928 24.4149 43.2262 25.3297 42.6968Z" fill="white"/>
<path d="M31.5097 39.12C32.4041 38.6024 33.1586 39.01 33.1616 40.0638C33.1647 41.1409 32.4149 42.4193 31.5205 42.9369C30.5854 43.4781 29.8512 43.0587 29.8482 41.9816C29.8452 40.9278 30.5746 39.6613 31.5097 39.12Z" fill="white"/>
<path d="M79.4235 11.8104C80.1147 11.4104 80.706 11.7248 80.7083 12.5444C80.7106 13.364 80.1231 14.3842 79.4319 14.7842L49.9566 31.8441C49.2248 32.2677 48.6537 31.9181 48.6514 31.0985C48.6491 30.2789 49.2163 29.2939 49.9482 28.8703L79.4235 11.8104Z" fill="white"/>
<path d="M80.903 19.5677L81.0204 67.3697L17.4655 104.154L17.3481 56.3524L80.903 19.5677Z" fill="white"/>
<path d="M78.8412 66.4015L19.5905 100.698L19.5435 81.3162C19.5435 81.3162 19.6613 81.0324 19.8028 80.9616C20.0149 80.8434 20.2508 81.1507 20.1564 83.3252C20.1564 83.5615 20.345 88.0525 21.4296 87.4143C21.5239 87.3671 21.6183 87.2724 21.7362 87.1543C21.7598 87.107 22.0897 86.8943 22.1369 85.4997C22.1369 84.3652 22.6792 81.9306 23.2452 81.5998C23.4337 81.5052 23.5987 81.5998 23.7402 82.0016L24.6362 86.6107C24.7304 86.6107 26.3809 86.5161 26.4988 87.6979C26.6168 88.7379 27.1118 90.0143 27.6776 89.6834C27.772 89.6361 27.8663 89.5179 27.9842 89.3761C28.668 88.2651 28.9273 86.6579 28.9745 85.1688C28.998 84.1524 29.1866 83.727 29.8233 83.3725C30.0826 83.2071 30.4599 83.0416 30.955 82.8525C31.0728 82.8051 31.1672 82.758 31.2615 82.7107C32.464 82.0016 32.1102 80.5361 32.0396 79.9216C31.9924 79.378 32.2753 74.4379 32.7705 74.1543C32.8648 74.107 32.9592 74.2016 33.0534 74.5089C33.5721 76.0925 33.7135 77.5343 34.0436 77.3452C34.1144 77.298 34.2087 77.1798 34.303 76.9197C34.3974 76.7071 34.468 76.5889 34.5624 76.5416C35.034 76.2816 35.4112 77.7707 35.4818 78.3852C35.5762 79.1415 36.2363 82.2852 37.2267 81.9543C38.2405 81.647 39.1835 82.687 39.7023 83.3489C39.9144 83.6088 40.1031 83.6325 40.2682 83.5379C40.5275 83.3725 40.7868 82.947 41.0699 82.6633C41.1169 82.6162 41.1641 82.5688 41.2348 82.5452C41.3999 82.4507 41.6357 82.427 41.8478 82.4034C42.0601 82.3797 42.2722 82.3561 42.4845 82.2616C42.5787 82.1907 42.6967 82.0961 42.791 81.9543C43.2154 81.2925 42.7438 79.5906 44.6536 78.4798C44.795 78.4088 44.9365 78.3143 45.1016 78.2434C45.2194 78.1962 45.3374 78.1489 45.4317 78.0779C46.3276 77.558 46.7756 76.7543 47.0821 76.0215C47.3651 75.2888 47.5537 74.6271 47.9309 74.4143C48.0252 74.3434 48.1666 74.3198 48.3317 74.3434C49.2513 74.5324 50.6895 75.2652 51.7741 74.6271C52.2221 74.3671 52.6228 73.8707 52.8822 72.9962C53.5896 70.5852 55.1457 62.7379 56.5368 61.9344C56.8668 61.7453 57.1733 61.9344 57.4798 62.6908C58.6823 65.8343 59.0595 70.798 60.4978 69.947C60.875 69.7343 61.3466 69.1908 61.9124 68.0325C61.9597 68.0089 61.9832 68.0089 62.0303 67.9853C62.1483 67.938 62.2662 67.8671 62.3604 67.8198C63.2564 67.2997 63.6808 66.4962 63.9873 65.7635C64.2938 65.0307 64.4825 64.3689 64.8361 64.1326C64.9539 64.0852 65.0955 64.0616 65.2604 64.0852C66.18 64.2507 67.6182 64.9834 68.7028 64.3689C69.1508 64.1089 69.5516 63.589 69.7875 62.7143C70.5184 60.3035 72.0744 52.4562 73.4656 51.6525C73.7955 51.4635 74.1021 51.6762 74.385 52.4089C75.6111 55.5762 75.9884 60.5161 77.403 59.6889C77.8038 59.4761 78.2518 58.838 78.8176 57.6799L78.8412 66.4015Z" fill="#FFD06C"/>
<path d="M29.3967 52.9896C34.3746 50.1085 38.4202 52.3025 38.4359 57.8725C38.4517 63.4471 34.4317 70.3095 29.4579 73.1883C28.5536 73.7117 27.6855 74.0591 26.8618 74.2585L28.2078 69.771C28.6074 69.6432 29.0189 69.466 29.4467 69.2185C32.4652 67.4714 34.9056 63.3141 34.8961 59.9214C34.8865 56.5334 32.4305 55.2099 29.412 56.957L29.3967 52.9896Z" fill="#8FABFE"/>
<path d="M29.3966 52.9897L29.4078 56.9594C26.3893 58.7065 23.9489 62.8639 23.9584 66.2519C23.9667 69.1659 25.7822 70.5451 28.2077 69.7711L26.8617 74.2586C23.1472 75.1535 20.4314 72.8619 20.4185 68.3008C20.4028 62.7308 24.4269 55.8661 29.3966 52.9897Z" fill="#F45170"/>
<path d="M69.3038 47.3885L69.3155 51.5222L66.2705 53.2846L66.2588 49.1509L69.3038 47.3885Z" fill="#DBA660"/>
<path d="M59.2648 54.8455L59.2718 57.3352L56.2268 59.0976L56.2197 56.6079L59.2648 54.8455Z" fill="#FFD06C"/>
<path d="M49.2205 59.0123L49.2322 63.1459L46.1831 64.9107L46.1714 60.7771L49.2205 59.0123Z" fill="#57B3FE"/>
<path d="M49.2015 52.1929L49.2208 59.0122L46.1716 60.777L46.1523 53.9577L49.2015 52.1929Z" fill="#E9E7FC"/>
<path d="M54.2345 53.9851L54.2522 60.2406L51.2071 62.003L51.1895 55.7475L54.2345 53.9851Z" fill="#B28AFD"/>
<path d="M54.2054 39.6974L54.2346 53.9851L51.1895 55.7475L51.1562 41.4622L54.2054 39.6974Z" fill="#E9E7FC"/>
<path d="M79.3016 23.7521L79.3371 38.0965L76.288 39.8613L76.2524 25.5169L79.3016 23.7521Z" fill="#E9E7FC"/>
<path d="M79.3372 38.0965L79.3588 45.7091L76.3096 47.4739L76.2881 39.8613L79.3372 38.0965Z" fill="#F45170"/>
<path d="M74.3218 43.9432L74.3392 48.6144L71.2901 50.3792L71.2769 45.7056L74.3218 43.9432Z" fill="#78E75A"/>
<path d="M74.2999 32.2648L74.3217 43.9432L71.2767 45.7056L71.2549 34.0272L74.2999 32.2648Z" fill="#E9E7FC"/>
<path d="M69.2845 36.6037L69.3038 47.3886L66.2588 49.151L66.2354 38.3685L69.2845 36.6037Z" fill="#E9E7FC"/>
<path d="M64.2547 36.0731L64.28 48.9988L61.2309 50.7636L61.2056 37.8379L64.2547 36.0731Z" fill="#E9E7FC"/>
<path d="M64.2801 48.9988L64.2954 54.4275L61.2463 56.1923L61.231 50.7636L64.2801 48.9988Z" fill="#8FABFE"/>
<path d="M59.253 46.7654L59.2647 54.8454L56.2196 56.6079L56.208 48.5278L59.253 46.7654Z" fill="#E9E7FC"/>
<path d="M106.232 54.5001C106.122 54.4341 106.012 54.3681 105.88 54.3462C105.968 54.3681 106.034 54.3901 106.122 54.4341C106.166 54.4562 106.188 54.4782 106.232 54.5001Z" fill="#57B3FE"/>
<path d="M106.232 54.5001C106.122 54.4341 106.012 54.3681 105.88 54.3462C105.968 54.3681 106.034 54.3901 106.122 54.4341C106.166 54.4562 106.188 54.4782 106.232 54.5001Z" fill="#57B3FE"/>
<path d="M107.526 81.5821C107.548 84.1562 105.705 87.3242 103.445 88.6441L67.3884 109.522C66.2691 110.16 65.2378 110.226 64.4916 109.786L60.1902 107.278C59.4441 106.86 58.9832 105.958 58.9832 104.682L58.9175 80.1962C58.9175 77.6221 60.7389 74.4541 62.9773 73.1562L99.0336 52.2782C100.175 51.6181 101.228 51.5742 101.974 51.9922L106.122 54.4342C106.034 54.3901 105.968 54.3681 105.881 54.3462C106.012 54.3681 106.122 54.4342 106.232 54.5001C107 54.8962 107.461 55.8202 107.461 57.0962L107.526 81.5821Z" fill="#57B3FE"/>
<path d="M101.966 51.9995C101.22 51.5645 100.183 51.6236 99.0376 52.2863L62.9701 73.1619C60.7434 74.4507 58.913 77.6287 58.9204 80.1938L58.9895 104.677C58.9933 105.951 59.4497 106.852 60.1809 107.278L64.4939 109.79C63.7623 109.364 63.3059 108.463 63.3021 107.189L63.233 82.7065C63.226 80.1414 65.056 76.9633 67.2831 75.6742L103.35 54.799C104.496 54.1363 105.532 54.0772 106.279 54.5122L101.966 51.9995Z" fill="#5094FF"/>
<path d="M103.35 54.799C105.616 53.4875 107.458 54.5399 107.466 57.1052L107.535 81.5877C107.542 84.1529 105.712 87.331 103.446 88.6425L67.3786 109.518C65.1517 110.807 63.3094 109.754 63.3022 107.189L63.2329 82.7065C63.2257 80.1412 65.0559 76.9632 67.2829 75.6742L103.35 54.799Z" fill="#57B3FE"/>
<path d="M65.5725 108.391C65.0561 108.391 64.9777 107.636 64.976 107.184L64.9058 82.7013C64.9009 80.7257 66.4025 78.1212 68.1199 77.1269L104.187 56.2513C104.699 55.9548 105.04 55.9106 105.197 55.9106C105.712 55.9106 105.79 56.6608 105.792 57.1097L105.862 81.5923C105.867 83.5678 104.347 86.1838 102.609 87.1896L66.5414 108.065C66.0512 108.349 65.7244 108.391 65.5725 108.391Z" fill="white"/>
<path d="M84.9165 74.6167L103.532 63.8423L103.525 61.3495L84.9165 72.1198V74.6167Z" fill="#E3E7F0"/>
<path d="M84.9165 80.2814L103.548 69.4979L103.541 67.0051L84.9165 77.7846V80.2814Z" fill="#E3E7F0"/>
<path d="M84.9165 91.6106L95.3155 85.5919L95.3085 83.0991L84.9165 89.1138V91.6106Z" fill="#E3E7F0"/>
<path d="M84.9165 85.9459L103.564 75.153L103.557 72.6602L84.9165 83.4491V85.9459Z" fill="#E3E7F0"/>
<path d="M75.3132 88.5465L82.2487 84.5376C82.091 88.9703 78.9975 94.2203 75.2086 96.4172C73.4254 97.4493 71.7416 97.663 70.4268 97.0326L75.3132 88.5465Z" fill="#78E75A"/>
<path d="M75.4688 79.9516C77.2397 79.0121 78.902 78.8872 80.1691 79.6111C81.4408 80.3362 82.1718 81.8193 82.2471 83.8226L75.4908 87.7332L75.4688 79.9516Z" fill="#DF3260"/>
<path d="M74.8525 80.3029L74.8751 88.2961L69.9886 96.7821C68.791 95.968 68.1261 94.4112 68.1202 92.3373C68.1033 87.9754 71.0994 82.6607 74.8525 80.3029Z" fill="#986FF9"/>
</svg>
