<svg width="114" height="115" viewBox="0 0 114 115" fill="none" xmlns="http://www.w3.org/2000/svg">
<g clip-path="url(#clip0_1067_2112)">
<path d="M42.3477 40.8725L53.6722 34.2914L53.6993 35.6176L42.3747 42.1988L42.3477 40.8725Z" fill="#C4C2C0"/>
<path d="M42.5232 13.3505L53.8478 6.76935C52.9561 9.57831 51.4751 11.864 49.4562 13.5618C47.8442 14.9335 46.842 16.8581 46.5272 19.1559C46.1758 21.6982 46.6912 24.7469 47.9473 27.5207C49.2543 30.412 51.4422 33.0055 53.5488 34.2218C53.59 34.2455 53.631 34.2687 53.6721 34.2914L42.3475 40.8725C42.3064 40.8498 42.2654 40.8266 42.2243 40.8029C40.1176 39.5866 37.9297 36.9932 36.6227 34.1018C35.3666 31.328 34.8512 28.2793 35.2027 25.737C35.5175 23.4392 36.5196 21.5146 38.1317 20.1429C40.1505 18.4451 41.6315 16.1594 42.5232 13.3505Z" fill="#F3F1FC"/>
<path d="M43.0781 11.6103L54.4027 5.02917L53.848 6.76937L42.5234 13.3505L43.0781 11.6103Z" fill="#E9E7FC"/>
<path d="M41.9917 10.5994L53.3163 4.01825L54.4026 5.02916L43.078 11.6103L41.9917 10.5994Z" fill="#F3F1FC"/>
<path d="M41.9916 10.5994L43.0779 11.6103L42.5232 13.3505C41.6316 16.1594 40.1505 18.4452 38.1317 20.1429C36.5197 21.5146 35.5175 23.4392 35.2027 25.737C34.8513 28.2793 35.3667 31.328 36.6227 34.1018C37.9298 36.9932 40.1177 39.5866 42.2243 40.8029C42.2655 40.8266 42.3065 40.8498 42.3476 40.8725L42.3747 42.1988C42.308 42.1662 42.2413 42.1277 42.1746 42.0892C39.6868 40.6529 37.2188 37.6989 35.687 34.3173C34.2676 31.1835 33.6814 27.7515 34.0748 24.9028C34.421 22.387 35.5059 20.2917 37.2157 18.8406C39.1779 17.1929 40.5867 15.013 41.4369 12.3336L41.9916 10.5994Z" fill="#DEDFFB"/>
<path d="M17.3841 113.761L9.35021 109.074C8.74594 108.731 8.37041 107.98 8.37041 106.935L8.23975 61.8181L16.2901 66.4882L23.6883 107.458C23.6883 108.52 16.7963 113.402 17.3841 113.761Z" fill="#DEDFFB"/>
<path d="M16.2849 66.4862L8.24268 61.8126L81.6063 19.4561L89.6486 24.1297L16.2849 66.4862Z" fill="#E9E7FC"/>
<path d="M89.6488 24.1297L89.7767 69.2518C89.7827 71.3726 88.2881 73.9684 86.4364 75.0375L19.7813 113.521C17.9236 114.593 16.4191 113.729 16.4131 111.608L16.2852 66.4862L89.6488 24.1297Z" fill="#F3F1FC"/>
<path d="M88.6439 14.3821C88.0397 14.0229 87.6957 20.9808 86.7649 21.5197L22.2598 55.5369C20.4146 56.5983 20.4373 58.3077 20.4373 60.4305L16.2898 66.4882L8.23952 61.8181L8.22328 54.2087C8.20693 52.086 9.70918 49.4896 11.5707 48.4119L78.226 9.94065C79.1567 9.40177 80.0058 9.35283 80.6099 9.69568L88.6439 14.3821Z" fill="#91167C"/>
<path d="M86.2647 14.6096C88.1164 13.5405 89.6208 14.3979 89.6269 16.5256L89.6484 24.1297L16.2848 66.4862L16.2632 58.8822C16.2572 56.7544 17.7519 54.1655 19.6096 53.0929L86.2647 14.6096Z" fill="#A92D94"/>
<path d="M86.3724 34.5546L54.4727 52.9818V55.5368L86.3724 37.1226V34.5546Z" fill="#DEDFFB"/>
<path d="M86.3724 41.6879L54.4727 60.1151V62.6701L86.3724 44.2559V41.6879Z" fill="#DEDFFB"/>
<path d="M70.4371 72.5226L63.9531 76.2681V78.8269L70.4371 75.084V72.5226Z" fill="#78E75A"/>
<path d="M78.849 67.6633L72.4102 71.3828V73.9457L78.849 70.2283V67.6633Z" fill="#B28AFD"/>
<path d="M81.3022 66.2461V68.812L86.3723 65.8853V63.3174L81.3022 66.2461Z" fill="#F45170"/>
<path d="M67.0557 59.9797L54.4727 67.2484V69.8034L67.0557 62.5398V59.9797Z" fill="#DEDFFB"/>
<path d="M64.1729 32.9725C64.1828 34.7344 62.9485 36.8645 61.4156 37.7504L42.8903 48.7313C41.3673 49.6073 40.133 48.9006 40.123 47.1387C40.123 46.2627 40.4316 45.2872 40.9293 44.4212C41.427 43.5651 42.1139 42.8186 42.8704 42.3707L61.4056 31.3898C62.9286 30.5138 64.1729 31.2205 64.1729 32.9725Z" fill="#1D2943"/>
<path d="M60.2075 35.6196L48.8829 42.2008C47.5609 42.969 45.7444 42.8353 44.0086 41.8331C43.9678 41.8096 43.9269 41.7855 43.8862 41.7609L55.1307 35.1072C55.1714 35.1317 55.2924 35.2285 55.3332 35.252C57.069 36.2542 58.8855 36.3879 60.2075 35.6196Z" fill="#F3F1FC"/>
<path d="M60.9802 37.0329L49.6557 43.614C49.9821 43.4243 50.2843 43.1871 50.5571 42.9025C51.9896 41.4153 52.5985 38.6733 52.2225 35.3804C51.8916 32.4737 50.817 29.1317 49.0903 25.6493C47.1797 21.8127 45.7878 18.0159 44.9556 14.3652L56.2801 7.78406C57.1124 11.4348 58.5042 15.2316 60.4149 19.0682C62.1416 22.5505 63.2162 25.8925 63.547 28.7993C63.923 32.0922 63.3141 34.8342 61.8816 36.3214C61.6089 36.606 61.3067 36.8432 60.9802 37.0329Z" fill="#E9E7FC"/>
<path d="M44.4126 11.9971L55.7372 5.41602L56.2802 7.78404L44.9556 14.3652L44.4126 11.9971Z" fill="#E9E7FC"/>
<path d="M43.3188 11.7495L54.6434 5.16833L55.7371 5.41603L44.4125 11.9972L43.3188 11.7495Z" fill="#F3F1FC"/>
<path d="M44.4125 11.9971L44.9555 14.3652C45.7878 18.0159 47.1796 21.8127 49.0903 25.6493C50.817 29.1316 51.8916 32.4737 52.2224 35.3804C52.5984 38.6733 51.9895 41.4153 50.557 42.9025C49.0163 44.5102 46.5344 44.6064 44.0467 43.1701C43.98 43.1316 43.9133 43.0931 43.8467 43.0487L43.8863 41.7609C43.9269 41.7854 43.9679 41.8096 44.0086 41.8331C46.1015 43.0414 48.3115 42.9872 49.6307 41.6121C50.8932 40.2923 51.4294 37.8507 51.0935 34.9116C50.7876 32.2554 49.7996 29.1818 48.2312 26.0211C46.198 21.9367 44.7398 17.954 43.8619 14.1234L43.3188 11.7495L44.4125 11.9971Z" fill="#DEDFFB"/>
<path d="M50.3525 71.4522C50.3525 76.057 48.7849 81.1353 46.2212 85.7075C44.5557 88.6794 42.4819 91.4226 40.1305 93.6598C39.069 94.6885 37.9423 95.6029 36.783 96.4031C36.3421 96.697 35.8849 96.9909 35.4277 97.2521C34.9542 97.5298 34.4642 97.7747 34.0071 97.987C32.8313 98.5422 31.6884 98.9177 30.6106 99.1137C28.2919 99.5546 26.2181 99.2116 24.5526 98.1503C22.0215 96.55 20.454 93.3005 20.4376 88.7284C20.4049 79.2249 27.0836 67.6639 35.3297 62.8958C43.5922 58.1278 50.3198 61.9487 50.3525 71.4522Z" fill="#57B3FE"/>
<path d="M61.0651 78.8464C61.0651 80.701 59.759 82.9605 58.1394 83.9009C56.5329 84.8283 55.2138 84.0838 55.2007 82.2291C55.2007 80.3614 56.5068 78.1019 58.1264 77.1615C59.7459 76.2342 61.0651 76.9787 61.0651 78.8464Z" fill="#FFD06C"/>
<path d="M43.8859 41.766L43.8532 43.056L42.8735 42.3702L43.8859 41.766Z" fill="#DEDFFB"/>
<path d="M31.8024 90.3123C31.0185 91.6023 30.3 93.1209 29.1896 95.0804L30.9042 95.1946L29.0427 97.546L30.6103 99.1137C28.2916 99.5546 26.2177 99.2116 24.5522 98.1503L25.0747 95.9949C25.4013 94.6559 26.3484 93.3169 27.4098 92.7127L31.9003 90.1163L31.8024 90.3123Z" fill="#E93565"/>
<path d="M40.13 93.6598L41.7139 90.2306L39.8524 90.0183L41.567 87.9446C40.4403 87.2587 39.7218 86.5729 38.938 86.1974L38.791 86.132L43.3305 83.5194C44.3919 82.8989 45.339 83.1439 45.6656 84.1072L46.2207 85.7074C44.5552 88.6794 42.4814 91.4226 40.13 93.6598Z" fill="#E93565"/>
<path d="M41.714 90.2306L40.1302 93.6598C39.0687 94.6884 37.942 95.6029 36.7827 96.4031L38.187 88.5324C38.3177 87.814 38.3013 87.1608 38.1217 86.6546L38.0727 86.5566L38.7912 86.132L38.9382 86.1974C39.7219 86.5729 40.4404 87.2587 41.5671 87.9446L39.8526 90.0183L41.714 90.2306Z" fill="#CC104A"/>
<path d="M38.187 88.5324L36.7827 96.4031C36.3418 96.697 35.8846 96.9909 35.4273 97.2521C34.9538 97.5298 34.4639 97.7746 34.0067 97.9869L32.5534 91.7819C32.4227 91.2104 32.4391 90.5409 32.6024 89.8387L32.6514 89.6917L32.8147 89.5938C33.1412 90.7205 34.1374 91.1124 35.2967 90.4429L35.46 90.3613C36.6193 89.6917 37.5991 88.1568 37.9094 86.6382L38.0726 86.5566L38.1217 86.6546C38.3013 87.1608 38.3176 87.8139 38.187 88.5324Z" fill="#E9E7FC"/>
<path d="M34.007 97.987C32.8312 98.5422 31.6883 98.9177 30.6105 99.1137L29.043 97.5461L30.9044 95.1947L29.1899 95.0804C30.3002 93.1209 31.0187 91.6023 31.8026 90.3123L31.9006 90.1163L32.6516 89.6918L32.6027 89.8388C32.4393 90.5409 32.423 91.2105 32.5537 91.7819L34.007 97.987Z" fill="#CC104A"/>
<path d="M32.6958 87.2448C33.5094 87.2931 34.4124 87.061 35.3631 86.5121C36.3137 85.9633 37.2148 85.154 38.0257 84.1677L38.0298 85.6146C38.0308 85.9497 37.9914 86.2958 37.9174 86.6428C37.5946 88.157 36.6135 89.6855 35.4548 90.3545L35.2933 90.4477C34.1347 91.1167 33.1482 90.7241 32.8179 89.587C32.7421 89.3264 32.7009 89.0269 32.6999 88.6919L32.6958 87.2448Z" fill="#F5C9C6"/>
<path d="M42.8083 73.6893C42.8083 74.7344 42.2531 75.91 41.551 76.3673C40.7835 80.5965 38.3178 84.8094 35.3623 86.5077C32.4067 88.2222 29.9247 86.8668 29.1409 83.5358C28.4387 83.8949 27.8835 83.3561 27.8672 82.2947C27.8672 81.6579 28.0795 80.9557 28.4061 80.4169C28.6184 80.0413 28.8959 79.7311 29.1898 79.5678C29.5654 79.3555 29.892 79.3881 30.137 79.6167C30.2676 78.7023 30.4145 77.7879 30.5452 76.8898C30.6105 76.3673 30.7084 75.7795 31.0187 75.2733C31.2962 74.7833 31.6555 74.4568 32.0474 74.2445C32.5536 73.9506 33.0925 73.8199 33.5334 73.6567C34.6274 73.2485 35.7215 72.7259 36.7992 72.0891C36.8482 72.0727 36.8809 72.04 36.9298 72.0238C37.0931 71.9257 37.2564 71.8277 37.4196 71.7298C37.8279 71.5012 38.2361 71.2726 38.6443 71.1256C39.1996 70.9297 39.7548 70.9297 40.0651 71.3053C40.359 71.6318 40.4242 72.1707 40.4733 72.7096C40.5059 72.9871 40.5386 73.2647 40.5549 73.5424C40.7998 73.0688 41.1264 72.6769 41.4857 72.4646C41.7632 72.3014 42.0245 72.285 42.2531 72.3993C42.5797 72.5626 42.8083 73.0198 42.8083 73.6893Z" fill="#F4D6D4"/>
<path d="M33.2873 68.1204C33.551 67.9682 33.8162 67.8328 34.0814 67.6993C35.0214 67.2495 35.9542 66.8715 36.8725 66.5694C37.8129 66.2631 38.7388 66.0327 39.5845 66.0683C40.4303 66.0955 41.2032 66.3675 41.6904 67.0325C42.3104 67.8491 42.4612 69.19 42.4137 70.5863C42.3926 71.1757 42.3357 71.7805 42.2455 72.3961C42.0283 72.2895 41.7632 72.3054 41.4778 72.4701C41.1218 72.6757 40.7995 73.0708 40.5619 73.5472C40.5318 73.2694 40.5017 72.9915 40.4711 72.7134C40.4181 72.1778 40.3503 71.6255 40.07 71.3057C39.7527 70.9312 39.2012 70.9369 38.6429 71.1326C38.2389 71.2753 37.8276 71.4998 37.4169 71.737C37.2526 71.8318 37.0884 71.9287 36.9247 72.0232C36.8844 72.0467 36.8438 72.0703 36.8035 72.0936C35.7133 72.723 34.6231 73.2427 33.5394 73.6566C33.0899 73.8243 32.5465 73.9523 32.0391 74.2453C31.6591 74.4646 31.2995 74.7763 31.0144 75.2665C30.7144 75.7862 30.613 76.3601 30.541 76.8833C30.4072 77.7938 30.2735 78.7029 30.1397 79.6119C29.8975 79.3845 29.5605 79.3506 29.1882 79.5656C28.8925 79.7363 28.6191 80.0409 28.399 80.4157C28.2426 79.419 28.1947 78.3389 28.2623 77.1934C28.3188 76.375 28.4339 75.4889 28.7991 74.6021C29.1382 73.7658 29.8933 72.9699 30.5588 72.5857C30.5957 72.5645 30.6322 72.5445 30.6683 72.5258C30.4317 72.0709 30.5618 71.2523 30.9201 70.53C31.2784 69.8161 31.8208 69.1988 32.3783 68.7417C32.6777 68.4962 32.9815 68.297 33.2873 68.1204Z" fill="#1D2943"/>
<path d="M104.264 52.5335C101.221 50.7505 99.957 55.1007 95.2737 57.8107C85.9783 63.1836 81.0959 71.6699 81.1197 82.368C81.1435 87.6694 77.3998 91.8075 80.4191 93.5667L75.3077 90.595C72.2886 88.8358 70.4104 85.1033 70.4104 79.8019C70.3628 69.1037 77.8753 56.0995 87.1707 50.7267C91.8542 48.0166 96.1096 47.7788 99.1527 49.5618L104.264 52.5335Z" fill="#BBBEC6"/>
<path d="M92.2918 53.6959C101.593 48.3261 109.156 52.6395 109.186 63.3236C109.217 74.0109 101.702 87.0279 92.4016 92.3977C83.1008 97.7675 75.5387 93.4549 75.5084 82.7676C75.4781 72.0835 82.9911 59.0658 92.2918 53.6959Z" fill="#9B9EA5"/>
<path d="M101.407 55.0441C104.162 56.465 105.89 59.7122 105.904 64.4063C105.927 73.5068 99.5125 84.6167 91.5971 89.1876C88.1477 91.1795 84.9755 91.6032 82.4912 90.6954C85.0757 92.0286 88.5631 91.7548 92.3947 89.5421C100.31 84.9712 106.725 73.8614 106.701 64.7608C106.686 59.6274 104.623 56.2194 101.407 55.0441Z" fill="#BBBEC6"/>
<path d="M105.903 64.4063C105.905 64.95 105.883 65.5001 105.838 66.0568C105.155 74.8116 99.0379 84.8907 91.5966 89.1876C88.1477 91.1795 84.975 91.6036 82.4917 90.6946C79.7365 89.2746 78.0078 86.028 77.9947 81.3331C77.9686 72.3804 84.1857 61.4728 91.9271 56.7736C92.0511 56.6975 92.1772 56.6236 92.3011 56.5518C94.1713 55.4711 95.9588 54.8513 97.6005 54.6578C97.6245 54.6534 97.6462 54.6513 97.668 54.6491C97.768 54.6382 97.868 54.6273 97.9659 54.6208C97.9746 54.6208 97.9833 54.6208 97.9898 54.6186C98.6965 54.5621 99.375 54.586 100.021 54.6882C100.064 54.6969 100.108 54.7034 100.151 54.71C100.586 54.7861 101.006 54.8992 101.406 55.0449C104.161 56.4648 105.89 59.7115 105.903 64.4063Z" fill="white"/>
<path d="M91.907 57.8739C92.1625 57.7264 92.37 57.8463 92.3709 58.1398L92.3779 60.619C92.3787 60.9125 92.1725 61.2697 91.9171 61.4172C91.6616 61.5647 91.4527 61.4472 91.4519 61.1536L91.4448 58.6745C91.444 58.3809 91.6516 58.0214 91.907 57.8739Z" fill="#4A4A4A"/>
<path d="M91.9822 84.3217C92.2377 84.1742 92.4452 84.2925 92.4461 84.586L92.4531 87.0668C92.4539 87.3604 92.2477 87.7175 91.9923 87.865C91.7368 88.0125 91.5279 87.895 91.5271 87.6015L91.52 85.1207C91.5192 84.8271 91.7268 84.4692 91.9822 84.3217Z" fill="#4A4A4A"/>
<path d="M81.5187 78.3589C81.7741 78.2114 81.9817 78.3313 81.9825 78.6248C81.9834 78.9184 81.7772 79.2755 81.5217 79.423L79.3642 80.6687C79.1087 80.8162 78.8998 80.6987 78.8989 80.4052C78.8981 80.1116 79.1057 79.7521 79.3611 79.6046L81.5187 78.3589Z" fill="#4A4A4A"/>
<path d="M104.535 65.0703C104.791 64.9228 104.998 65.0427 104.999 65.3362C105 65.6298 104.794 65.9869 104.538 66.1344L102.379 67.3809C102.124 67.5283 101.916 67.4101 101.916 67.1165C101.915 66.823 102.121 66.4642 102.376 66.3168L104.535 65.0703Z" fill="#4A4A4A"/>
<path d="M83.0187 67.249C83.1372 67.1806 83.2557 67.1641 83.3463 67.2157L84.8771 68.0896C85.0581 68.1928 85.0591 68.5295 84.8792 68.8411C84.7892 68.9969 84.671 69.117 84.5527 69.1854C84.4343 69.2537 84.3158 69.2702 84.2253 69.2186L82.6931 68.3471C82.512 68.2439 82.511 67.9072 82.6909 67.594C82.7816 67.4378 82.9001 67.3175 83.0187 67.249Z" fill="#4A4A4A"/>
<path d="M99.3466 76.554C99.465 76.4856 99.5835 76.4696 99.674 76.522L101.205 77.3943C101.386 77.4975 101.387 77.8341 101.207 78.1457C101.117 78.3015 100.999 78.4217 100.88 78.49C100.762 78.5584 100.644 78.5749 100.553 78.5233L99.0222 77.6509C98.8398 77.5485 98.8388 77.2119 99.0201 76.8995C99.1101 76.7429 99.2283 76.6223 99.3466 76.554Z" fill="#4A4A4A"/>
<path d="M84.5978 85.0692C84.7162 85.0008 84.8347 84.9847 84.9252 85.0372C85.1063 85.1403 85.1073 85.477 84.9274 85.7886L83.4065 88.4228C83.3165 88.5786 83.1983 88.6988 83.0798 88.7672C82.9613 88.8357 82.8424 88.8523 82.7512 88.8011C82.5701 88.698 82.5692 88.3613 82.749 88.0497L84.2713 85.4147C84.3612 85.2581 84.4795 85.1375 84.5978 85.0692Z" fill="#4A4A4A"/>
<path d="M100.82 56.9718C100.938 56.9035 101.057 56.887 101.147 56.9386C101.328 57.0434 101.329 57.38 101.149 57.6916L99.6283 60.3258C99.5384 60.4816 99.4202 60.6018 99.3018 60.6702C99.1834 60.7385 99.0649 60.755 98.9744 60.7034C98.7919 60.601 98.791 60.2644 98.9723 59.952L100.493 57.3161C100.583 57.1603 100.701 57.0402 100.82 56.9718Z" fill="#4A4A4A"/>
<path d="M92.0931 64.848C92.3515 64.6988 92.5605 64.818 92.5613 65.1053L92.5805 71.8667L99.8566 67.6658C100.115 67.5166 100.324 67.6358 100.325 67.9326C100.326 68.22 100.118 68.5797 99.8596 68.7289L92.1168 73.1992C92.0001 73.2666 91.875 73.2812 91.7913 73.2336C91.7077 73.1859 91.6573 73.0712 91.6569 72.9371L91.6362 65.6394C91.6354 65.3521 91.8431 64.9924 92.0931 64.848Z" fill="#FF5230"/>
<path d="M92.3426 70.8802C93.1291 70.4261 93.7687 70.7908 93.7712 71.6943C93.7738 72.5981 93.1384 73.6988 92.3519 74.1529C91.5654 74.6069 90.9259 74.2423 90.9233 73.3385C90.9208 72.4351 91.5561 71.3343 92.3426 70.8802Z" fill="#FF5230"/>
</g>
<defs>
<clipPath id="clip0_1067_2112">
<rect width="113.674" height="113.533" fill="white" transform="translate(0.0966797 0.666687)"/>
</clipPath>
</defs>
</svg>
