<svg width="114" height="115" viewBox="0 0 114 115" fill="none" xmlns="http://www.w3.org/2000/svg">
<g clip-path="url(#clip0_1067_3334)">
<path d="M88.5151 61.6457C87.5046 62.8005 86.6385 64.2682 85.9168 65.7117C87.24 66.6019 87.8897 67.7086 87.8897 68.8394L87.8415 80.0991C87.8415 81.3261 87.0475 82.5291 85.4356 83.4675C82.2356 85.3201 76.9907 85.3201 73.7667 83.4675C72.1307 82.505 71.3128 81.278 71.3128 80.0511L71.3849 68.7673C71.3849 67.5643 72.1789 66.3372 73.7667 65.423C74.0074 65.2786 74.272 65.1584 74.5366 65.062C74.0074 63.4983 73.1893 62.1028 71.8179 61.1885C71.5533 61.0442 71.2887 60.8757 71 60.7555C71 60.7555 74.3682 60.6832 77.063 62.4877C77.1351 62.5358 77.2313 62.584 77.3035 62.6802C76.9907 61.6457 75.7637 57.4834 76.7502 54.6445C76.7982 54.5001 76.8464 54.3556 76.9186 54.2113C77.111 53.7541 77.3997 53.3452 77.7607 53.0083C77.7607 53.0083 79.1561 57.5796 80.1907 59.6246C80.4071 60.0817 80.6958 60.563 81.0086 61.0683C81.3695 60.0096 81.6582 58.4457 81.0327 56.9781C81.3455 57.3391 83.8476 60.3704 83.7996 63.5945C86.4942 61.2126 89.4534 60.5149 89.8385 60.4427C89.3813 60.7796 88.9242 61.1885 88.5151 61.6457Z" fill="#DEDFFB"/>
<path d="M87.8927 68.8277L87.8398 80.0991C87.8363 81.3144 87.0385 82.5283 85.4408 83.4568C82.2273 85.3243 76.9928 85.3213 73.7635 83.4568C72.1345 82.5163 71.3202 81.2805 71.3237 80.0468L71.3767 68.7754C71.3732 70.0091 72.1875 71.245 73.8164 72.1855C77.0457 74.0499 82.2802 74.0529 85.4938 72.1854C87.0914 71.2569 87.8893 70.043 87.8927 68.8277Z" fill="#DEDFFB"/>
<path d="M85.4555 65.4215C88.6847 67.286 88.7122 70.315 85.4935 72.1855C82.28 74.053 77.0455 74.0499 73.8162 72.1855C70.5817 70.318 70.5594 67.2861 73.7729 65.4186C76.9916 63.5481 82.2209 63.5541 85.4555 65.4215Z" fill="#F3F1FC"/>
<path d="M74.7035 68.7473C76.056 67.9612 77.832 67.5694 79.6104 67.5694C81.229 67.5694 82.8487 67.8941 84.1523 68.5447C84.2134 68.5752 84.2744 68.6057 84.3342 68.6374C84.4014 68.6728 84.4673 68.7095 84.532 68.7473C85.2726 69.175 85.8123 69.6768 86.1522 70.2112C86.3716 69.8687 86.5085 69.5126 86.5594 69.1527C86.7254 68.0126 86.0455 66.8298 84.532 65.9559C84.4673 65.918 84.4014 65.8814 84.3342 65.846C84.2744 65.8143 84.2134 65.7837 84.1523 65.7532C82.8487 65.1026 81.229 64.778 79.6104 64.778C77.832 64.778 76.056 65.1698 74.7035 65.9559C73.2083 66.8249 72.5455 67.9882 72.7115 69.1295C72.7641 69.4869 72.9003 69.8413 73.1172 70.1829C73.4512 69.6594 73.9786 69.1686 74.7035 68.7473Z" fill="#DEDFFB"/>
<path d="M86.1517 70.211C86.087 70.3123 86.0162 70.4124 85.9369 70.5113C85.6049 70.9239 85.1472 71.3096 84.5613 71.6477C84.4111 71.7356 84.2561 71.8173 84.095 71.8955C83.8899 71.9956 83.6763 72.0871 83.4554 72.1713C82.6302 72.485 81.7123 72.6864 80.7688 72.7755C80.6199 72.789 80.4685 72.8 80.3184 72.8085C80.305 72.8097 80.2927 72.8097 80.2793 72.8097C79.99 72.8256 79.6983 72.8305 79.4078 72.8244C79.3468 72.8231 79.2857 72.8207 79.2247 72.8183C78.889 72.8073 78.557 72.7804 78.2262 72.7414C77.5402 72.6584 76.8713 72.5143 76.2452 72.3093C75.9449 72.2116 75.6544 72.0993 75.3761 71.9736C75.1551 71.8747 74.9415 71.7661 74.7389 71.6477C74.1371 71.2998 73.6684 70.9055 73.3315 70.4844C73.2522 70.3856 73.1814 70.2842 73.1167 70.1829C73.4512 69.6593 73.9785 69.1686 74.7035 68.7475C74.8073 68.6865 74.9147 68.6291 75.0233 68.5729C75.7008 68.2263 76.4673 67.9687 77.2766 67.8015C78.0297 67.6465 78.8194 67.5696 79.6104 67.5696C79.8667 67.5696 80.1231 67.5781 80.3782 67.5952C80.4612 67.5989 80.5442 67.605 80.626 67.6135C81.5451 67.6904 82.441 67.8747 83.2576 68.1665C83.5689 68.2763 83.868 68.4033 84.1523 68.5449C84.2134 68.5754 84.2744 68.6059 84.3342 68.6376C84.4014 68.673 84.4673 68.7096 84.532 68.7475C84.6723 68.8293 84.8066 68.9123 84.9323 68.9989C85.4706 69.3663 85.8771 69.7777 86.1517 70.211Z" fill="black"/>
<path d="M80.4696 62.3253C80.4696 62.3253 82.1089 59.4273 81.0135 56.9276C81.0135 56.9276 85.6262 62.1858 82.961 66.4375C80.2958 70.6893 80.4696 62.3253 80.4696 62.3253Z" fill="#5EC363"/>
<path d="M83.2657 66.3787C83.0847 68.3432 81.3922 70.9777 81.3922 70.9777C81.3922 70.9777 81.3626 70.9756 81.3097 70.9713C80.8387 70.9332 78.4921 70.7131 77.9872 70.0336C77.8666 69.8706 77.7692 69.4493 77.693 68.8862C77.4135 66.8339 77.3945 62.9113 77.3945 62.9113C77.3945 62.9113 75.6195 57.8826 76.7414 54.6448C76.7901 54.4988 76.8473 54.3569 76.9097 54.2183C77.1193 53.7568 77.3998 53.3429 77.7671 53C77.7671 53 79.1526 57.5767 80.1867 59.6354C81.2208 61.6941 83.4467 64.4143 83.2657 66.3787Z" fill="#72D561"/>
<path d="M80.9032 68.4723C80.7455 68.6766 80.5592 68.8682 80.3221 68.9708C80.1232 69.0566 79.9019 69.0735 79.685 69.0862C79.0129 69.1254 78.3153 69.1338 77.693 68.8862C77.4135 66.8338 77.3945 62.9112 77.3945 62.9112C77.3945 62.9112 75.6195 57.8826 76.7414 54.6448C76.9372 54.8819 77.0833 55.1401 77.1415 55.3497C77.2579 55.772 77.1436 56.2346 77.2728 56.6537C77.4728 57.3015 78.2053 57.6942 78.3481 58.3578C78.4032 58.6161 78.3598 58.887 78.3979 59.1485C78.4699 59.6375 78.8128 60.0344 79.1007 60.4366C79.5347 61.041 79.8681 61.7088 80.2004 62.3735C80.4555 62.8848 80.7106 63.396 80.9657 63.9072C81.1922 64.3624 81.4208 64.8207 81.5489 65.3118C81.8294 66.3893 81.5838 67.5906 80.9032 68.4723Z" fill="#78E75A"/>
<path d="M89.8954 60.4094C89.4065 60.7502 88.9443 61.1746 88.5122 61.6568C86.6066 63.7795 85.2524 67.0282 84.4817 69.2557C84.4627 69.3113 84.4438 69.3659 84.426 69.4205C83.9638 70.777 83.7288 71.7158 83.7288 71.7158C83.7288 71.7158 83.711 71.8473 83.662 72.0633C83.4749 72.1547 83.28 72.2382 83.0784 72.315C82.3946 72.5745 81.6417 72.7505 80.8643 72.8407C80.7853 72.8507 80.7062 72.8585 80.6271 72.8663C80.4912 72.8786 80.3531 72.8886 80.2162 72.8964C80.2039 72.8975 80.1928 72.8975 80.1805 72.8975C79.9166 72.912 79.6504 72.9164 79.3853 72.9109C79.3296 72.9098 79.2739 72.9075 79.2183 72.9053C79.2873 72.3685 79.3942 71.8061 79.5212 71.2626V71.2615C79.7629 70.2212 80.0703 69.2456 80.3008 68.6375C80.3264 68.5707 80.3498 68.5084 80.3732 68.4504C80.4133 68.3524 80.4523 68.2578 80.4935 68.1631L80.4968 68.1564C81.1394 66.6585 81.9892 65.439 82.9136 64.45L82.9147 64.4489C85.9885 61.1578 89.8954 60.4094 89.8954 60.4094Z" fill="#72D561"/>
<path d="M80.3012 68.6369L80.2221 71.3889V71.39L80.1809 72.8969C79.917 72.9114 79.6508 72.9158 79.3857 72.9102C79.33 72.9091 79.2743 72.9069 79.2187 72.9047C79.193 72.9036 79.1685 72.9024 79.1429 72.9013C78.8623 72.8902 78.5849 72.8668 78.3076 72.8345C77.6817 72.7588 77.0714 72.6274 76.5001 72.4403C76.2261 72.3512 75.961 72.2487 75.7071 72.134C75.6024 71.2653 75.5256 70.185 75.3852 69.0312C75.3763 68.9554 75.3674 68.8797 75.3574 68.8029C75.0032 65.9974 74.2481 62.8133 71.8113 61.1995C71.5608 61.0336 71.2924 60.8832 71.0039 60.7529C71.0039 60.7529 74.3707 60.6917 77.0536 62.4781C77.0536 62.4781 77.0547 62.4781 77.0547 62.4792C78.6729 63.555 80.0406 65.3036 80.2711 68.1391C80.2722 68.1413 80.2722 68.1424 80.2722 68.1447C80.2867 68.3061 80.2956 68.4699 80.3012 68.6369Z" fill="#78E75A"/>
<path d="M80.3012 68.6369L80.2221 71.3889V71.39L80.1809 72.8969C79.917 72.9114 79.6508 72.9158 79.3857 72.9102C79.33 72.9091 79.2743 72.9069 79.2187 72.9047C79.193 72.9036 79.1685 72.9024 79.1429 72.9013C78.1562 71.2308 78.2765 69.0713 77.5381 67.2492C77.1772 66.356 76.6126 65.5553 76.2595 64.6576C76.0234 64.0584 75.8797 63.4125 75.5178 62.879C75.0957 62.2587 74.4252 61.8611 73.7759 61.4835C73.6078 61.3844 73.4362 61.2853 73.248 61.2341C73.0476 61.1795 72.8371 61.1806 72.6299 61.1817C72.3593 61.1839 72.0853 61.1973 71.8113 61.1995C71.5608 61.0336 71.2924 60.8832 71.0039 60.7529C71.0039 60.7529 74.3707 60.6917 77.0536 62.4781C77.0536 62.4781 77.0547 62.4781 77.0547 62.4792C78.6729 63.555 80.0406 65.3036 80.2711 68.1391C80.2722 68.1413 80.2722 68.1424 80.2722 68.1447C80.2867 68.3061 80.2956 68.4699 80.3012 68.6369Z" fill="#72D561"/>
<path d="M88.5126 61.6564C86.607 63.7791 85.2527 67.0278 84.4821 69.2553C84.4631 69.3109 84.4442 69.3655 84.4264 69.4201C83.9642 70.7766 83.7292 71.7154 83.7292 71.7154C83.7292 71.7154 83.7114 71.8469 83.6624 72.0629C83.4753 72.1542 83.2804 72.2378 83.0788 72.3146C82.395 72.5741 81.6421 72.7501 80.8647 72.8403C80.7188 72.3904 80.5384 71.9549 80.642 71.4348C80.7667 70.8122 81.171 70.2888 81.5697 69.7954C82.4351 68.7229 83.3338 67.6649 84.0243 66.471C84.844 65.0521 85.4354 63.3715 86.8286 62.5095C87.3632 62.1787 87.988 61.9916 88.5126 61.6564Z" fill="#78E75A"/>
<path d="M73.6953 83.6548C73.6953 85.7779 72.2184 88.3856 70.3492 89.4472L32.5953 111.255C31.6723 111.786 30.8184 111.832 30.2184 111.486C30.1491 111.44 30.0568 111.393 29.9875 111.347L22.3491 106.824C21.7491 106.501 21.3568 105.739 21.3568 104.701L21.1492 30.4626C21.1261 28.3164 22.626 25.7087 24.4952 24.6471L62.2492 2.83941C63.1722 2.30869 64.026 2.26249 64.626 2.6318L72.3569 7.20098C73.0492 7.52409 73.4645 8.28567 73.4645 9.41642L73.6953 83.6548Z" fill="#1D2943"/>
<path d="M72.4933 7.26667C71.8915 6.9098 71.0445 6.95461 70.1085 7.48944L32.3541 29.2862C30.5043 30.3561 28.9888 32.9635 29.0111 35.0809L29.2339 109.342C29.2339 110.389 29.5905 111.125 30.2146 111.481L22.3446 106.836C21.7424 106.501 21.3639 105.744 21.3639 104.696L21.1409 30.4576C21.1186 28.3182 22.6341 25.7105 24.4839 24.6409L62.2384 2.84384C63.1745 2.309 64.0213 2.2645 64.6231 2.62107L72.4933 7.26667Z" fill="#4C5C75"/>
<path d="M70.1165 7.48979C71.9663 6.42161 73.4654 7.29223 73.4714 9.41792L73.6914 83.66C73.6974 85.7853 72.2082 88.3812 70.3583 89.4491L32.593 111.253C30.7432 112.321 29.2299 111.458 29.2239 109.333L29.0039 35.0914C28.9979 32.9657 30.5014 30.3615 32.3512 29.2933L70.1165 7.48979Z" fill="#1D2943"/>
<path d="M70.189 12.9323C71.1139 12.3984 71.8705 12.8294 71.8735 13.8922L72.0752 82.5834C72.0782 83.6462 71.3265 84.9481 70.4016 85.4821L32.6362 107.286C31.7113 107.82 30.9546 107.389 30.9517 106.326L30.75 37.6349C30.7469 36.572 31.4986 35.2701 32.4235 34.7362L70.189 12.9323Z" fill="white"/>
<path d="M63.4382 12.9042C64.1782 12.4774 64.792 12.8271 64.7944 13.6772C64.7969 14.5437 64.187 15.584 63.447 16.0112C62.7071 16.4383 62.0933 16.1046 62.0908 15.2381C62.0884 14.388 62.6983 13.3317 63.4382 12.9042Z" fill="#4C5C75"/>
<path d="M66.4712 11.9393C66.8554 11.7174 67.1553 11.8885 67.1564 12.3136C67.1577 12.7387 66.8598 13.2545 66.4756 13.4764C66.1199 13.6817 65.8201 13.5108 65.8189 13.0857C65.8177 12.6607 66.1155 12.1448 66.4712 11.9393Z" fill="#4C5C75"/>
<path d="M39.2477 26.8706C39.9877 26.4435 40.5873 26.8015 40.5898 27.6517C40.5922 28.5181 39.9965 29.5501 39.2566 29.9773C38.5024 30.4127 37.9029 30.071 37.9004 29.2045C37.898 28.3541 38.4937 27.3061 39.2477 26.8706Z" fill="#4C5C75"/>
<path d="M36.2047 29.4137C36.5746 29.2001 36.8744 29.3709 36.8758 29.796C36.8769 30.2211 36.5791 30.7369 36.2091 30.9505C35.8392 31.1641 35.5394 30.9935 35.5381 30.5682C35.537 30.1431 35.8347 29.6272 36.2047 29.4137Z" fill="#4C5C75"/>
<path d="M42.1671 25.9712C42.537 25.7576 42.8369 25.9288 42.8381 26.3536C42.8393 26.7787 42.5414 27.2945 42.1715 27.5084C41.8015 27.722 41.5017 27.5511 41.5005 27.126C41.4993 26.7009 41.7972 26.1851 42.1671 25.9712Z" fill="#4C5C75"/>
<path d="M60.2249 15.7095L60.2283 16.9031L44.2627 26.1208L44.2593 24.9271L60.2249 15.7095Z" fill="#4C5C75"/>
<path d="M66.0201 7.5111C65.8984 7.66773 65.7244 7.82494 65.4978 7.94597C64.3319 8.60747 62.4348 8.59026 61.2859 7.92906C61.0421 7.78964 60.8509 7.63332 60.729 7.45919C60.1546 6.81489 60.3112 6.01429 61.2338 5.475C62.3825 4.81351 64.3144 4.81351 65.4806 5.475C66.4204 6.01429 66.5944 6.84991 66.0201 7.5111Z" fill="#EDEEF2"/>
<path d="M66.0201 7.51104C65.8984 7.66767 65.7244 7.82488 65.4978 7.94591C64.3319 8.60741 62.4348 8.5902 61.2859 7.929C61.0421 7.78958 60.8509 7.63326 60.729 7.45913C61.7995 6.23463 65.0664 6.2835 66.0201 7.51104Z" fill="#111D33"/>
<path d="M27.5964 42.8388L27.5789 51.9586C27.5789 52.4867 27.3851 52.8742 27.0683 53.0504L25.8359 53.7719C26.1351 53.596 26.329 53.2087 26.329 52.6629L26.364 43.5606C26.364 42.4868 25.607 41.1664 24.6738 40.6206C24.181 40.3387 23.7584 40.321 23.4414 40.4971L24.6913 39.7754C24.9909 39.5992 25.4311 39.6344 25.9063 39.8985C26.8394 40.4444 27.5964 41.7648 27.5964 42.8388Z" fill="#9EA9C9"/>
<path d="M24.6646 40.6224C25.598 41.161 26.3599 42.4806 26.3568 43.5526L26.3309 52.6716C26.3276 53.7565 25.561 54.1937 24.6279 53.6549C23.6836 53.1098 22.922 51.7904 22.9248 50.7052L22.9507 41.5865C22.9537 40.5142 23.7206 40.0773 24.6646 40.6224Z" fill="#F3F1FC"/>
<path d="M27.543 60.7571V66.2325C27.5255 66.7781 27.3494 67.1479 27.0326 67.324L25.8004 68.0458C26.0995 67.8697 26.2934 67.4824 26.2934 66.9543L26.3108 61.4789C26.3108 60.4048 25.5538 59.0845 24.6205 58.5388C24.1453 58.257 23.7051 58.2393 23.4058 58.4154L24.6382 57.6934C24.9552 57.5175 25.3777 57.535 25.8532 57.8168C26.786 58.3627 27.561 59.6831 27.543 60.7571Z" fill="#9EA9C9"/>
<path d="M24.6176 58.5381C25.5507 59.0769 26.3126 60.3965 26.3095 61.4814L26.2938 66.9578C26.2908 68.0298 25.5239 68.467 24.591 67.9282C23.647 67.3833 22.8852 66.0637 22.8882 64.9917L22.9037 59.515C22.9067 58.4301 23.6733 57.9929 24.6176 58.5381Z" fill="#F3F1FC"/>
<path d="M68.8976 33.8437C68.9205 34.8787 68.1616 36.1668 67.2645 36.6727L35.7762 54.8666C34.8792 55.3955 34.1431 54.9585 34.1431 53.9234L34.0972 37.9149C34.0742 36.8798 34.8102 35.5918 35.7302 35.0626L67.2185 16.892C68.1156 16.363 68.8516 16.8 68.8516 17.8349L68.8976 33.8437Z" fill="#F3F1FC"/>
<path d="M51.8097 32.0866L49.7856 36.4797L48.5896 36.3417H48.5666L47.5316 36.2037L47.5546 45.059V46.3701L39.8263 50.8323V49.5212L39.7802 40.6889L38.2162 42.69L37.5032 43.587L35.4561 41.5399L36.1691 40.6429L40.9994 34.5016C41.0222 34.5936 41.4823 36.1576 43.6214 35.1916C45.8065 33.6506 46.2205 31.5805 46.2435 31.4885L50.6137 31.9486L51.8097 32.0866Z" fill="#2C3B84"/>
<path d="M47.5545 45.0588V46.3699L39.8262 50.8321V49.521L47.5545 45.0588Z" fill="#A92D94"/>
<path d="M51.8094 32.0867L49.7853 36.4799L48.5894 36.3418L50.6135 31.9487L51.8094 32.0867Z" fill="#A92D94"/>
<path d="M38.2162 42.6902L37.5032 43.5873L35.4561 41.5401L36.1691 40.6431L38.2162 42.6902Z" fill="#A92D94"/>
<path d="M67.2807 21.3142L53.7148 29.1464L53.72 31.4444L67.2807 23.6151V21.3142Z" fill="#DEDFFB"/>
<path d="M67.2807 26.4237L53.7148 34.2559L53.72 36.5539L67.2807 28.7246V26.4237Z" fill="#DEDFFB"/>
<path d="M63.7127 33.5931L53.7148 39.3653L53.72 41.6633L63.7127 35.8941V33.5931Z" fill="#DEDFFB"/>
<path d="M36.4386 58.4989C37.7166 57.7611 38.7614 58.3564 38.7655 59.8141C38.7697 61.2935 37.7317 63.0804 36.4537 63.8183C35.1757 64.5562 34.1404 63.9662 34.1362 62.4868C34.1321 61.0291 35.1606 59.2368 36.4386 58.4989Z" fill="#2C3B84"/>
<path d="M68.6076 40.7651L41.0786 56.6592L41.0827 58.1059L68.6076 42.2144V40.7651Z" fill="#E9E7FC"/>
<path d="M65.7587 46.001L65.7628 47.4478L41.091 61.692L41.0869 60.2453L65.7587 46.001Z" fill="#E9E7FC"/>
<path d="M36.4386 67.5767C37.7166 66.8388 38.7614 67.4342 38.7655 68.8919C38.7697 70.3713 37.7317 72.1582 36.4537 72.8961C35.1757 73.6339 34.1404 73.044 34.1362 71.5645C34.1321 70.1069 35.1606 68.3146 36.4386 67.5767Z" fill="#A92D94"/>
<path d="M68.6076 49.8429L41.0786 65.7369L41.0827 67.1836L68.6076 51.2922V49.8429Z" fill="#E9E7FC"/>
<path d="M65.7587 55.0782L65.7628 56.525L41.091 70.7693L41.0869 69.3225L65.7587 55.0782Z" fill="#E9E7FC"/>
<path d="M36.4386 76.6542C37.7166 75.9164 38.7614 76.5117 38.7655 77.9694C38.7697 79.4488 37.7317 81.2357 36.4537 81.9736C35.1757 82.7114 34.1404 82.1215 34.1362 80.6421C34.1321 79.1844 35.1606 77.3921 36.4386 76.6542Z" fill="#F94F72"/>
<path d="M68.6076 58.9204L41.0786 74.8144L41.0827 76.2612L68.6076 60.3697V58.9204Z" fill="#E9E7FC"/>
<path d="M65.7587 64.1559L65.7628 65.6027L41.091 79.8469L41.0869 78.4002L65.7587 64.1559Z" fill="#E9E7FC"/>
<path d="M36.4386 85.7316C37.7166 84.9938 38.7614 85.5891 38.7655 87.0468C38.7697 88.5262 37.7317 90.3131 36.4537 91.051C35.1757 91.7888 34.1404 91.1989 34.1362 89.7195C34.1321 88.2618 35.1606 86.4695 36.4386 85.7316Z" fill="#EBE70E"/>
<path d="M68.6076 67.998L41.0786 83.8921L41.0827 85.3388L68.6076 69.4474V67.998Z" fill="#E9E7FC"/>
<path d="M65.7587 73.2335L65.7628 74.6803L41.091 88.9246L41.0869 87.4778L65.7587 73.2335Z" fill="#E9E7FC"/>
<path d="M36.4386 94.809C37.7166 94.0712 38.7614 94.6665 38.7655 96.1242C38.7697 97.6036 37.7317 99.3905 36.4537 100.128C35.1757 100.866 34.1404 100.276 34.1362 98.7968C34.1321 97.3392 35.1606 95.5469 36.4386 94.809Z" fill="black"/>
<path d="M68.6076 77.0752L41.0786 92.9692L41.0827 94.4159L68.6076 78.5245V77.0752Z" fill="#E9E7FC"/>
<path d="M65.7587 82.3107L65.7628 83.7574L41.091 98.0017L41.0869 96.555L65.7587 82.3107Z" fill="#E9E7FC"/>
<path d="M77.8374 100.562L77.832 97.7736C77.8344 98.625 77.475 99.547 76.7783 100.464L76.7837 103.253C77.4804 102.336 77.8398 101.414 77.8374 100.562Z" fill="#081243"/>
<path d="M74.7203 106.712L74.7149 103.924C74.7137 103.501 74.4745 103.146 74.1377 102.857L74.1431 105.646C74.4799 105.935 74.7191 106.29 74.7203 106.712Z" fill="#081243"/>
<path d="M77.5438 104.628L77.5384 101.84C77.5417 102.991 76.1086 104.018 75.115 104.592C74.5882 104.896 74.2052 105.064 74.1851 105.073L74.1905 107.861C74.2106 107.853 74.5936 107.685 75.1204 107.381C76.114 106.807 77.5471 105.78 77.5438 104.628Z" fill="#081243"/>
<path d="M57 102.276L57.0054 105.065C57.0084 106.138 57.5859 107.1 58.7888 107.799C62.0082 109.67 68.4831 108.952 73.2467 106.202C73.564 106.018 73.859 105.835 74.1429 105.646L74.1375 102.857C73.8536 103.046 73.5586 103.23 73.2413 103.413C68.4777 106.163 62.0028 106.881 58.7834 105.01C57.5805 104.311 57.003 103.35 57 102.276Z" fill="#081243"/>
<path d="M76.7763 100.469C78.7233 102.133 76.493 103.797 75.1124 104.593C74.5814 104.894 74.2097 105.071 74.1919 105.071C75.0416 104.115 74.7406 103.372 74.1389 102.859C73.8556 103.053 73.5547 103.23 73.2361 103.407C68.4747 106.169 61.9964 106.877 58.7749 105.018C55.5711 103.142 56.8277 99.3894 61.5892 96.6458C66.3506 93.8845 72.8291 93.1765 76.0505 95.0351C78.21 96.2918 78.3516 98.3981 76.7763 100.469Z" fill="#2C3B84"/>
<path d="M64.2985 103.264C63.4856 103.743 62.1633 103.743 61.3565 103.264C60.5376 102.797 60.5437 102.033 61.3686 101.56C62.1814 101.087 63.4978 101.08 64.3106 101.56C65.1295 102.027 65.1234 102.797 64.2985 103.264Z" fill="white"/>
<path d="M73.4706 97.9687C72.6577 98.4418 71.3354 98.4418 70.5225 97.9687C69.7097 97.5016 69.7218 96.7373 70.5347 96.2641C71.3536 95.791 72.6759 95.7849 73.4827 96.2641C74.2895 96.7312 74.2895 97.5016 73.4706 97.9687Z" fill="white"/>
<path d="M68.8904 100.613C68.0715 101.086 66.743 101.092 65.9362 100.619C65.1295 100.146 65.1356 99.3818 65.9484 98.9147C66.7612 98.4355 68.0836 98.4355 68.8964 98.9147C69.7093 99.3818 69.7093 100.146 68.8904 100.613Z" fill="white"/>
</g>
<defs>
<clipPath id="clip0_1067_3334">
<rect width="113.674" height="113.533" fill="white" transform="translate(0.0966797 0.666626)"/>
</clipPath>
</defs>
</svg>
