<svg width="114" height="115" viewBox="0 0 114 115" fill="none" xmlns="http://www.w3.org/2000/svg">
<g clip-path="url(#clip0_1067_4695)">
<path d="M73.6953 83.6548C73.6953 85.7779 72.2184 88.3856 70.3492 89.4472L32.5953 111.255C31.6723 111.786 30.8184 111.832 30.2184 111.486C30.1491 111.44 30.0568 111.393 29.9875 111.347L22.3491 106.824C21.7491 106.501 21.3568 105.739 21.3568 104.701L21.1492 30.4626C21.1261 28.3164 22.626 25.7087 24.4952 24.6471L62.2492 2.83941C63.1722 2.30869 64.026 2.26249 64.626 2.6318L72.3569 7.20098C73.0492 7.52409 73.4645 8.28567 73.4645 9.41642L73.6953 83.6548Z" fill="#1D2943"/>
<path d="M72.4933 7.26667C71.8915 6.9098 71.0445 6.95461 70.1085 7.48944L32.3541 29.2862C30.5043 30.3561 28.9888 32.9635 29.0111 35.0809L29.2339 109.342C29.2339 110.389 29.5905 111.125 30.2146 111.481L22.3446 106.836C21.7424 106.501 21.3639 105.744 21.3639 104.696L21.1409 30.4576C21.1186 28.3182 22.6341 25.7105 24.4839 24.6409L62.2384 2.84384C63.1745 2.309 64.0213 2.2645 64.6231 2.62107L72.4933 7.26667Z" fill="#4C5C75"/>
<path d="M70.1165 7.48979C71.9663 6.42161 73.4654 7.29223 73.4714 9.41792L73.6914 83.66C73.6974 85.7853 72.2082 88.3812 70.3583 89.4491L32.593 111.253C30.7432 112.321 29.2299 111.458 29.2239 109.333L29.0039 35.0914C28.9979 32.9657 30.5014 30.3615 32.3512 29.2933L70.1165 7.48979Z" fill="#1D2943"/>
<path d="M70.189 12.9323C71.1139 12.3984 71.8705 12.8294 71.8735 13.8922L72.0752 82.5834C72.0782 83.6462 71.3265 84.9481 70.4016 85.4821L32.6362 107.286C31.7113 107.82 30.9546 107.389 30.9517 106.326L30.75 37.6349C30.7469 36.572 31.4986 35.2701 32.4235 34.7362L70.189 12.9323Z" fill="white"/>
<path d="M63.4382 12.9042C64.1782 12.4774 64.792 12.8271 64.7944 13.6772C64.7969 14.5437 64.187 15.584 63.447 16.0112C62.7071 16.4383 62.0933 16.1046 62.0908 15.2381C62.0884 14.388 62.6983 13.3317 63.4382 12.9042Z" fill="#4C5C75"/>
<path d="M66.4712 11.9393C66.8554 11.7174 67.1553 11.8885 67.1564 12.3136C67.1577 12.7387 66.8598 13.2545 66.4756 13.4764C66.1199 13.6817 65.8201 13.5108 65.8189 13.0857C65.8177 12.6607 66.1155 12.1448 66.4712 11.9393Z" fill="#4C5C75"/>
<path d="M39.2477 26.8706C39.9877 26.4435 40.5873 26.8015 40.5898 27.6517C40.5922 28.5181 39.9965 29.5501 39.2566 29.9773C38.5024 30.4127 37.9029 30.071 37.9004 29.2045C37.898 28.3541 38.4937 27.3061 39.2477 26.8706Z" fill="#4C5C75"/>
<path d="M36.2047 29.4137C36.5746 29.2001 36.8744 29.3709 36.8758 29.796C36.8769 30.2211 36.5791 30.7369 36.2091 30.9505C35.8392 31.1641 35.5394 30.9935 35.5381 30.5682C35.537 30.1431 35.8347 29.6272 36.2047 29.4137Z" fill="#4C5C75"/>
<path d="M42.1671 25.9712C42.537 25.7576 42.8369 25.9288 42.8381 26.3536C42.8393 26.7787 42.5414 27.2945 42.1715 27.5084C41.8015 27.722 41.5017 27.5511 41.5005 27.126C41.4993 26.7009 41.7972 26.1851 42.1671 25.9712Z" fill="#4C5C75"/>
<path d="M60.2249 15.7095L60.2283 16.9031L44.2627 26.1208L44.2593 24.9271L60.2249 15.7095Z" fill="#4C5C75"/>
<path d="M66.0201 7.5111C65.8984 7.66773 65.7244 7.82494 65.4978 7.94597C64.3319 8.60747 62.4348 8.59026 61.2859 7.92906C61.0421 7.78964 60.8509 7.63332 60.729 7.45919C60.1546 6.81489 60.3112 6.01429 61.2338 5.475C62.3825 4.81351 64.3144 4.81351 65.4806 5.475C66.4204 6.01429 66.5944 6.84991 66.0201 7.5111Z" fill="#EDEEF2"/>
<path d="M66.0201 7.51104C65.8984 7.66767 65.7244 7.82488 65.4978 7.94591C64.3319 8.60741 62.4348 8.5902 61.2859 7.929C61.0421 7.78958 60.8509 7.63326 60.729 7.45913C61.7995 6.23463 65.0664 6.2835 66.0201 7.51104Z" fill="#111D33"/>
<path d="M27.4997 42.1723L27.4822 51.2921C27.4822 51.8202 27.2884 52.2077 26.9716 52.3838L25.7392 53.1054C26.0385 52.9295 26.2323 52.5422 26.2323 51.9964L26.2673 42.8941C26.2673 41.8203 25.5103 40.4999 24.5772 39.954C24.0843 39.6722 23.6618 39.6545 23.3447 39.8306L24.5947 39.1089C24.8942 38.9327 25.3344 38.9679 25.8096 39.232C26.7428 39.7779 27.4997 41.0983 27.4997 42.1723Z" fill="#9EA9C9"/>
<path d="M24.5684 39.9559C25.5018 40.4945 26.2637 41.8141 26.2606 42.8861L26.2347 52.0051C26.2314 53.09 25.4648 53.5272 24.5317 52.9884C23.5874 52.4432 22.8258 51.1239 22.8286 50.0387L22.8545 40.92C22.8575 39.8477 23.6244 39.4108 24.5684 39.9559Z" fill="#F3F1FC"/>
<path d="M27.4468 60.0905V65.5659C27.4294 66.1115 27.2532 66.4813 26.9364 66.6574L25.7042 67.3792C26.0033 67.203 26.1972 66.8158 26.1972 66.2876L26.2147 60.8123C26.2147 59.7382 25.4577 58.4178 24.5243 57.8722C24.0491 57.5904 23.6089 57.5726 23.3096 57.7488L24.542 57.0267C24.8591 56.8509 25.2815 56.8684 25.757 57.1502C26.6898 57.6961 27.4648 59.0164 27.4468 60.0905Z" fill="#9EA9C9"/>
<path d="M24.5214 57.8714C25.4546 58.4102 26.2164 59.7299 26.2133 60.8148L26.1976 66.2912C26.1946 67.3632 25.4277 67.8004 24.4948 67.2616C23.5508 66.7167 22.789 65.3971 22.792 64.3251L22.8075 58.8484C22.8105 57.7635 23.5771 57.3263 24.5214 57.8714Z" fill="#F3F1FC"/>
<path d="M47.5264 63.9011C47.5264 64.8011 46.9264 65.8627 46.1417 66.301L37.3494 71.4011C36.9571 71.6319 36.588 71.6549 36.3571 71.4933L34.0263 70.155C33.7956 69.9934 33.6341 69.6934 33.6341 69.2549L33.611 59.5395C33.5879 58.6626 34.2341 57.578 34.9957 57.1396L43.788 52.0395C44.1802 51.8319 44.5264 51.8088 44.7802 51.9473L46.9955 53.2396C47.0186 53.2627 47.0648 53.2627 47.0879 53.2858C47.3418 53.4242 47.5033 53.7473 47.5033 54.2087L47.5264 63.9011Z" fill="#5EC363"/>
<path d="M46.1043 53.391C46.8797 52.9433 47.5 53.3089 47.5025 54.1999L47.53 63.9048C47.5326 64.7958 46.9164 65.8632 46.1409 66.3109L37.3388 71.3928C36.5739 71.8344 35.9431 71.487 35.9406 70.596L35.9131 60.8911C35.9106 60 36.5372 58.9146 37.3022 58.4729L46.1043 53.391Z" fill="#78E75A"/>
<path d="M36.3468 71.4899C36.0975 71.345 35.9423 71.0372 35.941 70.596L35.9135 60.891C35.9109 60.0001 36.5376 58.9147 37.3025 58.473L46.1047 53.3911C46.4922 53.1674 46.8411 53.1466 47.0933 53.2933L44.7799 51.9488C44.5276 51.8022 44.1788 51.8228 43.7913 52.0467L34.9891 57.1286C34.2242 57.5701 33.5975 58.6555 33.6001 59.5466L33.6275 69.2515C33.6288 69.6926 33.784 70.0006 34.0334 70.1453L36.3468 71.4899Z" fill="#5EC363"/>
<path d="M47.4799 45.6704C47.4799 46.5472 46.8568 47.6319 46.0954 48.0703L37.28 53.1704C36.8877 53.4011 36.5415 53.4011 36.3108 53.2626L33.98 51.901C33.726 51.7626 33.5876 51.4626 33.5646 51.0011L33.5415 41.3088C33.5415 40.4088 34.1645 39.3472 34.9261 38.9087L43.7415 33.8088C44.1337 33.601 44.4799 33.578 44.7338 33.7164L46.9492 35.0087C46.9723 35.0318 47.0184 35.0318 47.0414 35.0549C47.2953 35.1934 47.4568 35.4934 47.4568 35.9549L47.4799 45.6704Z" fill="#DF3260"/>
<path d="M46.0531 35.1612C46.8285 34.7135 47.4487 35.067 47.4513 35.958L47.4788 45.6629C47.4813 46.554 46.8651 47.6333 46.0897 48.081L37.2876 53.1629C36.5226 53.6046 35.8919 53.2451 35.8893 52.3541L35.8618 42.6492C35.8593 41.7581 36.486 40.6848 37.251 40.2431L46.0531 35.1612Z" fill="#F45170"/>
<path d="M36.3001 53.2569C36.048 53.1104 35.8906 52.7981 35.8893 52.3541L35.8617 42.6492C35.8594 41.7581 36.486 40.6848 37.251 40.2431L46.0531 35.1612C46.4432 34.936 46.7942 34.9134 47.0469 35.0604L44.7333 33.716C44.4806 33.569 44.1298 33.5914 43.7395 33.8168L34.9376 38.8987C34.1726 39.3404 33.5458 40.4137 33.5483 41.3046L33.5759 51.0097C33.5772 51.4537 33.7344 51.7658 33.9867 51.9125L36.3001 53.2569Z" fill="#DF3260"/>
<path d="M63.5878 36.3703C63.5878 37.2473 62.9648 38.3318 62.2033 38.7934L53.3879 43.8703C52.9032 44.1472 52.4649 44.101 52.234 43.801C52.2802 43.8703 52.3263 43.9165 52.3956 43.9626L50.0879 42.6242C49.8341 42.4627 49.6725 42.1627 49.6725 41.7011L49.6494 32.0087C49.6494 31.1087 50.2725 30.0473 51.034 29.6088L59.8494 24.5087C60.2418 24.3011 60.5879 24.278 60.8417 24.4165L63.0571 25.7088C63.0802 25.7319 63.1264 25.7319 63.1494 25.755C63.4033 25.8934 63.5649 26.1935 63.5649 26.6549L63.5878 36.3703Z" fill="#497BFE"/>
<path d="M62.1585 25.8625C62.934 25.4148 63.5542 25.7683 63.5568 26.6593L63.5843 36.3642C63.5868 37.2553 62.9706 38.3346 62.1952 38.7823L53.3931 43.8642C52.6281 44.3059 51.9973 43.9464 51.9948 43.0554L51.9673 33.3505C51.9648 32.4594 52.5915 31.3861 53.3564 30.9444L62.1585 25.8625Z" fill="#57B3FE"/>
<path d="M52.4056 43.9582C52.1534 43.8117 51.996 43.4996 51.9948 43.0555L51.9672 33.3505C51.9648 32.4596 52.5915 31.3861 53.3564 30.9446L62.1586 25.8627C62.5487 25.6373 62.8996 25.6149 63.1523 25.7616L60.8388 24.4172C60.5861 24.2705 60.2353 24.2929 59.845 24.5181L51.043 29.6C50.2781 30.0417 49.6512 31.115 49.6538 32.0061L49.6814 41.7109C49.6827 42.1552 49.8399 42.4673 50.0922 42.6138L52.4056 43.9582Z" fill="#497BFE"/>
<path d="M74.4771 48.6427L71.9406 47.9541L69.514 49.355L70.5695 54.462L59.5485 60.8249L58.8906 57.6416L56.3541 56.953L53.9165 58.3603L63.5894 105.161L66.126 105.85L68.5635 104.443L67.508 99.3359L78.529 92.973L79.1869 96.1562L81.7235 96.8448L84.15 95.4439L74.4771 48.6427ZM60.5777 65.8042L71.5987 59.4413L72.8796 65.6391L61.8586 72.002L60.5777 65.8042ZM75.1897 76.8163L64.1687 83.1792L62.8878 76.9815L73.9088 70.6186L75.1897 76.8163ZM65.1979 88.1587L76.2189 81.7958L77.4998 87.9935L66.4788 94.3565L65.1979 88.1587Z" fill="#9EA9C9"/>
<path d="M81.7601 96.8294L79.2234 96.1408L78.168 91.0339L80.7046 91.7225L81.7601 96.8294Z" fill="#B0B8CF"/>
<path d="M80.0731 88.6667L77.5364 87.9781L75.8579 79.8567L78.3945 80.5453L80.0731 88.6667Z" fill="#B0B8CF"/>
<path d="M77.763 77.4894L75.2264 76.8008L73.5479 68.6794L76.0845 69.368L77.763 77.4894Z" fill="#B0B8CF"/>
<path d="M66.9131 96.2646L64.3765 95.576L77.5365 87.978L80.0731 88.6666L66.9131 96.2646Z" fill="#C9CEE2"/>
<path d="M75.4529 66.3122L72.9163 65.6236L71.2378 57.5022L73.7744 58.1908L75.4529 66.3122Z" fill="#B0B8CF"/>
<path d="M64.603 85.0874L62.0664 84.3988L75.2264 76.8009L77.763 77.4895L64.603 85.0874Z" fill="#C9CEE2"/>
<path d="M73.1429 55.1351L70.6063 54.4465L69.5508 49.3396L72.0874 50.0282L73.1429 55.1351Z" fill="#B0B8CF"/>
<path d="M72.0874 50.0282L69.5508 49.3395L71.9773 47.9386L74.5139 48.6272L72.0874 50.0282Z" fill="#C9CEE2"/>
<path d="M62.293 73.9102L59.7563 73.2216L72.9164 65.6237L75.453 66.3123L62.293 73.9102Z" fill="#C9CEE2"/>
<path d="M59.9829 62.733L57.4463 62.0444L70.6063 54.4464L73.1429 55.135L59.9829 62.733Z" fill="#C9CEE2"/>
<path d="M66.1626 105.835L63.626 105.146L53.9531 58.3447L56.4897 59.0333L66.1626 105.835Z" fill="#B0B8CF"/>
<path d="M72.0872 50.0281L74.5138 48.6272L84.1866 95.4284L81.7601 96.8293L80.7046 91.7225L67.5446 99.3205L68.6001 104.427L66.1626 105.835L56.4897 59.0334L58.9272 57.6261L59.9827 62.733L73.1427 55.135L72.0872 50.0281ZM75.4528 66.3122L73.7743 58.1908L60.6143 65.7888L62.2928 73.9102L75.4528 66.3122ZM80.0731 88.6667L78.3945 80.5453L65.2345 88.1432L66.913 96.2646L80.0731 88.6667ZM77.763 77.4894L76.0844 69.3681L62.9244 76.966L64.6029 85.0874L77.763 77.4894Z" fill="#9EA9C9"/>
<path d="M56.4897 59.0334L53.9531 58.3448L56.3906 56.9375L58.9272 57.6261L56.4897 59.0334Z" fill="#C9CEE2"/>
<path d="M56.5542 32.2373L59.8401 32.8919C60.271 32.9834 60.2731 33.7245 59.8441 34.3124L56.5728 38.7684C56.0676 39.4539 55.4037 39.4162 55.4017 38.733L55.3872 33.607C55.3853 32.9489 56.0434 32.12 56.5542 32.2373Z" fill="white"/>
<path d="M39.6154 65.1794L37.796 64.6811L39.6442 62.0323C39.812 61.7968 39.8388 61.5112 39.7044 61.3828C39.5353 61.2254 39.2836 61.3787 39.1432 61.5768L36.8823 64.8149C36.7105 65.0541 36.666 65.438 36.9218 65.5212C37.246 65.6094 36.444 65.3847 39.2582 66.1507C39.4596 66.1507 39.644 65.9448 39.7318 65.76C39.8318 65.5407 39.8392 65.2461 39.6154 65.1794Z" fill="white"/>
<path d="M46.5214 59.2657L44.2479 58.6443C44.0355 58.5878 43.8087 58.822 43.7114 59.0269C43.6096 59.2439 43.608 59.5467 43.8271 59.6015L45.6472 60.0991L43.7984 62.7486C43.6325 62.9894 43.6064 63.2704 43.7388 63.4048C43.9091 63.5625 44.1618 63.4058 44.3 63.2102L46.5622 59.9707C46.7385 59.7083 46.7705 59.3265 46.5214 59.2657Z" fill="white"/>
<path d="M42.7833 58.2905C39.9278 66.6679 39.7745 66.5821 39.9632 66.8577C40.1373 67.1083 40.5285 66.8674 40.6602 66.4965L43.4957 58.3366C43.5532 58.1708 43.5472 58.0189 43.4789 57.9213C43.332 57.7129 42.936 57.8473 42.7833 58.2905Z" fill="white"/>
<path d="M53.7188 88.0251L33.6738 99.5981L33.6823 102.609L53.7188 91.0412V88.0251Z" fill="#E3E7F0"/>
<path d="M44.7998 86.1198V89.1358L53.719 83.9863V80.9703L44.7998 86.1198Z" fill="#E3E7F0"/>
<path d="M41.3351 88.12L33.6538 92.5548L33.6623 95.5659L41.3351 91.136V88.12Z" fill="#F45170"/>
<path d="M53.7188 73.9155L33.6338 85.5117L33.6423 88.5054L53.7188 76.9141V73.9155Z" fill="#E3E7F0"/>
<path d="M53.7188 66.8435L33.6138 78.451L33.6224 81.4621L53.7188 69.8595V66.8435Z" fill="#DBA660"/>
<path d="M89.9876 24.1164C89.9876 24.7164 89.5491 25.478 89.0184 25.7779L68.8492 37.4318C68.5492 37.5934 68.2723 37.5934 68.0876 37.4548L66.4722 36.5549C66.3108 36.4395 66.1953 36.2318 66.1953 35.9087V28.6856C66.1953 28.0626 66.6107 27.301 67.1646 27.001L87.3339 15.3472C87.5877 15.1856 87.8415 15.1856 88.0261 15.2779L89.6415 16.2241C89.6646 16.2241 89.6646 16.2472 89.6876 16.2472C89.8492 16.3395 89.9647 16.5471 89.9647 16.8702L89.9876 24.1164Z" fill="#DEDFFB"/>
<path d="M89.6905 16.237C89.502 16.1342 89.2621 16.1513 88.9879 16.3056L68.8184 27.949C68.2872 28.2574 67.8417 29.0284 67.8417 29.6282L67.8588 36.8697C67.8588 37.1782 67.9788 37.4009 68.1501 37.5038L66.4803 36.5488C66.3089 36.446 66.2061 36.2232 66.2061 35.9148L66.189 28.6904C66.189 28.0735 66.6174 27.3024 67.1657 26.994L87.3352 15.3506C87.5923 15.1964 87.8493 15.1793 88.0207 15.2821L89.6905 16.237Z" fill="#DEDFFB"/>
<path d="M88.9906 16.3097C89.5267 16.0002 89.9657 16.2504 89.9675 16.8663L89.9825 24.1055C89.9842 24.7216 89.548 25.4771 89.0119 25.7866L68.842 37.4323C68.3059 37.7418 67.8669 37.4916 67.8651 36.8756L67.8501 29.6364C67.8484 29.0204 68.2845 28.2649 68.8206 27.9554L88.9906 16.3097Z" fill="#F3F1FC"/>
<path d="M75.3569 33.6703L68.8492 37.4319C68.5492 37.5934 68.2723 37.5934 68.0876 37.4548L66.4953 36.5549C66.3108 36.4396 66.1953 36.2318 66.1953 35.9318V28.6856C66.1953 28.0856 66.6107 27.3011 67.1646 26.978L73.6493 23.2395L75.3107 24.2087L75.3338 24.1856V24.2087L75.3569 33.6703Z" fill="#F9A83D"/>
<path d="M75.3271 24.1972L68.8196 27.9518C68.2821 28.2521 67.8396 29.0266 67.8396 29.6272L67.8554 36.8691C67.8554 37.1852 67.9818 37.4065 68.1557 37.5013L66.4854 36.5534C66.3115 36.4428 66.2009 36.2215 66.2009 35.9212L66.1851 28.6952C66.1851 28.0787 66.6119 27.3042 67.1651 26.9881L73.6567 23.2336L75.3271 24.1972Z" fill="#F9A83D"/>
<path d="M75.3356 24.194L75.3569 33.6709L68.842 37.4323C68.3059 37.7418 67.8669 37.4916 67.8651 36.8756L67.8501 29.6364C67.8484 29.0204 68.2845 28.2649 68.8206 27.9554L75.3356 24.194Z" fill="#FFD06C"/>
<path d="M74.3391 31.9445C74.5485 32.0639 74.5496 32.4346 74.3415 32.7949C74.1906 33.0563 73.8618 33.3706 73.6014 33.2222L72.1545 32.3977C71.4947 33.2583 70.3081 34.1538 69.3829 33.6266C68.4881 33.1166 68.4835 31.503 69.382 29.9578C71.2954 26.6437 74.2661 27.7897 72.9017 31.1254L74.3391 31.9445ZM72.1711 31.5472C73.7493 28.8398 71.3602 27.4252 69.7818 30.1856C69.1103 31.3377 69.1138 32.5588 69.7801 32.9495C70.6077 33.4211 71.6912 32.3863 72.1711 31.5472Z" fill="white"/>
<path d="M88.5221 20.682L88.5261 22.0993L76.8077 28.8656L76.8037 27.4482L88.5221 20.682Z" fill="#DEDFFB"/>
<path d="M92.8493 43.3165L92.8262 72.5087L90.3107 74.4935H85.8338L83.3415 72.5087L83.2954 43.3165L85.9723 44.3319H90.1954L92.8493 43.3165Z" fill="#986FF9"/>
<path d="M83.3052 43.4062L83.3445 72.5772L85.8433 74.5802L85.9613 44.4211L83.3052 43.4062Z" fill="#A92D94"/>
<path d="M92.8573 43.4062L92.818 72.5772L90.3193 74.6113L90.2012 44.4211L92.8573 43.4062Z" fill="#A92D94"/>
<path d="M90.3194 74.5802L90.2013 44.4211H85.9613L85.8433 74.5802H90.3194Z" fill="#E94ED0"/>
<path d="M92.826 72.5087L88.5107 80.7933H87.6798L83.3413 72.5087L85.8337 74.4934H90.3337L92.826 72.5087Z" fill="#F9A83D"/>
<path d="M87.8102 80.7878L85.8435 74.5009L83.3447 72.4979L87.677 80.7863L87.8102 80.7878Z" fill="#FFD06C"/>
<path d="M88.5116 80.7878L92.8283 72.4979L90.3295 74.5009L88.3628 80.7878H88.5116Z" fill="#F9A83D"/>
<path d="M88.3527 80.7803L90.3194 74.4934H85.8335L87.8002 80.7803H88.3527Z" fill="#FEBC1F"/>
<path d="M87.0664 79.6182L87.7112 80.8815C87.787 81.0176 87.9305 81.102 88.0863 81.102C88.242 81.102 88.3856 81.0176 88.4613 80.8815L89.1209 79.6208C88.4392 79.9153 87.7542 79.8949 87.0664 79.6182Z" fill="#1D2943"/>
<path d="M92.9018 41.5628L92.8824 43.3743C92.8718 47.1087 83.2853 46.9065 83.2954 43.3468L83.3149 41.5353C83.3128 42.2495 83.7834 42.9644 84.7265 43.5089C86.6034 44.5925 89.6462 44.5938 91.5131 43.5089C92.4378 42.9715 92.8998 42.2678 92.9018 41.5628Z" fill="#F3F1FC"/>
<path d="M91.4844 39.5818C93.3613 40.6654 93.3778 42.4253 91.5132 43.5089C89.6463 44.5938 86.6035 44.5926 84.7266 43.509C82.8497 42.4253 82.8443 40.6667 84.7112 39.5818C86.5758 38.4981 89.6075 38.4981 91.4844 39.5818Z" fill="#E3E7F0"/>
<path d="M92.8953 35.5856L92.8722 41.5857C92.8722 42.278 92.4108 42.9933 91.4877 43.5241C89.6185 44.6087 86.5954 44.6087 84.7262 43.5241C83.7799 42.9933 83.2954 42.278 83.2954 41.5626L83.3185 35.5626C83.3185 34.8473 83.803 34.1548 84.7262 33.601C86.5723 32.5165 89.6185 32.5165 91.4877 33.601C92.4338 34.1548 92.8953 34.8702 92.8953 35.5856Z" fill="#1D2943"/>
<path d="M92.8972 35.5717L92.8778 41.5837C92.8758 42.2876 92.4144 42.9903 91.4911 43.5268C89.627 44.6101 86.5888 44.6089 84.7147 43.5269C83.773 42.9832 83.3032 42.2693 83.3052 41.5562L83.3246 35.5442C83.3226 36.2574 83.7925 36.9712 84.7341 37.5149C86.6082 38.5969 89.6464 38.5981 91.5106 37.5148C92.4338 36.9783 92.8952 36.2757 92.8972 35.5717Z" fill="#1D2943"/>
<path d="M91.4819 33.5936C93.356 34.6756 93.3725 36.4329 91.5107 37.5149C89.6465 38.5982 86.6083 38.5969 84.7342 37.5149C82.8602 36.4329 82.8547 34.6769 84.7188 33.5936C86.5807 32.5116 89.6078 32.5116 91.4819 33.5936Z" fill="#4C5C75"/>
<path d="M90.2835 34.2907C91.4913 34.988 91.5019 36.1205 90.302 36.8179C89.1006 37.516 87.1426 37.5152 85.9348 36.8179C84.727 36.1206 84.7235 34.9889 85.9249 34.2907C87.1248 33.5934 89.0757 33.5934 90.2835 34.2907Z" fill="#1D2943"/>
<path d="M44.8742 41.6158L45.6573 41.2695L45.6606 42.4476L44.8782 43.0009C44.7951 43.5733 44.6164 44.1544 44.3677 44.721L44.8622 45.1461L44.1369 46.398L43.5216 46.1907C43.155 46.69 42.7366 47.1346 42.2849 47.4969L42.1956 48.4494L41.1703 49.0413L41.0758 48.1949C40.6236 48.3546 40.204 48.3937 39.8394 48.3166L39.2236 49.2347L38.4937 48.8229L38.9841 47.8292C38.733 47.5512 38.5516 47.178 38.4656 46.7032L37.6825 47.0538L37.6792 45.8756L38.4616 45.3182C38.5447 44.75 38.7234 44.1646 38.9721 43.6023L38.4776 43.173L39.2029 41.921L39.8219 42.1304C40.1849 41.6332 40.6032 41.1845 41.055 40.8264L41.1443 39.8739L42.1696 39.2819L42.264 40.1283C42.7163 39.9645 43.1358 39.9295 43.5041 40.0045L44.1162 39.0844L44.8462 39.4961L44.3557 40.4941C44.6068 40.7678 44.7883 41.1453 44.8742 41.6158ZM41.6423 46.0973C42.5834 45.554 43.3491 44.2315 43.346 43.1463C43.343 42.061 42.5723 41.6295 41.6311 42.1728C40.6867 42.7181 39.9276 44.0329 39.9307 45.1181C39.9338 46.2034 40.6978 46.6426 41.6423 46.0973Z" fill="white"/>
</g>
<defs>
<clipPath id="clip0_1067_4695">
<rect width="113.674" height="113.533" fill="white" transform="translate(0.0966797 0.666626)"/>
</clipPath>
</defs>
</svg>
