<svg width="119" height="119" viewBox="0 0 119 119" fill="none" xmlns="http://www.w3.org/2000/svg">
<g clip-path="url(#clip0_1067_2340)">
<path d="M81.4306 99.6446V103.207L58.3401 116.624L46.4793 109.724C43.2998 107.875 40.7067 103.41 40.7291 99.7349L40.7517 90.5122L43.841 92.2936L66.9315 78.8542L66.9089 88.0994C66.9089 89.8131 68.104 91.9102 69.5923 92.7445L81.4306 99.6446Z" fill="#4C5C75"/>
<path d="M58.3427 113.07L81.4396 99.6475L81.4295 103.206L58.3325 116.628L58.3427 113.07Z" fill="#1D2943"/>
<path d="M81.4369 99.6555L58.3443 113.07L46.5085 106.17C45.0229 105.318 43.8213 103.242 43.8213 101.516L43.843 92.2967L66.9356 78.8605L66.9139 88.1021C66.9139 89.8062 68.1155 91.9034 69.6011 92.7555L81.4369 99.6555Z" fill="#4C5C75"/>
<path d="M89.9543 62.3933V68.1885C89.9543 71.0973 87.925 74.6149 85.3993 76.0807L22.8704 112.272C21.4723 113.084 20.2096 113.084 19.3752 112.407C19.4428 112.475 19.5331 112.543 19.6233 112.588L12.8135 108.619C11.979 108.168 11.483 107.153 11.483 105.71L11.3703 53.103C11.3477 50.1941 13.3996 46.6764 15.9027 45.2108L78.4543 9.01915C79.7396 8.27512 80.8671 8.20741 81.7014 8.70357L88.5111 12.6497C88.4436 12.6271 88.3984 12.582 88.3308 12.582C89.2553 12.9878 89.8416 14.0477 89.8416 15.6036L89.9317 62.3933H89.9543Z" fill="#4C5C75"/>
<path d="M11.3741 53.1016C11.3579 50.2045 13.4019 46.6802 15.9125 45.2156L78.4609 9.02305C79.7324 8.2829 80.875 8.21835 81.7118 8.70108L88.5196 12.6605C87.6829 12.1778 86.54 12.2418 85.2686 12.9663L22.7204 49.1748C20.2098 50.6232 18.1659 54.164 18.1818 57.0608L18.2785 109.659C18.2944 111.108 18.7933 112.105 19.6142 112.588L12.8063 108.629C11.9857 108.162 11.4868 107.149 11.4868 105.716L11.3741 53.1016Z" fill="#4C5C75"/>
<path d="M18.2782 109.659L18.2849 103.86L11.4736 99.8972L11.4864 105.716C11.4864 107.148 11.9851 108.162 12.806 108.629L19.6139 112.588C18.793 112.105 18.2941 111.108 18.2782 109.659Z" fill="#B0B8CF"/>
<path d="M85.2691 12.9738C87.7867 11.5204 89.8382 12.6896 89.8464 15.5941L89.9547 68.1939C89.9629 71.0866 87.9247 74.6168 85.4074 76.0703L22.8619 112.272C20.3443 113.725 18.2928 112.556 18.2846 109.664L18.1763 57.0638C18.1681 54.1592 20.2063 50.6291 22.7238 49.1756L85.2691 12.9738Z" fill="#1D2943"/>
<path d="M89.9548 62.3904V68.1939C89.963 71.0866 87.9248 74.6168 85.4075 76.0703L22.8619 112.272C20.3444 113.725 18.2929 112.556 18.2847 109.664L18.2849 103.86L89.9548 62.3904Z" fill="#E3E7F0"/>
<path d="M55.6828 84.9639C56.9746 84.2179 58.0183 84.8125 58.0224 86.2972C58.0268 87.7816 56.9898 89.5774 55.698 90.3231C54.4062 91.0691 53.3627 90.4744 53.3584 88.99C53.3542 87.5053 54.391 85.7096 55.6828 84.9639Z" fill="#1D2943"/>
<path d="M87.7055 61.2806L20.4742 100.19L20.4075 57.0616C20.3852 54.953 22.0057 52.1563 23.8257 51.091L86.3739 14.8895C86.8844 14.6009 87.195 14.5786 87.306 14.5786C87.4391 14.6231 87.6168 14.9117 87.6168 15.5997L87.7055 61.2806Z" fill="white"/>
<path d="M53.7641 49.3572L47.8018 52.7993L47.8097 55.5998L53.7641 52.1622V49.3572Z" fill="#E3E7F0"/>
<path d="M84.6285 31.5375L57.1504 47.402V50.2071L84.6285 34.3425V31.5375Z" fill="#E3E7F0"/>
<path d="M75.1528 52.4768V55.2814L84.6287 49.8106V47.006L75.1528 52.4768Z" fill="#EBE70E"/>
<path d="M64.4699 35.4419L47.7798 45.078L47.7877 47.8782L64.4699 38.2467V35.4419Z" fill="#E3E7F0"/>
<path d="M84.6289 23.8035L67.8281 33.5032V36.3081L84.6289 26.6083V23.8035Z" fill="#A92D94"/>
<path d="M38.0296 61.8168C38.3711 61.9878 38.7178 62.1558 39.0645 62.3178C39.1266 62.3532 39.1319 62.3977 39.0702 62.5045C38.0907 64.2231 36.9551 65.5932 35.8418 66.5833C34.1625 68.075 33.1836 68.3459 32.1789 68.6981C32.1583 68.7049 32.1399 68.7124 32.1231 68.7221C32.0807 68.7466 32.0485 68.7851 32.0191 68.8615C31.9283 69.0881 31.5973 69.9114 31.429 70.3008C30.7647 69.3008 30.116 68.3215 29.4517 67.3096C30.8292 66.5499 32.1707 65.8111 33.5534 65.0484C33.4969 65.1867 33.7152 64.6453 33.0248 66.3511C32.9838 66.4638 32.9891 66.5142 33.0923 66.4606C33.4639 66.2758 33.8303 66.1176 34.2018 65.9032C35.2765 65.27 36.747 63.8713 37.8336 61.9359C37.8865 61.8442 37.9354 61.7703 38.0296 61.8168Z" fill="white"/>
<path d="M35.0875 52.1265C37.6603 51.4214 39.4061 52.5331 40.0918 54.6942C40.1021 54.712 40.1441 54.9075 40.191 55.0763C40.6708 54.7993 41.2383 54.4776 41.3983 54.3853L41.4139 54.4297C40.716 56.1567 40.0284 57.8719 39.31 59.6405C38.6509 58.6316 38.0021 57.6464 37.343 56.6493L38.4574 56.006C38.4157 55.8934 38.3793 55.7898 38.3325 55.6921C37.6262 54.1991 36.2672 53.7617 34.7059 54.2055C34.5974 54.2383 34.5715 54.1999 34.5918 54.0635C34.6935 53.5 34.7901 52.9395 34.8867 52.3791C34.9123 52.2089 34.9446 52.168 35.0875 52.1265Z" fill="white"/>
<path d="M28.5433 56.6712C29.8652 55.9805 31.6368 54.9408 32.6141 54.4515C31.906 56.2083 31.2133 57.9324 30.5 59.6921C30.3131 59.408 30.1367 59.1477 29.9499 58.8637C28.7115 61.3362 28.361 63.4802 28.878 65.3728C28.3678 65.8515 27.8524 66.3331 27.3112 66.8415C27.259 66.646 27.2017 66.4772 27.1598 66.2936C26.564 63.4578 27.6352 60.064 29.1298 57.5796C29.0677 57.5738 28.5641 56.7423 28.5433 56.6712Z" fill="white"/>
<path d="M81.9482 75.2378L102.325 63.4504L103.246 64.7233L106.894 66.0698L86.5542 77.9494L84.3433 75.7358L81.9482 75.2378Z" fill="#FFD06C"/>
<path d="M103.048 64.9841V67.953L106.162 66.1341L103.048 64.9841Z" fill="#E59033"/>
<path d="M102.237 63.8634L82.8159 75.0978L84.4982 75.4477L86.6048 77.557L103.048 67.9532V64.9842L102.237 63.8634Z" fill="#F9A83D"/>
<path d="M88.3236 109.571L84.2207 103.958L84.3459 75.7349L86.554 77.9457L88.3236 109.571Z" fill="#F9A83D"/>
<path d="M84.3435 75.7358L81.9484 75.2378L80.1729 104.819L88.3169 109.604L84.2184 103.953L84.3435 75.7358Z" fill="#FEBC1F"/>
<path d="M106.894 66.0698L86.5542 77.9494L88.3167 109.604L108.752 97.779L106.894 66.0698Z" fill="#FEBC1F"/>
<path d="M80.1729 104.819L84.2184 103.953L88.3169 109.604L80.1729 104.819Z" fill="#FFD06C"/>
<path d="M90.2682 73.4653C90.2682 74.1865 89.7672 75.0646 89.1407 75.4253C88.7492 75.6447 88.4046 75.6134 88.2011 75.3782C88.0758 75.2527 87.9976 75.0489 87.9976 74.7667C87.9976 74.0611 88.4987 73.183 89.125 72.8224C89.313 72.7126 89.4696 72.6656 89.6105 72.6656C90.002 72.6656 90.2682 72.9636 90.2682 73.4653Z" fill="#FFD06C"/>
<path d="M96.8454 69.6554C96.8454 70.3767 96.3443 71.2547 95.7179 71.6153C95.3107 71.8506 94.9662 71.8036 94.7627 71.5683C94.653 71.4272 94.5903 71.2233 94.5903 70.9725C94.5903 70.2512 95.0915 69.3732 95.7022 69.0126C95.8745 68.9028 96.0467 68.8558 96.1877 68.8558C96.5792 68.8401 96.8454 69.138 96.8454 69.6554Z" fill="#FFD06C"/>
<path d="M89.7827 73.2617C89.7827 73.9829 89.2817 74.861 88.6553 75.2217C88.483 75.3157 88.342 75.3627 88.2011 75.3784C88.0758 75.253 87.9976 75.0491 87.9976 74.7669C87.9976 74.0614 88.4987 73.1832 89.125 72.8227C89.313 72.7129 89.4696 72.6659 89.6105 72.6659C89.7201 72.807 89.7827 73.0108 89.7827 73.2617Z" fill="white"/>
<path d="M96.3756 69.4514C96.3756 70.1726 95.8745 71.0507 95.2325 71.4114C95.0758 71.521 94.9036 71.5681 94.7627 71.5681C94.653 71.427 94.5903 71.2231 94.5903 70.9723C94.5903 70.251 95.0915 69.3729 95.7022 69.0123C95.8745 68.9026 96.0467 68.8556 96.1877 68.8556C96.2973 68.981 96.3756 69.1848 96.3756 69.4514Z" fill="white"/>
<path d="M100.787 71.8111C100.08 72.2402 99.5439 73.1632 99.5439 74C99.5439 75.1538 100.501 75.2212 101.044 74.8585C101.752 74.4722 102.33 73.5065 102.33 72.6695C102.33 71.6994 101.46 71.3616 100.787 71.8111ZM101.559 73.5494C101.559 73.5709 101.537 73.5709 101.537 73.5923C101.366 73.8284 101.237 74.0215 101.066 74.1717L101.044 74.1932C100.98 74.2575 100.916 74.3005 100.851 74.3435C100.83 74.3649 100.808 74.3863 100.787 74.4078C100.335 74.672 100.058 74.441 100.058 74C100.058 73.807 100.101 73.6567 100.144 73.5065C100.23 73.249 100.337 73.0129 100.487 72.8197C100.637 72.6052 100.851 72.3905 101.044 72.2617C101.413 72.0402 101.794 72.1473 101.794 72.6695C101.794 72.927 101.687 73.249 101.559 73.5494Z" fill="#F45170"/>
<path d="M95.2355 75.5667C94.9345 75.2654 94.377 75.3029 94.0137 75.5453C93.3064 75.9745 92.7705 76.8973 92.7705 77.7341C92.7705 78.3497 93.0272 78.7858 93.6494 78.7858C93.8637 78.7858 94.0781 78.7214 94.2709 78.5926C95.2097 78.08 96.0221 76.4414 95.2355 75.5667ZM94.8282 77.1333C94.8282 77.1763 94.8068 77.2406 94.7853 77.2836C94.7853 77.305 94.764 77.305 94.764 77.3265C94.6353 77.5196 94.5281 77.6698 94.3781 77.7986C94.3567 77.8416 94.3353 77.8844 94.2924 77.9059L94.2709 77.9274C93.7228 78.4773 93.285 78.2826 93.285 77.7341C93.285 77.5411 93.3278 77.3908 93.3707 77.2406C93.3707 77.2191 93.3922 77.1976 93.3922 77.1763C93.4779 76.9401 93.585 76.7256 93.7136 76.5538C93.7351 76.5324 93.7351 76.511 93.778 76.4895C93.9066 76.2963 94.0994 76.1033 94.2709 75.9958C94.4266 75.9024 94.7701 75.8227 94.8711 75.9745C95.1404 76.2441 94.9979 76.7935 94.8282 77.1333Z" fill="#F45170"/>
<path d="M101.559 73.5493C101.559 73.5708 101.538 73.5708 101.538 73.5921C101.366 73.8283 101.237 74.0214 101.066 74.1716L101.045 74.1931C100.98 74.2574 100.916 74.3004 100.852 74.3433C100.83 74.3648 100.809 74.3862 100.787 74.4077C100.335 74.6718 100.059 74.4408 100.059 73.9999C100.059 73.8068 100.102 73.6566 100.144 73.5064C100.23 73.2488 100.337 73.0128 100.487 72.8196C100.637 72.605 100.852 72.3904 101.045 72.2616C101.414 72.0401 101.795 72.1472 101.795 72.6694C101.795 72.9269 101.688 73.2488 101.559 73.5493Z" fill="#FFD06C"/>
<path d="M94.8283 77.1333C94.8283 77.1763 94.8069 77.2406 94.7854 77.2836C94.7854 77.305 94.7641 77.305 94.7641 77.3265C94.6354 77.5196 94.5282 77.6698 94.3782 77.7986C94.3569 77.8416 94.3354 77.8844 94.2925 77.9059L94.271 77.9274C93.7229 78.4773 93.2852 78.2826 93.2852 77.7341C93.2852 77.5411 93.3279 77.3908 93.3708 77.2406C93.3708 77.2191 93.3923 77.1976 93.3923 77.1763C93.478 76.9401 93.5851 76.7256 93.7137 76.5538C93.7352 76.5324 93.7352 76.511 93.7781 76.4895C93.9067 76.2963 94.0995 76.1033 94.271 75.9958C94.4267 75.9024 94.7702 75.8227 94.8713 75.9745C95.1405 76.2441 94.998 76.7935 94.8283 77.1333Z" fill="#FFD06C"/>
<path d="M102.073 78.4853C102.073 80.7172 100.509 83.4213 98.5581 84.4943C98.0223 84.8163 97.4864 84.945 96.9935 84.945C96.5862 84.945 96.2219 84.8591 95.9003 84.666C95.1715 84.2583 94.7644 83.3783 94.7644 82.2624L94.7429 78.6141C94.7429 78.3136 94.6143 78.0131 94.3785 77.7986C94.3142 77.7341 94.2499 77.6698 94.1642 77.6269L93.3926 77.1763C93.4783 76.9401 93.5854 76.7256 93.714 76.5538C93.7355 76.5324 93.7355 76.511 93.7784 76.4895L94.55 76.9401C94.6571 76.9831 94.7429 77.0475 94.8286 77.1333C95.2573 77.4981 95.536 78.0346 95.536 78.6141V82.2624C95.536 83.078 95.8146 83.7218 96.3076 84.0008C96.8005 84.2797 97.4437 84.2153 98.1938 83.8075C99.8656 82.8633 101.28 80.4167 101.28 78.4853V74.837C101.28 74.6225 101.216 74.4293 101.109 74.2362C101.087 74.2147 101.087 74.1932 101.066 74.1717C101.023 74.1074 100.98 74.0645 100.937 74.0215C100.873 73.9572 100.809 73.8927 100.702 73.8284L100.144 73.5065C100.23 73.2489 100.337 73.0129 100.487 72.8197L101.109 73.1631C101.195 73.2275 101.28 73.2919 101.387 73.3777C101.452 73.4207 101.516 73.485 101.559 73.5494C101.58 73.5709 101.58 73.5923 101.602 73.6137C101.902 73.9357 102.052 74.3863 102.052 74.837L102.073 78.4853Z" fill="#4C5C75"/>
<path d="M53.1627 60.9642C54.0422 60.4558 54.7456 60.8709 54.7485 61.8827L54.7797 72.9031C54.7826 73.9149 54.0837 75.1269 53.2043 75.6353L43.2215 81.406C42.3539 81.9075 41.6386 81.513 41.6357 80.5012L41.6045 69.4808C41.6016 68.469 42.3124 67.2364 43.1799 66.7349L53.1627 60.9642Z" fill="#A92D94"/>
<path d="M36.2638 70.4846C37.1433 69.9762 37.8467 70.3776 37.8496 71.3894L37.8808 82.4098C37.8837 83.4216 37.1848 84.6472 36.3054 85.1556L26.3226 90.9263C25.455 91.4278 24.7396 91.0197 24.7368 90.0079L24.7056 78.9875C24.7027 77.9757 25.4135 76.7569 26.281 76.2553L36.2638 70.4846Z" fill="#F94F72"/>
<path d="M86.9616 41.9293C87.841 41.4209 88.5445 41.836 88.5474 42.8478L88.5786 53.8682C88.5814 54.8799 87.8825 56.092 87.0031 56.6003L77.0203 62.3711C76.1527 62.8726 75.4374 62.4781 75.4345 61.4663L75.4033 50.4459C75.4005 49.4341 76.1112 48.2015 76.9788 47.7L86.9616 41.9293Z" fill="#E3E7F0"/>
<path d="M85.8152 49.2554L86.7395 48.8263L86.7434 50.2861L85.8198 50.9717C85.7218 51.681 85.5108 52.4011 85.2173 53.1031L85.8009 53.6299L84.9448 55.1813L84.2185 54.9244C83.7856 55.5431 83.2918 56.094 82.7585 56.5429L82.6531 57.7232L81.4428 58.4567L81.3314 57.4079C80.7974 57.6057 80.3022 57.6542 79.8718 57.5587L79.1449 58.6963L78.2832 58.1861L78.8621 56.9547C78.5657 56.6102 78.3516 56.1478 78.25 55.5594L77.3257 55.9938L77.3218 54.534L78.2454 53.8432C78.3434 53.1391 78.5544 52.4138 78.848 51.717L78.2643 51.185L79.1204 49.6336L79.8511 49.8931C80.2796 49.277 80.7734 48.7209 81.3067 48.2771L81.4121 47.0969L82.6224 46.3634L82.7339 47.4122C83.2678 47.2092 83.763 47.1658 84.1978 47.2587L84.9203 46.1185L85.782 46.6288L85.2031 47.8654C85.4995 48.2046 85.7137 48.6723 85.8152 49.2554ZM82 54.8086C83.1109 54.1353 84.0148 52.4967 84.0112 51.1519C84.0076 49.8071 83.0978 49.2723 81.9869 49.9456C80.872 50.6213 79.9759 52.2505 79.9796 53.5953C79.9832 54.9401 80.8851 55.4843 82 54.8086Z" fill="#2C3B84"/>
<path d="M70.0622 51.4493C70.9416 50.941 71.6451 51.3423 71.6479 52.3541L71.6792 63.3745C71.682 64.3863 70.9832 65.612 70.1037 66.1203L60.1209 71.8911C59.2534 72.3926 58.538 71.9844 58.5351 70.9726L58.5039 59.9523C58.501 58.9404 59.2118 57.7216 60.0794 57.2201L70.0622 51.4493Z" fill="#EBE70E"/>
<path d="M42.096 81.5164C41.8134 81.3519 41.6374 81.0023 41.6359 80.5014L41.6047 69.4809C41.6018 68.4692 42.3125 67.2366 43.18 66.7351L53.1628 60.9643C53.6024 60.7103 53.9981 60.6868 54.2841 60.8534L51.6604 59.3266C51.3742 59.1601 50.9786 59.1835 50.5391 59.4377L40.5563 65.2084C39.6888 65.7098 38.9781 66.9424 38.981 67.9543L39.012 78.9745C39.0135 79.4755 39.1895 79.8252 39.4723 79.9896L42.096 81.5164Z" fill="#701260"/>
<path d="M25.203 91.0332C24.917 90.8668 24.7384 90.5122 24.737 90.0079L24.7057 78.9877C24.703 77.9758 25.4137 76.757 26.2813 76.2554L36.2641 70.4847C36.7066 70.229 37.1046 70.2033 37.3912 70.3702L34.7673 68.8436C34.4807 68.6767 34.0828 68.7022 33.6402 68.9581L23.6576 74.7288C22.79 75.2303 22.0791 76.4491 22.082 77.4608L22.1133 88.4813C22.1147 88.9856 22.293 89.3399 22.5792 89.5066L25.203 91.0332Z" fill="#D31A40"/>
<path d="M75.8944 62.4811C75.6117 62.3165 75.4357 61.967 75.4343 61.466L75.403 50.4458C75.4001 49.4338 76.1108 48.2013 76.9784 47.6997L86.9612 41.929C87.4007 41.675 87.7965 41.6516 88.0825 41.818L85.4587 40.2914C85.1725 40.125 84.777 40.1483 84.3375 40.4024L74.3547 46.1731C73.4871 46.6747 72.7764 47.9072 72.7793 48.9191L72.8103 59.9394C72.8118 60.4403 72.9878 60.7899 73.2707 60.9544L75.8944 62.4811Z" fill="#B0B8CF"/>
<path d="M59.0013 71.9979C58.7153 71.8315 58.5368 71.4771 58.5353 70.9728L58.5041 59.9524C58.5014 58.9407 59.2121 57.7217 60.0796 57.2203L70.0625 51.4496C70.5049 51.1937 70.9029 51.1682 71.1896 51.3349L68.5656 49.8083C68.279 49.6416 67.8812 49.6671 67.4386 49.9227L57.4559 55.6935C56.5884 56.195 55.8775 57.4138 55.8804 58.4257L55.9116 69.446C55.9131 69.9505 56.0914 70.3048 56.3776 70.4713L59.0013 71.9979Z" fill="#B7B410"/>
<path d="M68.4888 55.575L70.0115 62.0716L65.7849 64.5149L65.0883 62.364L64.4472 65.2882L60.1714 67.7599L61.6524 59.5268L68.4888 55.575Z" fill="white"/>
<path d="M50.0213 65.5576C50.3694 65.3563 50.7067 65.3037 50.977 65.402L53.2292 66.2441L51.912 68.5284L50.9694 68.0336L50.9858 73.8006L45.4228 77.0164L45.4066 71.2838L44.481 72.8068L43.1553 72.0805L45.4702 68.5723C45.7353 68.1732 46.068 67.8428 46.4124 67.6437L46.9328 67.3429C46.9237 68.2433 47.5513 68.3918 48.193 68.0209C48.7852 67.6786 49.3892 66.894 49.5159 65.8497C49.5282 65.8426 49.7629 65.7069 50.0213 65.5576Z" fill="white"/>
<path d="M90.5318 30.4697C87.9299 30.5863 84.9575 29.2204 83.1458 27.4064C81.9275 26.1865 81.063 24.5829 80.5643 22.8894C80.2772 22.5643 80.0102 22.2217 79.7049 21.9128C78.8268 21.0243 78.185 20.0085 77.6949 18.928L76.1541 19.8289L70.5742 23.0691L53.8345 32.7903L48.2546 36.0529L42.697 39.2933L25.9572 49.0145L20.3104 52.2325L20.2881 61.5066L29.8632 67.0265L34.3586 64.4055C34.7332 63.8681 35.1377 63.3634 35.5538 62.9095C37.2224 61.0895 39.6136 60.2226 42.0162 59.9559L45.2855 58.0574C45.6327 57.5481 46.009 57.0536 46.4347 56.5894C48.0927 54.7809 50.4647 53.9141 52.852 53.6411L56.6844 51.4155C58.0457 49.7819 60.0777 48.4923 61.9944 47.9637C62.2661 47.8888 62.5839 47.8704 62.8772 47.8191L68.2066 44.7243C68.3082 44.6059 68.4053 44.4826 68.5102 44.3681C69.74 43.0267 71.6041 42.0984 73.4861 41.6401L74.4802 41.0589L79.0937 38.369C79.2698 38.1524 79.4481 37.9378 79.6352 37.7338C80.9758 36.2715 83.0639 35.2703 85.1146 34.8702L93.9149 29.7597C92.8425 30.1475 91.7136 30.4166 90.5318 30.4697Z" fill="#F45170"/>
<path d="M53.8423 32.7993L59.4195 29.5542L68.9034 40.917L63.3263 44.1621L53.8423 32.7993Z" fill="#F45170"/>
<path d="M63.326 44.1621L68.9032 40.917L68.8936 44.3148L63.3164 47.5599L63.326 44.1621Z" fill="#CC104A"/>
<path d="M59.4194 29.5542L64.9966 26.3091L74.4806 37.6719L68.9034 40.917L59.4194 29.5542Z" fill="#FFCF6D"/>
<path d="M68.9032 40.917L74.4803 37.6719L74.4707 41.0696L68.8936 44.3147L68.9032 40.917Z" fill="#FCBA1E"/>
<path d="M64.9966 26.3091L70.5738 23.064L80.0577 34.4267L74.4806 37.6719L64.9966 26.3091Z" fill="#F45170"/>
<path d="M74.4803 37.6719L80.0575 34.4268L80.0479 37.8245L74.4707 41.0696L74.4803 37.6719Z" fill="#CC104A"/>
<path d="M70.5737 23.064L76.1509 19.8188L85.6349 31.1816L80.0577 34.4267L70.5737 23.064Z" fill="#FFCF6D"/>
<path d="M80.0575 34.4268L85.6346 31.1816L85.625 34.5794L80.0479 37.8245L80.0575 34.4268Z" fill="#FCBA1E"/>
<path d="M76.1509 19.8188L81.728 16.5737L91.212 27.9365L85.6349 31.1816L76.1509 19.8188Z" fill="#F45170"/>
<path d="M85.6346 31.1816L91.2118 27.9365L91.2022 31.3343L85.625 34.5794L85.6346 31.1816Z" fill="#CC104A"/>
<path d="M81.728 16.5737L87.3052 13.3286L96.7892 24.6914L91.212 27.9365L81.728 16.5737Z" fill="#FFCF6D"/>
<path d="M91.2118 27.9365L96.7889 24.6914L96.7793 28.0892L91.2021 31.3343L91.2118 27.9365Z" fill="#FCBA1E"/>
<path d="M53.8422 32.7993L63.3261 44.1621L63.3165 47.5599L53.8159 42.0679L53.8422 32.7993Z" fill="#823030"/>
<path d="M48.2642 36.0444L53.8413 32.7993L63.3253 44.1621L57.7481 47.4072L48.2642 36.0444Z" fill="#FFCF6D"/>
<path d="M57.7489 47.4072L63.326 44.1621L63.3164 47.5599L57.7393 50.805L57.7489 47.4072Z" fill="#FCBA1E"/>
<path d="M48.265 36.0444L57.749 47.4072L57.7394 50.805L48.2388 45.313L48.265 36.0444Z" fill="#823030"/>
<path d="M42.687 39.2896L48.2642 36.0444L57.7481 47.4072L52.171 50.6523L42.687 39.2896Z" fill="#F45170"/>
<path d="M52.1717 50.6523L57.7489 47.4072L57.7393 50.805L52.1621 54.0501L52.1717 50.6523Z" fill="#CC104A"/>
<path d="M42.6879 39.2896L52.1718 50.6523L52.1622 54.0501L42.6616 48.5581L42.6879 39.2896Z" fill="#823030"/>
<path d="M37.1099 42.5347L42.687 39.2896L52.171 50.6523L46.5938 53.8974L37.1099 42.5347Z" fill="#FFCF6D"/>
<path d="M46.5946 53.8975L52.1717 50.6523L52.1621 54.0501L46.585 57.2952L46.5946 53.8975Z" fill="#FCBA1E"/>
<path d="M37.1107 42.5347L46.5947 53.8974L46.5851 57.2952L37.0845 51.8032L37.1107 42.5347Z" fill="#823030"/>
<path d="M31.5327 45.7798L37.1099 42.5347L46.5939 53.8974L41.0167 57.1426L31.5327 45.7798Z" fill="#F45170"/>
<path d="M41.0174 57.1426L46.5946 53.8975L46.585 57.2952L41.0078 60.5403L41.0174 57.1426Z" fill="#CC104A"/>
<path d="M31.5336 45.7798L41.0175 57.1426L41.0079 60.5403L31.5073 55.0483L31.5336 45.7798Z" fill="#823030"/>
<path d="M25.9556 49.0249L31.5327 45.7798L41.0167 57.1426L35.4395 60.3877L25.9556 49.0249Z" fill="#FFCF6D"/>
<path d="M35.4403 60.3877L41.0175 57.1426L41.0078 60.5403L35.4307 63.7855L35.4403 60.3877Z" fill="#FCBA1E"/>
<path d="M25.9564 49.0249L35.4404 60.3877L35.4308 63.7854L25.9302 58.2935L25.9564 49.0249Z" fill="#823030"/>
<path d="M20.3184 52.2406L25.9551 49.0249L35.4391 60.3877L29.862 63.6328L20.3184 52.2406Z" fill="#F45170"/>
<path d="M29.8626 63.6328L35.4398 60.3877L35.4302 63.7855L29.853 67.0306L29.8626 63.6328Z" fill="#CC104A"/>
<path d="M20.3192 52.2406L29.8628 63.6328L29.8532 67.0306L20.293 61.5092L20.3192 52.2406Z" fill="#DF3260"/>
</g>
<defs>
<clipPath id="clip0_1067_2340">
<rect width="119" height="119" fill="white"/>
</clipPath>
</defs>
</svg>
