<svg width="120" height="120" viewBox="0 0 120 120" fill="none" xmlns="http://www.w3.org/2000/svg">
<g clip-path="url(#clip0_1067_3769)">
<path d="M82.3351 95.2181V98.8804L58.5996 112.672L46.4075 105.579C43.1392 103.679 40.4737 99.0891 40.4967 95.3109L40.5199 85.8306L43.6955 87.6618L67.431 73.847L67.4078 83.3504C67.4078 85.1121 68.6362 87.2677 70.1661 88.1253L82.3351 95.2181Z" fill="#4C5C75"/>
<path d="M58.6022 109.018L82.3443 95.2206L82.334 98.8781L58.5918 112.676L58.6022 109.018Z" fill="#1D2943"/>
<path d="M82.3412 95.229L58.6035 109.018L46.4371 101.925C44.91 101.049 43.6748 98.9159 43.6748 97.1418L43.6972 87.6647L67.4348 73.8531L67.4124 83.3529C67.4124 85.1046 68.6477 87.2604 70.1747 88.1363L82.3412 95.229Z" fill="#4C5C75"/>
<path d="M43.6969 87.6561L43.6701 97.1461C43.6651 98.9091 44.9085 101.046 46.4284 101.924L58.6022 109.018L58.5918 112.675L46.418 105.581C43.1344 103.686 40.4762 99.0815 40.4868 95.3084L40.5139 85.8184L43.6969 87.6561Z" fill="#111D33"/>
<path d="M91.0966 56.9261V62.8831C91.0966 65.8732 89.0106 69.4891 86.4144 70.9958L22.1389 108.198C20.7018 109.033 19.4037 109.033 18.5461 108.337C18.6156 108.407 18.7084 108.476 18.8011 108.523L11.8011 104.443C10.9433 103.98 10.4334 102.937 10.4334 101.453L10.3176 47.3763C10.2944 44.3861 12.4036 40.7702 14.9766 39.2636L79.2754 2.06103C80.5966 1.29622 81.7555 1.22662 82.6132 1.73663L89.6132 5.79297C89.5437 5.76977 89.4973 5.72337 89.4278 5.72337C90.3781 6.14057 90.9808 7.23007 90.9808 8.82943L91.0734 56.9261H91.0966Z" fill="#4C5C75"/>
<path d="M10.3214 47.3749C10.3047 44.3969 12.4059 40.7741 14.9865 39.2686L79.2821 2.0651C80.5891 1.30426 81.7636 1.23792 82.6238 1.73413L89.6217 5.80416C88.7617 5.30795 87.5869 5.3738 86.2799 6.11848L21.9846 43.3384C19.4039 44.8273 17.3029 48.4669 17.3192 51.4447L17.4186 105.512C17.435 107.001 17.9479 108.027 18.7917 108.523L11.7936 104.454C10.95 103.974 10.4372 102.932 10.4372 101.459L10.3214 47.3749Z" fill="#4C5C75"/>
<path d="M17.4184 105.512L17.4254 99.5513L10.4238 95.4775L10.437 101.459C10.437 102.931 10.9496 103.973 11.7934 104.453L18.7915 108.523C17.9477 108.027 17.4348 107.001 17.4184 105.512Z" fill="#B0B8CF"/>
<path d="M86.2809 6.12618C88.8688 4.63209 90.9776 5.83397 90.986 8.81965L91.0974 62.8887C91.1058 65.8622 89.0107 69.491 86.423 70.985L22.1304 108.198C19.5426 109.692 17.4338 108.49 17.4253 105.517L17.314 51.4476C17.3055 48.462 19.4007 44.8332 21.9886 43.3391L86.2809 6.12618Z" fill="#1D2943"/>
<path d="M91.0973 56.9233V62.889C91.1058 65.8625 89.0106 69.4912 86.423 70.9853L22.1304 108.198C19.5426 109.692 17.4337 108.49 17.4253 105.517L17.4255 99.5516L91.0973 56.9233Z" fill="#E3E7F0"/>
<path d="M55.8678 80.1271C57.1957 79.3603 58.2686 79.9716 58.2728 81.4977C58.2773 83.0236 57.2113 84.8696 55.8835 85.6361C54.5556 86.4029 53.4829 85.7916 53.4785 84.2657C53.4742 82.7396 54.54 80.8937 55.8678 80.1271Z" fill="#1D2943"/>
<path d="M88.785 55.7823L19.6758 95.7786L19.6072 51.4454C19.5843 49.2779 21.2501 46.403 23.1209 45.308L87.4162 8.0953C87.941 7.79862 88.2603 7.77576 88.3744 7.77576C88.5112 7.82148 88.6938 8.11816 88.6938 8.82532L88.785 55.7823Z" fill="white"/>
<path d="M85.6221 25.2084L57.3765 41.516V44.3995L85.6221 28.0918V25.2084Z" fill="#E3E7F0"/>
<path d="M75.8818 46.7324V49.6154L85.6223 43.9918V41.1088L75.8818 46.7324Z" fill="#78E75A"/>
<path d="M86.4175 54.3329L104.951 43.6659L86.4175 54.3329Z" fill="#4C5C75"/>
<path d="M100.105 41.0473C100.105 42.5704 99.0399 44.4114 97.7216 45.1675L72.3015 59.8075L63.6011 64.8263C62.8981 65.2318 62.2719 65.2427 61.8325 64.9469L59.2509 63.4565C58.8225 63.2045 58.5588 62.6785 58.5478 61.9224L58.5368 54.6682L58.4819 38.1981C58.4819 36.675 59.5475 34.834 60.8767 34.0779L94.9973 14.419C95.6564 14.0355 96.2606 14.0027 96.689 14.2547L99.2376 15.734C99.2706 15.7559 99.3035 15.7669 99.3255 15.7888C99.7649 16.0299 100.029 16.5668 100.029 17.3229L100.083 33.8039L100.105 41.0473Z" fill="#497BFE"/>
<path d="M61.1769 56.2041L58.5327 54.6713L97.4359 32.2662L100.08 33.799L61.1769 56.2041Z" fill="#E3E7F0"/>
<path d="M100.106 41.0467C100.106 42.5698 99.0401 44.4108 97.7219 45.167L63.6013 64.8257C62.8983 65.2312 62.2722 65.2421 61.8327 64.9463L59.2512 63.456C58.8227 63.2039 58.5591 62.678 58.5481 61.9219L58.5371 54.6676L61.1736 56.2017L100.084 33.8033L100.106 41.0467Z" fill="#E9E7FC"/>
<path d="M61.8956 64.9888L59.2525 63.4564C58.823 63.2075 58.5566 62.678 58.5529 61.9239L58.5322 54.6731L61.1771 56.2056L61.1978 63.4582C61.1997 64.2104 61.466 64.74 61.8956 64.9888Z" fill="#E9E7FC"/>
<path d="M100.08 33.7982L100.101 41.0506C100.105 42.5661 99.0449 44.4073 97.7227 45.1687L63.5993 64.821C62.2771 65.5825 61.2017 64.9712 61.1974 63.4556L61.1768 56.2033L100.08 33.7982Z" fill="#F3F1FC"/>
<path d="M99.3347 15.7871C98.9013 15.5345 98.303 15.5701 97.6389 15.9518L63.5158 35.6047C62.1934 36.3662 61.126 38.2131 61.1298 39.7268L61.1767 56.2043L58.5318 54.6718L58.4849 38.1943C58.4811 36.6787 59.5503 34.8337 60.8728 34.0722L94.9959 14.4193C95.658 14.0376 96.2583 14.002 96.6916 14.2528L99.3347 15.7871Z" fill="#497BFE"/>
<path d="M97.6396 15.9532C98.9618 15.1917 100.029 15.8079 100.033 17.322L100.08 33.7994L61.1767 56.2045L61.1299 39.7271C61.1256 38.2129 62.194 36.3669 63.5162 35.6055L97.6396 15.9532Z" fill="#57B3FE"/>
<path d="M72.2979 30.551V59.8048L65.9346 63.4698V34.216L72.2979 30.551Z" fill="#F45170"/>
<path d="M68.7291 46.9109C68.7291 46.9109 66.0213 48.3957 62.5244 45.2473C62.5244 45.2473 62.7994 40.0598 69.1177 38.2352C69.1177 38.2352 71.8853 36.4285 75.7229 40.2923C75.7229 40.2923 73.2302 45.2473 71.0604 45.7303L68.7291 46.9109Z" fill="#CC104A"/>
<path d="M64.4072 39.1833C64.4072 39.1833 71.3651 36.3689 72.4889 34.6993C72.4889 34.6993 75.9798 34.747 74.3539 39.1833L70.9347 44.2755L67.5873 46.1955L64.4072 39.1833Z" fill="#E93565"/>
<path d="M67.5877 46.1954C67.5877 46.1954 62.2557 40.7097 64.4077 39.1832C64.4077 39.1832 67.4921 39.3263 67.5877 46.1954Z" fill="#DF3260"/>
<path d="M68.7114 46.3872C68.7114 46.3872 64.3358 48.1284 64.1206 50.585C64.1206 50.585 64.3017 53.6328 66.2247 53.5187L72.7283 49.7979C72.7283 49.7979 74.6411 48.8439 74.9759 47.699C74.9759 47.699 72.537 45.2662 70.2416 45.8625L68.7114 46.3872Z" fill="#CC104A"/>
<path d="M66.6689 56.0185C68.2394 55.5365 69.8826 54.3933 71.5622 52.9218C74.2197 52.5838 75.3007 51.5189 73.9234 49.3203L71.5622 46.1958L67.8501 48.2172L66.6689 56.0185Z" fill="#E93565"/>
<path d="M67.8507 48.2178C67.8507 48.2178 63.0806 55.1405 66.2009 55.9634C69.3212 56.7862 67.8507 48.2178 67.8507 48.2178Z" fill="#DF3260"/>
<path d="M72.2142 45.162L72.2313 45.2266C72.4048 45.8815 72.0857 46.5667 71.4722 46.8569L68.6837 48.1758C67.815 48.5867 66.7977 48.0289 66.6801 47.077H66.6801C66.607 46.4862 66.9148 45.9134 67.4485 45.647L70.2198 44.2635C71.0199 43.8641 71.9857 44.2993 72.2142 45.162Z" fill="#F45170"/>
<path d="M86.7027 30.1531C86.7027 30.2556 86.6706 30.3646 86.6063 30.4672C86.5421 30.5762 86.4681 30.6531 86.3782 30.7044C86.2882 30.7557 86.211 30.7653 86.15 30.7301C86.0921 30.6948 86.0568 30.6275 86.0568 30.5249L86.0439 25.9697C86.0439 25.8671 86.0761 25.7614 86.1371 25.6556C86.1982 25.5466 86.2721 25.4664 86.3621 25.4151C86.4521 25.3639 86.5292 25.3543 86.5902 25.3895C86.6545 25.428 86.6899 25.4985 86.6899 25.5979L86.7027 30.1531Z" fill="white"/>
<path d="M84.9483 30.6621C84.9483 30.7711 84.9226 30.8833 84.8776 30.9955C84.8294 31.1077 84.7683 31.2102 84.688 31.3C84.2091 31.8514 83.7078 32.2809 83.2033 32.5726C82.7566 32.8291 82.3581 32.9445 82.011 32.9156C81.6608 32.89 81.3908 32.7265 81.198 32.4316C81.0052 32.1367 80.9088 31.7263 80.9088 31.2135C80.9056 30.6877 81.0052 30.1588 81.2012 29.6363C81.4005 29.1138 81.6736 28.6361 82.0175 28.213C82.3613 27.7931 82.747 27.4565 83.1679 27.216C83.5054 27.0205 83.8042 26.8987 84.0581 26.8474C84.3088 26.7961 84.5562 26.7865 84.7908 26.8185C84.8261 26.8185 84.8583 26.841 84.8872 26.8763C84.9161 26.9147 84.9322 26.9692 84.9322 27.0301C84.9322 27.1231 84.9065 27.2192 84.8519 27.3154C84.794 27.4148 84.7233 27.4885 84.6333 27.5398C84.5819 27.5687 84.5337 27.5847 84.4855 27.5847C84.283 27.5622 84.0838 27.5751 83.8846 27.6231C83.6853 27.668 83.4668 27.7578 83.2354 27.8924C82.9141 28.0784 82.6248 28.3252 82.3678 28.6265C82.1107 28.9278 81.9082 29.2708 81.7668 29.6523C81.6222 30.0306 81.5483 30.4313 81.5483 30.8416C81.5515 31.2199 81.6222 31.5212 81.7604 31.7392C81.8953 31.954 82.0978 32.0758 82.3549 32.1014C82.6152 32.1207 82.9269 32.0277 83.2772 31.8257C83.6693 31.6013 84.0388 31.284 84.3763 30.8833L84.373 29.5978L83.3382 30.1941C83.2579 30.2422 83.1872 30.2486 83.1326 30.2133C83.0747 30.1813 83.0458 30.1171 83.0458 30.0274C83.0458 29.9344 83.0747 29.8382 83.1294 29.7389C83.1872 29.6427 83.2547 29.569 83.3351 29.5209L84.6044 28.79C84.6976 28.7387 84.778 28.7323 84.8454 28.7676C84.9097 28.8028 84.9419 28.8798 84.9419 28.9855L84.9483 30.6621Z" fill="white"/>
<path d="M91.0087 23.1265C91.0087 23.2227 90.9798 23.3221 90.9187 23.4246C90.8641 23.5208 90.7901 23.5945 90.7034 23.6426L88.5246 24.8992L88.5278 26.4668L90.4849 25.3416C90.5684 25.2903 90.6423 25.2839 90.7002 25.316C90.758 25.3512 90.7901 25.4185 90.7901 25.5147C90.7901 25.6109 90.7612 25.7103 90.7034 25.8096C90.6423 25.909 90.5684 25.9859 90.4849 26.034L88.531 27.1592L88.5342 29.0986C88.5374 29.198 88.5053 29.307 88.441 29.4095C88.3799 29.5185 88.2996 29.5987 88.2128 29.65C88.1229 29.7013 88.049 29.7077 87.9879 29.6724C87.9236 29.6372 87.8947 29.5698 87.8947 29.4672L87.8818 24.9505C87.8818 24.8479 87.9108 24.7422 87.9718 24.6332C88.0329 24.5274 88.11 24.4472 88.1968 24.3959L90.7034 22.9534C90.7869 22.9053 90.8609 22.8957 90.9187 22.931C90.9798 22.963 91.0087 23.0272 91.0087 23.1265Z" fill="white"/>
<path d="M95.0648 20.7903C95.068 20.8865 95.0358 20.989 94.978 21.0852C94.9201 21.1846 94.8462 21.2583 94.7627 21.3096L93.4837 22.0437L93.4965 26.2431C93.4965 26.3424 93.4644 26.4514 93.4001 26.5572C93.3358 26.663 93.2619 26.7432 93.1719 26.7945C93.082 26.8457 93.0048 26.8554 92.9438 26.8201C92.8859 26.7816 92.8538 26.7143 92.8538 26.6117L92.8409 22.4156L91.5555 23.1561C91.4719 23.2041 91.398 23.2106 91.3402 23.1817C91.2823 23.1497 91.2534 23.0823 91.2534 22.9862C91.2534 22.8868 91.2823 22.7906 91.3402 22.688C91.398 22.5855 91.4687 22.5117 91.5523 22.4636L94.7595 20.6172C94.843 20.5691 94.9169 20.5595 94.978 20.5916C95.0358 20.6268 95.0648 20.6909 95.0648 20.7903Z" fill="white"/>
<path d="M97.4752 28.1749C97.3016 27.8736 97.0381 27.7005 96.6943 27.646C96.3504 27.5947 95.9262 27.7101 95.4345 27.9922L94.1395 28.7391C94.0495 28.7904 93.9723 28.8738 93.9113 28.9795C93.8534 29.0885 93.8213 29.1943 93.8213 29.2969L93.8342 33.7752C93.8342 33.8777 93.8663 33.9482 93.9241 33.9835C93.9884 34.0188 94.0623 34.0092 94.1523 33.9579L95.4474 33.211C95.9391 32.9289 96.3665 32.557 96.7071 32.1114C97.051 31.6594 97.3113 31.1786 97.4848 30.6817C97.6583 30.1881 97.7419 29.7136 97.7419 29.2776C97.7387 28.8449 97.6519 28.4698 97.4752 28.1749ZM96.8935 30.7683C96.7521 31.1337 96.5464 31.4799 96.2861 31.7909C96.0258 32.105 95.7205 32.3615 95.3735 32.5634L94.4769 33.0795L94.464 29.2456L95.3638 28.7295C95.7109 28.5275 96.0162 28.4346 96.2765 28.4474C96.5368 28.457 96.7457 28.566 96.8871 28.7712C97.0317 28.9731 97.1024 29.268 97.1056 29.6463C97.1056 30.0214 97.0349 30.3996 96.8935 30.7683Z" fill="white"/>
<path d="M88.3257 36.827L86.6675 33.3296C86.6321 33.2559 86.5807 33.2078 86.5165 33.1854C86.449 33.163 86.3654 33.179 86.269 33.2367L86.2047 33.2719C86.1083 33.3296 86.0248 33.4066 85.9573 33.5059C85.893 33.6021 85.8416 33.7111 85.8062 33.8265L84.177 39.2152C84.1545 39.2889 84.1416 39.3498 84.1416 39.3947C84.1416 39.4973 84.1737 39.5678 84.2316 39.6031C84.2894 39.6415 84.3698 39.6319 84.4598 39.5774C84.5272 39.5389 84.5883 39.4845 84.6397 39.4107C84.6944 39.3402 84.7361 39.2601 84.765 39.1767L85.1732 37.8047L87.3231 36.5673L87.7376 37.4649C87.7666 37.5162 87.8083 37.5483 87.863 37.5579C87.9144 37.5675 87.9754 37.5547 88.0397 37.5162C88.1361 37.4617 88.2132 37.3816 88.2711 37.2758C88.3289 37.1732 88.3611 37.0674 88.3611 36.968C88.3611 36.9232 88.3482 36.8783 88.3257 36.827ZM85.4206 36.9841L86.2401 34.2272L87.0724 36.032L85.4206 36.9841Z" fill="white"/>
<path d="M83.5374 39.1506C83.592 39.1794 83.6177 39.2403 83.6209 39.3269C83.6209 39.4647 83.5663 39.6026 83.4635 39.7244C83.2353 40.0033 83.0039 40.2533 82.7726 40.4681C82.5412 40.6797 82.2744 40.872 81.982 41.0419C81.5514 41.2887 81.1561 41.4073 80.8123 41.3881C80.4652 41.3721 80.192 41.215 79.9928 40.9265C79.7935 40.6348 79.6939 40.2117 79.6939 39.6731C79.6907 39.1314 79.7871 38.596 79.9831 38.0799C80.1792 37.5606 80.4555 37.0894 80.7994 36.6726C81.1433 36.2623 81.5353 35.9257 81.9659 35.6757C82.2616 35.5058 82.5283 35.3936 82.7565 35.3391C82.9879 35.2846 83.2225 35.2654 83.4506 35.2846C83.5535 35.2878 83.6081 35.3615 83.6081 35.5026C83.6081 35.5859 83.5824 35.6725 83.5277 35.7686C83.4795 35.8584 83.4088 35.9321 83.3221 35.9802C83.2739 36.0091 83.2321 36.0219 83.1935 36.0219C83.0071 36.0155 82.8208 36.0379 82.644 36.0828C82.4673 36.1245 82.2616 36.2142 82.027 36.3489C81.6639 36.5572 81.3521 36.8265 81.0983 37.1407C80.8444 37.458 80.6548 37.8074 80.5262 38.1761C80.3977 38.5447 80.3334 38.9262 80.3366 39.3012C80.3366 39.6795 80.4041 39.984 80.5295 40.2084C80.6612 40.4264 80.854 40.5547 81.1111 40.5771C81.3618 40.6027 81.6767 40.5098 82.0366 40.3014C82.268 40.1668 82.4801 40.0161 82.6536 39.859C82.8336 39.6955 83.0168 39.5032 83.2032 39.2852C83.2417 39.2403 83.2835 39.2051 83.3317 39.1794C83.4153 39.1314 83.486 39.1217 83.5374 39.1506Z" fill="white"/>
<path d="M92.0574 32.8069C92.3016 32.5569 92.488 32.278 92.6198 31.9767C92.7676 31.6433 92.8383 31.3227 92.8383 31.0246C92.8383 30.5662 92.6872 30.2809 92.3852 30.1687C92.0895 30.0629 91.6428 30.1783 91.0547 30.5149L89.554 31.3804C89.464 31.4317 89.3869 31.5118 89.329 31.6208C89.268 31.7298 89.2358 31.8356 89.2358 31.9382L89.2487 36.4549C89.2487 36.5543 89.2808 36.6248 89.3419 36.6601C89.4029 36.6953 89.4801 36.6857 89.5668 36.6344C89.6568 36.5864 89.7339 36.5062 89.7982 36.3972C89.8625 36.2914 89.8914 36.1857 89.8914 36.0863L89.8882 34.4065L91.1929 33.6532C91.4789 33.4897 91.6974 33.4448 91.8356 33.5218C91.977 33.5987 92.0702 33.7269 92.1056 33.9096C92.1441 34.0924 92.1666 34.3071 92.1666 34.554V34.7752C92.1666 34.881 92.1956 34.9515 92.2566 34.9867C92.3145 35.0188 92.3948 35.0092 92.4912 34.9515C92.5812 34.9002 92.6551 34.8233 92.7162 34.7175C92.7772 34.6117 92.8094 34.5059 92.8094 34.4033V34.0635C92.8061 33.7269 92.7483 33.4128 92.6326 33.1307C92.5266 32.8678 92.3338 32.7588 92.0574 32.8069ZM91.8838 32.3068C91.675 32.5921 91.3857 32.8422 91.0226 33.0505L89.885 33.7045L89.8786 31.8933L90.984 31.2586C91.4275 31.0021 91.7457 30.8964 91.9256 30.9476C92.1056 30.9925 92.1956 31.1592 92.1956 31.4445C92.1988 31.7426 92.0959 32.0215 91.8838 32.3068Z" fill="white"/>
<path d="M35.5973 67.7604L31.1704 70.3266L26.7095 67.7575L31.1364 65.1913L35.5973 67.7604Z" fill="#414F65"/>
<path d="M33.5541 81.6985L31.1627 83.0848L28.7529 81.6969L31.1443 80.3107L33.5541 81.6985Z" fill="#414F65"/>
<path d="M33.5543 81.6965L35.5976 67.7572L31.1367 70.3263L31.1445 83.0843L33.5543 81.6965Z" fill="#1D2943"/>
<path d="M28.7528 81.6965L26.7095 67.7572L31.1704 70.3263L31.1625 83.0843L28.7528 81.6965Z" fill="#4C5C75"/>
<path d="M38.3704 59.8079C37.5096 59.3118 36.3174 59.3818 34.9976 60.1386C32.3707 61.6523 30.254 65.3156 30.2603 68.3175C30.2667 69.7168 30.7321 70.7343 31.4909 71.2622L24.9061 67.389C24.0517 66.893 23.5225 65.8435 23.5161 64.349C23.5097 61.347 25.6265 57.6836 28.2534 56.17C29.5732 55.4132 30.7654 55.3432 31.6262 55.8393L38.3704 59.8079Z" fill="#BF7D5A"/>
<path d="M32.4267 56.3104C31.566 55.8143 30.3737 55.8843 29.0539 56.6411C26.4271 58.1548 24.3103 61.8181 24.3167 64.82C24.323 66.2193 24.7885 67.2368 25.5472 67.7647L24.9061 67.389C24.0517 66.893 23.5225 65.8435 23.5161 64.349C23.5097 61.347 25.6265 57.6836 28.2534 56.17C29.5732 55.4132 30.7654 55.3432 31.6262 55.8393L32.4267 56.3104Z" fill="#AA6256"/>
<path d="M34.9968 60.139C37.6184 58.6292 39.7503 59.8458 39.7588 62.8507C39.7673 65.8556 37.6493 69.5197 35.0278 71.0294C32.4021 72.5416 30.2703 71.3251 30.2617 68.3202C30.2532 65.3153 32.3712 61.6512 34.9968 60.139Z" fill="#DBA660"/>
<path d="M54.2694 66.5838L55.0459 62.8817C49.469 63.4514 43.9022 64.0713 39.5645 60.8737C38.2397 60.1064 36.8446 59.984 35.2579 60.8939C32.7436 62.3468 31.0368 65.3336 31.0445 68.2162C31.0521 69.9902 31.8263 71.1142 33.1869 71.7392C37.2108 73.5392 39.0617 78.4474 42.0584 82.5575L51.3954 80.9904L55.0459 66.5838H54.2694Z" fill="#F3F1FC"/>
<path d="M33.484 74.3079C33.3726 74.2439 33.2227 74.2524 33.0513 74.3507C32.7128 74.5473 32.4386 75.0217 32.4386 75.4063L32.4429 76.3166C32.4429 76.5089 32.5115 76.6457 32.6186 76.7098L32.3187 76.5345C32.2073 76.4704 32.1387 76.3337 32.1387 76.1414V75.2311C32.1344 74.8464 32.4086 74.3721 32.7471 74.1755C32.9185 74.0772 33.0727 74.0686 33.1841 74.1327L33.484 74.3079Z" fill="#5EC363"/>
<path d="M33.0507 74.3518C33.3899 74.1565 33.6643 74.3156 33.6654 74.7013L33.668 75.6105C33.6691 75.9993 33.3964 76.4704 33.0573 76.6657C32.7181 76.8611 32.4436 76.7051 32.4425 76.3163L32.4399 75.407C32.4389 75.0214 32.7115 74.5472 33.0507 74.3518Z" fill="#78E75A"/>
<path d="M29.6128 57.4397L29.6149 58.1901L32.4759 59.8486L32.4738 59.0982L29.6128 57.4397Z" fill="#E9E7FC"/>
<path d="M32.4736 59.0978L32.4758 59.8482L34.2639 58.8184L34.2618 58.068L32.4736 59.0978Z" fill="#DEDFFB"/>
<path d="M29.6128 57.4394L32.4738 59.0979L34.2619 58.068L31.401 56.4095L29.6128 57.4394Z" fill="#F3F1FC"/>
<path d="M31.8252 57.0677L30.7498 57.6911L30.5322 57.5658L31.6076 56.9424L31.8252 57.0677Z" fill="#DEDFFB"/>
<path d="M32.3291 57.3577L31.2537 57.9811L31.0361 57.8558L32.1115 57.2324L32.3291 57.3577Z" fill="#DEDFFB"/>
<path d="M32.8336 57.6478L31.7582 58.2712L31.5459 58.1489L32.6213 57.5255L32.8336 57.6478Z" fill="#DEDFFB"/>
<path d="M33.3428 57.9419L32.2673 58.5653L32.0498 58.4401L33.1252 57.8167L33.3428 57.9419Z" fill="#DEDFFB"/>
<path d="M38.3706 76.7525C38.3821 79.4601 39.3368 81.3761 40.8894 82.2709L42.7145 83.3274C41.1618 82.4325 40.1957 80.5166 40.1957 77.8089C40.1727 72.3364 44.0256 65.6821 48.7988 62.9286C51.2026 61.5518 53.3763 61.4257 54.9405 62.332L53.127 61.2756C51.5513 60.3693 49.3775 60.4954 46.9852 61.8722C42.2121 64.6257 38.3591 71.28 38.3706 76.7525Z" fill="#5094FF"/>
<path d="M52.4343 79.7802C51.3457 80.9787 50.1348 81.9945 48.8581 82.7295C45.0452 84.9298 41.8009 83.9544 40.6563 80.6879C40.3531 79.8713 40.1939 78.9034 40.1939 77.807C40.1788 72.3326 44.0295 65.6861 48.7975 62.9337C50.7228 61.8222 52.5117 61.5197 53.952 61.9281C56.0744 62.5027 57.454 64.5972 57.4616 67.8562C57.4703 71.0016 56.1993 74.5424 54.2102 77.5052C53.7056 78.3293 53.0836 79.0353 52.4343 79.7802Z" fill="#57B3FE"/>
<path d="M55.9125 67.8612C55.9203 70.6007 54.8295 73.8031 52.9265 76.6428C52.47 77.3913 51.9131 78.0241 51.3252 78.6955L51.2633 78.7649C50.2731 79.8607 49.19 80.7558 48.0838 81.3963C46.9776 82.0291 45.9023 82.3686 44.9817 82.3686C43.2489 82.3686 42.4676 81.1802 42.1194 80.1771C41.8642 79.498 41.7404 78.7109 41.7404 77.808C41.7326 76.3882 42.0343 74.8526 42.5681 73.3324C43.3881 71.0096 44.7497 68.7101 46.3974 66.8966C47.3721 65.824 48.4474 64.9135 49.5691 64.2652C50.6753 63.6325 51.7429 63.3007 52.6558 63.3007C52.9652 63.3007 53.2591 63.3392 53.5299 63.4087C55.0461 63.8254 55.9125 65.4382 55.9125 67.8612Z" fill="#497BFE"/>
<path d="M52.1062 71.5193L49.4915 76.0181L42.5679 73.3327C43.3879 71.01 44.7494 68.7104 46.3971 66.897L52.1062 71.5193Z" fill="#F3F1FC"/>
<path d="M50.7304 71.6122C51.7568 71.0211 52.5913 71.4908 52.5947 72.6625C52.598 73.839 51.7688 75.2668 50.7425 75.8579C49.7161 76.449 48.8857 75.977 48.8823 74.8005C48.879 73.6288 49.704 72.2033 50.7304 71.6122Z" fill="#4C5C75"/>
<path d="M42.2693 58.192L40.875 57.4089L41.0676 53.7443L42.4619 54.5274L42.2693 58.192Z" fill="#9EA9C9"/>
<path d="M50.45 41.3718C50.2624 41.2566 50.0172 41.271 49.7286 41.4294L40.7729 46.5219C40.2102 46.8529 39.7484 47.6301 39.7484 48.2778V54.8984C39.7484 55.2295 39.8639 55.4453 40.0515 55.5605L38.6531 54.7693C38.4655 54.6685 38.3501 54.4383 38.3501 54.1216V47.501C38.3501 46.8389 38.8118 46.0617 39.3746 45.745L48.3302 40.6526C48.6188 40.4943 48.8785 40.4799 49.0661 40.5806L50.45 41.3718Z" fill="#B0B8CF"/>
<path d="M40.7687 46.5228L49.7285 41.4357C50.2904 41.1121 50.7525 41.3748 50.7544 42.0189L50.7547 48.629C50.7565 49.2731 50.2974 50.0663 49.7355 50.39L44.2488 53.498L42.269 58.1918L42.4616 54.5272L40.7758 55.4876C40.2138 55.8112 39.7517 55.5485 39.7499 54.9044L39.7495 48.2838C39.7477 47.6291 40.2068 46.8464 40.7687 46.5228Z" fill="#E3E7F0"/>
<path d="M47.6952 47.5847C47.4743 47.4092 47.1673 47.4391 46.7743 47.6631C46.3812 47.8909 46.0742 48.2195 45.8571 48.6415C45.6437 49.0597 45.5352 49.5041 45.5352 49.9559C45.5389 50.4115 45.6475 50.7289 45.8608 50.9007C46.0817 51.0725 46.3887 51.0463 46.7818 50.8223C47.1748 50.5945 47.4855 50.2659 47.6989 49.8402C47.9123 49.4257 48.0209 48.9813 48.0209 48.5257C48.0171 48.0739 47.9085 47.7565 47.6952 47.5847ZM46.3026 50.1987C46.1865 50.0904 46.1304 49.8925 46.1304 49.6161C46.1304 49.3398 46.1865 49.0747 46.2988 48.8357C46.4149 48.5929 46.5684 48.4174 46.7743 48.3017C46.9802 48.1822 47.1374 48.1747 47.2534 48.2867C47.3695 48.395 47.4256 48.5929 47.4256 48.8693C47.4294 49.1456 47.3695 49.407 47.2572 49.6497C47.1411 49.8925 46.9877 50.0642 46.778 50.1837C46.5758 50.3032 46.4186 50.307 46.3026 50.1987Z" fill="#4C5C75"/>
<path d="M47.0626 44.6347C47.0626 44.7056 47.0438 44.7878 47.0026 44.8774L43.9891 52.1891C43.9591 52.2526 43.9255 52.316 43.8805 52.372C43.8356 52.4318 43.7907 52.4766 43.7383 52.5065C43.6634 52.5476 43.596 52.555 43.5399 52.5252C43.4837 52.4953 43.4575 52.4355 43.4575 52.3422C43.4575 52.2862 43.4687 52.2227 43.4949 52.1555L46.5347 44.7952C46.5909 44.6608 46.6695 44.5637 46.7743 44.504C46.8529 44.4554 46.924 44.4442 46.9764 44.4666C47.0326 44.4853 47.0588 44.5451 47.0626 44.6347Z" fill="#4C5C75"/>
<path d="M44.6365 46.1138C44.4231 45.9383 44.1124 45.9682 43.7193 46.196C43.3225 46.42 43.0156 46.7486 42.8022 47.1706C42.5888 47.5926 42.4802 48.0332 42.484 48.4851C42.484 48.9406 42.5926 49.2618 42.8097 49.4298C43.0231 49.6053 43.3338 49.5755 43.7268 49.3514C44.1199 49.1236 44.4306 48.795 44.644 48.373C44.8574 47.9548 44.966 47.5142 44.9622 47.0586C44.9622 46.603 44.8537 46.2856 44.6365 46.1138ZM44.1985 48.1788C44.0862 48.4216 43.9327 48.5971 43.7268 48.7128C43.5209 48.8323 43.3637 48.8361 43.2477 48.7278C43.1354 48.6195 43.0717 48.4216 43.0717 48.1453C43.0717 47.8689 43.1316 47.6038 43.2439 47.3648C43.36 47.122 43.5135 46.9465 43.7193 46.8308C43.9253 46.7113 44.0825 46.7075 44.1948 46.8158C44.3108 46.9241 44.3707 47.122 44.3745 47.3984C44.3745 47.6747 44.3146 47.9399 44.1985 48.1788Z" fill="#4C5C75"/>
<path d="M87.3481 75.6475L102.456 66.9407L103.139 67.8808L105.843 68.8755L90.763 77.6504L89.1239 76.0154L87.3481 75.6475Z" fill="#A92D94"/>
<path d="M102.992 68.073V70.266L105.301 68.9224L102.992 68.073Z" fill="#661357"/>
<path d="M102.39 67.2451L87.9917 75.5435L89.2389 75.802L90.8008 77.36L102.992 70.266V68.073L102.39 67.2451Z" fill="#831771"/>
<path d="M92.0752 101.008L89.0332 96.8619L89.126 76.0146L90.7632 77.6477L92.0752 101.008Z" fill="#831771"/>
<path d="M89.1239 76.0151L87.3482 75.6472L86.0317 97.4972L92.0698 101.032L89.0311 96.8578L89.1239 76.0151Z" fill="#A92D94"/>
<path d="M105.843 68.876L90.7632 77.6509L92.07 101.033L107.221 92.2982L105.843 68.876Z" fill="#A92D94"/>
<path d="M86.0317 97.4979L89.0311 96.8585L92.0698 101.033L86.0317 97.4979Z" fill="#A92D94"/>
<path d="M93.5165 74.3387C93.5165 74.8714 93.145 75.52 92.6806 75.7865C92.3903 75.9485 92.1348 75.9254 91.984 75.7517C91.8911 75.659 91.833 75.5084 91.833 75.3C91.833 74.7788 92.2046 74.1302 92.6689 73.8638C92.8083 73.7828 92.9244 73.748 93.0289 73.748C93.3191 73.748 93.5165 73.9681 93.5165 74.3387Z" fill="#A92D94"/>
<path d="M98.3931 71.5243C98.3931 72.0571 98.0216 72.7056 97.5572 72.972C97.2553 73.1458 96.9998 73.1111 96.849 72.9373C96.7677 72.833 96.7212 72.6825 96.7212 72.4972C96.7212 71.9644 97.0927 71.3158 97.5456 71.0495C97.6733 70.9684 97.801 70.9337 97.9055 70.9337C98.1958 70.9221 98.3931 71.1421 98.3931 71.5243Z" fill="#A92D94"/>
<path d="M93.1566 74.1882C93.1566 74.7209 92.7851 75.3695 92.3206 75.6359C92.1929 75.7054 92.0884 75.7401 91.984 75.7517C91.8911 75.659 91.833 75.5084 91.833 75.3C91.833 74.7788 92.2046 74.1302 92.6689 73.8638C92.8083 73.7828 92.9244 73.748 93.0289 73.748C93.1102 73.8522 93.1566 74.0028 93.1566 74.1882Z" fill="white"/>
<path d="M98.0448 71.3742C98.0448 71.9069 97.6733 72.5555 97.1973 72.8219C97.0811 72.9029 96.9534 72.9377 96.849 72.9377C96.7677 72.8334 96.7212 72.6829 96.7212 72.4976C96.7212 71.9648 97.0927 71.3162 97.5456 71.0499C97.6733 70.9688 97.801 70.9341 97.9055 70.9341C97.9868 71.0267 98.0448 71.1773 98.0448 71.3742Z" fill="white"/>
<path d="M102.222 73.1321C102.11 73.0212 101.951 72.9736 101.793 72.9736C101.618 72.9736 101.459 73.0212 101.316 73.1163C100.791 73.4333 100.394 74.115 100.394 74.7332C100.394 74.9551 100.442 75.1612 100.553 75.3039C100.68 75.4465 100.855 75.5099 101.046 75.5099C101.205 75.5099 101.363 75.4624 101.506 75.3673C102.031 75.082 102.46 74.3686 102.46 73.7504C102.46 73.4968 102.365 73.2907 102.222 73.1321ZM101.888 74.4004C101.888 74.4162 101.872 74.4162 101.872 74.432C101.745 74.6064 101.649 74.7491 101.522 74.86L101.506 74.8759C101.459 74.9234 101.411 74.9551 101.363 74.9869C101.347 75.0027 101.332 75.0185 101.316 75.0344C101.125 75.1454 100.95 75.1454 100.871 75.0344C100.807 74.971 100.775 74.86 100.775 74.7332C100.775 74.5906 100.807 74.4796 100.839 74.3686C100.903 74.1784 100.982 74.0041 101.093 73.8613C101.205 73.7029 101.363 73.5443 101.506 73.4492C101.586 73.4017 101.697 73.3858 101.761 73.3699H101.793C101.84 73.3699 101.92 73.3858 101.951 73.4333C101.999 73.4809 102.063 73.5919 102.063 73.7504C102.063 73.9406 101.983 74.1784 101.888 74.4004Z" fill="#4C5C75"/>
<path d="M97.1996 75.8905C97.0884 75.7795 96.9295 75.7319 96.7705 75.7319C96.5957 75.7319 96.4369 75.7795 96.2938 75.8746C95.7694 76.1917 95.3721 76.8733 95.3721 77.4915C95.3721 77.7134 95.4198 77.9195 95.531 78.0622C95.6582 78.2048 95.833 78.2683 96.0237 78.2683C96.1826 78.2683 96.3415 78.2207 96.4845 78.1256C97.0089 77.8403 97.438 77.1269 97.438 76.5087C97.438 76.2551 97.3427 76.049 97.1996 75.8905ZM96.8977 77.0477C96.8977 77.0794 96.8818 77.1269 96.8659 77.1587C96.8659 77.1745 96.8501 77.1745 96.8501 77.1904C96.7546 77.333 96.6752 77.444 96.5639 77.5391C96.5481 77.5708 96.5322 77.6025 96.5004 77.6183L96.4845 77.6342C96.4369 77.6818 96.3892 77.7134 96.3415 77.7452C96.3256 77.761 96.3097 77.7769 96.2938 77.7927C96.1031 77.9037 95.9283 77.9037 95.8489 77.7927C95.7853 77.7293 95.7535 77.6183 95.7535 77.4915C95.7535 77.3489 95.7853 77.2379 95.8171 77.1269C95.8171 77.1111 95.833 77.0952 95.833 77.0794C95.8965 76.905 95.976 76.7465 96.0713 76.6196C96.0872 76.6038 96.0872 76.588 96.119 76.5721C96.2144 76.4294 96.3573 76.2868 96.4845 76.2075C96.5639 76.16 96.6752 76.1441 96.7388 76.1282H96.7705C96.8183 76.1282 96.8977 76.1441 96.9295 76.1917C96.9771 76.2392 97.0408 76.3502 97.0408 76.5087C97.0408 76.6672 96.993 76.8575 96.8977 77.0477Z" fill="#4C5C75"/>
<path d="M101.888 74.4004C101.888 74.4163 101.872 74.4163 101.872 74.4321C101.745 74.6065 101.649 74.7491 101.522 74.8601L101.506 74.876C101.459 74.9235 101.411 74.9552 101.363 74.9869C101.347 75.0028 101.332 75.0186 101.316 75.0344C101.125 75.1454 100.95 75.1454 100.871 75.0344C100.807 74.9711 100.775 74.8601 100.775 74.7332C100.775 74.5906 100.807 74.4797 100.839 74.3687C100.903 74.1785 100.982 74.0041 101.093 73.8614C101.204 73.7029 101.363 73.5443 101.506 73.4492C101.586 73.4017 101.697 73.3859 101.761 73.37H101.792C101.84 73.37 101.92 73.3859 101.951 73.4334C101.999 73.481 102.063 73.5919 102.063 73.7504C102.063 73.9406 101.983 74.1785 101.888 74.4004Z" fill="#831771"/>
<path d="M96.8976 77.0476C96.8976 77.0794 96.8817 77.1269 96.8657 77.1586C96.8657 77.1745 96.8499 77.1745 96.8499 77.1903C96.7545 77.3329 96.6751 77.4439 96.5638 77.539C96.548 77.5708 96.5321 77.6024 96.5003 77.6183L96.4844 77.6341C96.4367 77.6817 96.389 77.7134 96.3414 77.7451C96.3255 77.761 96.3096 77.7768 96.2937 77.7926C96.103 77.9036 95.9282 77.9036 95.8488 77.7926C95.7851 77.7292 95.7534 77.6183 95.7534 77.4914C95.7534 77.3488 95.7851 77.2378 95.8169 77.1269C95.8169 77.111 95.8329 77.0951 95.8329 77.0794C95.8964 76.9049 95.9758 76.7464 96.0712 76.6196C96.0871 76.6037 96.0871 76.5879 96.1189 76.5721C96.2142 76.4294 96.3572 76.2868 96.4844 76.2074C96.5638 76.1599 96.6751 76.144 96.7387 76.1282H96.7704C96.8181 76.1282 96.8976 76.144 96.9294 76.1916C96.977 76.2391 97.0406 76.3501 97.0406 76.5086C97.0406 76.6672 96.9929 76.8574 96.8976 77.0476Z" fill="#831771"/>
<path d="M102.269 78.0463C102.269 79.6949 101.109 81.6923 99.6628 82.4849C99.2655 82.7227 98.8682 82.8178 98.5028 82.8178C98.2008 82.8178 97.9307 82.7543 97.6923 82.6117C97.1519 82.3105 96.8501 81.6605 96.8501 80.8363L96.8342 78.1414C96.8342 77.9194 96.7388 77.6975 96.564 77.539C96.5163 77.4914 96.4686 77.4439 96.4051 77.4122L95.833 77.0793C95.8965 76.9049 95.976 76.7464 96.0713 76.6196C96.0872 76.6037 96.0872 76.5879 96.119 76.5721L96.6911 76.9049C96.7706 76.9366 96.8342 76.9842 96.8977 77.0476C97.2156 77.3171 97.4222 77.7134 97.4222 78.1414V80.8363C97.4222 81.4387 97.6288 81.9142 97.9942 82.1203C98.3597 82.3264 98.8365 82.2788 99.3927 81.9776C100.632 81.2801 101.681 79.4729 101.681 78.0463V75.3514C101.681 75.1929 101.633 75.0502 101.554 74.9076C101.538 74.8917 101.538 74.8759 101.522 74.86C101.49 74.8125 101.459 74.7808 101.427 74.749C101.379 74.7015 101.331 74.6539 101.252 74.6064L100.839 74.3686C100.902 74.1784 100.982 74.004 101.093 73.8613L101.554 74.115C101.618 74.1625 101.681 74.2101 101.761 74.2735C101.808 74.3052 101.856 74.3527 101.888 74.4003C101.904 74.4162 101.904 74.432 101.919 74.4478C102.142 74.6857 102.253 75.0185 102.253 75.3514L102.269 78.0463Z" fill="white"/>
<path d="M105.363 81.7753L105.385 89.5887L93.5207 96.4214L93.4985 88.608L105.363 81.7753Z" fill="#A92D94"/>
<path d="M96.5251 91.6337C96.5251 91.8136 96.48 92.0017 96.3919 92.1959C96.3017 92.3902 96.1746 92.5762 96.0147 92.748C95.8548 92.9197 95.6663 93.069 95.4572 93.1896C95.1088 93.39 94.7767 93.5045 94.4713 93.529C94.4344 93.531 94.4057 93.5208 94.3811 93.4942C94.3586 93.4697 94.3442 93.4329 94.3442 93.3879C94.3442 93.3307 94.3627 93.2693 94.3955 93.206C94.4324 93.1405 94.4775 93.0935 94.5308 93.0628C94.5615 93.0465 94.5902 93.0363 94.6168 93.0342C94.8648 93.0178 95.1354 92.9279 95.4183 92.7643C95.8897 92.4924 96.1192 92.1898 96.1172 91.8402C96.1172 91.7523 96.0906 91.695 96.0311 91.6684C95.9717 91.6439 95.8958 91.6357 95.8098 91.6521C95.7175 91.6684 95.5884 91.7011 95.4244 91.7461C95.2031 91.8075 95.0206 91.8463 94.8833 91.8647C94.7439 91.8831 94.623 91.8586 94.5226 91.7911C94.4201 91.7236 94.3688 91.5846 94.3668 91.3761C94.3668 91.1941 94.4098 91.0019 94.4939 90.8036C94.5759 90.6073 94.7009 90.4151 94.8628 90.2352C95.0247 90.0553 95.2215 89.8978 95.447 89.767C95.7503 89.5932 96.027 89.4848 96.273 89.4501C96.355 89.4357 96.4001 89.4787 96.4001 89.583C96.4001 89.6382 96.3837 89.6995 96.3509 89.7608C96.316 89.8263 96.2709 89.8753 96.2176 89.908C96.1992 89.9183 96.1746 89.9244 96.1459 89.9285C95.9348 89.9673 95.7134 90.0512 95.49 90.18C95.2789 90.3026 95.1026 90.4499 94.9714 90.6175C94.8403 90.7831 94.7788 90.9447 94.7788 91.1062C94.7788 91.2145 94.8095 91.282 94.869 91.3147C94.9325 91.3474 95.0104 91.3556 95.1047 91.3393C95.201 91.3229 95.3342 91.2881 95.5003 91.237C95.7175 91.1716 95.8958 91.1287 96.027 91.1143C96.1623 91.0959 96.2812 91.1246 96.3775 91.1961C96.4738 91.2697 96.523 91.4169 96.5251 91.6337Z" fill="white"/>
<path d="M99.5382 90.4809L98.4847 88.2482C98.4601 88.2012 98.4273 88.1705 98.3863 88.1582C98.3412 88.1439 98.2899 88.1541 98.2285 88.1889L98.1875 88.2134C98.126 88.2482 98.0727 88.2993 98.0317 88.3627C97.9886 88.424 97.9559 88.4915 97.9333 88.5651L96.8921 92.0041C96.8777 92.0511 96.8716 92.09 96.8716 92.1186C96.8716 92.182 96.89 92.227 96.929 92.2515C96.9679 92.274 97.015 92.2678 97.0765 92.2331C97.1175 92.2086 97.1544 92.1738 97.1893 92.1288C97.2241 92.0838 97.2508 92.0327 97.2692 91.9775L97.5295 91.1045L98.9007 90.3132L99.1652 90.8857C99.1836 90.9184 99.2102 90.9409 99.2431 90.945C99.2779 90.9511 99.3168 90.943 99.3599 90.9184C99.4173 90.8837 99.4685 90.8325 99.5054 90.7671C99.5423 90.6997 99.5607 90.6342 99.5607 90.5688C99.5607 90.5402 99.5525 90.5116 99.5382 90.4809ZM97.6853 90.5811L98.208 88.8227L98.7409 89.9738L97.6853 90.5811Z" fill="white"/>
<path d="M102.071 89.0981C102.071 89.1656 102.051 89.233 102.01 89.3005C101.969 89.368 101.922 89.4191 101.864 89.4518L100.405 90.2901C100.329 90.3351 100.264 90.3412 100.21 90.3105C100.155 90.2799 100.128 90.2206 100.128 90.1347L100.12 87.3377C100.12 87.2723 100.141 87.2028 100.178 87.1353C100.216 87.0658 100.266 87.0147 100.323 86.9819C100.378 86.9492 100.43 86.9431 100.469 86.9676C100.51 86.9901 100.53 87.0351 100.53 87.1005L100.538 89.7442L101.862 88.9815C101.92 88.9488 101.969 88.9447 102.01 88.9672C102.049 88.9897 102.071 89.0347 102.071 89.0981Z" fill="white"/>
<path d="M104.539 87.6937C104.539 87.755 104.521 87.8184 104.482 87.8818C104.445 87.9432 104.398 87.9922 104.344 88.0229L102.696 88.9716C102.641 89.0043 102.592 89.0084 102.553 88.9859C102.514 88.9654 102.494 88.9225 102.494 88.855L102.485 85.9988C102.485 85.9333 102.506 85.8658 102.545 85.7963C102.584 85.7268 102.631 85.6757 102.688 85.643L104.336 84.6943C104.39 84.6636 104.437 84.6595 104.474 84.68C104.51 84.7025 104.531 84.7434 104.531 84.8047C104.531 84.8681 104.512 84.9315 104.474 84.9969C104.437 85.0582 104.39 85.1053 104.336 85.1359L102.897 85.966L102.899 86.9638L104.191 86.2216C104.246 86.1889 104.293 86.1848 104.33 86.2053C104.367 86.2277 104.387 86.2707 104.387 86.332C104.387 86.3934 104.367 86.4567 104.33 86.5222C104.293 86.5856 104.246 86.6326 104.193 86.6632L102.901 87.4075L102.903 88.4114L104.344 87.5813C104.398 87.5506 104.445 87.5445 104.482 87.5669C104.519 87.5894 104.539 87.6303 104.539 87.6937Z" fill="white"/>
</g>
<defs>
<clipPath id="clip0_1067_3769">
<rect width="110.197" height="116.265" fill="white" transform="translate(4.44336 1.4093)"/>
</clipPath>
</defs>
</svg>
