<svg width="114" height="114" viewBox="0 0 114 114" fill="none" xmlns="http://www.w3.org/2000/svg">
<path d="M73.7858 88.7533V92.2183L51.3015 105.267L39.7522 98.5561C36.6561 96.7578 34.1311 92.4157 34.153 88.8411L34.175 79.8717L37.1831 81.6043L59.6674 68.5339L59.6454 77.5252C59.6454 79.1919 60.8091 81.2314 62.2583 82.0428L73.7858 88.7533Z" fill="#4C5C75"/>
<path d="M51.3038 101.81L73.7944 88.7561L73.7845 92.2166L51.2939 105.27L51.3038 101.81Z" fill="#1D2943"/>
<path d="M73.7916 88.764L51.3053 101.81L39.7803 95.0993C38.3336 94.2706 37.1636 92.2522 37.1636 90.5737L37.1848 81.6073L59.6711 68.54L59.6499 77.5278C59.6499 79.1852 60.82 81.2248 62.2666 82.0535L73.7916 88.764Z" fill="#4C5C75"/>
<path d="M82.0854 52.525V58.161C82.0854 60.99 80.1094 64.411 77.65 65.8365L16.7628 101.034C15.4014 101.824 14.1718 101.824 13.3594 101.166C13.4252 101.231 13.5131 101.297 13.6009 101.341L6.96993 97.4815C6.15739 97.0429 5.67439 96.056 5.67439 94.6525L5.56463 43.4899C5.54265 40.6608 7.5407 37.2397 9.97805 35.8144L70.8873 0.616608C72.1389 -0.106986 73.2368 -0.172841 74.0492 0.309689L80.6801 4.14744C80.6143 4.12549 80.5704 4.08159 80.5046 4.08159C81.4048 4.47631 81.9757 5.50709 81.9757 7.02027L82.0635 52.525H82.0854Z" fill="#4C5C75"/>
<path d="M5.56845 43.4886C5.55268 40.6711 7.54303 37.2435 9.98766 35.8191L70.8939 0.620469C72.132 -0.0993636 73.2446 -0.162131 74.0595 0.307335L80.6885 4.15804C79.8738 3.68857 78.7609 3.75087 77.5228 4.45542L16.6168 39.6696C14.1722 41.0782 12.1819 44.5218 12.1974 47.339L12.2915 98.493C12.3071 99.9018 12.7929 100.872 13.5922 101.342L6.96306 97.4915C6.16396 97.0373 5.67814 96.0514 5.67814 94.6582L5.56845 43.4886Z" fill="#4C5C75"/>
<path d="M12.2914 98.4927L12.298 92.8533L5.66553 88.999L5.678 94.658C5.678 96.0511 6.16359 97.0371 6.96293 97.4913L13.5921 101.341C12.7928 100.872 12.3069 99.9016 12.2914 98.4927Z" fill="#B0B8CF"/>
<path d="M77.5237 4.46268C79.9753 3.04911 81.9728 4.18622 81.9808 7.01101L82.0863 58.1663C82.0943 60.9796 80.1096 64.4128 77.6584 65.8264L16.755 101.034C14.3035 102.448 12.3059 101.31 12.2979 98.4972L12.1924 47.3418C12.1844 44.517 14.1691 41.0838 16.6206 39.6703L77.5237 4.46268Z" fill="#1D2943"/>
<path d="M82.0858 52.5222V58.1664C82.0938 60.9797 80.1091 64.4128 77.6579 65.8264L16.7545 101.034C14.303 102.448 12.3054 101.31 12.2974 98.4972L12.2976 92.8533L82.0858 52.5222Z" fill="#E3E7F0"/>
<path d="M48.7135 74.4758C49.9715 73.7503 50.9878 74.3286 50.9918 75.7725C50.996 77.2162 49.9862 78.9626 48.7284 79.6879C47.4705 80.4133 46.4544 79.835 46.4502 78.3914C46.4461 76.9475 47.4557 75.201 48.7135 74.4758Z" fill="#1D2943"/>
<path d="M79.8956 51.4429L14.4295 89.284L14.3645 47.3397C14.3428 45.2891 15.9208 42.5691 17.6929 41.5331L78.5989 6.32576C79.0961 6.04507 79.3985 6.02344 79.5066 6.02344C79.6362 6.06669 79.8092 6.34739 79.8092 7.01644L79.8956 51.4429Z" fill="white"/>
<path d="M46.8459 39.8469L41.04 43.1945L41.0478 45.9181L46.8459 42.5749V39.8469Z" fill="#E3E7F0"/>
<path d="M76.8997 22.5165L50.1431 37.9454V40.6734L76.8997 25.2445V22.5165Z" fill="#E3E7F0"/>
<path d="M63.5537 45.256L20.5044 70.0796L20.5119 72.8029L63.5537 47.9836V45.256Z" fill="#E3E7F0"/>
<path d="M67.6729 42.8807V45.6084L76.8999 40.2878V37.5602L67.6729 42.8807Z" fill="#EBE70E"/>
<path d="M76.8996 45.0222L20.5254 77.5889L20.5331 80.3124L76.8996 47.75V45.0222Z" fill="#E3E7F0"/>
<path d="M76.8997 30.0381L41.061 50.7039L41.0688 53.4273L76.8997 32.7659V30.0381Z" fill="#E3E7F0"/>
<path d="M57.2705 26.3137L41.0186 35.6852L41.0263 38.4085L57.2705 29.0415V26.3137Z" fill="#E3E7F0"/>
<path d="M76.8997 14.9949L60.54 24.4283V27.1561L76.8997 17.7227V14.9949Z" fill="#A92D94"/>
<path d="M31.5246 51.9644C31.8572 52.1306 32.1948 52.294 32.5324 52.4516C32.5928 52.486 32.598 52.5293 32.5379 52.6332C31.5841 54.3046 30.4783 55.637 29.3942 56.5999C27.7591 58.0507 26.8059 58.3141 25.8275 58.6567C25.8075 58.6633 25.7895 58.6706 25.7731 58.68C25.7318 58.7038 25.7006 58.7413 25.6719 58.8156C25.5835 59.036 25.2612 59.8367 25.0973 60.2153C24.4504 59.2428 23.8187 58.2904 23.1719 57.3064C24.5133 56.5675 25.8195 55.8489 27.1659 55.1072C27.1109 55.2417 27.3235 54.7152 26.6512 56.3741C26.6113 56.4838 26.6165 56.5328 26.717 56.4806C27.0787 56.3009 27.4356 56.1471 27.7973 55.9385C28.8437 55.3227 30.2757 53.9625 31.3337 52.0802C31.3853 51.991 31.4329 51.9191 31.5246 51.9644Z" fill="white"/>
<path d="M28.6598 42.5403C31.165 41.8545 32.8649 42.9357 33.5327 45.0375C33.5428 45.0547 33.5836 45.2449 33.6293 45.4091C34.0965 45.1397 34.6491 44.8268 34.8048 44.737L34.8201 44.7802C34.1405 46.4598 33.471 48.1279 32.7714 49.8479C32.1296 48.8667 31.4979 47.9086 30.8561 46.9389L31.9412 46.3132C31.9006 46.2038 31.8651 46.103 31.8196 46.008C31.1318 44.556 29.8085 44.1306 28.2882 44.5621C28.1826 44.5941 28.1573 44.5567 28.1771 44.4241C28.2761 43.8761 28.3702 43.331 28.4643 42.7859C28.4891 42.6204 28.5207 42.5806 28.6598 42.5403Z" fill="white"/>
<path d="M94.3167 17.0159C94.3167 16.3908 94.0763 15.9582 93.7158 15.7899L91.4321 14.4678C91.1196 14.2515 90.6149 14.2995 90.1341 14.588L57.7782 33.2659C56.7446 33.8428 55.9033 35.3332 55.9033 36.511L55.9513 50.4053C55.9513 51.0063 56.1436 51.439 56.4802 51.6313L58.8119 52.9775C59.1485 53.1697 59.6293 53.1217 60.134 52.8332L92.4657 34.1794C93.4994 33.5784 94.3408 32.1121 94.3408 30.9341L94.3167 17.0159ZM58.5475 36.463C58.3551 36.9437 58.235 37.4245 58.235 37.8572L58.259 51.7274L58.2109 37.8333C58.2109 37.4004 58.3311 36.9198 58.5475 36.463Z" fill="#DEDFFB"/>
<path d="M93.7827 15.8112C93.4202 15.6135 92.9591 15.6465 92.4319 15.943L60.0958 34.61C59.0746 35.2029 58.2181 36.6851 58.2181 37.8382L58.2511 51.7594C58.2511 52.3525 58.4817 52.7806 58.811 52.9784L56.4723 51.6277C56.1427 51.43 55.9451 51.0018 55.9451 50.4088L55.9121 36.5204C55.9121 35.3346 56.7357 33.8522 57.7898 33.2592L90.126 14.5923C90.6202 14.296 91.1144 14.263 91.4437 14.4606L93.7827 15.8112Z" fill="#DEDFFB"/>
<path d="M92.4362 15.9507C93.4668 15.3557 94.3108 15.8367 94.3142 17.0209L94.3431 30.9377C94.3464 32.122 93.5079 33.5744 92.4773 34.1694L60.1402 52.8408C59.1096 53.4358 58.2656 52.9548 58.2623 51.7706L58.2334 37.8537C58.2301 36.6696 59.0686 35.2171 60.0992 34.6221L92.4362 15.9507Z" fill="#F3F1FC"/>
<path d="M77.3413 27.4846V29.5773L92.3452 20.9147V18.822L77.3413 27.4846Z" fill="#DEDFFB"/>
<path d="M77.3413 32.3347V34.4274L92.3452 25.7648V23.6721L77.3413 32.3347Z" fill="#DEDFFB"/>
<path d="M77.3413 37.1848V39.2775L92.3452 30.6149V28.5222L77.3413 37.1848Z" fill="#DEDFFB"/>
<path d="M75.3263 44.0592L60.134 52.8333C59.6293 53.1217 59.1485 53.1697 58.8119 52.9775L56.4802 51.6313C56.1436 51.4149 55.9272 51.0063 55.9272 50.4294L55.9033 36.5351C55.9033 35.3332 56.7205 33.8669 57.7782 33.2419L72.9224 24.4918L75.2543 25.862L75.2783 25.838L75.3263 44.0592Z" fill="#497BFE"/>
<path d="M75.2588 25.8533L60.0972 34.615C59.064 35.1923 58.2132 36.6812 58.2132 37.836L58.2437 51.7579C58.2437 52.3657 58.4866 52.7909 58.821 52.9733L56.4812 51.6362C56.147 51.4235 55.9342 50.9982 55.9342 50.4209L55.9038 36.5293C55.9038 35.3442 56.7243 33.8553 57.7878 33.2475L72.919 24.4861L75.2588 25.8533Z" fill="#497BFE"/>
<path d="M75.2752 25.8473L75.3163 44.0659L60.1402 52.8408C59.1096 53.4358 58.2656 52.9549 58.2623 51.7707L58.2334 37.8538C58.2301 36.6696 59.0686 35.2172 60.0992 34.6222L75.2752 25.8473Z" fill="#57B3FE"/>
<path d="M63.7431 43.4841L61.1244 42.7669L63.7845 38.9544C64.0261 38.6155 64.0647 38.2044 63.8711 38.0196C63.6303 37.7953 63.2725 38.0038 63.0634 38.2988L59.8093 42.9594C59.562 43.3037 59.498 43.8563 59.8661 43.9761L63.1385 44.8705C63.4489 44.9533 63.7689 44.618 63.9106 44.3198C64.0578 43.9971 64.0631 43.5795 63.7431 43.4841Z" fill="white"/>
<path d="M73.6835 34.9724L70.4111 34.078C70.1104 33.998 69.7862 34.3186 69.639 34.6287C69.4876 34.9511 69.4923 35.3774 69.8055 35.4557L72.4252 36.172L69.7641 39.9854C69.5254 40.332 69.4878 40.7364 69.6784 40.9299C69.92 41.1537 70.2777 40.9448 70.4862 40.6497L73.7422 35.9871C73.9959 35.6094 74.042 35.0598 73.6835 34.9724Z" fill="white"/>
<path d="M68.3026 33.5687L64.2224 45.3124C64.098 45.6585 64.1826 46.0394 64.5199 46.045C64.8409 46.045 65.1362 45.691 65.2468 45.3798L69.3279 33.6351C69.4107 33.3964 69.402 33.1778 69.3038 33.0373C69.0867 32.7294 68.5173 32.9458 68.3026 33.5687Z" fill="white"/>
<path d="M99.7929 72.4443L99.7836 75.6924L97.8896 77.0805L97.8989 73.8324L99.7929 72.4443Z" fill="#DE1841"/>
<path d="M77.0106 73.8288L77.0014 77.0769L75.0981 75.6925L75.1074 72.4445L77.0106 73.8288Z" fill="#DE1841"/>
<path d="M94.7801 77.9819L94.7709 81.23C94.774 80.1387 94.0531 79.0452 92.6089 78.2114C89.7469 76.559 85.1318 76.5663 82.2884 78.2188C80.8687 79.0438 80.1569 80.1213 80.1538 81.1992L80.163 77.9511C80.1661 76.8732 80.8779 75.7957 82.2976 74.9707C85.141 73.3182 89.7561 73.3109 92.6181 74.9633C94.0623 75.7971 94.7832 76.8906 94.7801 77.9819Z" fill="#D33858"/>
<path d="M102.956 79.1163L102.947 82.3644L99.8984 82.5664L99.9076 79.3183L102.956 79.1163Z" fill="#DE1841"/>
<path d="M75.0508 79.3147L75.0416 82.5628L72.0103 82.3645L72.0195 79.1165L75.0508 79.3147Z" fill="#DE1841"/>
<path d="M99.9075 79.3182L99.8982 82.5663C99.5932 83.5468 98.9329 84.4905 97.9297 85.3461L97.9389 82.098C98.9421 81.2424 99.6024 80.2987 99.9075 79.3182Z" fill="#D33858"/>
<path d="M77.0506 82.0945L77.0414 85.3426C76.0286 84.487 75.364 83.5397 75.0415 82.5629L75.0507 79.3148C75.3732 80.2916 76.0378 81.2389 77.0506 82.0945Z" fill="#D33858"/>
<path d="M97.043 85.109L97.0338 88.3571L94.6377 87.2592L94.6469 84.0111L97.043 85.109Z" fill="#DE1841"/>
<path d="M99.8421 83.4824L99.8329 86.7305L97.0337 88.3572L97.0429 85.1091L99.8421 83.4824Z" fill="#D33858"/>
<path d="M77.9869 85.1166L77.9777 88.3647L75.1475 86.7306L75.1567 83.4825L77.9869 85.1166Z" fill="#D33858"/>
<path d="M80.3768 84.0149L80.3676 87.263L77.9775 88.3646L77.9867 85.1165L80.3768 84.0149Z" fill="#DE1841"/>
<path d="M94.6469 84.0111L94.6377 87.2592C93.1639 87.8431 91.5368 88.2286 89.8389 88.4122L89.8481 85.1641C91.546 84.9805 93.1731 84.595 94.6469 84.0111Z" fill="#D33858"/>
<path d="M85.1823 85.1642L85.1731 88.4123C83.4858 88.2287 81.8481 87.8468 80.3677 87.263L80.3769 84.0149C81.8573 84.5987 83.495 84.9806 85.1823 85.1642Z" fill="#D33858"/>
<path d="M89.848 85.1642L89.8388 88.4123L89.5127 90.1712L89.5219 86.9231L89.848 85.1642Z" fill="#DE1841"/>
<path d="M89.5221 86.9231L89.5129 90.1712L85.5254 90.1675L85.5346 86.9194L89.5221 86.9231Z" fill="#D33858"/>
<path d="M97.9389 82.098L99.8422 83.4824L97.043 85.1091L94.6469 84.0112C93.1731 84.595 91.546 84.9806 89.8481 85.1642L89.522 86.9231L85.5345 86.9194L85.1823 85.1642C83.495 84.9806 81.8573 84.5987 80.3769 84.0149L77.9868 85.1165L75.1566 83.4825L77.0506 82.0945C76.0378 81.2389 75.3732 80.2915 75.0507 79.3147L72.0193 79.1165L72 76.8068L75.0355 76.6121C75.3533 75.6317 76.0072 74.6843 77.0104 73.8287L75.1071 72.4444L77.9063 70.8177L80.3025 71.9156C81.7763 71.3317 83.4097 70.9498 85.0949 70.7662L85.4336 69L89.4148 69.0073L89.7607 70.7662C91.4543 70.9461 93.0921 71.328 94.5724 71.9119L96.9625 70.8103L99.7927 72.4443L97.8987 73.8323C98.9115 74.6879 99.5762 75.6353 99.8923 76.6157L102.93 76.8103L102.956 79.1163L99.9075 79.3183C99.6024 80.2987 98.9421 81.2424 97.9389 82.098ZM82.3122 80.9524C85.1806 82.6085 89.8083 82.6085 92.6581 80.9524C95.5015 79.3 95.4864 76.6194 92.618 74.9633C89.756 73.3109 85.141 73.3183 82.2975 74.9707C79.4478 76.6268 79.4502 79.3 82.3122 80.9524Z" fill="#F94F72"/>
<path d="M85.5343 86.9194L85.525 90.1675L85.1729 88.4123L85.1821 85.1642L85.5343 86.9194Z" fill="#DE1841"/>
<path d="M77.6528 50.0716L95.2098 39.9794L77.6528 50.0716Z" fill="#4C5C75"/>
<path d="M76.8272 40.7126C76.8388 46.0781 73.0657 52.5973 68.4157 55.2742L36.7196 73.5742C34.2388 75.0165 32.0003 75.0511 30.4427 73.9781C30.5349 74.0357 30.6272 74.105 30.7196 74.1627L25.6311 71.2088C24.1195 70.3319 23.1849 68.4627 23.1734 65.7973C23.1619 60.605 26.6927 54.305 31.1349 51.5012C30.7113 45.575 34.7015 39.0948 39.1426 36.5242C39.7772 36.155 40.3657 35.9011 40.9542 35.728C40.9542 35.6118 40.9542 35.6004 40.9542 35.7165C42.6973 29.2419 49.2846 21.6721 55.2618 25.1473L57.7657 26.578C59.9695 25.4012 61.9772 25.3204 63.4426 26.1742L68.5311 29.1281C69.8003 29.8665 70.6657 31.2973 70.9311 33.2819L74.3465 35.2665C75.8696 36.155 76.8157 38.0242 76.8272 40.7126Z" fill="#E9E7FC"/>
<path d="M66.5607 30.7438L74.3603 35.2765C73.4378 34.7404 72.3024 34.5698 71.0346 34.8036L63.2349 30.2709C64.5027 30.0371 65.6382 30.2077 66.5607 30.7438Z" fill="#DEDFFB"/>
<path d="M63.4465 26.1749L68.5308 29.1295C66.9865 28.2321 64.8564 28.3516 62.5132 29.7044C62.174 29.9002 61.8491 30.1204 61.5384 30.3648L56.4541 27.4102C56.7648 27.1657 57.0898 26.9456 57.4289 26.7498C59.7721 25.3969 61.9022 25.2774 63.4465 26.1749Z" fill="#DEDFFB"/>
<path d="M59.485 27.5646C58.0021 26.7015 55.9437 26.8343 53.6861 28.1401C50.167 30.1543 47.1568 34.4701 46.028 38.6755L40.9526 35.7162C42.0814 31.5109 45.0915 27.2171 48.6106 25.1808C50.8682 23.8749 53.7786 24.2804 55.2614 25.1436L59.485 27.5646Z" fill="#E9E7FC"/>
<path d="M30.7184 74.1644L25.6341 71.2097C24.1205 70.3301 23.1804 68.461 23.1729 65.801C23.1582 60.6049 26.693 54.3027 31.1296 51.4973L36.2138 54.452C31.7773 57.2574 28.2424 63.5595 28.2572 68.7556C28.2647 71.4156 29.2047 73.2847 30.7184 74.1644Z" fill="#E9E7FC"/>
<path d="M36.2141 54.452L31.1298 51.4974C31.1148 51.1808 31.0855 50.8561 31.0845 50.4989C31.0699 45.3515 34.6757 39.1059 39.1412 36.5278C39.7771 36.1607 40.3709 35.8992 40.9507 35.7271L46.0349 38.6817C45.4551 38.8538 44.8614 39.1153 44.2255 39.4825C39.76 42.0606 36.1542 48.3061 36.1688 53.4535C36.1698 53.8108 36.199 54.1354 36.2141 54.452Z" fill="#DEDFFB"/>
<path d="M53.6909 28.1299C57.3932 25.9923 60.5385 27.0389 61.5387 30.3649C61.8494 30.1205 62.1744 29.9003 62.5135 29.7045C67.191 27.004 71.0189 29.2179 71.0342 34.6251L71.0348 34.8037C74.3876 34.1854 76.8143 36.3951 76.8265 40.7143C76.8417 46.0728 73.0668 52.5949 68.4176 55.2791L36.7212 73.579C32.072 76.2632 28.2726 74.1142 28.2574 68.7557C28.2426 63.5596 31.7775 57.2574 36.214 54.452C36.199 54.1354 36.1698 53.8108 36.1688 53.4535C36.1542 48.3061 39.76 42.0606 44.2255 39.4825C44.8614 39.1153 45.4551 38.8538 46.035 38.6817C47.1554 34.4729 50.1722 30.1614 53.6909 28.1299Z" fill="#F3F1FC"/>
<path d="M73.8269 60.4329L73.8161 66.8757C73.8161 67.2771 73.5341 67.6892 73.0026 68.0038L53.6414 79.2518C52.5676 79.8917 50.7779 79.8809 49.6932 79.2518L43.6951 75.7917C43.1419 75.4772 42.8599 75.0541 42.8599 74.6311L42.8816 68.2099L73.8269 60.4329Z" fill="#1D2943"/>
<path d="M73.0047 59.2862C74.0931 59.9145 74.1062 60.9462 73.0176 61.5788L53.6643 72.8258C52.5757 73.4584 50.7945 73.4542 49.7062 72.8258L43.7129 69.3656C42.6098 68.7287 42.604 67.7013 43.6926 67.0687L63.046 55.8217C64.1346 55.1891 65.9084 55.1891 67.0115 55.826L73.0047 59.2862Z" fill="#4C5C75"/>
<path d="M71.1973 64.5854V66.857C71.1973 67.2822 70.8936 67.8167 70.517 68.0232L56.28 76.2593C55.9455 76.4451 55.709 76.3252 55.709 75.9313V73.6719C55.709 73.2346 56.0127 72.7001 56.4014 72.4936L70.6386 64.2574C70.7357 64.2088 70.8329 64.1724 70.9058 64.1724C71.088 64.1724 71.1973 64.3303 71.1973 64.5854Z" fill="#F8F9FE"/>
<path d="M66.8091 67.3681C66.9751 67.2722 67.1024 67.3448 67.1029 67.5355L67.1064 68.7584C67.1069 68.9491 66.9805 69.1795 66.8145 69.2753L60.0972 73.1535C59.9312 73.2494 59.8038 73.1656 59.8033 72.9749L59.7998 71.752C59.7993 71.5613 59.9258 71.3421 60.0918 71.2463L66.8091 67.3681Z" fill="#F94F72"/>
<path d="M58.2759 72.2947C58.7446 72.0241 59.1071 72.2531 59.1085 72.7692C59.11 73.2965 58.7499 73.9202 58.2813 74.1907C57.8224 74.4557 57.4502 74.2548 57.4487 73.7275C57.4473 73.2114 57.817 72.5597 58.2759 72.2947Z" fill="#F94F72"/>
<path d="M68.6153 66.3252C69.084 66.0546 69.4562 66.2779 69.4577 66.794C69.4592 67.3213 69.0893 67.9506 68.6207 68.2212C68.1618 68.4861 67.7993 68.2796 67.7979 67.7523C67.7964 67.2362 68.1564 66.5901 68.6153 66.3252Z" fill="#F94F72"/>
<path d="M73.8269 52.4823L73.8161 58.9143C73.8161 59.3156 73.5341 59.7387 73.0026 60.0424L53.6414 71.3011C52.5676 71.9303 50.7779 71.9194 49.6932 71.3011L43.6951 67.8302C43.1419 67.5157 42.8599 67.0926 42.8599 66.6805L42.8816 60.2593L73.8269 52.4823Z" fill="#1D2943"/>
<path d="M73.0047 51.3307C74.0931 51.9591 74.1062 52.9908 73.0176 53.6234L53.6643 64.8704C52.5757 65.503 50.7945 65.4987 49.7062 64.8704L43.7129 61.4102C42.6098 60.7733 42.604 59.7458 43.6926 59.1132L63.046 47.8663C64.1346 47.2336 65.9084 47.2337 67.0115 47.8705L73.0047 51.3307Z" fill="#4C5C75"/>
<path d="M71.1973 56.63V58.9016C71.1973 59.3267 70.8936 59.8612 70.517 60.0677L56.28 68.3039C55.9455 68.4896 55.709 68.3697 55.709 67.9759V65.7164C55.709 65.2791 56.0127 64.7446 56.4014 64.5381L70.6386 56.302C70.7357 56.2534 70.8329 56.2169 70.9058 56.2169C71.088 56.2169 71.1973 56.3748 71.1973 56.63Z" fill="#F8F9FE"/>
<path d="M66.8091 59.4126C66.9751 59.3168 67.1024 59.3894 67.1029 59.5801L67.1064 60.803C67.1069 60.9937 66.9805 61.224 66.8145 61.3199L60.0972 65.1981C59.9312 65.2939 59.8038 65.2101 59.8033 65.0194L59.7998 63.7965C59.7993 63.6058 59.9258 63.3867 60.0918 63.2909L66.8091 59.4126Z" fill="#A92D94"/>
<path d="M58.2759 64.3393C58.7446 64.0687 59.1071 64.2977 59.1085 64.8138C59.11 65.341 58.7499 65.9647 58.2813 66.2353C57.8224 66.5002 57.4502 66.2993 57.4487 65.772C57.4473 65.256 57.817 64.6042 58.2759 64.3393Z" fill="#A92D94"/>
<path d="M68.6153 58.3697C69.084 58.0991 69.4562 58.3225 69.4577 58.8386C69.4592 59.3659 69.0893 59.9952 68.6207 60.2657C68.1618 60.5307 67.7993 60.3241 67.7979 59.7969C67.7964 59.2808 68.1564 58.6347 68.6153 58.3697Z" fill="#A92D94"/>
<path d="M73.8269 44.5209L73.8161 50.9638C73.8161 51.3651 73.5341 51.7773 73.0026 52.0918L53.6414 63.3398C52.5676 63.9797 50.7779 63.9688 49.6932 63.3398L43.6951 59.8797C43.1419 59.5651 42.8599 59.1421 42.8599 58.73L42.8816 52.2979L73.8269 44.5209Z" fill="#1D2943"/>
<path d="M73.0047 43.3753C74.0931 44.0036 74.1062 45.0353 73.0176 45.668L53.6643 56.9149C52.5757 57.5475 50.7945 57.5433 49.7062 56.9149L43.7129 53.4547C42.6098 52.8179 42.604 51.7904 43.6926 51.1578L63.046 39.9108C64.1346 39.2782 65.9084 39.2782 67.0115 39.9151L73.0047 43.3753Z" fill="#4C5C75"/>
<path d="M71.1973 48.6745V50.9461C71.1973 51.3712 70.8936 51.9057 70.517 52.1122L56.28 60.3484C55.9455 60.5341 55.709 60.4142 55.709 60.0204V57.7609C55.709 57.3236 56.0127 56.7891 56.4014 56.5826L70.6386 48.3465C71.0106 48.1604 71.1973 48.3155 71.1973 48.6745Z" fill="#F8F9FE"/>
<path d="M66.8086 51.4572C66.9746 51.3613 67.1019 51.4339 67.1024 51.6246L67.1059 52.8475C67.1064 53.0382 66.98 53.2686 66.814 53.3644L60.0967 57.2427C59.9307 57.3385 59.8033 57.2547 59.8028 57.064L59.7993 55.8411C59.7988 55.6504 59.9253 55.4313 60.0913 55.3354L66.8086 51.4572Z" fill="#2C3B84"/>
<path d="M58.2754 56.3838C58.7441 56.1133 59.1066 56.3422 59.108 56.8583C59.1095 57.3856 58.7495 58.0093 58.2808 58.2799C57.8219 58.5448 57.4497 58.3439 57.4482 57.8166C57.4468 57.3005 57.8165 56.6488 58.2754 56.3838Z" fill="#2C3B84"/>
<path d="M68.6148 50.4143C69.0835 50.1437 69.4557 50.367 69.4572 50.8831C69.4587 51.4104 69.0888 52.0397 68.6202 52.3103C68.1613 52.5752 67.7989 52.3687 67.7974 51.8414C67.7959 51.3253 68.1559 50.6792 68.6148 50.4143Z" fill="#2C3B84"/>
</svg>
