<svg width="114" height="115" viewBox="0 0 114 115" fill="none" xmlns="http://www.w3.org/2000/svg">
<g clip-path="url(#clip0_1067_4271)">
<path d="M85.5257 9.64568C85.5257 8.18103 84.9994 7.1741 84.1527 6.73929C84.0381 6.64766 83.9008 6.60199 83.7635 6.57908C83.8781 6.60199 83.9696 6.62489 84.061 6.67057L77.539 2.87178C76.7379 2.41406 75.6166 2.45988 74.358 3.1922L12.9814 38.709C10.51 40.1508 8.51904 43.6064 8.51904 46.444L8.63344 105.372C8.63344 106.791 9.13683 107.775 9.93788 108.233L16.3685 111.963C16.2541 111.871 16.1624 111.78 16.0709 111.665C16.2311 111.825 16.3914 111.986 16.5743 112.1C17.3754 112.604 18.5196 112.535 19.8011 111.802L81.1776 76.2857C83.6491 74.8668 85.6401 71.3883 85.6401 68.5507L85.5257 9.64568ZM81.0403 7.08247L19.6638 42.5994L81.0403 7.05971C81.5667 6.73929 82.093 6.57908 82.5736 6.51036C82.093 6.57908 81.5896 6.7851 81.0403 7.08247Z" fill="#1D2943"/>
<path d="M16.0708 111.665C16.231 111.825 16.3912 111.986 16.5742 112.1C16.5056 112.054 16.4369 112.009 16.3683 111.963C16.2539 111.871 16.1623 111.78 16.0708 111.665Z" fill="#4C5C75"/>
<path d="M84.1523 6.73931C84.0378 6.64768 83.9005 6.60201 83.7632 6.5791C83.8777 6.60201 83.9692 6.62492 84.0607 6.67059C84.0836 6.6935 84.1294 6.7164 84.1523 6.73931Z" fill="#4C5C75"/>
<path d="M76.8069 94.8451V98.3464C76.8069 98.8499 76.4865 99.3304 75.8229 99.7195L57.8814 110.155C56.5541 110.91 54.4258 110.91 53.0985 110.155C53.0756 110.109 53.0297 110.109 52.9841 110.063L32.4336 96.7446V93.2661L52.6178 81.5262L75.6856 93.4034C75.7312 93.4263 75.7771 93.4492 75.8229 93.4719C76.4865 93.8611 76.8069 94.3416 76.8069 94.8451Z" fill="#4C5C75"/>
<path d="M76.8095 94.8544V98.3525C76.8095 98.8408 76.4897 99.3289 75.8331 99.7161L57.8879 110.153C56.558 110.911 54.42 110.911 53.1069 110.153C53.0733 110.12 53.0228 110.103 52.9892 110.069L32.4346 96.7532V93.272L52.9723 106.588C53.0228 106.622 53.0565 106.638 53.1069 106.672C54.4032 107.413 56.5412 107.43 57.871 106.672L75.8331 96.2348C76.4897 95.8477 76.8095 95.3595 76.8095 94.8544Z" fill="#1D2943"/>
<path d="M75.8142 93.4697C77.1206 94.2239 77.1542 95.4623 75.8322 96.2305L57.8714 106.668C56.5495 107.436 54.4113 107.421 53.1051 106.667C53.0608 106.641 53.0174 106.615 52.9751 106.588L32.4272 93.2645L52.6091 81.5361L75.6769 93.3947C75.7241 93.419 75.7699 93.4441 75.8142 93.4697Z" fill="#4C5C75"/>
<path d="M16.0708 111.665C16.231 111.825 16.3912 111.986 16.5742 112.1C16.5056 112.054 16.4369 112.009 16.3683 111.963C16.2539 111.871 16.1623 111.78 16.0708 111.665Z" fill="#1D2943"/>
<path d="M84.1523 6.73931C84.0378 6.64768 83.9005 6.60201 83.7632 6.5791C83.8777 6.60201 83.9692 6.62492 84.0607 6.67059C84.0836 6.6935 84.1294 6.7164 84.1523 6.73931Z" fill="#1D2943"/>
<path d="M16.5742 112.1C16.5056 112.054 16.4369 112.009 16.3683 111.963C16.2539 111.871 16.1623 111.78 16.0708 111.665C16.231 111.825 16.3912 111.986 16.5742 112.1Z" fill="#4C5C75"/>
<path d="M84.015 6.67059C83.9463 6.62492 83.8548 6.60201 83.7632 6.5791C83.8319 6.60201 83.9005 6.60201 83.9692 6.62492C83.9921 6.64768 83.9921 6.64768 84.015 6.67059Z" fill="#4C5C75"/>
<path d="M83.9697 6.62492C83.901 6.60201 83.8324 6.60201 83.7637 6.5791C83.8553 6.60201 83.9468 6.62492 84.0155 6.67059H84.0612L83.9697 6.62492Z" fill="#1D2943"/>
<path d="M85.6401 68.5507C85.6401 71.3883 83.6491 74.8668 81.1776 76.2857L19.8011 111.802C18.5196 112.535 17.3754 112.604 16.5743 112.1C16.3914 111.986 16.2311 111.825 16.0709 111.665C16.1624 111.78 16.2541 111.871 16.3685 111.963L9.93788 108.233C9.13683 107.775 8.63344 106.791 8.63344 105.372L8.51904 46.444C8.51904 43.6064 10.51 40.1508 12.9814 38.709L74.358 3.1922C75.6166 2.45988 76.7379 2.41406 77.539 2.87178L83.9696 6.62489C83.9008 6.60199 83.8322 6.60199 83.7635 6.57908C83.8552 6.60199 83.9466 6.62489 84.0154 6.67057H84.061C84.0839 6.69347 84.1298 6.71638 84.1527 6.73929C84.9994 7.1741 85.5257 8.18103 85.5257 9.64568L85.6401 68.5507Z" fill="#1D2943"/>
<path d="M16.5742 112.1C16.5056 112.054 16.4369 112.008 16.3683 111.963C16.2539 111.871 16.1623 111.78 16.0708 111.665C16.231 111.825 16.3912 111.986 16.5742 112.1Z" fill="#1D2943"/>
<path d="M84.0155 6.67059C83.9468 6.62492 83.8553 6.60201 83.7637 6.5791C83.8324 6.60201 83.901 6.60201 83.9697 6.62492C83.9926 6.64768 83.9926 6.64768 84.0155 6.67059Z" fill="#1D2943"/>
<path d="M8.5289 46.4498C8.51295 43.6072 10.5185 40.1487 12.9822 38.7118L74.358 3.19765C75.6057 2.47119 76.727 2.40795 77.548 2.88142L84.2283 6.7667C83.407 6.29294 82.286 6.35589 81.0382 7.06669L19.6625 42.5965C17.1988 44.0178 15.1932 47.4922 15.2089 50.3348L15.3038 109.247C15.3194 110.669 15.8092 111.648 16.6145 112.122L9.93424 108.237C9.12887 107.779 8.63915 106.784 8.63915 105.378L8.5289 46.4498Z" fill="#4C5C75"/>
<path d="M81.0387 7.07447C83.5091 5.64824 85.5222 6.79538 85.5303 9.64551L85.6365 68.5594C85.6447 71.3979 83.6446 74.8619 81.1742 76.2882L19.8015 111.811C17.3311 113.238 15.3179 112.09 15.3098 109.252L15.2036 50.338C15.1955 47.4878 17.1956 44.0235 19.666 42.5973L81.0387 7.07447Z" fill="#1D2943"/>
<path d="M50.4598 85.0153C51.7274 84.2834 52.7515 84.8668 52.7556 86.3235C52.7599 87.7802 51.7425 89.5424 50.4746 90.274C49.2072 91.006 48.1833 90.4226 48.1792 88.9659C48.1749 87.5092 49.1923 85.747 50.4598 85.0153Z" fill="#1D2943"/>
<path d="M83.4424 61.7643L17.4676 99.9574L17.3833 48.203L83.3317 10.0098L83.4424 61.7643Z" fill="white"/>
<path d="M85.6402 62.8751V68.5506C85.6402 71.3883 83.6492 74.8668 81.1776 76.2856L19.8012 111.802C18.5426 112.535 17.3984 112.603 16.5973 112.1L16.5287 112.054L16.3685 111.963L9.96085 108.255C9.1598 107.798 8.6106 106.768 8.6335 105.349V99.6507L15.2929 103.541L85.6402 62.8751Z" fill="#C9CEE2"/>
<path d="M85.6367 62.865V68.5595C85.6448 71.398 83.6447 74.862 81.1743 76.2882L19.8016 111.811C17.3312 113.238 15.3181 112.09 15.3099 109.252L15.2983 103.537L85.6367 62.865Z" fill="#C9CEE2"/>
<path d="M15.2945 109.192L15.3009 103.542L8.62695 99.6584L8.63914 105.341C8.60258 106.758 9.16809 107.802 9.96788 108.256L16.5962 112.111C15.7964 111.64 15.3101 110.604 15.2945 109.192Z" fill="#9EA9C9"/>
<path d="M43.0249 62.634L43.3088 62.7055C44.0357 63.4266 44.8412 64.0301 45.4267 64.9052C45.6798 65.2481 45.6982 66.161 45.4636 66.7854C44.4781 69.3825 43.3508 71.971 42.2708 74.5684L41.9569 75.0394C41.5605 74.1636 41.1799 73.3511 40.8152 72.5657C40.6579 72.6565 40.4658 72.8157 40.3364 72.8904C40.2717 72.9278 40.2227 72.944 40.2016 72.92C39.9466 72.66 39.6698 72.6722 39.3874 72.8353C39.0922 73.0057 38.7908 73.3409 38.5018 73.7021C37.6537 74.735 36.8531 75.8311 36.0209 76.891C35.8167 77.1357 35.581 77.3623 35.0625 77.9152C35.2464 76.0706 35.3522 74.5065 35.5841 72.8877C35.6461 72.526 36.1015 71.9733 36.4314 71.5837C37.0282 70.8769 37.578 70.2335 37.7958 69.2566C37.889 68.7863 38.1869 68.2521 38.4851 67.7903C38.7361 67.3919 39.1133 67.0473 39.4749 66.748C40.0629 65.3685 40.2179 65.0048 40.774 64.6838C40.9731 64.5688 41.2237 64.4592 41.564 64.3105C41.5488 64.5184 41.4552 64.8441 41.5343 64.9433C41.6925 65.1598 41.9138 65.4123 42.1658 65.3573C42.1771 65.3544 42.1893 65.349 42.2022 65.3415C42.3888 65.2338 42.7374 64.6826 42.8249 64.3611C42.9652 63.8274 42.948 63.2941 43.0249 62.634Z" fill="#F3F1FC"/>
<path d="M53.1835 54.8134C54.2226 54.467 54.6485 54.6014 56.07 55.7183C56.0806 55.6558 56.0908 55.5954 56.1011 55.5349C56.1358 55.3314 56.1694 55.1364 56.2034 54.9413C56.2631 54.5983 56.3242 54.2523 56.3956 53.8462C56.585 53.9541 56.8057 53.9716 56.9323 54.1339C57.2112 54.492 57.566 54.5323 58.0028 54.2801C58.1603 54.1892 58.3284 54.0603 58.5075 53.8945C58.6979 53.726 58.891 53.5532 59.0629 53.4539C59.3167 53.3074 59.5245 53.3212 59.6102 53.7468C59.7541 54.4605 59.4094 55.1665 58.7803 55.6022C58.6013 55.7243 58.4221 55.8379 58.243 55.9449C58.1914 55.9758 58.1398 56.0061 58.0881 56.036C57.6266 56.3025 57.165 56.5288 56.7033 56.747C56.5495 56.8217 56.3955 56.8743 56.2587 56.9533C56.0455 57.0764 55.8737 57.2636 55.8077 57.6987L55.6936 57.9405L55.6197 58.097C55.4658 58.1338 55.2978 58.1867 55.1249 58.2448C54.4516 58.4711 53.701 58.778 53.3884 58.5368C53.3625 58.5168 53.3395 58.493 53.3199 58.465C53.0162 58.0444 52.7431 58.0062 52.4089 58.1992C52.2558 58.2876 52.0897 58.4245 51.902 58.5956C51.2261 59.2212 50.5977 59.9099 49.9376 60.5446C49.6893 60.7773 49.425 60.9311 48.9644 61.2669C49.7774 59.6591 50.4198 58.3285 51.1095 57.0068C51.2978 56.6594 51.4911 56.348 51.6975 56.117C51.8101 55.9909 51.9267 55.8883 52.0485 55.818C52.2796 55.6846 52.5297 55.6646 52.8081 55.8088C53.2025 55.9795 53.7538 55.8785 54.2897 55.9131C54.209 56.0647 54.1402 56.1931 54.0756 56.3131C53.9304 56.5831 53.8078 56.808 53.6784 57.0448C53.7291 57.0246 53.7781 57.0006 53.8253 56.9737C54.1551 56.7837 54.3904 56.452 54.497 56.1213C54.6199 55.7403 54.5718 55.3608 54.2877 55.208C53.9721 55.0462 53.6094 54.9658 53.1835 54.8134Z" fill="#DEDFFB"/>
<path d="M48.6059 52.1868C49.0022 52.9902 49.3977 53.5405 49.6046 54.2721C49.8277 55.1212 48.9617 55.4038 48.4594 56.1103C48.5518 55.3508 48.6133 54.7901 48.6904 54.2205L48.4227 54.2844C48.3446 54.5287 48.3138 54.782 48.2042 55.0444C48.0978 55.2994 47.9322 55.6911 47.8218 55.7548C47.8186 55.7567 47.8154 55.7583 47.8123 55.7597C47.6076 55.8416 47.3082 55.8334 47.2446 55.6528L47.5103 54.8475C48.0761 54.3216 48.4059 53.9139 48.1205 53.2819C48.0571 53.1736 48.3866 52.6574 48.6059 52.1868Z" fill="#F3F1FC"/>
<path d="M48.7856 48.9319C49.1637 48.8767 49.4472 48.8216 49.7307 48.7847C49.417 49.3099 49.1352 49.9434 48.7738 50.3151C48.7556 50.3336 48.736 50.3487 48.7152 50.3607C48.5026 50.4834 48.1639 50.2872 47.8911 50.2633C48.1735 49.8286 48.4718 49.4029 48.7856 48.9319Z" fill="#F3F1FC"/>
<path d="M47.1351 41.8161C47.4893 41.6116 47.853 41.4624 48.2281 41.3584C48.732 41.2304 49.2515 41.021 49.8655 40.8114C48.9097 42.7576 48.6451 43.9245 48.7598 45.4699C48.8254 46.3737 48.5286 47.2875 47.822 48.2025C47.1782 49.0269 46.5501 49.8422 45.938 50.6846C45.1529 51.7354 44.5729 52.8308 44.214 54.0703C44.0783 54.4984 43.6346 55.2396 43.3492 55.4043C42.6901 55.7287 42.2793 55.3864 42.3244 54.5818C42.3542 53.9851 42.4155 53.3702 42.587 52.7279C43.0082 51.1991 42.5015 50.3507 42.215 49.3572C42.1356 49.1495 41.6947 49.2773 41.4267 49.2329C41.1902 49.2245 40.7492 49.298 40.7645 49.1443C40.7791 48.7375 40.9037 48.1948 41.1388 47.7692C41.4838 47.1355 41.9231 46.4654 42.3787 45.9669C42.9129 45.405 43.5263 44.9783 44.0923 44.5067C44.4697 44.1983 44.9262 44.0253 45.2088 43.6448C45.8255 42.7908 46.4633 42.2041 47.1351 41.8161Z" fill="#F3F1FC"/>
<path d="M71.5793 54.5041C71.8697 54.3365 72.1679 54.2141 72.4754 54.1288C72.8885 54.0239 73.3143 53.8523 73.8177 53.6804C73.0341 55.2759 72.8172 56.2325 72.9113 57.4994C72.965 58.2404 72.7217 58.9895 72.1424 59.7396C71.6147 60.4154 71.0998 61.0838 70.5979 61.7744C69.9543 62.6359 69.4789 63.5339 69.1846 64.55C69.0733 64.901 68.7096 65.5086 68.4757 65.6436C67.9353 65.9096 67.5986 65.629 67.6355 64.9693C67.6599 64.4802 67.7102 63.9761 67.8508 63.4495C68.1961 62.1962 67.7807 61.5007 67.5458 60.6863C67.4807 60.516 67.1193 60.6208 66.8996 60.5843C66.7057 60.5774 66.3442 60.6377 66.3568 60.5117C66.3687 60.1782 66.4708 59.7333 66.6636 59.3844C66.9464 58.8649 67.3065 58.3155 67.68 57.9069C68.118 57.4462 68.6209 57.0965 69.0849 56.7098C69.3942 56.457 69.7685 56.3151 70.0002 56.0032C70.5057 55.3031 71.0286 54.8221 71.5793 54.5041Z" fill="#F3F1FC"/>
<path d="M40.4921 46.213C41.106 45.8585 41.7478 45.6585 42.3931 45.4154C42.1419 45.7596 41.875 46.0949 41.6238 46.4391C41.4668 46.6383 41.2783 46.8559 41.1371 47.0823C40.6038 47.9696 40.1497 49.0104 39.5214 49.7353C38.9088 50.4331 38.1219 50.815 37.4147 51.5131C37.8558 51.4395 38.3125 51.3388 38.7692 51.238L38.723 51.6268C38.1249 51.8817 37.4956 52.245 36.9286 52.3551C36.7237 52.3828 36.6592 51.8225 36.5322 51.5336C36.6819 51.4595 36.8389 51.4062 36.9833 51.3228C37.0515 51.2835 37.1169 51.2374 37.1774 51.1792C37.5546 50.8347 37.9158 50.3907 38.23 50.0463C37.8983 49.767 37.6771 49.5688 37.4716 49.3614L37.9268 48.7184C38.2421 48.7356 38.5103 48.8704 38.7944 48.9781C39.0771 48.6519 39.4698 48.1897 39.9881 47.5826C39.4372 47.8282 39.028 48.0102 38.603 48.2012C39.1775 47.1777 39.818 46.6022 40.4921 46.213Z" fill="#F3F1FC"/>
<path d="M31.9409 55.7016C32.1862 55.56 32.5044 55.5445 32.9822 55.5571C33.2816 55.5654 33.675 55.3383 34.1473 55.1742C33.8815 55.9252 34.5918 56.3119 33.854 57.3174C33.482 57.8258 33.067 58.2956 32.6544 58.5338C32.4052 58.6777 32.1569 58.7371 31.9194 58.6697C31.6513 58.5891 31.6337 57.9474 31.4589 57.4145C31.4486 57.4204 31.2543 57.5326 30.9868 57.6871C31.3494 56.4592 31.555 55.9244 31.9409 55.7016Z" fill="#F3F1FC"/>
<path d="M33.6668 52.5179C33.7942 52.9515 33.8737 53.2134 33.985 53.5837C34.2835 53.2123 34.5033 52.9405 34.7389 52.6596C34.8339 53.2876 34.3521 54.0902 33.8459 54.3825C33.6675 54.4855 33.486 54.5252 33.3257 54.4715C33.026 54.3729 32.7733 54.1928 32.4419 54.0219C32.8188 53.5509 33.2114 53.0706 33.6668 52.5179Z" fill="#F3F1FC"/>
<path d="M45.0469 79.8353C44.768 80.8675 44.7122 81.844 44.4333 82.8482C44.3218 83.3503 44.047 84.2253 43.8239 84.6995L36.1008 89.1705C35.766 88.7522 35.0321 88.3159 34.3905 88.2323C33.6093 88.1208 33.0234 87.5628 32.3539 87.1722C31.6565 86.7537 31.6565 85.8889 32.103 84.6893C32.326 84.1036 32.5213 83.5177 32.6609 82.9598C32.8004 82.2623 32.6887 82.0114 32.326 82.2067C32.2145 82.2623 32.075 82.4018 31.8797 82.5692C31.7403 82.7365 31.6008 82.8482 31.4612 82.9318C31.1544 83.0992 30.9034 83.0714 30.736 82.8482C30.1502 82.1787 29.3133 82.2903 28.3647 82.5971C28.002 82.7088 27.6673 82.7924 27.3046 82.8762C26.2445 83.2109 25.6309 82.8203 25.4077 81.7044C25.2403 80.8954 25.0171 80.1701 24.8218 79.417L24.5429 79.6121L24.8218 81.8161L24.5708 82.095C24.3196 81.4255 23.9849 80.8675 23.8455 80.1422C23.4828 78.5799 23.3713 76.9341 24.3755 74.7581L24.5429 74.3675C25.2961 72.8611 25.1844 71.4663 25.0171 70.2109L24.9614 69.932C25.0171 69.6531 25.0729 69.374 25.1288 69.0951C25.9656 66.417 27.0257 63.6552 28.3647 60.8935C28.5321 60.5029 28.6995 60.196 28.8948 59.8892C29.0621 59.7496 29.2854 59.5822 29.4807 59.3869C29.648 59.2475 29.8154 59.136 29.9828 59.0522C30.6244 58.6618 31.2102 58.7454 31.7124 59.0801L32.103 59.1918C32.9398 58.6338 33.8326 58.2432 34.5579 57.4343C35.0321 56.932 35.2831 55.8442 35.5621 55.035C35.7854 54.2819 35.8969 53.5566 36.399 53.2775C36.4269 53.2498 36.4828 53.2218 36.5105 53.1939C36.3432 53.724 35.9805 54.3935 35.8969 54.9514C35.841 55.4815 36.0922 55.9557 36.1758 56.4578L36.4549 56.3184C36.5105 55.8721 36.5943 55.3698 36.5943 54.9514C36.5943 54.1702 36.7338 53.4171 37.4312 52.7475C37.5706 52.608 37.7102 52.4965 37.8497 52.4407C38.296 52.1618 38.6586 52.2733 38.9934 52.5801C39.2725 52.8592 39.7467 52.915 39.9699 53.2498C40.2488 53.5845 40.3326 54.0866 40.5556 54.6724C40.472 54.9235 40.3326 55.2024 40.1373 55.3141C40.0256 55.3698 39.8861 55.3698 39.6908 55.2583C39.3281 56.0951 40.1929 56.709 39.1608 57.3505C38.6307 57.6573 38.1565 57.3226 37.6265 57.2669C37.9612 56.7646 38.268 56.3463 38.4354 55.8998C38.6028 55.4536 38.7145 54.9514 38.6028 54.6724C38.575 54.4772 38.2124 54.3655 37.9891 54.505C37.6823 54.7003 37.5429 55.2583 37.3196 55.6209C36.9291 56.2904 36.5385 56.9878 36.148 57.6573C36.3432 57.769 36.5943 57.9364 36.8732 58.1317C36.4828 58.4944 36.2316 58.7454 36.0643 58.8291C35.7854 58.9965 35.7295 58.7733 35.7016 58.1595C34.9206 59.4428 34.1673 60.6144 33.5814 61.7862C33.0234 62.902 33.1351 63.3205 33.8882 63.2646C34.6415 63.2646 35.2553 63.3484 34.9483 64.6874C35.5901 63.4041 36.5105 62.3162 36.5385 60.9491C36.5385 60.3355 36.8175 59.5822 37.0964 58.8569C37.2079 58.6338 37.3476 58.4665 37.5149 58.3548C37.7659 58.2153 38.0727 58.2432 38.2403 58.5221C38.4077 58.7454 38.4913 58.9965 38.6307 59.3313C38.826 59.0522 38.9934 58.8848 39.1051 58.7454C39.2166 58.578 39.3002 58.4106 39.5514 57.9921C39.942 59.6102 40.2767 61.0608 40.6394 62.6789C40.1929 62.9299 39.8861 63.0693 39.4676 63.2926C39.7187 62.651 39.8861 62.1766 40.0814 61.6745L39.9699 61.563C39.6629 62.0092 39.3561 62.5672 39.0213 62.9299C38.9098 63.0414 38.7981 63.1252 38.6586 63.2088C38.5471 63.2646 38.4077 63.3205 38.296 63.4041C38.1286 63.4878 37.9891 63.5437 37.8218 63.6552C38.045 64.1015 38.268 64.6036 38.4913 65.1337C38.3518 65.329 38.1286 65.7196 37.9333 65.8311C37.8218 65.8869 37.738 65.9149 37.6823 65.9707C36.3432 66.7517 35.7016 68.3139 34.9206 69.7646C34.3626 70.8526 33.7767 71.9684 33.2746 73.0844C32.9957 73.8376 32.884 74.6186 32.7166 75.3719C32.6051 75.7623 32.5492 76.1529 32.4934 76.4877L32.2703 76.5714L32.103 76.0973C32.1866 75.2881 31.8518 75.1487 31.3776 75.4276C31.2661 75.4834 31.1265 75.595 31.0149 75.7067C30.1502 76.4598 29.3133 77.3804 28.5321 78.301C28.3089 78.552 28.0858 79.11 28.0579 79.4727C28.03 80.1144 28.1137 80.728 28.1137 81.3139C28.5879 80.8954 29.0621 80.5048 29.5086 80.0306C29.7316 79.8074 29.9269 79.5564 30.3734 79.0264C30.206 79.8912 30.0943 80.4491 30.0107 81.1186C30.3455 81.0069 30.7081 80.8396 31.0708 80.7001L31.1544 80.9513C31.2102 81.3975 31.1823 82.2067 31.3218 82.2067C31.5171 82.1508 31.7403 82.067 31.9635 81.9276C32.2424 81.7602 32.5492 81.537 32.8004 81.2581C33.5535 80.3095 34.3067 79.5844 35.1157 79.11C35.618 78.8032 36.148 78.6358 36.6779 78.5799C37.0128 78.552 37.2917 78.6079 37.6265 78.6079C38.2403 78.5799 38.7981 78.4684 39.3561 78.4963C39.7187 78.4684 40.165 78.4684 40.3326 78.7752C40.6951 79.3053 41.1973 79.4727 41.9225 79.2217C42.7316 78.9705 43.5964 78.6079 44.3774 78.4126C45.2981 78.2173 45.3819 78.6079 45.0469 79.8353Z" fill="#F3F1FC"/>
<path d="M53.2037 39.8258C52.9222 40.604 52.7659 41.0564 52.5939 41.536C52.3898 41.7987 52.1072 42.1611 51.6988 42.6685C51.5411 42.6147 51.273 42.534 51.0205 42.4263C51.2557 42.0008 51.4435 41.5302 51.7262 41.204C52.1346 40.7328 52.6064 40.3699 53.2037 39.8258Z" fill="#F3F1FC"/>
<path d="M59.6508 34.7998C59.3066 35.6866 59.0407 36.3835 58.759 37.0893C58.4305 37.9309 58.6049 38.3191 59.2039 38.3897C59.0715 38.5012 58.954 38.5855 58.8499 38.6457C58.3608 38.928 58.1666 38.6751 58.1002 38.1759C57.9556 37.2091 58.5819 35.761 59.6508 34.7998Z" fill="#F3F1FC"/>
<path d="M55.373 43.3722C55.3785 43.3692 55.3838 43.3664 55.3892 43.3634C55.3975 43.3589 55.4054 43.3546 55.4137 43.3501C55.7008 43.1935 55.974 43.0487 56.2434 42.9064C56.5197 42.7603 56.7922 42.6163 57.0724 42.4635C56.8436 43.1527 56.644 43.5443 56.3966 43.6871C56.1373 43.8368 55.8256 43.7132 55.373 43.3722Z" fill="#F3F1FC"/>
<path d="M53.8179 45.1754C53.8316 45.2498 53.8507 45.3148 53.8697 45.3788C53.8999 45.4807 53.9294 45.5805 53.9297 45.6904C53.9302 45.8712 53.7891 46.1337 53.7896 46.3145C53.7907 46.7123 53.8547 47.0556 53.8873 47.4171C54.1704 47.2174 54.4535 47.0178 54.7366 46.8181C54.941 46.6638 55.1454 46.5096 55.5701 46.2101C55.5229 46.3037 55.4853 46.3808 55.4518 46.4501C55.3249 46.7134 55.2716 46.839 55.2096 46.8891C55.0092 47.0681 54.8402 47.2551 54.6963 47.45C54.2643 48.0347 54.0564 48.6912 53.893 49.4239C53.7453 50.0961 53.4201 50.6445 52.8857 50.953C52.7441 51.0347 52.588 51.0996 52.4165 51.1455C52.4428 51.0981 52.4667 51.0519 52.4917 51.0051C52.5119 50.9672 52.5332 50.9288 52.5526 50.8913C52.5618 50.8735 52.5701 50.8562 52.579 50.8385C52.7008 50.5988 52.8057 50.3669 52.8925 50.1427C52.9076 50.1035 52.9207 50.0655 52.9348 50.0267C52.9482 49.99 52.9624 49.9528 52.9749 49.9164C53.1706 49.3454 53.2522 48.8195 53.2353 48.3167C53.2265 48.0545 53.1917 47.7985 53.1312 47.5458C53.0588 47.1908 53.121 46.7168 53.2093 46.2332C53.2378 46.0767 53.2691 45.9192 53.2995 45.7645C53.3033 45.7313 53.3251 45.691 53.3584 45.6463C53.4613 45.5079 53.6754 45.3261 53.8179 45.1754Z" fill="#DEDFFB"/>
<path d="M60.1992 55.8876C60.7969 56.0316 61.3497 56.2325 61.8465 56.5252C62.4898 56.9044 63.0389 57.4376 63.468 58.2015C62.0822 58.5851 60.3136 57.3064 60.1992 55.8876Z" fill="#DEDFFB"/>
<path d="M70.9355 34.6984C69.7359 33.8336 68.369 33.1641 66.8904 32.7177C65.7467 32.3829 64.5472 32.1876 63.3476 32.104C63.0686 32.7456 62.8733 33.4151 63.0127 34.0289C62.5106 34.531 62.0922 35.0052 61.5622 35.5073C61.4228 35.4517 61.1716 35.3958 60.9205 35.34L60.7253 35.619C60.8648 36.2606 61.0322 36.8744 61.1995 37.4601C60.781 37.6834 60.3068 37.9623 60 38.1296C59.9162 38.4087 59.8883 38.6876 59.7768 38.7714C59.1073 39.3571 58.6051 40.5846 57.8519 41.031C57.6845 41.1146 57.4892 41.1705 57.266 41.1705C57.2103 41.4214 57.2103 41.7284 57.1545 42.0632L56.9871 42.2862C56.6523 41.4773 56.0385 41.5611 55.369 41.9515C55.118 42.0911 54.839 42.2862 54.588 42.4815C53.8068 43.0674 53.0537 43.7369 52.3284 44.4343C52.0772 44.6855 51.8262 45.1876 51.7146 45.5503C51.4915 46.2477 51.3798 46.9172 51.1845 47.5867C50.9892 48.2283 50.6545 48.8979 50.515 49.5395C50.264 50.6275 50.5988 50.9623 51.4636 50.7111C51.4915 52.8313 50.0408 54.5609 48.7854 56.4858C48.9807 56.6252 49.176 56.7369 49.3155 56.9043C49.4828 57.0996 49.5944 57.3506 49.7061 57.6017C49.427 57.8806 49.1481 58.2154 48.8692 58.4107C47.8648 59.136 47.7253 59.3592 47.8369 60.4471C47.8648 60.8935 48.1439 61.1724 48.3112 61.5351C48.3669 61.7025 48.5343 61.9536 48.4228 62.0931C47.8369 63.3484 47.9206 64.6595 47 65.8591C46.8047 66.1102 46.6652 66.5008 46.5537 66.8076C45.8842 69.2905 45.8563 71.7732 47.9486 72.1079C48.5343 72.1917 49.1202 72.1079 49.7061 71.7732C50.0687 71.5779 50.4035 71.299 50.7941 70.8804C51.2124 70.3783 51.6866 69.9041 52.1889 69.5135C52.4399 69.2905 52.6631 69.1231 52.8584 69.0114C53.6953 68.5372 54.1695 68.844 54.4486 69.8483C54.5322 70.2389 54.7554 70.5736 55.0343 70.7131C55.7596 71.048 56.0944 71.7175 55.8991 72.945C55.6481 74.5351 56.0108 75.595 56.6244 76.4877C56.7639 76.6551 56.8709 76.8869 56.9824 77.0822L62.1157 74.1105C62.3946 73.3852 62.5664 72.6938 62.7338 71.9685C62.9291 70.9921 63.2359 69.932 63.6545 68.9278C64.1287 67.7839 64.324 66.8635 63.9054 66.1938C63.3754 65.3011 63.5428 64.1015 64.2124 62.7067C64.5472 62.0093 64.9376 61.3677 65.1608 60.6703C65.4956 59.7217 65.7746 58.7175 65.9698 57.7412C66.1094 57.239 65.9698 57.1273 65.7188 57.267C65.6073 57.3226 65.4956 57.4343 65.384 57.5459C65.0493 57.8806 64.7702 58.2712 64.4076 58.5222C64.1287 58.6896 63.8775 58.6618 63.5707 58.7175L63.5986 58.4107C65.1888 57.1832 66.2768 55.4536 67.0578 53.5287C67.2531 53.0545 67.3089 52.3013 67.1136 52.106C66.9463 51.9386 66.4998 51.9386 66.193 52.1339C66.1094 52.1618 66.0535 52.2176 65.9977 52.3013C65.7746 52.5524 65.5514 52.7198 65.384 52.8313C64.7425 53.194 64.324 52.7198 63.8218 52.6081C63.7939 52.5802 63.8218 52.3013 63.8498 52.0224C64.5472 52.385 65.3003 52.1618 66.0815 51.7154C66.3604 51.548 66.6394 51.3806 66.8904 51.1853C67.2531 50.9343 67.5878 50.7111 67.8947 50.5437C69.4569 49.651 70.7681 49.4836 71.7444 50.739C72.135 51.3527 72.8604 51.548 73.4463 51.9386C73.6972 51.3249 73.7252 50.9343 73.781 50.5717C74.0878 49.2884 74.3667 48.0052 74.7573 46.7219C74.8689 46.4151 75.3153 45.9966 75.678 45.7733C75.7616 45.7456 75.8453 45.6897 75.9012 45.6897C76.4311 45.5224 76.8496 45.6339 77.2402 45.8013C76.3475 40.9752 74.2273 37.0695 70.9355 34.6984ZM55.4249 43.3463C55.7038 43.2069 55.9828 43.0395 56.2338 42.9C56.5129 42.7606 56.7918 42.6211 57.0709 42.4538C56.8476 43.1512 56.6523 43.5416 56.4012 43.6811C56.1502 43.8486 55.8434 43.709 55.3969 43.3742C55.3969 43.3463 55.3969 43.3463 55.4249 43.3463ZM52.412 51.1576H52.4399C52.4399 51.1017 52.4678 51.0738 52.4957 51.0179C52.5237 50.9623 52.5237 50.9343 52.5514 50.8785L52.5793 50.8506C52.691 50.5996 52.8026 50.3764 52.8863 50.1531C52.9141 50.0975 52.9141 50.0695 52.942 50.0137C52.942 49.9858 52.9699 49.9578 52.9699 49.9301C53.1652 49.3442 53.2488 48.8142 53.2488 48.312C53.2211 48.0609 53.1932 47.8099 53.1373 47.5588C53.0537 47.1961 53.1094 46.7219 53.2211 46.2198C53.2211 46.0803 53.2488 45.9129 53.2768 45.7733C53.3047 45.7456 53.3326 45.6897 53.3605 45.6339C53.4721 45.4944 53.6674 45.3271 53.8068 45.1876C53.8347 45.1876 53.8347 45.1597 53.8347 45.1597C53.8347 45.2435 53.8627 45.2991 53.8627 45.3829C53.8906 45.4944 53.9185 45.5782 53.9185 45.6897C53.9185 45.885 53.7789 46.136 53.7789 46.3034C53.7789 46.7219 53.8627 47.0566 53.8906 47.4193C54.1695 47.224 54.4486 47.0287 54.7275 46.8057C54.9507 46.666 55.146 46.4987 55.5643 46.2198C55.5364 46.3313 55.4807 46.3871 55.4528 46.443C55.3133 46.7219 55.2854 46.8334 55.2016 46.8893C55.0064 47.0566 54.839 47.2519 54.6995 47.4472C54.2812 48.0331 54.058 48.7026 53.8906 49.428C53.7511 50.0975 53.4162 50.6553 52.8584 50.9623C52.7188 51.0459 52.6073 51.1296 52.4399 51.1576L52.412 51.1853V51.1576ZM58.7725 55.5931C58.6051 55.7325 58.4099 55.8442 58.2425 55.9557C58.1587 55.9836 58.103 56.0395 58.0193 56.0672C57.573 56.3463 57.1545 56.5416 56.7082 56.7369C56.5408 56.8205 56.4012 56.8764 56.2617 56.96C56.0385 57.0717 55.8711 57.267 55.8155 57.6853L55.7038 57.9365L55.6202 58.1038C55.4807 58.1318 55.2854 58.1874 55.118 58.2433C54.4486 58.4665 53.6953 58.7733 53.3885 58.5501C53.3605 58.5222 53.3326 58.4944 53.3326 58.4665C53.2211 58.3269 53.1373 58.2433 53.0537 58.1874C52.8863 58.0759 52.7467 58.0759 52.5793 58.1595C52.5237 58.1595 52.4678 58.1874 52.412 58.2154C52.2725 58.2991 52.1051 58.4386 51.9099 58.606C51.5472 58.9128 51.2124 59.2475 50.9056 59.5823C50.5709 59.917 50.264 60.2518 49.9291 60.5588C49.8734 60.6144 49.8176 60.6703 49.734 60.6982C49.6781 60.7818 49.5944 60.8377 49.5387 60.8656L49.5108 60.8935C49.3713 61.005 49.176 61.1166 48.9528 61.2841C48.9528 61.2562 48.9807 61.2562 48.9807 61.2283C49.8176 59.6381 50.4314 58.2991 51.1009 57.0158C51.2962 56.6531 51.4915 56.3463 51.6866 56.1231C51.7425 56.0395 51.7983 55.9836 51.8819 55.9557C51.9378 55.8721 51.9936 55.8442 52.0493 55.8163C52.2725 55.6768 52.5237 55.6768 52.8026 55.8163C53.1094 55.9557 53.5 55.8999 53.8906 55.8999H54.0859C54.1416 55.9278 54.2253 55.9278 54.2812 55.9278H54.3089C54.2253 56.0672 54.1416 56.2069 54.0859 56.3184C53.9185 56.5695 53.8068 56.8205 53.6674 57.0437C53.7232 57.0158 53.7789 56.9879 53.8347 56.96C54.1416 56.7926 54.3927 56.4578 54.5042 56.1231C54.6159 55.7325 54.5601 55.3698 54.2812 55.2025C53.9742 55.0351 53.6115 54.9794 53.1932 54.812C54.2253 54.4494 54.6437 54.6167 56.0664 55.7048C56.0944 55.6489 56.0944 55.5931 56.0944 55.5372C56.1223 55.3421 56.1781 55.1468 56.2059 54.9515C56.2617 54.5888 56.3176 54.2541 56.4012 53.8355C56.5129 53.8914 56.6244 53.9193 56.7082 53.975C56.7918 54.0029 56.8756 54.0588 56.9312 54.1146V54.1424C57.015 54.2261 57.0986 54.282 57.1824 54.3656C57.4056 54.4773 57.6566 54.4773 57.9913 54.282C57.9913 54.2541 58.0193 54.2541 58.0193 54.2541C58.1587 54.1703 58.3261 54.0588 58.5214 53.8914C58.6888 53.724 58.884 53.5566 59.0514 53.4449C59.3026 53.3055 59.5256 53.3055 59.6094 53.7519C59.7488 54.4494 59.4141 55.1747 58.7725 55.5931ZM62.957 58.2712C62.7617 58.2712 62.5664 58.2433 62.3711 58.1874C62.0922 58.1318 61.8132 58.0201 61.5622 57.8527C61.2831 57.6853 61.0042 57.4621 60.781 57.2111C60.6695 57.0717 60.5857 56.932 60.5021 56.7926C60.4183 56.6531 60.3347 56.4858 60.3068 56.3463C60.251 56.2069 60.223 56.0395 60.1953 55.8999V55.8721C60.4742 55.9557 60.781 56.0395 61.0601 56.151C61.3111 56.2625 61.5901 56.3742 61.8411 56.5137C62.4827 56.9043 63.0406 57.4343 63.4592 58.2154C63.2918 58.2712 63.1244 58.2712 62.957 58.2712Z" fill="#F3F1FC"/>
<path d="M66.6539 64.6378C67.0523 66.2005 66.899 67.7015 66.2419 69.4028C66.1471 69.6616 65.7804 70.0637 65.551 70.1961C65.5157 70.2165 65.4836 70.2306 65.4563 70.2367C65.22 70.2645 64.9354 69.9398 64.9662 69.6685C65.0587 68.9632 65.2614 68.2123 65.5115 67.4704C65.8085 66.6289 66.2001 65.769 66.6539 64.6378Z" fill="#F3F1FC"/>
<path d="M92.7116 19.6004C92.7116 22.2093 90.8579 25.3902 88.5924 26.7175C87.4482 27.3813 86.4183 27.4269 85.6631 26.9921L85.5029 26.9006L84.5647 26.3743C84.4274 26.2827 84.3128 26.1683 84.1984 26.0768C83.6492 28.228 82.1389 30.4477 80.3539 31.4776C79.2096 32.1412 78.157 32.187 77.4018 31.7522L76.3261 31.1342C76.1888 31.0428 76.0744 30.9284 75.96 30.8367C75.4108 32.9879 73.9004 35.2078 72.0925 36.2376C70.9483 36.9012 69.9185 36.947 69.1632 36.5122L69.0259 36.4206L68.0877 35.8943C67.9275 35.8028 67.8131 35.6883 67.6987 35.5739C67.1494 37.7479 65.6162 39.9678 63.8312 40.9975C62.687 41.6613 61.6572 41.7069 60.9019 41.2721L60.7646 41.1806L59.8035 40.6543C59.6662 40.5627 59.5518 40.4483 59.4374 40.3568C58.8881 42.508 57.3778 44.7277 55.5928 45.7575C54.4486 46.4212 53.4188 46.467 52.6635 46.0322L52.5033 45.9407L51.5651 45.4142C51.4278 45.3227 51.3133 45.2083 51.1989 45.1169C50.6497 47.2679 49.1393 49.4877 47.3314 50.5176C46.1871 51.1812 45.1573 51.227 44.4022 50.7922L44.2649 50.7006L43.3266 50.1743C43.1893 50.0828 43.0749 49.9911 42.9605 49.8767C42.3884 52.0279 40.8779 54.2478 39.093 55.2775C37.9029 55.9641 36.8274 55.987 36.0493 55.4835C36.0722 55.5293 36.118 55.5522 36.1637 55.575L35.0652 54.9343C34.9279 54.8428 34.8136 54.7512 34.6992 54.6368C34.1498 56.8109 32.6395 59.0077 30.8544 60.0375C29.6187 60.7469 28.5203 60.7698 27.7651 60.2206C27.8109 60.2665 27.8794 60.3121 27.9253 60.335L26.8268 59.6943C26.0945 59.2595 25.6139 58.3441 25.6139 57.0396V57.4515L17.4212 65.0034L17.3755 49.3504V48.0918C17.6081 47.9576 83.6092 9.86304 83.3517 10.0118L91.613 14.7947L92.6887 15.4354L92.7116 19.6004Z" fill="#E93565"/>
<path d="M33.8491 38.5394L33.8527 39.8027L42.1115 44.6203L42.1079 43.3571L33.8491 38.5394Z" fill="#AFB2B9"/>
<path d="M25.6338 43.323L25.6374 44.5862L33.8696 49.3788L33.8661 48.1155L25.6338 43.323Z" fill="#3B475A"/>
<path d="M33.8657 48.1155L33.8693 49.3788L42.1112 44.6203L42.1076 43.3571L33.8657 48.1155Z" fill="#29313F"/>
<path d="M25.6338 43.323L33.8661 48.1156L42.108 43.3571L33.8492 38.5394L25.6338 43.323Z" fill="#FFD06C"/>
<path d="M17.3818 48.0872L17.3854 49.3504L25.6177 54.1429L25.6141 52.8797L17.3818 48.0872Z" fill="#DF3260"/>
<path d="M25.6143 52.8797L25.6178 54.1429L33.8696 49.3787L33.866 48.1155L25.6143 52.8797Z" fill="#7A7C81"/>
<path d="M17.3818 48.0872L25.6141 52.8797L33.8659 48.1155L25.6336 43.323L17.3818 48.0872Z" fill="#F45170"/>
<path d="M43.2056 48.1531L42.1134 47.5184L42.1016 43.3573L43.1938 43.992L43.2056 48.1531Z" fill="#8FABFE"/>
<path d="M58.6021 24.2733L58.6056 25.5366L66.7597 30.2938L66.7561 29.0305L58.6021 24.2733Z" fill="#AFB2B9"/>
<path d="M75.1475 14.7784L74.8999 15.9081L83.3658 20.8167L83.3622 19.5534L75.1475 14.7784Z" fill="#AFB2B9"/>
<path d="M83.3618 19.5534L83.3654 20.8166L91.6073 16.0582L91.6037 14.7949L83.3618 19.5534Z" fill="#7A7C81"/>
<path d="M75.1475 14.7784L83.3621 19.5534L91.6041 14.7949L83.3458 10.0067L75.1475 14.7784Z" fill="#FFD06C"/>
<path d="M66.8784 19.5234L66.882 20.7867L75.1136 25.5809L75.1101 24.3176L66.8784 19.5234Z" fill="#3B475A"/>
<path d="M75.1104 24.3175L75.1139 25.5808L83.3657 20.8166L83.3621 19.5533L75.1104 24.3175Z" fill="#29313F"/>
<path d="M66.8784 19.5234L75.1101 24.3176L83.3618 19.5534L75.1472 14.7784L66.8784 19.5234Z" fill="#F45170"/>
<path d="M66.8682 29.0761L66.8717 30.3393L75.1136 25.5809L75.1101 24.3176L66.8682 29.0761Z" fill="#7A7C81"/>
<path d="M58.6021 24.2733L66.8683 29.0761L75.1102 24.3176L66.8786 19.5234L58.6021 24.2733Z" fill="#FFD06C"/>
<path d="M85.6543 26.9996L84.562 26.3649C83.8211 25.9343 83.3611 25.0195 83.3574 23.7205L84.4496 24.3552C84.4533 25.6542 84.9133 26.569 85.6543 26.9996Z" fill="#FFD06C"/>
<path d="M84.4497 24.3552L83.3575 23.7204L83.3457 19.5593L84.4379 20.1941L84.4497 24.3552Z" fill="#8FABFE"/>
<path d="M84.4379 20.1941L83.3457 19.5593L91.5975 14.7952L92.6897 15.4299L84.4379 20.1941Z" fill="#FEBC1F"/>
<path d="M92.6898 15.4299L92.7016 19.591C92.709 22.206 90.8648 25.4003 88.5891 26.7141C86.3135 28.028 84.4572 26.9701 84.4498 24.3552L84.438 20.1941L92.6898 15.4299Z" fill="#F9A83D"/>
<path d="M77.4126 31.7582L76.3204 31.1235C75.5794 30.6928 75.1194 29.7781 75.1157 28.479L76.2079 29.1137C76.2116 30.4128 76.6716 31.3276 77.4126 31.7582Z" fill="#DF3260"/>
<path d="M76.2075 29.1137L75.1153 28.479L75.1035 24.3179L76.1957 24.9526L76.2075 29.1137Z" fill="#FFD06C"/>
<path d="M76.1957 24.9525L75.1035 24.3178L83.3454 19.5593L84.4376 20.1941L76.1957 24.9525Z" fill="#E93565"/>
<path d="M84.4377 20.1941L84.4495 24.3552C84.4569 26.9701 82.6226 30.1587 80.3469 31.4726C78.0713 32.7864 76.215 31.7286 76.2076 29.1137L76.1958 24.9526L84.4377 20.1941Z" fill="#CC104A"/>
<path d="M69.1704 36.5223L68.0781 35.8876C67.3368 35.4567 66.8772 34.5393 66.8735 33.2374L67.9657 33.8722C67.9694 35.1741 68.429 36.0914 69.1704 36.5223Z" fill="#FFD06C"/>
<path d="M67.954 29.7111L66.8618 29.0763L75.1037 24.3179L76.1959 24.9526L67.954 29.7111Z" fill="#FEBC1F"/>
<path d="M76.196 24.9525L76.2078 29.1136C76.2152 31.7286 74.371 34.9228 72.0953 36.2367C69.8197 37.5506 67.9733 36.487 67.9659 33.8721L67.9541 29.711L76.196 24.9525Z" fill="#F9A83D"/>
<path d="M50.3965 29.045L50.3564 30.2951L58.6054 35.0977L58.6018 33.8345L50.3965 29.045Z" fill="#AFB2B9"/>
<path d="M58.6016 33.8344L58.6051 35.0976L66.8471 30.3392L66.8435 29.0759L58.6016 33.8344Z" fill="#7A7C81"/>
<path d="M50.3965 29.045L58.6018 33.8344L66.8437 29.076L58.5948 24.2733L50.3965 29.045Z" fill="#F45170"/>
<path d="M42.0645 33.7676L42.068 35.0308L50.3532 39.8618L50.3496 38.5986L42.0645 33.7676Z" fill="#3B475A"/>
<path d="M50.3496 38.5986L50.3532 39.8619L58.605 35.0977L58.6014 33.8345L50.3496 38.5986Z" fill="#29313F"/>
<path d="M42.0645 33.7676L50.3496 38.5986L58.6014 33.8345L50.396 29.045L42.0645 33.7676Z" fill="#FFD06C"/>
<path d="M42.1079 43.3571L42.1115 44.6203L50.3534 39.8619L50.3498 38.5986L42.1079 43.3571Z" fill="#7A7C81"/>
<path d="M33.8491 38.5394L42.1079 43.357L50.3498 38.5986L42.0647 33.7676L33.8491 38.5394Z" fill="#F45170"/>
<path d="M60.894 41.2806L59.8018 40.6459C59.0608 40.2153 58.6008 39.3005 58.5972 38.0015L59.6894 38.6362C59.6931 39.9352 60.153 40.85 60.894 41.2806Z" fill="#DF3260"/>
<path d="M59.6895 38.6362L58.5972 38.0014L58.5854 33.8403L59.6777 34.4751L59.6895 38.6362Z" fill="#8FABFE"/>
<path d="M59.6777 34.4751L58.5854 33.8403L66.8372 29.0762L67.9295 29.7109L59.6777 34.4751Z" fill="#E93565"/>
<path d="M67.929 29.7109L67.9408 33.872C67.9482 36.487 66.1041 39.6813 63.8284 40.9951C61.5527 42.309 59.6965 41.2512 59.689 38.6362L59.6772 34.4751L67.929 29.7109Z" fill="#CC104A"/>
<path d="M52.6518 46.0392L51.5596 45.4045C50.8186 44.9738 50.3587 44.0591 50.355 42.76L51.4472 43.3947C51.4509 44.6938 51.9108 45.6086 52.6518 46.0392Z" fill="#FFD06C"/>
<path d="M51.4473 43.3947L50.3551 42.76L50.3433 38.5989L51.4355 39.2336L51.4473 43.3947Z" fill="#FFD06C"/>
<path d="M51.4355 39.2335L50.3433 38.5988L58.5852 33.8403L59.6774 34.4751L51.4355 39.2335Z" fill="#FEBC1F"/>
<path d="M59.6775 34.4751L59.6893 38.6362C59.6967 41.2511 57.8624 44.4397 55.5867 45.7536C53.311 47.0674 51.4548 46.0096 51.4473 43.3947L51.4355 39.2336L59.6775 34.4751Z" fill="#F9A83D"/>
<path d="M44.4101 50.8033L43.3179 50.1686C42.5765 49.7377 42.117 48.8203 42.1133 47.5184L43.2055 48.1532C43.2092 49.4551 43.6687 50.3724 44.4101 50.8033Z" fill="#DF3260"/>
<path d="M43.1938 43.9921L42.1016 43.3573L50.3435 38.5989L51.4357 39.2336L43.1938 43.9921Z" fill="#E93565"/>
<path d="M51.4357 39.2336L51.4475 43.3948C51.455 46.0097 49.6108 49.204 47.3351 50.5178C45.0594 51.8317 43.2131 50.7681 43.2056 48.1532L43.1938 43.9921L51.4357 39.2336Z" fill="#CC104A"/>
<path d="M36.1596 55.5662L35.0593 54.9307C34.331 54.4969 33.8661 53.5825 33.8661 52.2808L33.8506 48.1276L34.9354 48.763L34.9508 52.9161C34.9508 54.2179 35.4158 55.1322 36.1596 55.5662Z" fill="#FFD06C"/>
<path d="M26.6996 53.5147L25.6074 52.8799L33.8493 48.1215L34.9415 48.7562L26.6996 53.5147Z" fill="#E93565"/>
<path d="M43.1937 43.9921L43.2055 48.1532C43.2129 50.7681 41.3687 53.9624 39.093 55.2763C36.8173 56.5901 34.9611 55.5323 34.9537 52.9173L34.9419 48.7562L43.1937 43.9921Z" fill="#F9A83D"/>
<path d="M34.9418 48.7562L33.8496 48.1215L42.1014 43.3573L43.1936 43.992L34.9418 48.7562Z" fill="#FEBC1F"/>
<path d="M27.9155 60.3237L26.8307 59.6883C26.0868 59.2544 25.622 58.3401 25.622 57.0383L25.6064 52.8851L26.7068 53.5206V57.6737C26.7222 58.9754 27.1716 59.8898 27.9155 60.3237Z" fill="#F45170"/>
<path d="M34.9416 48.7562L34.9534 52.9173C34.9608 55.5323 33.1265 58.7208 30.8508 60.0347C28.5752 61.3486 26.7189 60.2907 26.7115 57.6758L26.6997 53.5147L34.9416 48.7562Z" fill="#CC104A"/>
<path d="M17.4206 65.0058L17.3853 49.3505L25.6175 54.143V57.4489L17.4206 65.0058Z" fill="#E93565"/>
<path d="M102.734 88.4704L102.716 90.7867C102.716 92.0257 101.908 93.2468 100.31 94.1805C97.0599 96.0659 91.7807 96.0659 88.5127 94.1805C86.8606 93.2289 86.0347 91.9719 86.0347 90.7329L86.0526 88.4166C86.0526 87.1776 86.8606 85.9744 88.4767 85.0228C91.7088 83.1374 97.006 83.1374 100.274 85.0228C102.141 86.1001 102.914 87.5726 102.644 88.9911C102.68 88.8116 102.734 88.6499 102.734 88.4704Z" fill="#E9E7FC"/>
<path d="M102.731 88.4737L102.725 90.7913C102.721 92.0202 101.916 93.2463 100.307 94.1811C97.0575 96.0696 91.7748 96.0641 88.5039 94.1757C86.8615 93.2274 86.0395 91.9808 86.043 90.7355L86.0495 88.418C86.046 89.6632 86.8681 90.9099 88.5105 91.8581C91.7814 93.7466 97.064 93.752 100.314 91.8635C101.922 90.9288 102.728 89.7026 102.731 88.4737Z" fill="#DEDFFB"/>
<path d="M100.266 85.0266C103.537 86.9151 103.554 89.9804 100.314 91.8634C97.0643 93.7519 91.7817 93.7465 88.5107 91.858C85.2493 89.975 85.2226 86.9152 88.4723 85.0267C91.7125 83.1436 97.0046 83.1436 100.266 85.0266Z" fill="#F3F1FC"/>
<path d="M94.4292 92.5346C92.3258 92.5346 90.3557 92.0662 88.8817 91.2149C87.5352 90.4376 86.7934 89.4486 86.792 88.4285C86.7905 87.4192 87.52 86.4389 88.8454 85.6681C90.3006 84.8227 92.2598 84.3564 94.361 84.3564C96.463 84.3564 98.428 84.8227 99.8941 85.6696C101.243 86.4483 101.987 87.4402 101.989 88.4625C101.99 89.4726 101.262 90.4529 99.9398 91.2214C98.4831 92.0683 96.5261 92.5346 94.4292 92.5346Z" fill="#E9E7FC"/>
<path d="M101.926 56.5621L101.908 56.5442H101.89L98.5322 54.5869C96.9521 53.6711 94.7614 53.7968 92.3373 55.1975C87.507 57.9807 83.6284 64.7501 83.6284 70.2807C83.6284 73.0281 84.616 74.9673 86.1783 75.8831L89.554 77.8584C89.5361 77.8404 89.5361 77.8224 89.5182 77.8044C89.5899 77.8584 89.6977 77.8942 89.7874 77.9301L92.4271 88.3808L95.8029 90.3379L98.7836 74.8955C102.106 71.5736 104.494 66.492 104.476 62.1644C104.476 59.3992 103.488 57.4599 101.926 56.5621ZM92.3731 71.6275C91.7267 72.0046 91.1163 72.2021 90.5237 72.3098C90.3262 71.7711 90.2005 71.1426 90.2005 70.4064C90.1825 66.887 92.6605 62.5955 95.731 60.8177C96.3775 60.4407 97.0059 60.2432 97.5985 60.1355C97.796 60.6741 97.9217 61.3026 97.9217 62.0209C97.9397 65.5582 95.4617 69.8498 92.3731 71.6275Z" fill="#F45170"/>
<path d="M95.8086 90.3429L92.424 88.3761L89.3906 76.3883L92.7752 78.3552L95.8086 90.3429Z" fill="#DF3260"/>
<path d="M96.3061 58.4648L99.6906 60.4318C100.689 61.0119 101.308 62.2439 101.313 63.9927C101.323 67.5276 98.8373 71.821 95.761 73.5971L92.3765 71.6302C95.4527 69.8541 97.9383 65.5607 97.9283 62.0258C97.9233 60.277 97.3044 59.045 96.3061 58.4648Z" fill="#E93565"/>
<path d="M91.8138 73.9849L88.4292 72.018C89.4379 72.6042 90.8343 72.5207 92.3759 71.6306L95.7605 73.5975C94.2189 74.4876 92.8225 74.5711 91.8138 73.9849Z" fill="#E93565"/>
<path d="M101.933 56.5629C100.348 55.6344 98.1394 55.7625 95.7224 57.1712C90.8881 59.9564 86.9984 66.7116 87.0144 72.25C87.0304 74.9873 87.9908 76.9402 89.5595 77.8526L86.182 75.8837C84.6133 74.9713 83.6368 73.0345 83.6368 70.2812C83.6208 64.7426 87.5106 57.9876 92.3288 55.2023C94.7619 53.7936 96.9549 53.6656 98.5396 54.594L101.933 56.5629Z" fill="#E93565"/>
<path d="M95.7137 57.1682C100.538 54.3832 104.465 56.6211 104.48 62.1641C104.493 66.4858 102.112 71.5658 98.7838 74.8869L95.8078 90.3442L92.7744 78.3564C89.4182 78.8943 87.0265 76.5699 87.0142 72.2482C86.9985 66.7052 90.8898 59.9533 95.7137 57.1682ZM95.7603 73.5976C98.8366 71.8216 101.322 67.5281 101.312 63.9933C101.302 60.4702 98.8004 59.0444 95.7241 60.8205C92.658 62.5907 90.1827 66.89 90.1927 70.4131C90.2027 73.948 92.6943 75.3678 95.7603 73.5976Z" fill="#F45170"/>
<path d="M60.005 82.3567C60.4433 83.1586 60.7044 84.0351 60.7044 84.8369C60.7044 85.7414 60.3687 86.4221 59.7719 86.7671C59.7253 86.8043 59.6693 86.823 59.6134 86.851C59.4083 86.9349 59.1845 86.9815 58.9421 86.9815C58.5225 86.9815 58.0749 86.851 57.6273 86.5899C57.4315 86.478 57.245 86.3381 57.0679 86.189C57.0679 85.8812 57.1425 85.5922 57.2916 85.3591C57.5154 85.5829 57.7579 85.7787 58.019 85.9185C58.5597 86.2356 59.054 86.3009 59.3989 86.0957C59.4456 86.0677 59.5015 86.0211 59.5481 85.9838V85.9745C59.7999 85.7507 59.9304 85.3498 59.9304 84.8369C59.9304 84.1749 59.7067 83.4196 59.3337 82.739L60.005 82.3567Z" fill="#F45170"/>
<path d="M65.068 79.41C65.4969 80.2119 65.7674 81.0977 65.7674 81.8996C65.7674 82.7948 65.4316 83.4847 64.8442 83.8297C64.7883 83.8577 64.7417 83.8764 64.6764 83.9137C64.4713 83.9883 64.2475 84.0442 64.0051 84.0442C63.5854 84.0442 63.1472 83.9137 62.6903 83.6433C62.5039 83.5314 62.308 83.4009 62.1309 83.2423C62.1309 82.944 62.2055 82.6549 62.3546 82.4218C62.5784 82.6456 62.8302 82.8414 63.082 82.9813C63.6227 83.2983 64.1169 83.3542 64.4619 83.1584C64.5085 83.1211 64.5645 83.0838 64.6111 83.0465V83.0279C64.8629 82.8041 64.9934 82.4125 64.9934 81.8996C64.9934 81.2376 64.7697 80.4824 64.3967 79.8016L65.068 79.41Z" fill="#F45170"/>
<path d="M70.131 76.4735C70.5692 77.2754 70.8303 78.1519 70.8303 78.9537C70.8303 79.8582 70.4947 80.5389 69.9073 80.8839C69.8513 80.9212 69.8046 80.9398 69.7394 80.9678C69.5343 81.0517 69.3105 81.0983 69.068 81.0983C68.6484 81.0983 68.2102 80.9678 67.7533 80.7067C67.5668 80.5948 67.371 80.4549 67.1938 80.3058C67.1938 79.9981 67.2685 79.709 67.4176 79.4759C67.6414 79.6997 67.8932 79.8955 68.1449 80.0353C68.6858 80.3524 69.1799 80.4177 69.5249 80.2125C69.5809 80.1846 69.6275 80.138 69.6834 80.1006V80.0913C69.9259 79.8675 70.0564 79.4666 70.0564 78.9537C70.0564 78.2917 69.8326 77.5364 69.4596 76.8558L70.131 76.4735Z" fill="#F45170"/>
<path d="M75.9027 76.0161C75.9027 76.9112 75.5577 77.6012 74.9702 77.9462C74.9143 77.9742 74.8676 77.9928 74.8024 78.0301C74.5972 78.1048 74.3735 78.1607 74.131 78.1607C73.7114 78.1607 73.2732 78.0301 72.8257 77.7597C72.6298 77.6478 72.434 77.5173 72.2568 77.3588C72.2568 77.0511 72.3314 76.7713 72.4806 76.5382C72.7137 76.7621 72.9562 76.9578 73.2079 77.0977C73.7488 77.4147 74.2429 77.4706 74.5879 77.2749C74.6439 77.2375 74.6905 77.2003 74.7465 77.1537V77.1443C74.9888 76.9205 75.1194 76.5196 75.1194 76.0161C75.1194 75.3447 74.8956 74.5988 74.532 73.9088L75.194 73.5265C75.6322 74.3284 75.9027 75.2142 75.9027 76.0161Z" fill="#F45170"/>
<path d="M78.7591 71.4526L51.1402 87.503L43 107.136L51.0779 109.456L59.1377 116.454L86.7566 100.403L78.7591 71.4526Z" fill="#E9E7FC"/>
<path d="M44.8062 106.337L72.4251 90.2869L78.7002 92.0898L51.0812 108.14L44.8062 106.337Z" fill="#F3F1FC"/>
<path d="M51.0815 108.139L78.7005 92.0884L84.9603 97.5224L57.3413 113.573L51.0815 108.139Z" fill="#DEDFFB"/>
<path d="M51.1296 91.0904L78.7485 75.04L72.4251 90.2855L44.8062 106.336L51.1296 91.0904Z" fill="#DEDFFB"/>
<path d="M51.1401 87.5027L78.7591 71.4523L86.7566 100.403L59.1376 116.453L51.1401 87.5027Z" fill="#F3F1FC"/>
<path d="M78.1823 72.8662L52.2305 87.9476L59.7145 115.04L85.6664 99.9582L78.1823 72.8662Z" fill="white"/>
<path d="M51.1402 87.5037L59.1377 116.454L51.078 109.457L43 107.137L51.1402 87.5037ZM44.8066 106.337L51.0817 108.14L57.3415 113.574L51.13 91.0916L44.8066 106.337Z" fill="#E9E7FC"/>
<path d="M52.5746 92.6567V92.6669H52.5645V92.6465L52.5746 92.6567Z" fill="#DF3260"/>
<path d="M80.1866 76.6178L52.5743 92.6564L52.5646 92.6466L51.1448 91.0897L49.4019 91.7262L51.1448 87.506L78.757 71.4576L80.1866 76.6178Z" fill="#DF3260"/>
<path d="M51.1401 87.5023L78.7591 71.4519L80.1864 76.6188L52.5675 92.6692L51.1401 87.5023Z" fill="#F45170"/>
<path d="M52.5666 92.6693L51.1297 91.0904L49.3901 91.7235L51.1393 87.5059L52.5666 92.6693Z" fill="#DF3260"/>
<path d="M57.6865 84.9621C58.299 84.6085 59.0929 84.9423 59.4607 85.7172C59.8285 86.4921 59.6249 87.4019 59.0124 87.7555C58.4072 88.1049 57.6169 87.769 57.2491 86.9941C56.8813 86.2192 57.0813 85.3115 57.6865 84.9621Z" fill="#E93565"/>
<path d="M60.7042 84.8363C60.7042 85.7408 60.3685 86.4215 59.7718 86.7665C59.7252 86.8037 59.6692 86.8224 59.6133 86.8503C59.4082 86.9343 59.1844 86.9809 58.9419 86.9809C58.5223 86.9809 58.0748 86.8503 57.6272 86.5893C57.4314 86.4774 57.2449 86.3375 57.0678 86.1883C57.0678 85.8806 57.1424 85.5916 57.2915 85.3585C57.5153 85.5822 57.7577 85.7781 58.0188 85.9179C58.5596 86.235 59.0538 86.3002 59.3988 86.0951C59.4454 86.0671 59.5014 86.0205 59.548 85.9832V85.9739C59.7998 85.7501 59.9303 85.3491 59.9303 84.8363C59.9303 84.1743 59.7065 83.419 59.3335 82.7383C58.9139 81.9551 58.3079 81.2651 57.6365 80.8828C57.3102 80.687 56.9931 80.5938 56.7321 80.5938C56.5549 80.5938 56.4057 80.6404 56.2659 80.7057C55.9209 80.9108 55.725 81.349 55.725 81.9644C55.725 82.7383 56.0328 83.6148 56.5176 84.3794L55.8463 84.7617C55.2961 83.8852 54.9604 82.8689 54.9604 81.9644C54.9604 81.0693 55.2868 80.3793 55.8835 80.0436C56.471 79.6986 57.2449 79.7732 58.0281 80.2208C58.8114 80.6684 59.52 81.4609 60.0049 82.3561C60.4431 83.158 60.7042 84.0344 60.7042 84.8363Z" fill="#4C5C75"/>
<path d="M62.7509 82.0194C63.3634 81.6657 64.1574 81.9995 64.5252 82.7744C64.893 83.5494 64.6893 84.4591 64.0768 84.8128C63.4716 85.1622 62.6814 84.8263 62.3135 84.0513C61.9457 83.2764 62.1457 82.3688 62.7509 82.0194Z" fill="#E93565"/>
<path d="M65.7667 81.8978C65.7667 82.7929 65.431 83.4829 64.8436 83.8279C64.7877 83.8559 64.741 83.8746 64.6758 83.9119C64.4707 83.9865 64.2469 84.0424 64.0044 84.0424C63.5848 84.0424 63.1466 83.9119 62.6897 83.6415C62.5032 83.5295 62.3074 83.399 62.1302 83.2405C62.1302 82.9421 62.2049 82.653 62.354 82.4199C62.5778 82.6438 62.8296 82.8395 63.0813 82.9794C63.6221 83.2964 64.1163 83.3524 64.4613 83.1566C64.5079 83.1193 64.5639 83.082 64.6105 83.0447V83.026C64.8623 82.8023 64.9928 82.4107 64.9928 81.8978C64.9928 81.2358 64.769 80.4805 64.396 79.7998C63.9764 79.0166 63.3704 78.3266 62.699 77.9443C62.3727 77.7485 62.0556 77.6552 61.7946 77.6552C61.6174 77.6552 61.4682 77.6926 61.3377 77.7671C60.9834 77.9723 60.7875 78.4105 60.7875 79.0259C60.7875 79.7905 61.0953 80.6763 61.5801 81.4316L60.9088 81.8232C60.3586 80.9467 60.0229 79.9304 60.0229 79.0259C60.0229 78.1214 60.3493 77.4408 60.946 77.1051C61.5335 76.7508 62.3074 76.8253 63.0907 77.273C63.8739 77.7205 64.5732 78.5131 65.0674 79.4082C65.4963 80.2101 65.7667 81.0959 65.7667 81.8978Z" fill="#4C5C75"/>
<path d="M67.8149 79.0781C68.4274 78.7245 69.2213 79.0583 69.5891 79.8332C69.957 80.6081 69.7533 81.5179 69.1408 81.8715C68.5356 82.2209 67.7453 81.885 67.3775 81.11C67.0097 80.3351 67.2097 79.4275 67.8149 79.0781Z" fill="#E93565"/>
<path d="M70.8307 78.9528C70.8307 79.8572 70.4951 80.5379 69.9076 80.8829C69.8517 80.9202 69.805 80.9389 69.7397 80.9668C69.5346 81.0507 69.3108 81.0973 69.0684 81.0973C68.6488 81.0973 68.2106 80.9668 67.7537 80.7057C67.5672 80.5939 67.3714 80.454 67.1942 80.3048C67.1942 79.9971 67.2688 79.708 67.418 79.4749C67.6418 79.6987 67.8935 79.8945 68.1453 80.0344C68.6861 80.3514 69.1803 80.4167 69.5253 80.2115C69.5812 80.1836 69.6278 80.137 69.6838 80.0996V80.0903C69.9262 79.8665 70.0568 79.4656 70.0568 78.9528C70.0568 78.2907 69.833 77.5355 69.46 76.8548C69.0404 76.0715 68.4344 75.3815 67.7723 74.9993C67.4367 74.8034 67.1289 74.7102 66.8586 74.7102C66.6814 74.7102 66.5322 74.7568 66.4017 74.8221C66.0473 75.0272 65.8608 75.4655 65.8608 76.0809C65.8608 76.8548 66.1686 77.7313 66.6441 78.4959L65.9727 78.8782C65.4226 78.0017 65.0869 76.9854 65.0869 76.0809C65.0869 75.1858 65.4133 74.4957 66.01 74.1601C66.6068 73.8151 67.3714 73.8897 68.1546 74.3372C68.9379 74.7848 69.6465 75.5774 70.1314 76.4725C70.5696 77.2744 70.8307 78.1509 70.8307 78.9528Z" fill="#4C5C75"/>
<path d="M72.8793 76.1357C73.4918 75.7821 74.2858 76.1159 74.6536 76.8908C75.0214 77.6657 74.8177 78.5755 74.2052 78.9291C73.6001 79.2785 72.8098 78.9426 72.442 78.1677C72.0742 77.3927 72.2742 76.4851 72.8793 76.1357Z" fill="#E93565"/>
<path d="M75.903 76.0157C75.903 76.9108 75.558 77.6008 74.9706 77.9458C74.9146 77.9738 74.8679 77.9924 74.8027 78.0298C74.5976 78.1044 74.3738 78.1603 74.1313 78.1603C73.7117 78.1603 73.2735 78.0298 72.826 77.7593C72.6301 77.6474 72.4343 77.5169 72.2571 77.3584C72.2571 77.0507 72.3318 76.771 72.4809 76.5378C72.714 76.7617 72.9565 76.9575 73.2082 77.0973C73.7491 77.4143 74.2432 77.4703 74.5882 77.2745C74.6442 77.2372 74.6908 77.1999 74.7468 77.1533V77.144C74.9892 76.9202 75.1197 76.5192 75.1197 76.0157C75.1197 75.3444 74.8959 74.5984 74.5323 73.9084C74.1127 73.1252 73.5066 72.4352 72.8352 72.0529C72.5089 71.8664 72.1919 71.7731 71.9215 71.7731C71.7537 71.7731 71.5952 71.8105 71.4646 71.885C71.1196 72.0902 70.9238 72.5284 70.9238 73.1438C70.9238 73.9084 71.2315 74.7942 71.707 75.5495L71.0357 75.9411C70.4949 75.0647 70.1592 74.0483 70.1592 73.1438C70.1592 72.2394 70.4856 71.5587 71.073 71.223C71.6697 70.8687 72.4343 70.9433 73.2176 71.3909C74.0008 71.8384 74.7001 72.631 75.1943 73.5261C75.6325 74.328 75.903 75.2138 75.903 76.0157Z" fill="#4C5C75"/>
<path d="M73.1423 83.3456L74.7058 87.6482L71.3491 89.5326L69.7856 85.23L73.1423 83.3456Z" fill="#DEDFFB"/>
<path d="M68.2296 86.1034L69.7931 90.406L66.4365 92.2904L64.873 87.9878L68.2296 86.1034Z" fill="#DEDFFB"/>
<path d="M73.1422 83.3456L74.7057 87.6482L71.3491 89.5326L69.7856 85.23L73.1422 83.3456Z" fill="#DEDFFB"/>
<path d="M78.0548 80.5879L79.6183 84.8905L76.2617 86.7749L74.6982 82.4723L78.0548 80.5879Z" fill="#DEDFFB"/>
<path d="M63.3136 88.8644L64.8771 93.167L61.5205 95.0514L59.957 90.7488L63.3136 88.8644Z" fill="#57B3FE"/>
<path d="M58.4011 91.6219L59.9646 95.9246L56.6079 97.809L55.0444 93.5064L58.4011 91.6219Z" fill="#DEDFFB"/>
<path d="M75.5837 90.064L77.1454 94.3617L73.7888 96.2461L72.2271 91.9484L75.5837 90.064Z" fill="#FFD06C"/>
<path d="M80.4958 87.3064L82.0575 91.6041L78.7009 93.4885L77.1392 89.1908L80.4958 87.3064Z" fill="#DEDFFB"/>
<path d="M70.671 92.8235L72.2327 97.1212L68.8762 99.0056L67.3145 94.7079L70.671 92.8235Z" fill="#DEDFFB"/>
<path d="M65.755 95.5815L67.3167 99.8793L63.9601 101.764L62.3984 97.4659L65.755 95.5815Z" fill="#DEDFFB"/>
<path d="M60.843 98.3411L62.4047 102.639L59.048 104.523L57.4863 100.225L60.843 98.3411Z" fill="#DEDFFB"/>
<path d="M78.0236 96.7792L79.5871 101.082L76.2305 102.966L74.667 98.6636L78.0236 96.7792Z" fill="#DEDFFB"/>
<path d="M82.9362 94.0214L84.4997 98.324L81.1431 100.208L79.5796 95.9058L82.9362 94.0214Z" fill="#DEDFFB"/>
<path d="M73.1115 99.5369L74.675 103.84L71.3184 105.724L69.7549 101.421L73.1115 99.5369Z" fill="#DEDFFB"/>
<path d="M68.195 102.297L69.7585 106.599L66.4019 108.484L64.8384 104.181L68.195 102.297Z" fill="#DEDFFB"/>
<path d="M63.2829 105.054L64.8464 109.357L61.4898 111.242L59.9263 106.939L63.2829 105.054Z" fill="#78E75A"/>
<path d="M94.0847 107.44L84.4777 112.998L76.0886 108.105L76.0522 97.9092L85.6593 92.3512L94.0483 97.2441L94.0847 107.44Z" fill="#BF7D5A"/>
<path d="M76.0532 97.9083L84.4495 102.8L84.4808 113L76.0845 108.109L76.0532 97.9083Z" fill="#AA6256"/>
<path d="M94.0527 97.2419L84.45 102.8L76.0537 97.9083L85.6564 92.3503L94.0527 97.2419Z" fill="#DBA660"/>
<path d="M94.0524 97.2417L94.0837 107.442L84.481 113L84.4497 102.8L94.0524 97.2417Z" fill="#BF7D5A"/>
<path d="M90.6218 99.2296V101.052L87.9133 102.637V100.797L79.5151 95.9038L82.2236 94.3367L90.6218 99.2296Z" fill="#1D2943"/>
<path d="M79.5176 95.903L82.2239 94.3367L90.6201 99.2282L87.9138 100.795L79.5176 95.903Z" fill="#4C5C75"/>
<path d="M87.9136 100.794V102.64L90.6199 101.052V99.228L87.9136 100.794Z" fill="#1D2943"/>
<path d="M80.7104 95.2122L81.0303 95.0271L89.4265 99.9187L89.1067 100.104L80.7104 95.2122Z" fill="#111D33"/>
</g>
<defs>
<clipPath id="clip0_1067_4271">
<rect width="113.674" height="113.533" fill="white" transform="translate(0.0966797 0.666626)"/>
</clipPath>
</defs>
</svg>
