<svg width="974" height="28" viewBox="0 0 974 28" fill="none" xmlns="http://www.w3.org/2000/svg">
<line y1="-1.5" x2="939.46" y2="-1.5" transform="matrix(1 0.000495026 -0.000509623 1 19.9134 14.7949)" stroke="#2C3B84" stroke-width="3" stroke-dasharray="6 6"/>
<path d="M13.8913 1.5C20.6857 1.5 26.1563 6.92279 26.1563 13.5664C26.1563 20.21 20.6857 25.6328 13.8913 25.6328C7.09697 25.6328 1.62637 20.21 1.62637 13.5664C1.62637 6.92279 7.09696 1.5 13.8913 1.5Z" fill="white" stroke="#2C3B84" stroke-width="3"/>
<path d="M13.8912 6.58692C17.8348 6.58692 20.9943 9.73199 20.9943 13.5659C20.9943 17.3998 17.8348 20.5449 13.8912 20.5449C9.94763 20.5449 6.78809 17.3998 6.78809 13.5659C6.78809 9.732 9.94763 6.58692 13.8912 6.58692Z" fill="#2C3B84" stroke="#2C3B84" stroke-width="3"/>
<path d="M391.568 1.5C398.362 1.5 403.833 6.92279 403.833 13.5664C403.833 20.21 398.362 25.6328 391.568 25.6328C384.773 25.6328 379.303 20.21 379.303 13.5664C379.303 6.92279 384.773 1.5 391.568 1.5Z" fill="white" stroke="#2C3B84" stroke-width="3"/>
<path d="M391.568 6.58692C395.511 6.58692 398.671 9.73199 398.671 13.5659C398.671 17.3998 395.511 20.5449 391.568 20.5449C387.624 20.5449 384.465 17.3998 384.465 13.5659C384.465 9.732 387.624 6.58692 391.568 6.58692Z" fill="#2C3B84" stroke="#2C3B84" stroke-width="3"/>
<path d="M770.965 1.5C777.759 1.5 783.23 6.92279 783.23 13.5664C783.23 20.21 777.759 25.6328 770.965 25.6328C764.171 25.6328 758.7 20.21 758.7 13.5664C758.7 6.92279 764.171 1.5 770.965 1.5Z" fill="white" stroke="#2C3B84" stroke-width="3"/>
<path d="M770.965 6.58692C774.908 6.58692 778.068 9.73199 778.068 13.5659C778.068 17.3998 774.908 20.5449 770.965 20.5449C767.021 20.5449 763.862 17.3998 763.862 13.5659C763.862 9.732 767.021 6.58692 770.965 6.58692Z" fill="#2C3B84" stroke="#2C3B84" stroke-width="3"/>
<path d="M959.373 1.5C966.167 1.5 971.638 6.92279 971.638 13.5664C971.638 20.21 966.167 25.6328 959.373 25.6328C952.579 25.6328 947.108 20.21 947.108 13.5664C947.108 6.92279 952.579 1.5 959.373 1.5Z" fill="white" stroke="#A92D94" stroke-width="3"/>
<path d="M959.373 6.58692C963.316 6.58692 966.476 9.73199 966.476 13.5659C966.476 17.3998 963.316 20.5449 959.373 20.5449C955.429 20.5449 952.27 17.3998 952.27 13.5659C952.27 9.732 955.429 6.58692 959.373 6.58692Z" fill="#A92D94" stroke="#A92D94" stroke-width="3"/>
<path d="M202.299 1.5C209.094 1.5 214.564 6.92279 214.564 13.5664C214.564 20.21 209.094 25.6328 202.299 25.6328C195.505 25.6328 190.034 20.21 190.034 13.5664C190.034 6.92279 195.505 1.5 202.299 1.5Z" fill="white" stroke="#A92D94" stroke-width="3"/>
<path d="M202.299 6.58692C206.243 6.58692 209.402 9.73199 209.402 13.5659C209.402 17.3998 206.243 20.5449 202.299 20.5449C198.356 20.5449 195.196 17.3998 195.196 13.5659C195.196 9.732 198.356 6.58692 202.299 6.58692Z" fill="#A92D94" stroke="#A92D94" stroke-width="3"/>
<path d="M580.836 1.5C587.631 1.5 593.101 6.92279 593.101 13.5664C593.101 20.21 587.631 25.6328 580.836 25.6328C574.042 25.6328 568.571 20.21 568.571 13.5664C568.571 6.92279 574.042 1.5 580.836 1.5Z" fill="white" stroke="#A92D94" stroke-width="3"/>
<path d="M580.836 6.58692C584.78 6.58692 587.939 9.73199 587.939 13.5659C587.939 17.3998 584.78 20.5449 580.836 20.5449C576.893 20.5449 573.733 17.3998 573.733 13.5659C573.733 9.732 576.893 6.58692 580.836 6.58692Z" fill="#A92D94" stroke="#A92D94" stroke-width="3"/>
</svg>
