<svg width="75" height="73" viewBox="0 0 75 73" fill="none" xmlns="http://www.w3.org/2000/svg">
<g clip-path="url(#clip0_515_476)">
<path d="M10.1291 0.17627C7.61301 0.17627 5.55151 2.21023 5.55151 4.69004V23.4765C3.94545 24.0064 2.78782 25.0279 2.07808 26.1772C1.24616 27.5245 0.97168 29.0047 0.97168 30.2416V39.8397C0.97168 41.8366 1.89081 44.2907 2.7531 46.6753C3.18433 47.8677 3.60977 49.0237 3.91985 49.9885C4.22997 50.9534 4.40041 51.7707 4.40041 52.0527V56.3153C3.70257 56.9358 3.26048 57.8317 3.26048 58.8222V68.971C3.26048 70.826 4.80934 72.3613 6.69144 72.3613H22.7175C24.5996 72.3613 26.1462 70.826 26.1462 68.971V58.8222C26.1462 57.4847 25.3404 56.3199 24.186 55.7734C24.3811 55.0022 24.7802 53.9427 25.2254 52.7113C25.7513 51.2567 26.3036 49.5286 26.4681 47.5499H47.7624L53.1179 58.1129C52.0539 58.6894 51.3275 59.8062 51.3275 61.078V68.971C51.3275 70.826 52.8741 72.3613 54.7562 72.3613H70.7734C72.6555 72.3613 74.2133 70.826 74.2133 68.971V61.078C74.2133 59.675 73.3223 58.4606 72.0742 57.9521C72.2563 57.3385 72.5867 56.6092 72.9705 55.758C73.5555 54.4608 74.2133 52.8716 74.2133 50.9292C74.2133 35.5161 74.2133 20.1031 74.2133 4.69004C74.2133 2.21023 72.1496 0.17627 69.6334 0.17627L10.1291 0.17627ZM10.1291 2.43205H69.6334C70.9212 2.43205 71.9222 3.42085 71.9222 4.69004V37.5905C71.5619 37.4626 71.1751 37.3833 70.7734 37.3923C70.1756 37.4051 70.0095 37.4756 69.6334 37.5971V8.0693C69.6334 6.21431 68.0868 4.69004 66.2047 4.69004H13.5578C11.6757 4.69004 10.1291 6.21431 10.1291 8.0693V27.6598C10.059 27.63 9.98951 27.5976 9.91901 27.5695C9.24906 27.3013 8.5247 27.1959 7.84031 27.3272V4.69004C7.84031 3.42085 8.8413 2.43222 10.1291 2.43205ZM12.4179 29.7107V8.0693C12.4179 7.42497 12.9041 6.94586 13.5578 6.94582H66.2047C66.8585 6.94582 67.3446 7.42497 67.3446 8.0693V36.4715C66.9891 36.3359 66.6349 36.2688 66.2047 36.2688C65.2625 36.2688 64.7152 36.5969 64.5082 36.7028C64.2344 36.2309 63.3202 35.1723 61.6249 35.1365C61.0078 35.1706 60.9016 35.2072 60.476 35.3326V30.6337H63.898C64.5309 30.6314 65.0417 30.123 65.038 29.4992C65.0356 28.8798 64.5266 28.3781 63.898 28.3758H60.476C60.476 26.5208 58.9294 24.9877 57.0473 24.9877C55.1651 24.9877 53.6074 26.5208 53.6074 28.3758H43.31C42.6815 28.3781 42.1725 28.8798 42.1701 29.4992C42.1663 30.123 42.6771 30.6314 43.31 30.6337H53.6074V41.0799L52.2573 38.7757C51.1578 36.8989 48.6947 36.2424 46.7901 37.3262C45.491 38.0654 44.8251 39.4084 44.8321 40.7804H15.3348C14.8074 40.2106 14.33 39.7482 14.0161 39.3727C13.6592 38.9458 13.5578 38.7158 13.5578 38.5268V33.6701C13.509 32.0644 13.0763 30.7387 12.4179 29.7107ZM57.0473 9.2016C55.1651 9.2016 53.6074 10.7259 53.6074 12.5809H43.31C42.6771 12.5834 42.1664 13.0916 42.1701 13.7154C42.1726 14.3348 42.6815 14.8364 43.31 14.8389H53.6074C53.6074 16.6938 55.1651 18.2181 57.0473 18.2181C58.9294 18.2181 60.476 16.6939 60.476 14.8389H63.9137C64.5422 14.8364 65.0511 14.3348 65.0536 13.7154C65.0574 13.0916 64.5466 12.5833 63.9137 12.5809H60.476C60.476 10.7259 58.9294 9.2016 57.0473 9.2016ZM57.0473 11.4574C57.701 11.4574 58.1872 11.9365 58.1872 12.5809V14.8389C58.1872 15.4832 57.701 15.9712 57.0473 15.9712C56.3935 15.9712 55.8962 15.4832 55.8962 14.8389V12.5809C55.8962 11.9365 56.3935 11.4574 57.0473 11.4574ZM27.2951 12.5809C20.3565 12.5809 14.7089 18.1491 14.7089 24.9877V29.4992C14.7053 30.123 15.216 30.6313 15.8489 30.6337H38.7302C39.3674 30.6373 39.885 30.1273 39.8813 29.4992V24.9877C39.8813 18.1491 34.2337 12.5809 27.2951 12.5809ZM26.1462 14.9005V15.9712C26.1488 16.594 26.6631 17.0971 27.2951 17.0946C27.9237 17.0922 28.4326 16.5906 28.435 15.9712V14.9005C30.4262 15.1154 32.244 15.8843 33.7257 17.0506L32.9545 17.8106C32.5047 18.2515 32.5047 18.9689 32.9545 19.4099C33.4019 19.8532 34.1298 19.8532 34.5773 19.4099L35.3484 18.6499C36.5318 20.1101 37.3098 21.9017 37.5277 23.8642H36.4525C35.8205 23.8617 35.3061 24.3648 35.3037 24.9877C35.3012 25.614 35.817 26.1224 36.4525 26.12H37.5902V28.3758H31.8749C31.8749 27.2528 31.4502 26.2209 30.7529 25.4283L32.6774 23.5315C33.1212 23.0916 33.1212 22.381 32.6774 21.941C32.465 21.7305 32.1764 21.6105 31.8749 21.6084C31.5704 21.6084 31.2783 21.7283 31.0636 21.941L28.8329 24.1285C28.3517 23.9576 27.8335 23.8642 27.2951 23.8642C24.7806 23.8642 22.7175 25.8975 22.7175 28.3758H16.9977V26.12H18.1377C18.7697 26.1175 19.2801 25.6106 19.2776 24.9877C19.2752 24.3682 18.7662 23.8666 18.1377 23.8642H17.0603C17.2783 21.9017 18.0584 20.1101 19.2418 18.6499L20.013 19.4099C20.4593 19.8473 21.1804 19.8473 21.6268 19.4099C22.0765 18.9689 22.0765 18.2515 21.6268 17.8106L20.8601 17.055C22.3404 15.8882 24.1563 15.1167 26.1462 14.9005ZM47.8876 17.0946C46.0055 17.0946 44.4589 18.6189 44.4589 20.4739H43.31C42.6771 20.4764 42.1664 20.9846 42.1701 21.6084C42.1726 22.2278 42.6815 22.7295 43.31 22.7319H44.4589C44.4589 24.5868 46.0055 26.12 47.8876 26.12C49.7698 26.12 51.3275 24.5868 51.3275 22.7319H63.9137C64.5422 22.7294 65.0511 22.2278 65.0536 21.6084C65.0574 20.9846 64.5466 20.4763 63.9137 20.4739H51.3275C51.3275 18.6189 49.7698 17.0946 47.8876 17.0946ZM47.8876 19.3504C48.5414 19.3504 49.0387 19.8296 49.0387 20.4739V22.7319C49.0387 23.3762 48.5414 23.8642 47.8876 23.8642C47.2338 23.8642 46.7477 23.3762 46.7477 22.7319V20.4739C46.7477 19.8296 47.2338 19.3504 47.8876 19.3504ZM5.55151 25.9063V38.5312C5.55273 39.1515 6.06207 39.6544 6.69144 39.6569C7.32436 39.6593 7.8391 39.155 7.84031 38.5312V30.2989C7.84031 29.7568 7.96457 29.6794 8.11077 29.6006C8.25696 29.5217 8.59633 29.4737 9.05624 29.6578C9.97597 30.0262 11.1936 31.2622 11.269 33.72V38.5246C11.269 39.4634 11.751 40.2163 12.2503 40.8134C12.7496 41.4105 13.3163 41.9316 13.8462 42.5207C14.9059 43.6987 15.8431 45.0365 15.8489 47.5499C15.8514 48.1728 16.3657 48.6758 16.9977 48.6734C17.6263 48.6709 18.1352 48.1693 18.1377 47.5499H24.1704C24.0129 49.1548 23.5554 50.6129 23.0707 51.9535C22.6171 53.2079 22.3118 54.3092 22.0917 55.4429H6.69144V52.0527C6.69144 51.2068 6.44185 50.3439 6.10807 49.3056C5.77459 48.2673 5.33491 47.1076 4.90779 45.9264C4.05354 43.5639 3.26048 41.0411 3.26048 39.8397V30.2416C3.26048 29.3517 3.47894 28.2362 4.02937 27.3448C4.38664 26.7661 4.86102 26.2663 5.55151 25.9063ZM27.2951 26.12C28.5727 26.12 29.5839 27.1166 29.5839 28.3758H25.0063C25.0063 27.1166 26.0175 26.12 27.2951 26.12ZM58.1872 28.3758V43.0361C58.2218 44.507 60.4429 44.507 60.476 43.0361V38.5246C60.476 37.8802 60.9711 37.3901 61.6249 37.3901C62.2786 37.3901 62.7648 37.8802 62.7648 38.5246V43.0361C62.7994 44.5069 65.0205 44.5069 65.0536 43.0361V39.6481C65.0536 39.0037 65.5509 38.5246 66.2047 38.5246C66.8585 38.5246 67.3446 39.0037 67.3446 39.6481V43.0361C67.3792 44.5069 69.6003 44.5069 69.6334 43.0361V40.7804C69.6334 40.136 70.1196 39.6481 70.7734 39.6481C71.4271 39.6481 71.9222 40.136 71.9222 40.7804V50.9292C71.9222 52.3703 71.4356 53.601 70.8762 54.8415C70.4623 55.7594 69.9809 56.6758 69.7586 57.6987H55.4648L47.34 41.6549C46.8687 40.7244 47.0904 39.7578 47.9301 39.2802C48.7707 38.8018 49.7939 39.0687 50.2792 39.897L53.7683 45.8493C54.3577 46.8254 55.8762 46.4276 55.8962 45.2919C55.8962 39.6555 55.8962 34.0064 55.8962 28.3758C55.8962 27.7314 56.3935 27.2436 57.0473 27.2435C57.701 27.2433 58.1872 27.7314 58.1872 28.3758ZM17.0067 43.0361H45.4759L46.618 45.2919H17.8762C17.6724 44.4387 17.3668 43.6911 17.0067 43.0361ZM6.69144 57.6987H22.7175C23.3712 57.6987 23.8574 58.1779 23.8574 58.8222V68.971C23.8574 69.6154 23.3712 70.1033 22.7175 70.1033H6.69144C6.03772 70.1033 5.55151 69.6154 5.55151 68.971V58.8222C5.55151 58.1779 6.03772 57.6987 6.69144 57.6987ZM54.7562 59.9545H70.7734C71.4271 59.9545 71.9222 60.4337 71.9222 61.078V68.971C71.9222 69.6154 71.4271 70.1033 70.7734 70.1033H54.7562C54.1025 70.1033 53.6074 69.6154 53.6074 68.971V61.078C53.6074 60.4337 54.1025 59.9545 54.7562 59.9545Z" fill="#2C3B84"/>
</g>
<defs>
<clipPath id="clip0_515_476">
<rect width="73.1264" height="72.0715" fill="white" transform="translate(0.97168 0.17627)"/>
</clipPath>
</defs>
</svg>
