<svg width="74" height="73" viewBox="0 0 74 73" fill="none" xmlns="http://www.w3.org/2000/svg">
<g clip-path="url(#clip0_515_460)">
<path d="M13.2556 2.99156H13.2941C14.083 2.99156 14.7224 2.36142 14.7224 1.58392C14.7224 0.806412 14.083 0.17627 13.2941 0.17627H13.2556C12.4667 0.17627 11.8274 0.806412 11.8274 1.58392C11.8274 2.36142 12.4667 2.99156 13.2556 2.99156Z" fill="#2C3B84"/>
<path d="M69.2765 31.1445C71.6393 31.1445 73.5613 29.2502 73.5613 26.9216V4.39921C73.5613 2.07054 71.6393 0.17627 69.2765 0.17627H46.4245C44.0618 0.17627 42.1398 2.07054 42.1398 4.39921V14.2527H31.8564V4.39921C31.8564 2.07054 29.9344 0.17627 27.5716 0.17627H19.0021C18.2132 0.17627 17.5739 0.806412 17.5739 1.58392C17.5739 2.36142 18.2132 2.99156 19.0021 2.99156H27.5716C28.3588 2.99156 28.9999 3.62281 28.9999 4.39921V14.2527H20.1849C19.5952 12.6142 18.0073 11.4374 16.1456 11.4374C13.7829 11.4374 11.8608 13.3317 11.8608 15.6604C11.8608 17.9891 13.7829 19.8833 16.1456 19.8833C18.0073 19.8833 19.5952 18.7061 20.1849 17.068H28.9999V26.9216C28.9999 27.6974 28.3588 28.3292 27.5716 28.3292H4.7196C3.93183 28.3292 3.29135 27.6974 3.29135 26.9216V4.39921C3.29135 3.62281 3.93183 2.99156 4.7196 2.99156H9.15219C9.94108 2.99156 10.5804 2.36142 10.5804 1.58392C10.5804 0.806412 9.94108 0.17627 9.15219 0.17627H4.7196C2.35685 0.17627 0.434845 2.07054 0.434845 4.39921V26.9216C0.434845 29.2502 2.35685 31.1445 4.7196 31.1445H14.7174V41.2796H4.7196C2.35685 41.2796 0.434845 43.1738 0.434845 45.5025V68.0249C0.434845 70.3535 2.35685 72.2478 4.7196 72.2478H27.5716C29.9344 72.2478 31.8564 70.3535 31.8564 68.0249V58.1713H42.1398V68.0249C42.1398 70.3535 44.0618 72.2478 46.4245 72.2478H69.2765C71.6393 72.2478 73.5613 70.3535 73.5613 68.0249V45.5025C73.5613 43.1738 71.6393 41.2796 69.2765 41.2796H59.2788V31.1445H69.2765ZM16.1456 17.068C15.3584 17.068 14.7174 16.4362 14.7174 15.6604C14.7174 14.884 15.3584 14.2527 16.1456 14.2527C16.9334 14.2527 17.5739 14.884 17.5739 15.6604C17.5739 16.4362 16.9328 17.068 16.1456 17.068ZM44.9963 4.39921C44.9963 3.62281 45.6373 2.99156 46.4245 2.99156H69.2765C70.0643 2.99156 70.7048 3.62281 70.7048 4.39921V26.9216C70.7048 27.6974 70.0643 28.3292 69.2765 28.3292H59.2788V19.6414C60.9413 19.0602 62.1353 17.4953 62.1353 15.6604C62.1353 13.3317 60.2133 11.4374 57.8505 11.4374C55.4878 11.4374 53.5658 13.3317 53.5658 15.6604C53.5658 17.4953 54.7603 19.0602 56.4223 19.6414V28.3292H46.4245C45.6373 28.3292 44.9963 27.6974 44.9963 26.9216V4.39921ZM57.8505 17.068C57.0633 17.068 56.4223 16.4362 56.4223 15.6604C56.4223 14.884 57.0633 14.2527 57.8505 14.2527C58.6383 14.2527 59.2788 14.884 59.2788 15.6604C59.2788 16.4362 58.6383 17.068 57.8505 17.068ZM28.9999 68.0249C28.9999 68.8013 28.3588 69.4325 27.5716 69.4325H4.7196C3.93183 69.4325 3.29135 68.8013 3.29135 68.0249V45.5025C3.29135 44.7267 3.93183 44.0949 4.7196 44.0949H14.7174V52.7832C13.0548 53.3639 11.8608 54.9288 11.8608 56.7637C11.8608 59.0924 13.7829 60.9866 16.1456 60.9866C18.5084 60.9866 20.4304 59.0924 20.4304 56.7637C20.4304 54.9288 19.2359 53.3639 17.5739 52.7827V44.0949H27.5716C28.3588 44.0949 28.9999 44.7267 28.9999 45.5025V68.0249ZM16.1456 55.356C16.9334 55.356 17.5739 55.9878 17.5739 56.7637C17.5739 57.5401 16.9334 58.1713 16.1456 58.1713C15.3584 58.1713 14.7174 57.5401 14.7174 56.7637C14.7174 55.9878 15.3584 55.356 16.1456 55.356ZM70.7048 45.5025V68.0249C70.7048 68.8013 70.0643 69.4325 69.2765 69.4325H46.4245C45.6373 69.4325 44.9963 68.8013 44.9963 68.0249V58.1713H53.8112C54.401 59.8099 55.9888 60.9866 57.8505 60.9866C60.2133 60.9866 62.1353 59.0924 62.1353 56.7637C62.1353 54.435 60.2133 52.5407 57.8505 52.5407C55.9888 52.5407 54.401 53.718 53.8112 55.356H44.9963V45.5025C44.9963 44.7267 45.6373 44.0949 46.4245 44.0949H69.2765C70.0643 44.0949 70.7048 44.7267 70.7048 45.5025ZM56.4223 56.7637C56.4223 55.9878 57.0633 55.356 57.8505 55.356C58.6383 55.356 59.2788 55.9878 59.2788 56.7637C59.2788 57.5401 58.6383 58.1713 57.8505 58.1713C57.0633 58.1713 56.4223 57.5401 56.4223 56.7637ZM56.4223 41.2796H46.4245C44.0618 41.2796 42.1398 43.1738 42.1398 45.5025V55.356H31.8564V45.5025C31.8564 43.1738 29.9344 41.2796 27.5716 41.2796H17.5739V31.1445H27.5716C29.9344 31.1445 31.8564 29.2502 31.8564 26.9216V17.068H42.1398V26.9216C42.1398 29.2502 44.0618 31.1445 46.4245 31.1445H56.4223V41.2796Z" fill="#2C3B84"/>
<path d="M60.5592 66.6171C60.5592 67.3946 61.1985 68.0248 61.9874 68.0248H67.8483C68.6372 68.0248 69.2765 67.3946 69.2765 66.6171C69.2765 65.8396 68.6372 65.2095 67.8483 65.2095H61.9874C61.1985 65.2095 60.5592 65.8396 60.5592 66.6171Z" fill="#2C3B84"/>
<path d="M57.884 65.2095H57.8505C57.0616 65.2095 56.4223 65.8396 56.4223 66.6171C56.4223 67.3946 57.0616 68.0248 57.8505 68.0248H57.884C58.6729 68.0248 59.3122 67.3946 59.3122 66.6171C59.3122 65.8396 58.6729 65.2095 57.884 65.2095Z" fill="#2C3B84"/>
</g>
<defs>
<clipPath id="clip0_515_460">
<rect width="73.1264" height="72.0715" fill="white" transform="translate(0.434845 0.17627)"/>
</clipPath>
</defs>
</svg>
