<svg width="74" height="73" viewBox="0 0 74 73" fill="none" xmlns="http://www.w3.org/2000/svg">
<g clip-path="url(#clip0_515_466)">
<path d="M16.3855 13.0163L16.456 16.3245C16.463 16.6546 16.6263 16.9625 16.8973 17.1564C17.0824 17.289 17.3034 17.3581 17.5269 17.3581C17.6307 17.3581 17.7349 17.3434 17.8364 17.3131L21.0521 16.3565L24.2678 17.3131C24.5883 17.4085 24.9361 17.351 25.2069 17.1566C25.4778 16.9625 25.6412 16.6547 25.6482 16.3247L25.7186 13.0164L27.6341 10.2958C27.8249 10.0247 27.8762 9.68126 27.7726 9.36736C27.6691 9.05345 27.4224 8.80543 27.1062 8.6969L23.9353 7.60893L21.9055 4.97268C21.703 4.70974 21.3872 4.55518 21.0521 4.55518C20.7171 4.55518 20.4014 4.70974 20.1989 4.97268L18.1688 7.60878L14.9979 8.69675C14.6817 8.80528 14.4352 9.05331 14.3315 9.36722C14.2278 9.68112 14.2792 10.0246 14.47 10.2957L16.3855 13.0163ZM19.1787 9.49813C19.3779 9.42986 19.5522 9.305 19.6797 9.13932L21.0521 7.35724L22.4242 9.13932C22.5519 9.305 22.7262 9.42972 22.9254 9.49813L25.0699 10.234L23.7744 12.0741C23.6543 12.2446 23.5878 12.4463 23.5836 12.6538L23.536 14.8898L21.3616 14.243C21.16 14.1828 20.9443 14.1828 20.7426 14.243L18.5683 14.8898L18.5205 12.6538C18.5163 12.4462 18.4499 12.2446 18.3297 12.0741L17.0342 10.234L19.1787 9.49813Z" fill="#A92D94"/>
<path d="M32.602 8.63369L32.6725 11.9415C32.6795 12.2715 32.8425 12.579 33.1134 12.7732C33.3842 12.9674 33.7316 13.0253 34.0519 12.9304L37.2685 11.9771L40.485 12.9304C40.5863 12.9604 40.6903 12.975 40.7935 12.975C41.0172 12.975 41.2383 12.9059 41.4235 12.773C41.6943 12.5789 41.8575 12.2713 41.8644 11.9414L41.935 8.63355L43.85 5.91708C44.0411 5.6461 44.0925 5.30278 43.9893 4.98887C43.886 4.67497 43.6398 4.4268 43.3237 4.31799L40.1517 3.2258L38.1213 0.593215C37.9189 0.330688 37.6036 0.17641 37.2689 0.17627C37.2688 0.17627 37.2686 0.17627 37.2685 0.17627C36.934 0.17627 36.6188 0.330266 36.4162 0.592511L34.3816 3.22608L31.213 4.31841C30.8969 4.42722 30.6508 4.67539 30.5476 4.9893C30.4443 5.30306 30.496 5.64653 30.687 5.91736L32.602 8.63369ZM35.3925 5.11444C35.5907 5.04631 35.7641 4.92215 35.8911 4.7576L37.2678 2.9758L38.6413 4.75675C38.7686 4.92187 38.9422 5.04631 39.1408 5.11458L41.2863 5.85331L39.9912 7.69057C39.8708 7.86118 39.8042 8.06303 39.7999 8.2708L39.7522 10.5084L37.577 9.8637C37.4763 9.83385 37.3723 9.81907 37.2685 9.81907C37.1647 9.81907 37.0607 9.83385 36.96 9.8637L34.7849 10.5084L34.7372 8.2708C34.7329 8.06289 34.6664 7.86118 34.546 7.69057L33.2505 5.85289L35.3925 5.11444Z" fill="#A92D94"/>
<path d="M48.8149 13.0164L48.889 16.3258C48.8964 16.6557 49.0598 16.9632 49.3308 17.157C49.6018 17.351 49.9493 17.4085 50.2694 17.3131L53.485 16.3566L56.6963 17.3131C56.7979 17.3434 56.9024 17.3581 57.0062 17.3581C57.2294 17.3581 57.4501 17.2893 57.6352 17.1569C57.9061 16.9632 58.0697 16.6555 58.0771 16.3256L58.1512 13.0168L60.0672 10.2958C60.258 10.0246 60.3093 9.68112 60.2058 9.36722C60.1022 9.05331 59.8557 8.80528 59.5393 8.69675L56.3685 7.60878L54.3384 4.97268C54.136 4.70988 53.8205 4.55532 53.4855 4.55518C53.4854 4.55518 53.4853 4.55518 53.4851 4.55518C53.1505 4.55518 52.835 4.70945 52.6323 4.97198L50.5982 7.60864L47.4305 8.69675C47.1146 8.80528 46.868 9.05303 46.7646 9.3668C46.6609 9.68042 46.7119 10.0237 46.9025 10.2949L48.8149 13.0164ZM51.608 9.49813C51.8068 9.42986 51.9806 9.30542 52.1081 9.14016L53.4843 7.35639L54.8574 9.13946C54.9849 9.30514 55.1592 9.42986 55.3584 9.49827L57.5029 10.2342L56.2072 12.0741C56.0874 12.2444 56.021 12.4457 56.0164 12.6528L55.9663 14.89L53.7949 14.2432C53.5928 14.1829 53.3773 14.1828 53.1755 14.2432L50.9997 14.8904L50.9495 12.6528C50.945 12.4459 50.8787 12.245 50.7593 12.075L49.4654 10.2342L51.608 9.49813Z" fill="#A92D94"/>
<path d="M52.2585 30.1243C52.2585 26.1778 50.6986 22.4679 47.8664 19.6787C42.0238 13.9203 32.5137 13.9203 26.6666 19.6787C20.8242 25.4369 20.824 34.81 26.6669 40.5734C29.5903 43.4524 33.4293 44.892 37.2681 44.892C41.1068 44.892 44.945 43.4523 47.8664 40.5729C50.6987 37.7813 52.2585 34.0705 52.2585 30.1243ZM28.1814 21.1719C30.6874 18.7037 33.9774 17.4701 37.2679 17.4701C40.5577 17.4701 43.848 18.7043 46.3517 21.1719C48.7793 23.5626 50.1162 26.742 50.1162 30.1243C50.1162 33.3254 48.917 36.3448 46.7305 38.6875C46.1585 36.3019 44.6678 34.1994 42.5633 32.8458C43.4627 31.7176 44.001 30.2974 44.001 28.7548C44.001 25.0959 40.9808 22.1191 37.2683 22.1191C33.5559 22.1191 30.5359 25.0957 30.5359 28.7548C30.5359 30.2975 31.0743 31.7177 31.9735 32.8459C29.8683 34.2 28.3773 36.3034 27.8058 38.6901C23.1795 33.7266 23.3033 25.9796 28.1814 21.1719ZM32.6784 28.7548C32.6784 26.2601 34.7375 24.2306 37.2685 24.2306C39.7996 24.2306 41.8587 26.2601 41.8587 28.7548C41.8587 31.2494 39.7996 33.2789 37.2685 33.2789C34.7375 33.2789 32.6784 31.2494 32.6784 28.7548ZM29.7075 40.3646C29.8834 37.8391 31.3657 35.5585 33.624 34.3297C34.6753 34.9996 35.9261 35.3904 37.2685 35.3904C38.6109 35.3904 39.8616 34.9996 40.9129 34.3297C43.1706 35.5582 44.6527 37.8379 44.8295 40.3625C40.3426 43.5859 34.1973 43.5866 29.7075 40.3646Z" fill="#A92D94"/>
<path d="M71.9304 23.2069C71.1903 22.3785 70.1692 21.8838 69.0552 21.8135C67.942 21.742 66.8665 22.1067 66.0254 22.8376C65.48 23.3113 65.0782 23.9016 64.8431 24.5572C64.6555 24.5192 64.4645 24.4923 64.2711 24.4793C63.1601 24.4082 62.0822 24.7723 61.2399 25.5028C60.3978 26.233 59.895 27.2389 59.8235 28.3375L59.7016 30.2733L59.1333 39.088C58.8429 39.2368 58.559 39.4128 58.285 39.617C58.2712 39.6271 58.2578 39.6378 58.2443 39.6488L50.7843 45.7888C47.502 48.4877 47.1711 50.84 46.8692 54.7655L46.3957 60.9503H45.2285C43.9011 60.9503 42.8212 62.0165 42.8212 63.327V69.8755C42.8212 71.1838 43.9013 72.2481 45.2285 72.2481H52.096C52.6877 72.2481 53.1672 71.7756 53.1672 71.1924C53.1672 70.6092 52.6877 70.1366 52.096 70.1366H45.2285C45.0849 70.1366 44.9636 70.017 44.9636 69.8755V63.327C44.9636 63.1833 45.085 63.0618 45.2285 63.0618H63.9182C64.0619 63.0618 64.1831 63.1831 64.1831 63.327V69.8755C64.1831 70.0171 64.0617 70.1366 63.9182 70.1366H57.0549C56.4632 70.1366 55.9837 70.6092 55.9837 71.1924C55.9837 71.7756 56.4632 72.2481 57.0549 72.2481H63.9183C65.2458 72.2481 66.3257 71.1836 66.3257 69.8755V63.327C66.3257 62.0165 65.2456 60.9503 63.9183 60.9503H63.2535C68.6997 55.3648 71.4785 49.2987 71.9484 42.0431L72.9677 26.1929C73.039 25.0959 72.6707 24.0356 71.9304 23.2069ZM61.84 30.4055L61.9618 28.4703C61.9965 27.9366 62.2429 27.4458 62.6552 27.088C63.0677 26.7303 63.593 26.5517 64.1297 26.5863C64.273 26.596 64.4124 26.6229 64.5479 26.6598L63.7442 39.1203C63.4752 38.9618 63.1862 38.8292 62.8797 38.7292C62.373 38.564 61.8467 38.4933 61.3175 38.5098L61.84 30.4055ZM70.8295 26.0584L69.8102 41.9089C69.3336 49.2664 66.2771 55.3268 60.2046 60.9503H48.5439L49.0053 54.9249C49.2858 51.2801 49.5207 49.5774 52.157 47.4098L59.5965 41.2868C60.7458 40.4403 61.7241 40.5765 62.2064 40.7336C62.8547 40.945 63.347 41.426 63.5236 42.021C63.7658 42.8352 63.4152 43.7592 62.5351 44.6239C61.9545 45.1961 61.0493 46.124 60.0909 47.1064C58.7905 48.4396 57.3163 49.9504 56.6006 50.6217C56.1719 51.0235 56.1551 51.692 56.5629 52.1144C56.9705 52.5367 57.6486 52.5534 58.0774 52.1516C58.8278 51.448 60.255 49.9849 61.6353 48.5701C62.5862 47.5954 63.4843 46.6747 64.0489 46.1182C65.3119 44.8774 65.8956 43.4087 65.7045 42.0086L66.7496 25.8046C66.7843 25.2703 67.0302 24.7792 67.4418 24.4217C67.853 24.0646 68.3758 23.8866 68.9182 23.9206C69.4615 23.955 69.9601 24.1971 70.3223 24.6025C70.6842 25.0072 70.8645 25.5241 70.8295 26.0584Z" fill="#A92D94"/>
<path d="M29.3084 60.9502H28.1412L27.6676 54.7651C27.3658 50.8424 27.0352 48.4915 23.7529 45.789L16.2925 39.6487C16.279 39.6377 16.2655 39.6272 16.2516 39.6166C15.9708 39.4076 15.6872 39.232 15.4031 39.0848L14.7091 28.3351C14.6378 27.2389 14.1358 26.2331 13.2957 25.5032C12.4545 24.7725 11.3773 24.4081 10.2623 24.4796C10.0684 24.4926 9.87877 24.5187 9.6931 24.5559C9.45758 23.9008 9.0551 23.3107 8.50894 22.837C7.6667 22.1067 6.58951 21.742 5.47776 21.8135C3.17285 21.9591 1.41767 23.9237 1.56521 26.1923L2.58869 42.043C3.05545 49.2977 5.83268 55.3639 11.2795 60.9502H10.6186C9.29119 60.9502 8.21129 62.0163 8.21129 63.3269V69.8754C8.21129 71.1836 9.29133 72.248 10.6186 72.248H17.4821C18.0738 72.248 18.5532 71.7754 18.5532 71.1922C18.5532 70.609 18.0738 70.1365 17.4821 70.1365H10.6187C10.4751 70.1365 10.3538 70.0168 10.3538 69.8754V63.3269C10.3538 63.1831 10.4752 63.0617 10.6187 63.0617H29.3084C29.4521 63.0617 29.5733 63.183 29.5733 63.3269V69.8754C29.5733 70.017 29.4519 70.1365 29.3084 70.1365H22.4449C21.8532 70.1365 21.3738 70.609 21.3738 71.1922C21.3738 71.7754 21.8532 72.248 22.4449 72.248H29.3084C30.6358 72.248 31.7157 71.1835 31.7157 69.8754V63.3269C31.7159 62.0163 30.6358 60.9502 29.3084 60.9502ZM10.4031 26.5864C10.9435 26.5533 11.4678 26.7301 11.879 27.0874C12.2907 27.445 12.5366 27.9361 12.5712 28.4699L13.2187 38.5003C12.3245 38.4746 11.489 38.7077 10.7927 39.119L9.98889 26.6586C10.1226 26.6223 10.2601 26.596 10.4031 26.5864ZM4.72679 41.9091L3.7033 26.0579C3.63132 24.9506 4.4887 23.9919 5.61473 23.9206C6.15789 23.8875 6.68135 24.0645 7.09368 24.4222C7.50602 24.7799 7.75239 25.2708 7.78695 25.8039L7.80324 26.0564C7.80381 26.0679 7.80452 26.0793 7.80538 26.0907L8.83101 41.9917C8.64948 43.2586 9.07766 44.7323 10.4836 46.1178C11.0618 46.6861 11.9819 47.6286 12.9562 48.6267C14.3146 50.0183 15.7193 51.4572 16.4594 52.1513C16.8882 52.553 17.566 52.5365 17.974 52.1141C18.3819 51.6917 18.3649 51.0233 17.9362 50.6214C17.2303 49.9596 15.8423 48.5376 14.5 47.1627C13.518 46.1567 12.5903 45.2064 11.9976 44.6237C10.6156 43.2617 10.7786 42.0344 11.3917 41.3403C12.102 40.5356 13.5467 40.2614 14.9405 41.2866L22.3797 47.4093C25.0164 49.5801 25.2513 51.282 25.5315 54.9242L25.9929 60.9501H14.3282C8.25514 55.3261 5.19996 49.2657 4.72679 41.9091Z" fill="#A92D94"/>
</g>
<defs>
<clipPath id="clip0_515_466">
<rect width="73.1264" height="72.0715" fill="white" transform="translate(0.703247 0.17627)"/>
</clipPath>
</defs>
</svg>
