<svg width="86" height="85" viewBox="0 0 86 85" fill="none" xmlns="http://www.w3.org/2000/svg">
<path d="M46.412 22.0097C46.3609 22.7003 45.7791 23.2342 45.2362 23.2382C44.6933 23.2422 44.3359 23.0881 44.0819 22.8172C43.8266 22.5463 43.6976 22.1837 43.7258 21.8145C44.5079 13.1445 52.2196 5.97656 61.1408 5.97656C70.7822 5.97656 78.6096 13.7129 78.6096 23.2422C78.6096 25.9901 77.1408 30.588 75.0244 35.6602C70.2568 47.0887 62.3126 61.0791 62.3126 61.0791C62.0747 61.4988 61.6272 61.7578 61.1408 61.7578C60.6544 61.7578 60.2069 61.4988 59.9691 61.0791C59.9691 61.0791 58.2437 58.0404 55.9176 53.639C55.8182 53.4491 55.7658 53.2392 55.7658 53.0254V53.0214C55.7658 52.4105 56.1891 51.8792 56.7884 51.7345C57.3891 51.5884 58.0112 51.8673 58.2974 52.4078C59.4356 54.5594 60.4273 56.3816 61.1408 57.6765C63.5085 53.3813 68.9413 43.2756 72.5412 34.6481C74.4883 29.9798 75.9221 25.7723 75.9221 23.2422C75.9221 15.1791 69.2987 8.63281 61.1408 8.63281C53.4021 8.63281 47.0449 14.523 46.412 22.0097Z" fill="#A92D94"/>
<path d="M61.1408 16.6016C57.4331 16.6016 54.4221 19.5776 54.4221 23.2422C54.4221 26.9067 57.4331 29.8828 61.1408 29.8828C64.8485 29.8828 67.8596 26.9067 67.8596 23.2422C67.8596 19.5776 64.8485 16.6016 61.1408 16.6016ZM61.1408 19.2578C63.3661 19.2578 65.1721 21.0428 65.1721 23.2422C65.1721 25.4416 63.3661 27.2266 61.1408 27.2266C58.9156 27.2266 57.1096 25.4416 57.1096 23.2422C57.1096 21.0428 58.9156 19.2578 61.1408 19.2578Z" fill="#A92D94"/>
<path d="M8.73456 79.0234C7.99243 79.0234 7.39081 78.4288 7.39081 77.6953C7.39081 76.9618 7.99243 76.3672 8.73456 76.3672C9.47669 76.3672 10.0783 76.9618 10.0783 77.6953C10.0783 78.4288 9.47669 79.0234 8.73456 79.0234Z" fill="#A92D94"/>
<path d="M27.5471 79.0234C26.8049 79.0234 26.2033 78.4288 26.2033 77.6953C26.2033 76.9618 26.8049 76.3672 27.5471 76.3672C28.2892 76.3672 28.8908 76.9618 28.8908 77.6953C28.8908 78.4288 28.2892 79.0234 27.5471 79.0234Z" fill="#A92D94"/>
<path d="M53.0783 79.0234C52.3362 79.0234 51.7346 78.4288 51.7346 77.6953C51.7346 76.9618 52.3362 76.3672 53.0783 76.3672C53.8204 76.3672 54.4221 76.9618 54.4221 77.6953C54.4221 78.4288 53.8204 79.0234 53.0783 79.0234Z" fill="#A92D94"/>
<path d="M28.892 60.4302C28.892 59.7257 28.6086 59.05 28.1044 58.552C27.6008 58.0539 26.9173 57.7739 26.2041 57.7739H20.8295C20.1163 57.7739 19.4328 58.0539 18.9292 58.552C18.425 59.05 18.1416 59.7257 18.1416 60.4302V64.4146C18.1416 65.119 18.425 65.7947 18.9292 66.2927C19.4328 66.7908 20.1163 67.0708 20.8295 67.0708H26.2041C26.9173 67.0708 27.6008 66.7908 28.1044 66.2927C28.6086 65.7947 28.892 65.119 28.892 64.4146V60.4302ZM26.2041 60.4302H20.8295V64.4146H26.2041V60.4302Z" fill="#A92D94"/>
<path d="M18.1408 25.8984H42.3283C44.4985 25.8984 46.4563 27.188 47.2908 29.1683L52.9749 42.6527C53.0434 42.8174 53.0783 42.9914 53.0783 43.1641V48.4766C53.0783 51.1992 51.4201 53.5394 49.0471 54.5647V72.3828C49.0471 73.1159 48.4464 73.7109 47.7033 73.7109H12.7658C12.0241 73.7109 11.4221 73.1159 11.4221 72.3828V54.5634C10.6602 54.234 9.95873 53.7652 9.35942 53.1728C8.09898 51.927 7.39083 50.2377 7.39083 48.4766V43.1999C7.3868 43.0153 7.42039 42.8294 7.49429 42.6527C7.49429 42.6527 11.2958 33.6374 13.1797 29.167C14.0142 27.188 15.972 25.8984 18.1408 25.8984ZM40.9846 52.4609C39.7591 54.0746 37.808 55.1172 35.8179 55.1172C33.8278 55.1172 32.1185 54.4173 30.8581 53.1728C30.6323 52.9484 30.424 52.7106 30.2346 52.4609C29.0091 54.0746 27.058 55.1172 25.0679 55.1172C23.0778 55.1172 21.3685 54.4173 20.1081 53.1728C19.8823 52.9484 19.674 52.712 19.4846 52.4623C18.2591 54.0746 16.308 55.1172 14.1096 55.1172V71.0547H31.5783V61.7578C31.5783 59.5571 33.3843 57.7734 35.6096 57.7734H38.2971C40.5237 57.7734 42.3283 59.5571 42.3283 61.7578V71.0547H46.3596C46.3596 65.7422 46.3596 60.4297 46.3596 55.1172C44.5778 55.1172 42.8685 54.4173 41.6081 53.1728C41.3823 52.9484 41.174 52.7106 40.9846 52.4609ZM39.6408 71.0547V61.7578C39.6408 61.0247 39.0402 60.4297 38.2971 60.4297H35.6096C34.8678 60.4297 34.2658 61.0247 34.2658 61.7578V71.0547H39.6408ZM50.3908 44.4922H42.3283V48.4766C42.3283 49.5338 42.753 50.5471 43.5095 51.2935C44.2647 52.0412 45.29 52.4609 46.3596 52.4609C48.5862 52.4609 50.3908 50.6773 50.3908 48.4766V44.4922ZM18.1408 44.4922H10.0783V48.4766C10.0783 49.5338 10.503 50.5471 11.2595 51.2935C12.016 52.0412 13.0413 52.4609 14.1096 52.4609C16.3187 52.4609 18.114 50.7038 18.1408 48.527V44.4922ZM28.8908 44.4922H20.8283V48.527C20.8418 49.5656 21.265 50.5591 22.0095 51.2935C22.7647 52.0412 23.79 52.4609 24.8596 52.4609C27.0862 52.4609 28.8908 50.6773 28.8908 48.4766V44.4922ZM39.6408 44.4922H31.5783V48.4766C31.5783 49.5338 32.003 50.5471 32.7595 51.2935C33.5147 52.0412 34.54 52.4609 35.6096 52.4609C37.8362 52.4609 39.6408 50.6773 39.6408 48.4766V44.4922ZM28.8908 28.5547H24.5653L21.2059 41.8359H28.8908V28.5547ZM35.9039 28.5547H31.5783V41.8359H39.2632L35.9039 28.5547ZM49.719 41.8359L44.8089 30.1896C44.3923 29.2002 43.4141 28.5547 42.3283 28.5547H38.6747L42.0327 41.8359H49.719ZM21.7945 28.5547H18.1408C17.0564 28.5547 16.0782 29.1988 15.6603 30.1896L10.7502 41.8359H18.4365L21.7945 28.5547Z" fill="#A92D94"/>
<path d="M14.1094 79.0234H22.172C22.9136 79.0234 23.5157 78.4284 23.5157 77.6953C23.5157 76.9622 22.9136 76.3672 22.172 76.3672H14.1094C13.3679 76.3672 12.7657 76.9622 12.7657 77.6953C12.7657 78.4284 13.3679 79.0234 14.1094 79.0234Z" fill="#A92D94"/>
<path d="M32.923 79.0234H47.7032C48.4447 79.0234 49.0469 78.4284 49.0469 77.6953C49.0469 76.9622 48.4447 76.3672 47.7032 76.3672H32.923C32.1814 76.3672 31.5792 76.9622 31.5792 77.6953C31.5792 78.4284 32.1814 79.0234 32.923 79.0234Z" fill="#A92D94"/>
</svg>
