<svg width="79" height="77" viewBox="0 0 79 77" fill="none" xmlns="http://www.w3.org/2000/svg">
<path d="M43.0045 30.7331C43.0045 31.3502 43.5126 31.8509 44.1387 31.8509H46.0291V45.1159H32.5699V31.8509H39.2995C39.9257 31.8509 40.4337 31.3502 40.4337 30.7331C40.4337 30.1159 39.9257 29.6152 39.2995 29.6152H32.0406C31.0819 29.6152 30.3015 30.3843 30.3015 31.3293V45.6376C30.3015 46.5825 31.0819 47.3516 32.0406 47.3516H46.5584C47.5171 47.3516 48.2975 46.5825 48.2975 45.6376V31.3293C48.2975 30.3843 47.5171 29.6152 46.5584 29.6152H44.1387C43.5126 29.6152 43.0045 30.1159 43.0045 30.7331Z" fill="#A92D94"/>
<path d="M6.86141 4.79932C5.90266 4.79932 5.12231 5.56841 5.12231 6.51333V14.2637C5.12231 15.2086 5.90266 15.9777 6.86141 15.9777H14.7252C15.6839 15.9777 16.4643 15.2086 16.4643 14.2637V6.51333C16.4643 5.56841 15.6839 4.79932 14.7252 4.79932H6.86141ZM14.1959 13.742H7.3907V7.03499H14.1959V13.742Z" fill="#A92D94"/>
<path d="M14.7252 60.9893H6.86141C5.90266 60.9893 5.12231 61.7584 5.12231 62.7033V70.4536C5.12231 71.3985 5.90266 72.1676 6.86141 72.1676H14.7252C15.6839 72.1676 16.4643 71.3985 16.4643 70.4536V62.7033C16.4643 61.7584 15.6839 60.9893 14.7252 60.9893ZM14.1959 69.932H7.3907V63.2249H14.1959V69.932Z" fill="#A92D94"/>
<path d="M60.5468 20.4492H75.0646C76.6908 20.4492 78.0135 19.1456 78.0135 17.5428V3.2345C78.0135 1.63169 76.6908 0.328125 75.0646 0.328125H60.5468C58.9206 0.328125 57.5979 1.63169 57.5979 3.2345V9.27082H43.9875C43.3614 9.27082 42.8533 9.77152 42.8533 10.3887V25.1441H36.653V20.7787C37.9733 20.317 38.9214 19.0746 38.9214 17.6173C38.9214 15.7683 37.395 14.2638 35.5188 14.2638C33.6427 14.2638 32.1162 15.7683 32.1162 17.6173C32.1162 19.0746 33.0644 20.317 34.3846 20.7787V25.1441H29.3174C27.3585 25.1441 25.7647 26.7149 25.7647 28.6455V35.1301H11.9275V20.4492H18.0522C19.6784 20.4492 21.0011 19.1456 21.0011 17.5428V14.6364C21.0011 14.0193 20.4931 13.5186 19.8669 13.5186C19.2407 13.5186 18.7327 14.0193 18.7327 14.6364V17.5428C18.7327 17.9125 18.4273 18.2135 18.0522 18.2135H3.53443C3.15931 18.2135 2.85391 17.9125 2.85391 17.5428V3.2345C2.85391 2.8648 3.15931 2.5638 3.53443 2.5638H18.0522C18.4273 2.5638 18.7327 2.8648 18.7327 3.2345V9.867C18.7327 10.4841 19.2407 10.9848 19.8669 10.9848C20.4931 10.9848 21.0011 10.4841 21.0011 9.867V3.2345C21.0011 1.63169 19.6784 0.328125 18.0522 0.328125H3.53443C1.90815 0.328125 0.58551 1.63169 0.58551 3.2345V17.5428C0.58551 19.1456 1.90815 20.4492 3.53443 20.4492H9.6591V36.248C9.6591 36.8651 10.1671 37.3658 10.7933 37.3658H25.7647V42.1352H24.2087C23.7403 40.834 22.4797 39.8996 21.0011 39.8996C19.1249 39.8996 17.5985 41.404 17.5985 43.2531C17.5985 45.1022 19.1249 46.6066 21.0011 46.6066C22.4797 46.6066 23.7403 45.6721 24.2087 44.3709H25.7647V48.3218C25.7647 50.2524 27.3585 51.8232 29.3174 51.8232H34.3846V65.101H21.0011V59.4245C21.0011 57.8216 19.6784 56.5181 18.0522 56.5181H3.53443C1.90815 56.5181 0.58551 57.8216 0.58551 59.4245V73.7328C0.58551 75.3356 1.90815 76.6392 3.53443 76.6392H18.0522C19.6784 76.6392 21.0011 75.3356 21.0011 73.7328V67.3366H35.5188C36.145 67.3366 36.653 66.836 36.653 66.2188V51.8232H42.8533V56.7847C41.533 57.2464 40.5849 58.4888 40.5849 59.9461C40.5849 61.7952 42.1114 63.2996 43.9875 63.2996C45.8637 63.2996 47.3901 61.7952 47.3901 59.9461C47.3901 58.4888 46.442 57.2464 45.1217 56.7847V51.8232H49.2816C51.2405 51.8232 52.8343 50.2524 52.8343 48.3218V40.7117H66.6733V56.5181H60.5468C58.9206 56.5181 57.5979 57.8216 57.5979 59.4245V62.3308C57.5979 62.948 58.1059 63.4487 58.7321 63.4487C59.3583 63.4487 59.8663 62.948 59.8663 62.3308V59.4245C59.8663 59.0548 60.1717 58.7538 60.5468 58.7538H75.0646C75.4397 58.7538 75.7451 59.0548 75.7451 59.4245V73.7328C75.7451 74.1025 75.4397 74.4035 75.0646 74.4035H60.5468C60.1717 74.4035 59.8663 74.1025 59.8663 73.7328V67.0816C59.8663 66.4645 59.3583 65.9638 58.7321 65.9638C58.1059 65.9638 57.5979 66.4645 57.5979 67.0816V73.7328C57.5979 75.3356 58.9206 76.6392 60.5468 76.6392H75.0646C76.6908 76.6392 78.0135 75.3356 78.0135 73.7328V59.4245C78.0135 57.8216 76.6908 56.5181 75.0646 56.5181H68.9417V39.5939C68.9417 38.9768 68.4336 38.4761 67.8075 38.4761H52.8343V34.683H58.2388C58.7073 35.9842 59.9679 36.9187 61.4465 36.9187C63.3227 36.9187 64.8491 35.4142 64.8491 33.5652C64.8491 31.7161 63.3227 30.2116 61.4465 30.2116C59.9679 30.2116 58.7073 31.1461 58.2388 32.4473H52.8343V28.6455C52.8343 26.7149 51.2405 25.1441 49.2816 25.1441H45.1217V11.5065H57.5979V17.5428C57.5979 19.1456 58.9206 20.4492 60.5468 20.4492ZM35.5188 16.4995C36.1444 16.4995 36.653 17.0008 36.653 17.6173C36.653 18.2339 36.1444 18.7352 35.5188 18.7352C34.8933 18.7352 34.3846 18.2339 34.3846 17.6173C34.3846 17.0008 34.8933 16.4995 35.5188 16.4995ZM21.0011 44.3709C20.3755 44.3709 19.8669 43.8696 19.8669 43.2531C19.8669 42.6365 20.3755 42.1352 21.0011 42.1352C21.6267 42.1352 22.1353 42.6365 22.1353 43.2531C22.1353 43.8696 21.6267 44.3709 21.0011 44.3709ZM18.7327 73.7328C18.7327 74.1025 18.4273 74.4035 18.0522 74.4035H3.53443C3.15931 74.4035 2.85391 74.1025 2.85391 73.7328V59.4245C2.85391 59.0548 3.15931 58.7538 3.53443 58.7538H18.0522C18.4273 58.7538 18.7327 59.0548 18.7327 59.4245V73.7328ZM43.9875 61.064C43.3619 61.064 42.8533 60.5627 42.8533 59.9461C42.8533 59.3296 43.3619 58.8283 43.9875 58.8283C44.6131 58.8283 45.1217 59.3296 45.1217 59.9461C45.1217 60.5627 44.6131 61.064 43.9875 61.064ZM61.4465 32.4473C62.0721 32.4473 62.5807 32.9486 62.5807 33.5652C62.5807 34.1817 62.0721 34.683 61.4465 34.683C60.8209 34.683 60.3123 34.1817 60.3123 33.5652C60.3123 32.9486 60.8209 32.4473 61.4465 32.4473ZM50.5659 28.6455V48.3218C50.5659 49.0198 49.9899 49.5875 49.2816 49.5875H29.3174C28.6091 49.5875 28.0331 49.0198 28.0331 48.3218V28.6455C28.0331 27.9474 28.6091 27.3798 29.3174 27.3798H49.2816C49.9899 27.3798 50.5659 27.9474 50.5659 28.6455ZM60.5468 2.5638H75.0646C75.4397 2.5638 75.7451 2.8648 75.7451 3.2345V17.5428C75.7451 17.9125 75.4397 18.2135 75.0646 18.2135H60.5468C60.1717 18.2135 59.8663 17.9125 59.8663 17.5428V10.4178C59.8669 10.4079 59.8681 10.3986 59.8681 10.3887C59.8681 10.3788 59.8669 10.3694 59.8663 10.3596V3.2345C59.8663 2.8648 60.1717 2.5638 60.5468 2.5638Z" fill="#A92D94"/>
<path d="M63.8738 15.9777H71.7376C72.6963 15.9777 73.4767 15.2086 73.4767 14.2637V6.51333C73.4767 5.56841 72.6963 4.79932 71.7376 4.79932H63.8738C62.9151 4.79932 62.1347 5.56841 62.1347 6.51333V14.2637C62.1347 15.2086 62.9151 15.9777 63.8738 15.9777ZM64.4031 7.03499H71.2083V13.742H64.4031V7.03499Z" fill="#A92D94"/>
<path d="M71.7376 72.1676C72.6963 72.1676 73.4767 71.3985 73.4767 70.4536V62.7033C73.4767 61.7584 72.6963 60.9893 71.7376 60.9893H63.8738C62.9151 60.9893 62.1347 61.7584 62.1347 62.7033V70.4536C62.1347 71.3985 62.9151 72.1676 63.8738 72.1676H71.7376ZM64.4031 63.2249H71.2083V69.932H64.4031V63.2249Z" fill="#A92D94"/>
</svg>
