<svg width="80" height="79" viewBox="0 0 80 79" fill="none" xmlns="http://www.w3.org/2000/svg">
<g clip-path="url(#clip0_515_416)">
<path d="M24.8293 16.1146C24.1449 16.1146 23.59 16.6614 23.59 17.3361C23.59 18.8177 22.3669 20.0232 20.8635 20.0232C19.3602 20.0232 18.1371 18.8177 18.1371 17.3361C18.1371 15.8544 19.3602 14.6489 20.8635 14.6489C21.5479 14.6489 22.1028 14.1021 22.1028 13.4275C22.1028 12.7529 21.548 12.2061 20.8635 12.2061C17.9935 12.2061 15.6586 14.5074 15.6586 17.3359C15.6586 20.1644 17.9936 22.4658 20.8635 22.4658C23.7334 22.4658 26.0685 20.1644 26.0685 17.3359C26.0686 16.6614 25.5137 16.1146 24.8293 16.1146Z" fill="#2C3B84"/>
<path d="M24.8293 30.4457C24.1449 30.4457 23.59 30.9925 23.59 31.6671C23.59 33.1488 22.3669 34.3542 20.8635 34.3542C19.3602 34.3542 18.1371 33.1488 18.1371 31.6671C18.1371 30.1855 19.3602 28.98 20.8635 28.98C21.5479 28.98 22.1028 28.4332 22.1028 27.7586C22.1028 27.0839 21.548 26.5371 20.8635 26.5371C17.9935 26.5371 15.6586 28.8385 15.6586 31.667C15.6586 34.4955 17.9936 36.7968 20.8635 36.7968C23.7334 36.7968 26.0685 34.4955 26.0685 31.667C26.0686 30.9926 25.5137 30.4457 24.8293 30.4457Z" fill="#2C3B84"/>
<path d="M39.3701 33.0513H30.1168C29.4324 33.0513 28.8775 33.5981 28.8775 34.2727C28.8775 34.9474 29.4323 35.4942 30.1168 35.4942H39.3701C40.0544 35.4942 40.6094 34.9474 40.6094 34.2727C40.6094 33.5981 40.0546 33.0513 39.3701 33.0513Z" fill="#2C3B84"/>
<path d="M39.3701 27.8398H30.1168C29.4324 27.8398 28.8775 28.3867 28.8775 29.0613C28.8775 29.7359 29.4323 30.2827 30.1168 30.2827H39.3701C40.0544 30.2827 40.6094 29.7359 40.6094 29.0613C40.6094 28.3867 40.0546 27.8398 39.3701 27.8398Z" fill="#2C3B84"/>
<path d="M36.7263 47.3823H30.1168C29.4324 47.3823 28.8775 47.9291 28.8775 48.6038C28.8775 49.2784 29.4323 49.8252 30.1168 49.8252H36.7263C37.4107 49.8252 37.9656 49.2784 37.9656 48.6038C37.9656 47.9291 37.4107 47.3823 36.7263 47.3823Z" fill="#2C3B84"/>
<path d="M39.3701 42.1709H30.1168C29.4324 42.1709 28.8775 42.7177 28.8775 43.3923C28.8775 44.067 29.4323 44.6138 30.1168 44.6138H39.3701C40.0544 44.6138 40.6094 44.067 40.6094 43.3923C40.6094 42.7177 40.0546 42.1709 39.3701 42.1709Z" fill="#2C3B84"/>
<path d="M51.2673 18.7202H30.1168C29.4324 18.7202 28.8775 19.267 28.8775 19.9417C28.8775 20.6163 29.4323 21.1631 30.1168 21.1631H51.2671C51.9515 21.1631 52.5064 20.6163 52.5064 19.9417C52.5064 19.267 51.9516 18.7202 51.2673 18.7202Z" fill="#2C3B84"/>
<path d="M45.9796 13.5088H30.1168C29.4324 13.5088 28.8775 14.0556 28.8775 14.7302C28.8775 15.4049 29.4323 15.9517 30.1168 15.9517H45.9796C46.664 15.9517 47.2189 15.4049 47.2189 14.7302C47.2189 14.0556 46.6641 13.5088 45.9796 13.5088Z" fill="#2C3B84"/>
<path d="M24.8293 44.7767C24.1449 44.7767 23.59 45.3235 23.59 45.9982C23.59 47.4799 22.3669 48.6853 20.8635 48.6853C19.3602 48.6853 18.1371 47.4799 18.1371 45.9982C18.1371 44.5165 19.3602 43.3111 20.8635 43.3111C21.5479 43.3111 22.1028 42.7642 22.1028 42.0896C22.1028 41.415 21.548 40.8682 20.8635 40.8682C17.9935 40.8682 15.6586 43.1695 15.6586 45.998C15.6586 48.8265 17.9936 51.1279 20.8635 51.1279C23.7334 51.1279 26.0685 48.8265 26.0685 45.998C26.0686 45.3235 25.5137 44.7767 24.8293 44.7767Z" fill="#2C3B84"/>
<path d="M56.5547 0.480469H11.6102C9.46922 0.480469 7.72717 2.19723 7.72717 4.30753V59.0263C7.72717 61.1366 9.46906 62.8533 11.6102 62.8533H34.0826C34.7669 62.8533 35.3219 62.3065 35.3219 61.6319C35.3219 60.9574 34.7671 60.4104 34.0826 60.4104H11.6102C10.8358 60.4104 10.2057 59.7894 10.2057 59.0261V4.30753C10.2057 3.54422 10.8358 2.92321 11.6102 2.92321H56.5547C57.3292 2.92321 57.9593 3.54422 57.9593 4.30753V44.6954C57.9593 45.3699 58.5141 45.9169 59.1987 45.9169C59.883 45.9169 60.438 45.37 60.438 44.6954V4.30753C60.4378 2.19723 58.6959 0.480469 56.5547 0.480469Z" fill="#2C3B84"/>
<path d="M68.2553 50.0107C67.1035 49.8975 65.9523 50.2193 65.0411 50.9011C64.3153 49.7008 63.0777 48.8493 61.6458 48.7079C60.4936 48.5949 59.3426 48.9166 58.4316 49.5983C57.7058 48.398 56.4682 47.5465 55.0362 47.4051C54.1566 47.3186 53.2783 47.4855 52.5064 47.8727V32.3182C52.5064 31.0554 51.9613 29.8447 51.0105 28.9969C50.0605 28.1498 48.7804 27.7363 47.4981 27.8627C45.2104 28.0885 43.4184 30.1272 43.4184 32.5041V48.0979L39.7754 51.6883C37.8395 53.5963 37.0581 56.3034 37.6852 58.93L40.4509 70.5148C41.5715 75.2091 45.7715 78.4875 50.6645 78.4875H61.8422C67.6278 78.4875 72.3348 73.8485 72.3348 68.1462V54.6524C72.335 52.2752 70.543 50.2365 68.2553 50.0107ZM69.8563 68.1459C69.8563 72.5011 66.2613 76.0443 61.8424 76.0443H50.6647C46.9275 76.0443 43.7195 73.5403 42.8636 69.9549L40.0979 58.3701C39.6687 56.573 40.2035 54.7207 41.528 53.4153L43.4184 51.5521V55.7691C43.4184 56.4435 43.9732 56.9905 44.6577 56.9905C45.3422 56.9905 45.897 56.4437 45.897 55.7691V32.504C45.897 31.3666 46.7088 30.3955 47.7453 30.2934C48.3406 30.2345 48.91 30.4176 49.3477 30.8082C49.7801 31.1939 50.0281 31.7443 50.0281 32.3184V53.8151C50.0281 54.4896 50.5829 55.0365 51.2674 55.0365C51.9519 55.0365 52.5067 54.4897 52.5067 53.8151V51.8608C52.5067 51.2867 52.7545 50.7362 53.1871 50.3506C53.6252 49.96 54.1942 49.7767 54.7895 49.8358C55.8259 49.938 56.6378 50.9092 56.6378 52.0465V55.1176C56.6378 55.7921 57.1926 56.339 57.8771 56.339C58.5614 56.339 59.1164 55.7922 59.1164 55.1176V53.1633C59.1164 52.5892 59.3642 52.0387 59.7967 51.6531C60.2348 51.2625 60.804 51.0793 61.3992 51.1383C62.4355 51.2405 63.2474 52.2117 63.2474 53.349V56.4202C63.2474 57.0947 63.8023 57.6417 64.4868 57.6417C65.1711 57.6417 65.7261 57.0949 65.7261 56.4202V54.4659C65.7261 53.8919 65.9739 53.3414 66.4064 52.9558C66.8445 52.5653 67.4133 52.3818 68.0089 52.4411C69.0452 52.5432 69.8571 53.5143 69.8571 54.6517V68.1459H69.8563Z" fill="#2C3B84"/>
</g>
<defs>
<clipPath id="clip0_515_416">
<rect width="79.1486" height="78.0068" fill="white" transform="translate(0.456787 0.480469)"/>
</clipPath>
</defs>
</svg>
