<svg width="215" height="158" viewBox="0 0 215 158" fill="none" xmlns="http://www.w3.org/2000/svg">
<path d="M89.1275 62.244H102.426L95.4004 50.8343L82.5028 71.4396H76.6112L92.314 46.711C92.9848 45.7091 94.1345 45.103 95.393 45.103C96.6515 45.103 97.7524 45.6894 98.4231 46.668L114.174 71.4408H108.298L105.529 66.8344H92.0636L89.1275 62.244ZM150.144 66.8344V45.355H145.149V68.9452C145.149 69.5894 145.419 70.2188 145.887 70.6737C146.364 71.1691 147.017 71.4408 147.704 71.4408H170.418L173.378 66.8344H150.144ZM67.6747 62.9951C72.529 62.9951 76.4315 59.0439 76.4315 54.1732C76.4315 49.3025 72.5303 45.355 67.6747 45.355H45.8615V71.4396H50.8466V49.9639H67.3424C69.6578 49.9639 71.5345 51.8448 71.5345 54.172C71.5345 56.4992 69.6578 58.4071 67.3424 58.4071L53.2841 58.3948L68.1732 71.4396H75.4064L65.4058 62.9939H67.6723M15.1938 71.4396H30.2637C37.4334 71.4396 43.2053 65.6124 43.2053 58.4071C43.2053 51.2019 37.4334 45.355 30.2637 45.355H15.1938C8.03267 45.355 2.22535 51.1945 2.22535 58.4071C2.22535 65.6198 8.03267 71.4396 15.1938 71.4396ZM29.9192 66.8491H15.5261C10.893 66.8491 7.14074 63.0615 7.14074 58.4059C7.14074 53.7503 10.893 49.9639 15.5261 49.9639H29.9192C34.5658 49.9639 38.3156 53.7331 38.3156 58.4071C38.3156 63.0812 34.5658 66.8504 29.9192 66.8504M124.584 71.4408H139.969L142.88 66.8504H124.924C120.271 66.8504 116.521 63.0627 116.521 58.4071C116.521 53.7516 120.271 49.9639 124.924 49.9639H139.54L142.488 45.3538H124.584C117.42 45.3538 111.599 51.1945 111.599 58.4071C111.599 65.6198 117.42 71.4396 124.584 71.4396M185.549 66.8491C181.709 66.8491 178.472 64.254 177.473 60.706H198.776L201.712 56.107H177.473C178.468 52.5505 181.709 49.9639 185.549 49.9639H200.177L203.1 45.3538H185.215C178.064 45.3538 172.258 51.1945 172.258 58.4071C172.258 65.6198 178.064 71.4396 185.215 71.4396H200.601L203.524 66.8491H185.548" fill="#231F20"/>
<path d="M22.9085 86.8325V102.941L12.2798 86.8325H7.40598V111.592H12.6183V95.4479L23.2469 111.592H28.1208V86.8325H22.9085Z" fill="#231F20"/>
<path d="M33.2659 86.8325V111.592H49.6139V107.096H38.5466V101.34H48.2943V96.8444H38.5466V91.3271H49.2755V86.8325H33.2659Z" fill="#231F20"/>
<path d="M52.4913 86.8325V91.3271H59.7685V111.592H65.0492V91.3271H72.3264V86.8325H52.4913Z" fill="#231F20"/>
<path d="M75.4738 110.501V107.708C77.9553 108.73 80.3256 109.241 82.5836 109.241C84.4774 109.241 85.9607 108.866 87.0347 108.117C88.105 107.367 88.6426 106.335 88.6426 105.018C88.6426 104.042 88.3139 103.236 87.6602 102.6C87.0066 101.964 85.8214 101.318 84.106 100.659L81.501 99.6372C79.3103 98.7742 77.7366 97.8141 76.7787 96.7593C75.8183 95.7033 75.3394 94.4604 75.3394 93.0307C75.3394 90.9875 76.1067 89.3758 77.6413 88.1944C79.1759 87.0129 81.275 86.4229 83.9374 86.4229C85.0431 86.4229 86.1818 86.5532 87.3572 86.8138C88.5302 87.0769 89.5345 87.4334 90.369 87.887V90.6801C88.0671 89.6819 85.946 89.1815 84.0058 89.1815C80.3269 89.1815 78.488 90.4416 78.488 92.9618C78.488 93.8027 78.8155 94.5169 79.4691 95.107C80.1228 95.6971 81.275 96.3216 82.922 96.9806L85.5282 98.0022C87.7836 98.8873 89.3928 99.8806 90.3507 100.982C91.3111 102.084 91.79 103.406 91.79 104.951C91.79 107.177 91.0056 108.907 89.438 110.145C87.8692 111.381 85.6748 112 82.8548 112C81.9971 112 81.0991 111.932 80.1631 111.796C79.2272 111.659 78.3524 111.478 77.5399 111.251C76.7261 111.025 76.0383 110.774 75.4738 110.502" fill="#231F20"/>
<path d="M95.8183 100.42V86.8311H98.9657V100.386C98.9657 103.406 99.474 105.637 100.488 107.079C101.503 108.519 103.128 109.24 105.362 109.24C107.595 109.24 109.192 108.521 110.219 107.079C111.246 105.637 111.759 103.406 111.759 100.386V86.8311H114.907V100.42C114.907 104.392 114.111 107.316 112.521 109.189C110.93 111.064 108.542 112 105.361 112C102.179 112 99.7635 111.064 98.1862 109.189C96.6063 107.316 95.817 104.392 95.817 100.42" fill="#231F20"/>
<path d="M123.54 86.8325H120.393V111.592H123.54V86.8325Z" fill="#231F20"/>
<path d="M135.554 111.592V89.5555H127.77V86.8325H146.489V89.5555H138.703V111.592H135.554Z" fill="#231F20"/>
<path d="M150.72 111.592V86.8325H165.883V89.5555H153.867V97.6607H164.901V100.387H153.867V108.868H166.221V111.592H150.72Z" fill="#231F20"/>
<path d="M207.88 45C206.271 44.9951 204.973 46.3253 204.986 47.9628C204.998 49.5831 206.276 50.8653 207.875 50.8628C209.498 50.8604 210.783 49.5523 210.775 47.9136C210.765 46.3142 209.464 45.0037 207.88 45ZM207.79 50.2149C206.546 50.1818 205.554 49.1221 205.59 47.8644C205.627 46.6019 206.659 45.6049 207.909 45.6245C209.19 45.6454 210.18 46.6879 210.149 47.9861C210.118 49.2868 209.098 50.2494 207.79 50.2149Z" fill="#231F20"/>
</svg>
