<svg width="215" height="158" viewBox="0 0 215 158" fill="none" xmlns="http://www.w3.org/2000/svg">
<path d="M121.04 82.6529C121.515 81.395 121.93 80.3101 122.336 79.2237C124.956 72.2183 127.558 65.2068 130.201 58.2091C131.405 55.0194 134.303 53.542 137.399 54.4538C140.868 55.4753 142.39 58.9741 140.874 62.6368C139.423 66.1387 137.882 69.6035 136.375 73.0837C133.636 79.4107 130.894 85.7345 128.159 92.0614C127.774 92.9516 127.309 93.7907 126.772 94.5974C124.124 98.5769 117.714 98.6171 115.046 94.5063C113.795 92.5807 113.058 90.4186 112.153 88.337C108.466 79.8681 104.813 71.3838 101.145 62.9072C100.143 60.5906 100.021 58.339 101.785 56.3176C104.779 52.8883 110.041 53.6656 111.79 57.8661C113.141 61.1083 114.274 64.4418 115.497 67.7382C117.211 72.3589 118.92 76.9813 120.63 81.6021C120.735 81.8864 120.85 82.1677 121.038 82.6529H121.04Z" fill="#109FDA"/>
<path d="M200.445 68.1742C200.445 75.8395 200.462 83.5047 200.435 91.17C200.426 93.7755 199.163 95.6718 196.779 96.6809C194.477 97.6561 192.305 97.2295 190.432 95.579C188.962 94.284 188.482 92.5608 188.484 90.6445C188.493 75.6247 188.488 60.6048 188.493 45.5834C188.493 45.1368 188.526 44.687 188.58 44.2435C188.936 41.2346 191.558 38.9335 194.536 39.0015C197.721 39.0756 200.315 41.522 200.42 44.6592C200.495 46.9356 200.443 49.2166 200.443 51.4946C200.443 57.0534 200.443 62.6123 200.443 68.1727L200.445 68.1742Z" fill="#109FDA"/>
<path d="M186.329 113.093C185.702 114.056 185.262 114.753 184.8 115.434C184.111 116.451 183.445 116.436 182.748 115.394C182.33 114.767 181.924 114.131 181.461 113.424C181.167 113.81 181.283 114.19 181.275 114.532C181.257 115.36 181.254 116.188 181.275 117.015C181.294 117.776 181.161 118.503 180.253 118.499C179.344 118.494 179.244 117.76 179.25 117.004C179.268 114.899 179.259 112.795 179.254 110.69C179.253 110.075 179.287 109.47 180.014 109.287C180.744 109.103 181.249 109.412 181.629 110.069C182.297 111.228 183.025 112.354 183.818 113.643C184.576 112.411 185.3 111.293 185.961 110.14C186.352 109.46 186.846 109.062 187.635 109.293C188.385 109.512 188.41 110.157 188.407 110.806C188.397 112.877 188.391 114.946 188.41 117.017C188.417 117.791 188.24 118.489 187.361 118.488C186.48 118.485 186.31 117.785 186.327 117.011C186.353 115.81 186.335 114.609 186.335 113.094L186.329 113.093Z" fill="#109FDA"/>
<path d="M167.48 113.787C167.48 112.716 167.501 111.645 167.474 110.576C167.453 109.715 167.831 109.282 168.694 109.282C170.212 109.282 171.731 109.285 173.249 109.281C173.932 109.279 174.433 109.537 174.4 110.284C174.369 111.001 173.834 111.129 173.218 111.118C172.183 111.1 171.146 111.146 170.113 111.101C169.444 111.072 169.474 111.483 169.528 111.899C169.58 112.301 169.217 112.954 170.08 112.946C170.977 112.939 171.874 112.962 172.771 112.942C173.392 112.928 173.807 113.197 173.838 113.804C173.869 114.43 173.434 114.731 172.838 114.745C171.941 114.767 171.042 114.784 170.147 114.75C169.316 114.718 169.549 115.305 169.52 115.741C169.488 116.207 169.466 116.634 170.173 116.604C171.206 116.56 172.243 116.591 173.278 116.597C173.926 116.6 174.491 116.768 174.471 117.555C174.453 118.278 173.936 118.416 173.312 118.41C171.759 118.394 170.205 118.394 168.654 118.41C167.826 118.417 167.459 118.036 167.474 117.21C167.494 116.071 167.479 114.931 167.479 113.79L167.48 113.787Z" fill="#0AA0DB"/>
<path d="M124.899 109.216C125.755 109.159 126.608 109.383 127.411 109.828C127.993 110.151 128.352 110.594 127.978 111.254C127.643 111.846 127.101 111.86 126.548 111.548C125.935 111.203 125.296 110.981 124.581 111.027C124.137 111.056 123.734 111.195 123.636 111.673C123.534 112.18 123.902 112.426 124.319 112.563C125.038 112.798 125.776 112.977 126.488 113.234C127.913 113.747 128.549 114.648 128.444 115.924C128.333 117.266 127.555 118.117 126.111 118.447C124.618 118.787 123.247 118.416 121.952 117.675C121.371 117.345 121.05 116.846 121.419 116.22C121.788 115.594 122.358 115.62 122.932 116.005C123.666 116.495 124.453 116.807 125.358 116.72C125.832 116.674 126.287 116.535 126.372 116.011C126.462 115.461 126.019 115.221 125.586 115.071C124.936 114.849 124.263 114.691 123.612 114.472C122.023 113.937 121.351 112.963 121.578 111.568C121.807 110.165 122.88 109.276 124.422 109.217C124.56 109.213 124.699 109.217 124.902 109.217L124.899 109.216Z" fill="#0AA0DB"/>
<path d="M147.884 109.214C148.776 109.166 149.656 109.418 150.473 109.911C150.998 110.228 151.175 110.698 150.893 111.231C150.607 111.772 150.116 111.869 149.566 111.596C148.949 111.288 148.333 110.97 147.61 111.025C147.156 111.061 146.665 111.08 146.564 111.651C146.463 112.214 146.857 112.447 147.318 112.589C147.975 112.792 148.642 112.967 149.29 113.192C150.883 113.745 151.461 114.588 151.325 116.107C151.214 117.349 150.318 118.243 148.852 118.491C147.399 118.739 146.048 118.4 144.802 117.632C144.224 117.277 143.962 116.757 144.373 116.155C144.746 115.605 145.288 115.625 145.822 115.988C146.553 116.485 147.339 116.796 148.242 116.719C148.708 116.679 149.156 116.569 149.265 116.031C149.384 115.455 148.958 115.231 148.523 115.081C147.874 114.857 147.207 114.688 146.556 114.47C144.904 113.917 144.292 113.019 144.509 111.489C144.695 110.16 145.849 109.254 147.406 109.214C147.544 109.211 147.681 109.214 147.885 109.214H147.884Z" fill="#0AA0DB"/>
<path d="M196.735 109.214C197.527 109.162 198.343 109.383 199.126 109.784C199.728 110.094 200.089 110.534 199.781 111.189C199.467 111.854 198.893 111.866 198.295 111.529C197.682 111.185 197.039 110.967 196.324 111.033C195.89 111.073 195.489 111.175 195.427 111.702C195.373 112.163 195.668 112.41 196.047 112.538C196.73 112.77 197.434 112.94 198.113 113.18C199.762 113.761 200.323 114.549 200.202 116.056C200.097 117.368 199.125 118.306 197.567 118.516C196.148 118.708 194.834 118.361 193.627 117.6C193.077 117.252 192.872 116.748 193.214 116.19C193.565 115.618 194.127 115.615 194.655 115.966C195.424 116.475 196.233 116.805 197.173 116.711C197.649 116.663 198.072 116.521 198.152 115.974C198.229 115.45 197.838 115.235 197.44 115.096C196.793 114.869 196.125 114.7 195.473 114.483C193.75 113.908 193.143 113.01 193.389 111.432C193.593 110.123 194.758 109.244 196.333 109.211C196.437 109.21 196.54 109.211 196.733 109.211L196.735 109.214Z" fill="#0AA0DB"/>
<path d="M140.553 110.287C140.559 110.622 140.359 110.868 140.178 111.117C139.775 111.676 139.407 112.266 138.947 112.775C137.816 114.027 137.122 115.391 137.402 117.15C137.519 117.892 137.161 118.504 136.351 118.499C135.602 118.494 135.239 117.917 135.361 117.21C135.676 115.397 134.862 114.033 133.755 112.742C133.286 112.195 132.884 111.587 132.466 110.998C132.082 110.457 131.987 109.879 132.576 109.449C133.189 109.003 133.755 109.217 134.175 109.805C134.737 110.588 135.31 111.366 135.818 112.183C136.207 112.809 136.469 112.954 136.922 112.222C137.462 111.344 138.094 110.52 138.702 109.686C139.021 109.248 139.477 109.106 139.983 109.292C140.425 109.454 140.593 109.822 140.553 110.285V110.287Z" fill="#0AA0DB"/>
<path d="M159.08 109.279C159.941 109.279 160.805 109.284 161.666 109.279C162.313 109.274 162.863 109.427 162.915 110.192C162.971 110.98 162.412 111.164 161.779 111.228C160.689 111.337 160.144 111.957 160.144 113.088C160.144 114.434 160.144 115.78 160.142 117.127C160.142 117.857 159.909 118.503 159.086 118.507C158.257 118.51 158.038 117.865 158.041 117.13C158.046 115.473 158.01 113.815 158.056 112.16C158.076 111.444 157.87 111.14 157.132 111.225C156.793 111.263 156.44 111.235 156.102 111.183C155.557 111.099 155.222 110.772 155.243 110.2C155.265 109.62 155.642 109.316 156.184 109.297C157.149 109.263 158.114 109.288 159.08 109.288V109.282V109.279Z" fill="#0AA0DB"/>
<path d="M50.495 83.5018C48.6948 81.2826 46.8699 79.0835 45.0141 76.8272C45.3677 76.6525 45.6394 76.5196 45.9096 76.3852C46.2184 76.2306 46.5272 76.0792 46.8329 75.9185C50.7297 73.8816 53.4995 70.8541 54.9214 66.6568C55.8678 63.8627 56.0655 60.9728 55.8231 58.0659C55.3028 51.8239 52.4218 47.0795 46.734 44.2313C43.4362 42.5793 39.8914 41.9039 36.2323 41.8823C29.5734 41.8437 22.9145 41.8684 16.2556 41.8715C13.103 41.8715 10.7284 43.9114 10.2421 47.0208C10.1803 46.9992 10.1263 47.01 10.0769 47.0532V92.2473C10.3826 92.3323 10.3363 92.6321 10.4073 92.8392C11.4479 95.8651 14.1528 97.5821 17.1218 97.0829C20.2621 96.5544 22.2599 94.1667 22.263 90.9306C22.2661 87.3051 22.2846 83.678 22.246 80.0524C22.2383 79.3184 22.4498 79.1237 23.1708 79.136C25.6195 79.1793 28.0712 79.2025 30.5183 79.1283C31.4848 79.0989 32.0777 79.4096 32.6675 80.1684C36.2864 84.8293 39.9578 89.4486 43.6123 94.0802C45.3322 96.2592 47.5106 97.4971 50.3468 97.0783C54.6358 96.4446 56.6398 92.0448 54.3409 88.3729C53.2386 86.6127 51.7981 85.109 50.495 83.5018ZM43.6231 61.4642C43.427 64.8317 40.8888 67.513 37.2174 68.1852C36.4408 68.3274 35.6457 68.4248 34.8583 68.4294C30.9614 68.4541 27.0646 68.4217 23.1677 68.4572C22.4437 68.4634 22.2321 68.2687 22.2476 67.5377C22.2939 65.2258 22.2646 62.9123 22.2646 60.5988C22.2646 58.3208 22.2877 56.0414 22.2507 53.7634C22.2399 53.0881 22.3557 52.7975 23.1307 52.8053C27.131 52.8454 31.1313 52.8223 35.1315 52.8254C36.2432 52.8254 37.3285 53.0263 38.3861 53.3493C42.0606 54.4681 43.867 57.2792 43.6231 61.4627V61.4642Z" fill="#109FDA"/>
<path d="M98.5262 70.2437C96.9313 62.9586 93.0051 57.4724 85.7889 55.0708C78.3488 52.5935 71.3023 53.6691 65.244 58.9127C60.4069 63.1008 58.2161 68.6287 57.9691 74.9356C57.7622 80.2302 58.9989 85.1616 62.2751 89.4192C66.3495 94.7138 71.9153 97.2034 78.4568 97.5836C84.2697 97.922 89.6147 96.5312 94.1862 92.7526C96.3122 90.9955 96.658 88.0654 95.0446 85.9961C93.5069 84.0241 90.626 83.6548 88.4552 85.2203C86.0344 86.9666 83.3727 87.883 80.3821 88.0221C75.3968 88.2555 71.4567 85.5263 70.0688 80.8112C69.8294 79.9999 69.9792 79.8144 70.8114 79.8222C74.6079 79.8593 78.4043 79.8392 82.2008 79.8392C85.9278 79.8392 89.6564 79.8577 93.3834 79.833C96.5731 79.8129 98.8303 77.5597 98.923 74.3545C98.9631 72.9667 98.8211 71.5944 98.5246 70.2406L98.5262 70.2437ZM86.5377 72.398C83.8821 72.3439 81.2266 72.3779 78.5695 72.3779C75.8785 72.3779 73.189 72.364 70.498 72.3872C69.8773 72.3918 69.6442 72.3099 69.8248 71.5867C70.4486 69.0831 71.4536 66.8082 73.5518 65.1948C78.0739 61.7161 84.4843 63.6201 86.6735 69.0862C86.9669 69.8172 87.0981 70.6115 87.3513 71.361C87.6246 72.1662 87.4115 72.415 86.5377 72.398Z" fill="#109FDA"/>
<path d="M155.472 79.828C159.302 79.8574 163.134 79.8404 166.965 79.8404C170.624 79.8404 174.281 79.8496 177.94 79.8373C181.368 79.8249 183.608 77.5516 183.639 74.1023C183.651 72.7485 183.512 71.4101 183.214 70.095C181.576 62.8609 177.635 57.4211 170.454 55.052C163.049 52.6087 156.029 53.6719 149.996 58.8769C145.089 63.1082 142.898 68.7041 142.676 75.0898C142.506 79.9717 143.578 84.574 146.417 88.6168C150.822 94.8881 157.099 97.5353 164.566 97.6188C169.941 97.6791 174.85 96.18 179.012 92.6503C181.028 90.9411 181.334 88.0295 179.79 86.0421C178.231 84.0362 175.379 83.6359 173.215 85.1937C170.764 86.957 168.073 87.9012 165.046 88.028C160.046 88.2366 156.167 85.5151 154.769 80.7661C154.541 79.9903 154.701 79.8218 155.47 79.828H155.472ZM154.541 71.5662C155.033 69.5958 155.75 67.7413 157.149 66.2392C161.374 61.7003 168.578 62.8918 171.15 68.5372C171.595 69.5139 171.865 70.5416 172.109 71.5863C172.274 72.2895 172.06 72.3961 171.427 72.3899C168.702 72.3637 165.977 72.3791 163.252 72.3791C160.561 72.3791 157.871 72.3606 155.18 72.3915C154.504 72.3992 154.37 72.2385 154.538 71.5662H154.541Z" fill="#109FDA"/>
</svg>
