<svg width="74" height="73" viewBox="0 0 74 73" fill="none" xmlns="http://www.w3.org/2000/svg">
<g clip-path="url(#clip0_1077_7371)">
<path d="M13.2556 2.99132H13.2941C14.083 2.99132 14.7224 2.36118 14.7224 1.58367C14.7224 0.806167 14.083 0.176025 13.2941 0.176025H13.2556C12.4668 0.176025 11.8274 0.806167 11.8274 1.58367C11.8274 2.36118 12.4668 2.99132 13.2556 2.99132Z" fill="#2C3B84"/>
<path d="M69.2765 31.1443C71.6392 31.1443 73.5612 29.25 73.5612 26.9213V4.39897C73.5612 2.0703 71.6392 0.176025 69.2765 0.176025H46.4245C44.0617 0.176025 42.1397 2.0703 42.1397 4.39897V14.2525H31.8563V4.39897C31.8563 2.0703 29.9343 0.176025 27.5716 0.176025H19.0021C18.2132 0.176025 17.5738 0.806167 17.5738 1.58367C17.5738 2.36118 18.2132 2.99132 19.0021 2.99132H27.5716C28.3588 2.99132 28.9998 3.62256 28.9998 4.39897V14.2525H20.1848C19.5951 12.6139 18.0073 11.4372 16.1456 11.4372C13.7828 11.4372 11.8608 13.3315 11.8608 15.6601C11.8608 17.9888 13.7828 19.8831 16.1456 19.8831C18.0073 19.8831 19.5951 18.7058 20.1848 17.0678H28.9998V26.9213C28.9998 27.6972 28.3588 28.329 27.5716 28.329H4.71957C3.9318 28.329 3.29132 27.6972 3.29132 26.9213V4.39897C3.29132 3.62256 3.9318 2.99132 4.71957 2.99132H9.15216C9.94105 2.99132 10.5804 2.36118 10.5804 1.58367C10.5804 0.806167 9.94105 0.176025 9.15216 0.176025H4.71957C2.35682 0.176025 0.434814 2.0703 0.434814 4.39897V26.9213C0.434814 29.25 2.35682 31.1443 4.71957 31.1443H14.7173V41.2793H4.71957C2.35682 41.2793 0.434814 43.1736 0.434814 45.5023V68.0246C0.434814 70.3533 2.35682 72.2476 4.71957 72.2476H27.5716C29.9343 72.2476 31.8563 70.3533 31.8563 68.0246V58.1711H42.1397V68.0246C42.1397 70.3533 44.0617 72.2476 46.4245 72.2476H69.2765C71.6392 72.2476 73.5612 70.3533 73.5612 68.0246V45.5023C73.5612 43.1736 71.6392 41.2793 69.2765 41.2793H59.2787V31.1443H69.2765ZM16.1456 17.0678C15.3584 17.0678 14.7173 16.436 14.7173 15.6601C14.7173 14.8837 15.3584 14.2525 16.1456 14.2525C16.9333 14.2525 17.5738 14.8837 17.5738 15.6601C17.5738 16.436 16.9328 17.0678 16.1456 17.0678ZM44.9962 4.39897C44.9962 3.62256 45.6373 2.99132 46.4245 2.99132H69.2765C70.0643 2.99132 70.7047 3.62256 70.7047 4.39897V26.9213C70.7047 27.6972 70.0643 28.329 69.2765 28.329H59.2787V19.6411C60.9413 19.0599 62.1352 17.495 62.1352 15.6601C62.1352 13.3315 60.2132 11.4372 57.8505 11.4372C55.4877 11.4372 53.5657 13.3315 53.5657 15.6601C53.5657 17.495 54.7602 19.0599 56.4222 19.6411V28.329H46.4245C45.6373 28.329 44.9962 27.6972 44.9962 26.9213V4.39897ZM57.8505 17.0678C57.0633 17.0678 56.4222 16.436 56.4222 15.6601C56.4222 14.8837 57.0633 14.2525 57.8505 14.2525C58.6383 14.2525 59.2787 14.8837 59.2787 15.6601C59.2787 16.436 58.6383 17.0678 57.8505 17.0678ZM28.9998 68.0246C28.9998 68.801 28.3588 69.4323 27.5716 69.4323H4.71957C3.9318 69.4323 3.29132 68.801 3.29132 68.0246V45.5023C3.29132 44.7264 3.9318 44.0946 4.71957 44.0946H14.7173V52.783C13.0547 53.3636 11.8608 54.9286 11.8608 56.7634C11.8608 59.0921 13.7828 60.9864 16.1456 60.9864C18.5083 60.9864 20.4303 59.0921 20.4303 56.7634C20.4303 54.9286 19.2358 53.3636 17.5738 52.7824V44.0946H27.5716C28.3588 44.0946 28.9998 44.7264 28.9998 45.5023V68.0246ZM16.1456 55.3558C16.9333 55.3558 17.5738 55.9876 17.5738 56.7634C17.5738 57.5398 16.9333 58.1711 16.1456 58.1711C15.3584 58.1711 14.7173 57.5398 14.7173 56.7634C14.7173 55.9876 15.3584 55.3558 16.1456 55.3558ZM70.7047 45.5023V68.0246C70.7047 68.801 70.0643 69.4323 69.2765 69.4323H46.4245C45.6373 69.4323 44.9962 68.801 44.9962 68.0246V58.1711H53.8112C54.4009 59.8097 55.9887 60.9864 57.8505 60.9864C60.2132 60.9864 62.1352 59.0921 62.1352 56.7634C62.1352 54.4348 60.2132 52.5405 57.8505 52.5405C55.9887 52.5405 54.4009 53.7178 53.8112 55.3558H44.9962V45.5023C44.9962 44.7264 45.6373 44.0946 46.4245 44.0946H69.2765C70.0643 44.0946 70.7047 44.7264 70.7047 45.5023ZM56.4222 56.7634C56.4222 55.9876 57.0633 55.3558 57.8505 55.3558C58.6383 55.3558 59.2787 55.9876 59.2787 56.7634C59.2787 57.5398 58.6383 58.1711 57.8505 58.1711C57.0633 58.1711 56.4222 57.5398 56.4222 56.7634ZM56.4222 41.2793H46.4245C44.0617 41.2793 42.1397 43.1736 42.1397 45.5023V55.3558H31.8563V45.5023C31.8563 43.1736 29.9343 41.2793 27.5716 41.2793H17.5738V31.1443H27.5716C29.9343 31.1443 31.8563 29.25 31.8563 26.9213V17.0678H42.1397V26.9213C42.1397 29.25 44.0617 31.1443 46.4245 31.1443H56.4222V41.2793Z" fill="#2C3B84"/>
<path d="M60.5591 66.6169C60.5591 67.3944 61.1984 68.0245 61.9873 68.0245H67.8482C68.6371 68.0245 69.2764 67.3944 69.2764 66.6169C69.2764 65.8394 68.6371 65.2092 67.8482 65.2092H61.9873C61.1984 65.2092 60.5591 65.8394 60.5591 66.6169Z" fill="#2C3B84"/>
<path d="M57.8838 65.2092H57.8504C57.0615 65.2092 56.4221 65.8394 56.4221 66.6169C56.4221 67.3944 57.0615 68.0245 57.8504 68.0245H57.8838C58.6727 68.0245 59.3121 67.3944 59.3121 66.6169C59.3121 65.8394 58.6727 65.2092 57.8838 65.2092Z" fill="#2C3B84"/>
</g>
<defs>
<clipPath id="clip0_1077_7371">
<rect width="73.1264" height="72.0715" fill="white" transform="translate(0.434814 0.176025)"/>
</clipPath>
</defs>
</svg>
