<svg width="75" height="73" viewBox="0 0 75 73" fill="none" xmlns="http://www.w3.org/2000/svg">
<g clip-path="url(#clip0_1077_7459)">
<path d="M10.1291 0.176025C7.61301 0.176025 5.55151 2.20998 5.55151 4.68979V23.4762C3.94545 24.0061 2.78782 25.0277 2.07808 26.177C1.24616 27.5242 0.97168 29.0044 0.97168 30.2414V39.8395C0.97168 41.8364 1.89081 44.2905 2.7531 46.6751C3.18433 47.8674 3.60977 49.0234 3.91985 49.9883C4.22997 50.9532 4.40041 51.7704 4.40041 52.0524V56.315C3.70257 56.9355 3.26048 57.8315 3.26048 58.822V68.9708C3.26048 70.8257 4.80934 72.3611 6.69144 72.3611H22.7175C24.5996 72.3611 26.1462 70.8257 26.1462 68.9708V58.822C26.1462 57.4845 25.3404 56.3196 24.186 55.7731C24.3811 55.0019 24.7802 53.9424 25.2254 52.7111C25.7513 51.2565 26.3036 49.5284 26.4681 47.5497H47.7624L53.1179 58.1126C52.0539 58.6891 51.3275 59.8059 51.3275 61.0777V68.9708C51.3275 70.8257 52.8741 72.3611 54.7562 72.3611H70.7734C72.6555 72.3611 74.2133 70.8257 74.2133 68.9708V61.0777C74.2133 59.6748 73.3223 58.4603 72.0742 57.9518C72.2563 57.3383 72.5867 56.609 72.9705 55.7577C73.5555 54.4605 74.2133 52.8713 74.2133 50.9289C74.2133 35.5159 74.2133 20.1028 74.2133 4.68979C74.2133 2.20998 72.1496 0.176025 69.6334 0.176025L10.1291 0.176025ZM10.1291 2.43181H69.6334C70.9212 2.43181 71.9222 3.4206 71.9222 4.68979V37.5903C71.5619 37.4624 71.1751 37.3831 70.7734 37.392C70.1756 37.4048 70.0095 37.4754 69.6334 37.5969V8.06906C69.6334 6.21406 68.0868 4.68979 66.2047 4.68979H13.5578C11.6757 4.68979 10.1291 6.21406 10.1291 8.06906V27.6596C10.059 27.6297 9.98951 27.5974 9.91901 27.5692C9.24906 27.3011 8.5247 27.1956 7.84031 27.3269V4.68979C7.84031 3.4206 8.8413 2.43198 10.1291 2.43181ZM12.4179 29.7105V8.06906C12.4179 7.42472 12.9041 6.94562 13.5578 6.94558H66.2047C66.8585 6.94558 67.3446 7.42472 67.3446 8.06906V36.4712C66.9891 36.3357 66.6349 36.2685 66.2047 36.2685C65.2625 36.2685 64.7152 36.5966 64.5082 36.7025C64.2344 36.2306 63.3202 35.1721 61.6249 35.1362C61.0078 35.1704 60.9016 35.207 60.476 35.3323V30.6335H63.898C64.5309 30.6311 65.0417 30.1227 65.038 29.499C65.0356 28.8795 64.5266 28.3779 63.898 28.3755H60.476C60.476 26.5205 58.9294 24.9874 57.0473 24.9874C55.1651 24.9874 53.6074 26.5205 53.6074 28.3755H43.31C42.6815 28.3779 42.1725 28.8795 42.1701 29.499C42.1663 30.1227 42.6771 30.6311 43.31 30.6335H53.6074V41.0797L52.2573 38.7755C51.1578 36.8986 48.6947 36.2421 46.7901 37.3259C45.491 38.0651 44.8251 39.4082 44.8321 40.7801H15.3348C14.8074 40.2103 14.33 39.748 14.0161 39.3724C13.6592 38.9456 13.5578 38.7155 13.5578 38.5265V33.6699C13.509 32.0642 13.0763 30.7384 12.4179 29.7105ZM57.0473 9.20136C55.1651 9.20136 53.6074 10.7256 53.6074 12.5806H43.31C42.6771 12.5831 42.1664 13.0913 42.1701 13.7151C42.1726 14.3346 42.6815 14.8362 43.31 14.8386H53.6074C53.6074 16.6936 55.1651 18.2179 57.0473 18.2179C58.9294 18.2179 60.476 16.6936 60.476 14.8386H63.9137C64.5422 14.8361 65.0511 14.3346 65.0536 13.7151C65.0574 13.0913 64.5466 12.5831 63.9137 12.5806H60.476C60.476 10.7256 58.9294 9.20136 57.0473 9.20136ZM57.0473 11.4571C57.701 11.4571 58.1872 11.9363 58.1872 12.5806V14.8386C58.1872 15.4829 57.701 15.9709 57.0473 15.9709C56.3935 15.9709 55.8962 15.4829 55.8962 14.8386V12.5806C55.8962 11.9363 56.3935 11.4571 57.0473 11.4571ZM27.2951 12.5806C20.3565 12.5806 14.7089 18.1489 14.7089 24.9874V29.499C14.7053 30.1227 15.216 30.631 15.8489 30.6335H38.7302C39.3674 30.6371 39.885 30.127 39.8813 29.499V24.9874C39.8813 18.1489 34.2337 12.5806 27.2951 12.5806ZM26.1462 14.9003V15.9709C26.1488 16.5938 26.6631 17.0968 27.2951 17.0944C27.9237 17.0919 28.4326 16.5903 28.435 15.9709V14.9003C30.4262 15.1151 32.244 15.884 33.7257 17.0503L32.9545 17.8103C32.5047 18.2513 32.5047 18.9687 32.9545 19.4097C33.4019 19.853 34.1298 19.853 34.5773 19.4097L35.3484 18.6496C36.5318 20.1099 37.3098 21.9015 37.5277 23.8639H36.4525C35.8205 23.8615 35.3061 24.3645 35.3037 24.9874C35.3012 25.6138 35.817 26.1222 36.4525 26.1197H37.5902V28.3755H31.8749C31.8749 27.2525 31.4502 26.2207 30.7529 25.428L32.6774 23.5313C33.1212 23.0914 33.1212 22.3807 32.6774 21.9408C32.465 21.7302 32.1764 21.6103 31.8749 21.6082C31.5704 21.6082 31.2783 21.7281 31.0636 21.9408L28.8329 24.1283C28.3517 23.9573 27.8335 23.8639 27.2951 23.8639C24.7806 23.8639 22.7175 25.8973 22.7175 28.3755H16.9977V26.1197H18.1377C18.7697 26.1172 19.2801 25.6103 19.2776 24.9874C19.2752 24.3679 18.7662 23.8663 18.1377 23.8639H17.0603C17.2783 21.9015 18.0584 20.1099 19.2418 18.6496L20.013 19.4097C20.4593 19.8471 21.1804 19.8471 21.6268 19.4097C22.0765 18.9687 22.0765 18.2513 21.6268 17.8103L20.8601 17.0547C22.3404 15.8879 24.1563 15.1165 26.1462 14.9003ZM47.8876 17.0944C46.0055 17.0944 44.4589 18.6187 44.4589 20.4737H43.31C42.6771 20.4761 42.1664 20.9844 42.1701 21.6082C42.1726 22.2276 42.6815 22.7292 43.31 22.7316H44.4589C44.4589 24.5866 46.0055 26.1197 47.8876 26.1197C49.7698 26.1197 51.3275 24.5866 51.3275 22.7316H63.9137C64.5422 22.7292 65.0511 22.2276 65.0536 21.6082C65.0574 20.9844 64.5466 20.4761 63.9137 20.4737H51.3275C51.3275 18.6187 49.7698 17.0944 47.8876 17.0944ZM47.8876 19.3502C48.5414 19.3502 49.0387 19.8293 49.0387 20.4737V22.7316C49.0387 23.376 48.5414 23.8639 47.8876 23.8639C47.2338 23.8639 46.7477 23.376 46.7477 22.7316V20.4737C46.7477 19.8293 47.2338 19.3502 47.8876 19.3502ZM5.55151 25.906V38.5309C5.55273 39.1513 6.06207 39.6542 6.69144 39.6566C7.32436 39.6591 7.8391 39.1547 7.84031 38.5309V30.2987C7.84031 29.7566 7.96457 29.6791 8.11077 29.6003C8.25696 29.5215 8.59633 29.4734 9.05624 29.6576C9.97597 30.0259 11.1936 31.262 11.269 33.7198V38.5243C11.269 39.4631 11.751 40.2161 12.2503 40.8132C12.7496 41.4102 13.3163 41.9314 13.8462 42.5204C14.9059 43.6984 15.8431 45.0362 15.8489 47.5497C15.8514 48.1726 16.3657 48.6756 16.9977 48.6731C17.6263 48.6707 18.1352 48.1691 18.1377 47.5497H24.1704C24.0129 49.1545 23.5554 50.6127 23.0707 51.9533C22.6171 53.2077 22.3118 54.309 22.0917 55.4427H6.69144V52.0524C6.69144 51.2065 6.44185 50.3437 6.10807 49.3054C5.77459 48.2671 5.33491 47.1073 4.90779 45.9261C4.05354 43.5637 3.26048 41.0409 3.26048 39.8395V30.2414C3.26048 29.3515 3.47894 28.236 4.02937 27.3445C4.38664 26.7658 4.86102 26.266 5.55151 25.906ZM27.2951 26.1197C28.5727 26.1197 29.5839 27.1164 29.5839 28.3755H25.0063C25.0063 27.1164 26.0175 26.1197 27.2951 26.1197ZM58.1872 28.3755V43.0359C58.2218 44.5067 60.4429 44.5067 60.476 43.0359V38.5243C60.476 37.88 60.9711 37.3898 61.6249 37.3898C62.2786 37.3898 62.7648 37.88 62.7648 38.5243V43.0359C62.7994 44.5067 65.0205 44.5067 65.0536 43.0359V39.6478C65.0536 39.0034 65.5509 38.5243 66.2047 38.5243C66.8585 38.5243 67.3446 39.0034 67.3446 39.6478V43.0359C67.3792 44.5067 69.6003 44.5067 69.6334 43.0359V40.7801C69.6334 40.1358 70.1196 39.6478 70.7734 39.6478C71.4271 39.6478 71.9222 40.1358 71.9222 40.7801V50.9289C71.9222 52.37 71.4356 53.6008 70.8762 54.8413C70.4623 55.7591 69.9809 56.6755 69.7586 57.6985H55.4648L47.34 41.6547C46.8687 40.7241 47.0904 39.7576 47.9301 39.2799C48.7707 38.8016 49.7939 39.0685 50.2792 39.8967L53.7683 45.849C54.3577 46.8251 55.8762 46.4274 55.8962 45.2917C55.8962 39.6553 55.8962 34.0062 55.8962 28.3755C55.8962 27.7312 56.3935 27.2434 57.0473 27.2432C57.701 27.243 58.1872 27.7312 58.1872 28.3755ZM17.0067 43.0359H45.4759L46.618 45.2917H17.8762C17.6724 44.4385 17.3668 43.6908 17.0067 43.0359ZM6.69144 57.6985H22.7175C23.3712 57.6985 23.8574 58.1777 23.8574 58.822V68.9708C23.8574 69.6151 23.3712 70.1031 22.7175 70.1031H6.69144C6.03772 70.1031 5.55151 69.6151 5.55151 68.9708V58.822C5.55151 58.1777 6.03772 57.6985 6.69144 57.6985ZM54.7562 59.9543H70.7734C71.4271 59.9543 71.9222 60.4334 71.9222 61.0777V68.9708C71.9222 69.6151 71.4271 70.1031 70.7734 70.1031H54.7562C54.1025 70.1031 53.6074 69.6151 53.6074 68.9708V61.0777C53.6074 60.4334 54.1025 59.9543 54.7562 59.9543Z" fill="#2C3B84"/>
</g>
<defs>
<clipPath id="clip0_1077_7459">
<rect width="73.1264" height="72.0715" fill="white" transform="translate(0.97168 0.176025)"/>
</clipPath>
</defs>
</svg>
