<svg width="79" height="77" viewBox="0 0 79 77" fill="none" xmlns="http://www.w3.org/2000/svg">
<path d="M43.0043 30.7333C43.0043 31.3505 43.5123 31.8512 44.1385 31.8512H46.0288V45.1162H32.5697V31.8512H39.2992C39.9254 31.8512 40.4334 31.3505 40.4334 30.7333C40.4334 30.1162 39.9254 29.6155 39.2992 29.6155H32.0404C31.0816 29.6155 30.3013 30.3846 30.3013 31.3295V45.6378C30.3013 46.5827 31.0816 47.3518 32.0404 47.3518H46.5581C47.5169 47.3518 48.2972 46.5827 48.2972 45.6378V31.3295C48.2972 30.3846 47.5169 29.6155 46.5581 29.6155H44.1385C43.5123 29.6155 43.0043 30.1162 43.0043 30.7333Z" fill="#A92D94"/>
<path d="M6.86118 4.79956C5.90242 4.79956 5.12207 5.56866 5.12207 6.51358V14.2639C5.12207 15.2088 5.90242 15.9779 6.86118 15.9779H14.725C15.6837 15.9779 16.4641 15.2088 16.4641 14.2639V6.51358C16.4641 5.56866 15.6837 4.79956 14.725 4.79956H6.86118ZM14.1957 13.7423H7.39047V7.03524H14.1957V13.7423Z" fill="#A92D94"/>
<path d="M14.725 60.9895H6.86118C5.90242 60.9895 5.12207 61.7586 5.12207 62.7035V70.4539C5.12207 71.3988 5.90242 72.1679 6.86118 72.1679H14.725C15.6837 72.1679 16.4641 71.3988 16.4641 70.4539V62.7035C16.4641 61.7586 15.6837 60.9895 14.725 60.9895ZM14.1957 69.9322H7.39047V63.2252H14.1957V69.9322Z" fill="#A92D94"/>
<path d="M60.5468 20.4492H75.0645C76.6908 20.4492 78.0134 19.1456 78.0134 17.5428V3.2345C78.0134 1.63169 76.6908 0.328125 75.0645 0.328125H60.5468C58.9205 0.328125 57.5978 1.63169 57.5978 3.2345V9.27082H43.9875C43.3613 9.27082 42.8533 9.77152 42.8533 10.3887V25.1441H36.653V20.7787C37.9733 20.317 38.9214 19.0746 38.9214 17.6173C38.9214 15.7683 37.3949 14.2638 35.5188 14.2638C33.6426 14.2638 32.1162 15.7683 32.1162 17.6173C32.1162 19.0746 33.0643 20.317 34.3846 20.7787V25.1441H29.3173C27.3584 25.1441 25.7647 26.7149 25.7647 28.6455V35.1301H11.9274V20.4492H18.0521C19.6784 20.4492 21.001 19.1456 21.001 17.5428V14.6364C21.001 14.0193 20.493 13.5186 19.8668 13.5186C19.2407 13.5186 18.7326 14.0193 18.7326 14.6364V17.5428C18.7326 17.9125 18.4272 18.2135 18.0521 18.2135H3.53437C3.15925 18.2135 2.85385 17.9125 2.85385 17.5428V3.2345C2.85385 2.8648 3.15925 2.5638 3.53437 2.5638H18.0521C18.4272 2.5638 18.7326 2.8648 18.7326 3.2345V9.867C18.7326 10.4841 19.2407 10.9848 19.8668 10.9848C20.493 10.9848 21.001 10.4841 21.001 9.867V3.2345C21.001 1.63169 19.6784 0.328125 18.0521 0.328125H3.53437C1.90809 0.328125 0.585449 1.63169 0.585449 3.2345V17.5428C0.585449 19.1456 1.90809 20.4492 3.53437 20.4492H9.65904V36.248C9.65904 36.8651 10.1671 37.3658 10.7932 37.3658H25.7647V42.1352H24.2087C23.7402 40.834 22.4796 39.8996 21.001 39.8996C19.1249 39.8996 17.5984 41.404 17.5984 43.2531C17.5984 45.1022 19.1249 46.6066 21.001 46.6066C22.4796 46.6066 23.7402 45.6721 24.2087 44.3709H25.7647V48.3218C25.7647 50.2524 27.3584 51.8232 29.3173 51.8232H34.3846V65.101H21.001V59.4245C21.001 57.8216 19.6784 56.5181 18.0521 56.5181H3.53437C1.90809 56.5181 0.585449 57.8216 0.585449 59.4245V73.7328C0.585449 75.3356 1.90809 76.6392 3.53437 76.6392H18.0521C19.6784 76.6392 21.001 75.3356 21.001 73.7328V67.3366H35.5188C36.1449 67.3366 36.653 66.836 36.653 66.2188V51.8232H42.8533V56.7847C41.533 57.2464 40.5849 58.4888 40.5849 59.9461C40.5849 61.7952 42.1113 63.2996 43.9875 63.2996C45.8636 63.2996 47.3901 61.7952 47.3901 59.9461C47.3901 58.4888 46.4419 57.2464 45.1217 56.7847V51.8232H49.2816C51.2404 51.8232 52.8342 50.2524 52.8342 48.3218V40.7117H66.6732V56.5181H60.5468C58.9205 56.5181 57.5978 57.8216 57.5978 59.4245V62.3308C57.5978 62.948 58.1059 63.4487 58.732 63.4487C59.3582 63.4487 59.8662 62.948 59.8662 62.3308V59.4245C59.8662 59.0548 60.1717 58.7538 60.5468 58.7538H75.0645C75.4396 58.7538 75.745 59.0548 75.745 59.4245V73.7328C75.745 74.1025 75.4396 74.4035 75.0645 74.4035H60.5468C60.1717 74.4035 59.8662 74.1025 59.8662 73.7328V67.0816C59.8662 66.4645 59.3582 65.9638 58.732 65.9638C58.1059 65.9638 57.5978 66.4645 57.5978 67.0816V73.7328C57.5978 75.3356 58.9205 76.6392 60.5468 76.6392H75.0645C76.6908 76.6392 78.0134 75.3356 78.0134 73.7328V59.4245C78.0134 57.8216 76.6908 56.5181 75.0645 56.5181H68.9416V39.5939C68.9416 38.9768 68.4336 38.4761 67.8074 38.4761H52.8342V34.683H58.2388C58.7072 35.9842 59.9678 36.9187 61.4464 36.9187C63.3226 36.9187 64.849 35.4142 64.849 33.5652C64.849 31.7161 63.3226 30.2116 61.4464 30.2116C59.9678 30.2116 58.7072 31.1461 58.2388 32.4473H52.8342V28.6455C52.8342 26.7149 51.2404 25.1441 49.2816 25.1441H45.1217V11.5065H57.5978V17.5428C57.5978 19.1456 58.9205 20.4492 60.5468 20.4492ZM35.5188 16.4995C36.1444 16.4995 36.653 17.0008 36.653 17.6173C36.653 18.2339 36.1444 18.7352 35.5188 18.7352C34.8932 18.7352 34.3846 18.2339 34.3846 17.6173C34.3846 17.0008 34.8932 16.4995 35.5188 16.4995ZM21.001 44.3709C20.3754 44.3709 19.8668 43.8696 19.8668 43.2531C19.8668 42.6365 20.3754 42.1352 21.001 42.1352C21.6266 42.1352 22.1352 42.6365 22.1352 43.2531C22.1352 43.8696 21.6266 44.3709 21.001 44.3709ZM18.7326 73.7328C18.7326 74.1025 18.4272 74.4035 18.0521 74.4035H3.53437C3.15925 74.4035 2.85385 74.1025 2.85385 73.7328V59.4245C2.85385 59.0548 3.15925 58.7538 3.53437 58.7538H18.0521C18.4272 58.7538 18.7326 59.0548 18.7326 59.4245V73.7328ZM43.9875 61.064C43.3619 61.064 42.8533 60.5627 42.8533 59.9461C42.8533 59.3296 43.3619 58.8283 43.9875 58.8283C44.613 58.8283 45.1217 59.3296 45.1217 59.9461C45.1217 60.5627 44.613 61.064 43.9875 61.064ZM61.4464 32.4473C62.072 32.4473 62.5806 32.9486 62.5806 33.5652C62.5806 34.1817 62.072 34.683 61.4464 34.683C60.8209 34.683 60.3122 34.1817 60.3122 33.5652C60.3122 32.9486 60.8209 32.4473 61.4464 32.4473ZM50.5658 28.6455V48.3218C50.5658 49.0198 49.9899 49.5875 49.2816 49.5875H29.3173C28.609 49.5875 28.0331 49.0198 28.0331 48.3218V28.6455C28.0331 27.9474 28.609 27.3798 29.3173 27.3798H49.2816C49.9899 27.3798 50.5658 27.9474 50.5658 28.6455ZM60.5468 2.5638H75.0645C75.4396 2.5638 75.745 2.8648 75.745 3.2345V17.5428C75.745 17.9125 75.4396 18.2135 75.0645 18.2135H60.5468C60.1717 18.2135 59.8662 17.9125 59.8662 17.5428V10.4178C59.8668 10.4079 59.868 10.3986 59.868 10.3887C59.868 10.3788 59.8668 10.3694 59.8662 10.3596V3.2345C59.8662 2.8648 60.1717 2.5638 60.5468 2.5638Z" fill="#A92D94"/>
<path d="M63.8739 15.9779H71.7376C72.6964 15.9779 73.4768 15.2088 73.4768 14.2639V6.51358C73.4768 5.56866 72.6964 4.79956 71.7376 4.79956H63.8739C62.9151 4.79956 62.1348 5.56866 62.1348 6.51358V14.2639C62.1348 15.2088 62.9151 15.9779 63.8739 15.9779ZM64.4032 7.03524H71.2084V13.7423H64.4032V7.03524Z" fill="#A92D94"/>
<path d="M71.7376 72.1679C72.6964 72.1679 73.4768 71.3988 73.4768 70.4539V62.7035C73.4768 61.7586 72.6964 60.9895 71.7376 60.9895H63.8739C62.9151 60.9895 62.1348 61.7586 62.1348 62.7035V70.4539C62.1348 71.3988 62.9151 72.1679 63.8739 72.1679H71.7376ZM64.4032 63.2252H71.2084V69.9322H64.4032V63.2252Z" fill="#A92D94"/>
</svg>
