<svg width="72" height="75" viewBox="0 0 72 75" fill="none" xmlns="http://www.w3.org/2000/svg">
<path d="M39.4121 17.0094C39.3611 17.7001 38.7792 18.234 38.2364 18.238C37.6935 18.2419 37.3361 18.0879 37.0821 17.8169C36.8268 17.546 36.6978 17.1834 36.726 16.8142C37.5081 8.14421 45.2198 0.976318 54.141 0.976318C63.7824 0.976318 71.6097 8.71265 71.6097 18.2419C71.6097 20.9898 70.141 25.5878 68.0246 30.6599C63.257 42.0884 55.3127 56.0789 55.3127 56.0789C55.0749 56.4986 54.6274 56.7576 54.141 56.7576C53.6546 56.7576 53.2071 56.4986 52.9692 56.0789C52.9692 56.0789 51.2439 53.0401 48.9178 48.6387C48.8184 48.4488 48.766 48.239 48.766 48.0251V48.0212C48.766 47.4102 49.1893 46.879 49.7886 46.7342C50.3892 46.5881 51.0114 46.867 51.2976 47.4076C52.4358 49.5591 53.4275 51.3813 54.141 52.6762C56.5087 48.3811 61.9415 38.2754 65.5414 29.6479C67.4885 24.9795 68.9222 20.772 68.9222 18.2419C68.9222 10.1789 62.2989 3.63257 54.141 3.63257C46.4023 3.63257 40.0451 9.5228 39.4121 17.0094Z" fill="#A92D94"/>
<path d="M54.1409 11.6013C50.4332 11.6013 47.4221 14.5774 47.4221 18.2419C47.4221 21.9065 50.4332 24.8826 54.1409 24.8826C57.8485 24.8826 60.8596 21.9065 60.8596 18.2419C60.8596 14.5774 57.8485 11.6013 54.1409 11.6013ZM54.1409 14.2576C56.3661 14.2576 58.1721 16.0426 58.1721 18.2419C58.1721 20.4413 56.3661 22.2263 54.1409 22.2263C51.9156 22.2263 50.1096 20.4413 50.1096 18.2419C50.1096 16.0426 51.9156 14.2576 54.1409 14.2576Z" fill="#A92D94"/>
<path d="M1.73462 74.0232C0.992487 74.0232 0.390869 73.4286 0.390869 72.6951C0.390869 71.9616 0.992487 71.3669 1.73462 71.3669C2.47675 71.3669 3.07837 71.9616 3.07837 72.6951C3.07837 73.4286 2.47675 74.0232 1.73462 74.0232Z" fill="#A92D94"/>
<path d="M20.5471 74.0232C19.805 74.0232 19.2034 73.4286 19.2034 72.6951C19.2034 71.9616 19.805 71.3669 20.5471 71.3669C21.2893 71.3669 21.8909 71.9616 21.8909 72.6951C21.8909 73.4286 21.2893 74.0232 20.5471 74.0232Z" fill="#A92D94"/>
<path d="M46.0784 74.0232C45.3362 74.0232 44.7346 73.4286 44.7346 72.6951C44.7346 71.9616 45.3362 71.3669 46.0784 71.3669C46.8205 71.3669 47.4221 71.9616 47.4221 72.6951C47.4221 73.4286 46.8205 74.0232 46.0784 74.0232Z" fill="#A92D94"/>
<path d="M21.892 55.4299C21.892 54.7255 21.6086 54.0498 21.1044 53.5517C20.6008 53.0537 19.9173 52.7737 19.2041 52.7737H13.8295C13.1163 52.7737 12.4328 53.0537 11.9292 53.5517C11.425 54.0498 11.1416 54.7255 11.1416 55.4299V59.4143C11.1416 60.1188 11.425 60.7945 11.9292 61.2925C12.4328 61.7906 13.1163 62.0706 13.8295 62.0706H19.2041C19.9173 62.0706 20.6008 61.7906 21.1044 61.2925C21.6086 60.7945 21.892 60.1188 21.892 59.4143V55.4299ZM19.2041 55.4299H13.8295V59.4143H19.2041V55.4299Z" fill="#A92D94"/>
<path d="M11.1409 20.8982H35.3284C37.4986 20.8982 39.4565 22.1878 40.2909 24.168L45.975 37.6525C46.0435 37.8172 46.0785 37.9912 46.0785 38.1638V43.4763C46.0785 46.199 44.4203 48.5391 42.0472 49.5644V67.3826C42.0472 68.1157 41.4465 68.7107 40.7035 68.7107H5.76595C5.0242 68.7107 4.4222 68.1157 4.4222 67.3826V49.5631C3.66029 49.2337 2.95885 48.7649 2.35954 48.1726C1.0991 46.9268 0.390949 45.2374 0.390949 43.4763V38.1997C0.386917 38.0151 0.420511 37.8291 0.494417 37.6525C0.494417 37.6525 4.29589 28.6372 6.17982 24.1667C7.01429 22.1878 8.97214 20.8982 11.1409 20.8982ZM33.9847 47.4607C32.7592 49.0744 30.8081 50.1169 28.818 50.1169C26.8279 50.1169 25.1186 49.417 23.8582 48.1726C23.6325 47.9481 23.4242 47.7104 23.2347 47.4607C22.0092 49.0744 20.0581 50.1169 18.068 50.1169C16.0779 50.1169 14.3686 49.417 13.1082 48.1726C12.8824 47.9481 12.6742 47.7117 12.4847 47.462C11.2592 49.0744 9.30807 50.1169 7.1097 50.1169V66.0544H24.5784V56.7576C24.5784 54.5569 26.3845 52.7732 28.6097 52.7732H31.2972C33.5238 52.7732 35.3284 54.5569 35.3284 56.7576V66.0544H39.3597C39.3597 60.7419 39.3597 55.4294 39.3597 50.1169C37.5779 50.1169 35.8686 49.417 34.6082 48.1726C34.3825 47.9481 34.1742 47.7104 33.9847 47.4607ZM32.6409 66.0544V56.7576C32.6409 56.0244 32.0403 55.4294 31.2972 55.4294H28.6097C27.868 55.4294 27.266 56.0244 27.266 56.7576V66.0544H32.6409ZM43.391 39.4919H35.3284V43.4763C35.3284 44.5335 35.7531 45.5469 36.5096 46.2933C37.2648 47.041 38.2901 47.4607 39.3597 47.4607C41.5863 47.4607 43.391 45.677 43.391 43.4763V39.4919ZM11.1409 39.4919H3.07845V43.4763C3.07845 44.5335 3.50307 45.5469 4.2596 46.2933C5.01614 47.041 6.04142 47.4607 7.1097 47.4607C9.31882 47.4607 11.1141 45.7036 11.1409 43.5268V39.4919ZM21.8909 39.4919H13.8284V43.5268C13.8419 44.5654 14.2652 45.5588 15.0096 46.2933C15.7648 47.041 16.7901 47.4607 17.8597 47.4607C20.0863 47.4607 21.8909 45.677 21.8909 43.4763V39.4919ZM32.6409 39.4919H24.5784V43.4763C24.5784 44.5335 25.0031 45.5469 25.7596 46.2933C26.5148 47.041 27.5401 47.4607 28.6097 47.4607C30.8363 47.4607 32.6409 45.677 32.6409 43.4763V39.4919ZM21.8909 23.5544H17.5654L14.206 36.8357H21.8909V23.5544ZM28.904 23.5544H24.5784V36.8357H32.2634L28.904 23.5544ZM42.7191 36.8357L37.809 25.1894C37.3925 24.1999 36.4142 23.5544 35.3284 23.5544H31.6748L35.0328 36.8357H42.7191ZM14.7946 23.5544H11.1409C10.0565 23.5544 9.07829 24.1986 8.66039 25.1894L3.75032 36.8357H11.4366L14.7946 23.5544Z" fill="#A92D94"/>
<path d="M7.10957 74.0232H15.1721C15.9137 74.0232 16.5158 73.4282 16.5158 72.6951C16.5158 71.9619 15.9137 71.3669 15.1721 71.3669H7.10957C6.36799 71.3669 5.76587 71.9619 5.76587 72.6951C5.76587 73.4282 6.36799 74.0232 7.10957 74.0232Z" fill="#A92D94"/>
<path d="M25.9231 74.0232H40.7033C41.4448 74.0232 42.047 73.4282 42.047 72.6951C42.047 71.9619 41.4448 71.3669 40.7033 71.3669H25.9231C25.1816 71.3669 24.5793 71.9619 24.5793 72.6951C24.5793 73.4282 25.1816 74.0232 25.9231 74.0232Z" fill="#A92D94"/>
</svg>
