<svg width="66" height="79" viewBox="0 0 66 79" fill="none" xmlns="http://www.w3.org/2000/svg">
<path d="M17.8299 16.1144C17.1455 16.1144 16.5906 16.6612 16.5906 17.3358C16.5906 18.8175 15.3675 20.0229 13.8641 20.0229C12.3608 20.0229 11.1377 18.8175 11.1377 17.3358C11.1377 15.8542 12.3608 14.6487 13.8641 14.6487C14.5485 14.6487 15.1035 14.1019 15.1035 13.4273C15.1035 12.7526 14.5486 12.2058 13.8641 12.2058C10.9941 12.2058 8.65918 14.5072 8.65918 17.3357C8.65918 20.1642 10.9942 22.4655 13.8641 22.4655C16.734 22.4655 19.0691 20.1642 19.0691 17.3357C19.0692 16.6612 18.5143 16.1144 17.8299 16.1144Z" fill="#2C3B84"/>
<path d="M17.8299 30.4454C17.1455 30.4454 16.5906 30.9922 16.5906 31.6669C16.5906 33.1486 15.3675 34.354 13.8641 34.354C12.3608 34.354 11.1377 33.1486 11.1377 31.6669C11.1377 30.1852 12.3608 28.9798 13.8641 28.9798C14.5485 28.9798 15.1035 28.4329 15.1035 27.7583C15.1035 27.0837 14.5486 26.5369 13.8641 26.5369C10.9941 26.5369 8.65918 28.8382 8.65918 31.6667C8.65918 34.4952 10.9942 36.7966 13.8641 36.7966C16.734 36.7966 19.0691 34.4952 19.0691 31.6667C19.0692 30.9924 18.5143 30.4454 17.8299 30.4454Z" fill="#2C3B84"/>
<path d="M32.3705 33.0513H23.1173C22.4329 33.0513 21.8779 33.5981 21.8779 34.2727C21.8779 34.9474 22.4327 35.4942 23.1173 35.4942H32.3705C33.0549 35.4942 33.6099 34.9474 33.6099 34.2727C33.6099 33.5981 33.055 33.0513 32.3705 33.0513Z" fill="#2C3B84"/>
<path d="M32.3705 27.8398H23.1173C22.4329 27.8398 21.8779 28.3867 21.8779 29.0613C21.8779 29.7359 22.4327 30.2827 23.1173 30.2827H32.3705C33.0549 30.2827 33.6099 29.7359 33.6099 29.0613C33.6099 28.3867 33.055 27.8398 32.3705 27.8398Z" fill="#2C3B84"/>
<path d="M29.7268 47.3823H23.1173C22.4329 47.3823 21.8779 47.9291 21.8779 48.6038C21.8779 49.2784 22.4327 49.8252 23.1173 49.8252H29.7268C30.4111 49.8252 30.9661 49.2784 30.9661 48.6038C30.9661 47.9291 30.4111 47.3823 29.7268 47.3823Z" fill="#2C3B84"/>
<path d="M32.3705 42.1709H23.1173C22.4329 42.1709 21.8779 42.7177 21.8779 43.3923C21.8779 44.067 22.4327 44.6138 23.1173 44.6138H32.3705C33.0549 44.6138 33.6099 44.067 33.6099 43.3923C33.6099 42.7177 33.055 42.1709 32.3705 42.1709Z" fill="#2C3B84"/>
<path d="M44.2677 18.72H23.1173C22.4329 18.72 21.8779 19.2668 21.8779 19.9414C21.8779 20.6161 22.4327 21.1629 23.1173 21.1629H44.2676C44.9519 21.1629 45.5069 20.6161 45.5069 19.9414C45.5069 19.2668 44.9521 18.72 44.2677 18.72Z" fill="#2C3B84"/>
<path d="M38.9801 13.5088H23.1173C22.4329 13.5088 21.8779 14.0556 21.8779 14.7302C21.8779 15.4049 22.4327 15.9517 23.1173 15.9517H38.9801C39.6644 15.9517 40.2194 15.4049 40.2194 14.7302C40.2194 14.0556 39.6646 13.5088 38.9801 13.5088Z" fill="#2C3B84"/>
<path d="M17.8299 44.7767C17.1455 44.7767 16.5906 45.3235 16.5906 45.9982C16.5906 47.4799 15.3675 48.6853 13.8641 48.6853C12.3608 48.6853 11.1377 47.4799 11.1377 45.9982C11.1377 44.5165 12.3608 43.3111 13.8641 43.3111C14.5485 43.3111 15.1035 42.7642 15.1035 42.0896C15.1035 41.415 14.5486 40.8682 13.8641 40.8682C10.9941 40.8682 8.65918 43.1695 8.65918 45.998C8.65918 48.8265 10.9942 51.1279 13.8641 51.1279C16.734 51.1279 19.0691 48.8265 19.0691 45.998C19.0692 45.3235 18.5143 44.7767 17.8299 44.7767Z" fill="#2C3B84"/>
<path d="M49.5551 0.480469H4.61061C2.46958 0.480469 0.727539 2.19723 0.727539 4.30753V59.0263C0.727539 61.1366 2.46943 62.8533 4.61061 62.8533H27.0829C27.7673 62.8533 28.3223 62.3065 28.3223 61.6319C28.3223 60.9574 27.7675 60.4104 27.0829 60.4104H4.61061C3.83613 60.4104 3.20603 59.7894 3.20603 59.0261V4.30753C3.20603 3.54422 3.83613 2.92321 4.61061 2.92321H49.5551C50.3296 2.92321 50.9597 3.54422 50.9597 4.30753V44.6954C50.9597 45.3699 51.5145 45.9169 52.199 45.9169C52.8834 45.9169 53.4383 45.37 53.4383 44.6954V4.30753C53.4382 2.19723 51.6963 0.480469 49.5551 0.480469Z" fill="#2C3B84"/>
<path d="M61.2555 50.011C60.1037 49.8978 58.9525 50.2195 58.0414 50.9013C57.3156 49.7011 56.0779 48.8495 54.646 48.7082C53.4939 48.5951 52.3428 48.9169 51.4318 49.5985C50.706 48.3983 49.4684 47.5467 48.0365 47.4053C47.1569 47.3188 46.2785 47.4858 45.5067 47.8729V32.3185C45.5067 31.0556 44.9616 29.845 44.0107 28.9971C43.0608 28.15 41.7806 27.7365 40.4983 27.863C38.2106 28.0888 36.4186 30.1274 36.4186 32.5044V48.0981L32.7756 51.6886C30.8397 53.5965 30.0583 56.3036 30.6855 58.9302L33.4512 70.515C34.5718 75.2093 38.7718 78.4877 43.6648 78.4877H54.8425C60.6281 78.4877 65.3351 73.8488 65.3351 68.1465V54.6527C65.3352 52.2754 63.5433 50.2367 61.2555 50.011ZM62.8566 68.1462C62.8566 72.5013 59.2615 76.0445 54.8426 76.0445H43.6649C39.9278 76.0445 36.7198 73.5405 35.8638 69.9551L33.0981 58.3703C32.669 56.5733 33.2037 54.7209 34.5282 53.4155L36.4186 51.5524V55.7693C36.4186 56.4438 36.9734 56.9907 37.658 56.9907C38.3425 56.9907 38.8973 56.4439 38.8973 55.7693V32.5042C38.8973 31.3669 39.709 30.3957 40.7455 30.2937C41.3408 30.2347 41.9102 30.4178 42.348 30.8085C42.7804 31.1941 43.0283 31.7446 43.0283 32.3186V53.8153C43.0283 54.4898 43.5831 55.0368 44.2676 55.0368C44.9522 55.0368 45.507 54.49 45.507 53.8153V51.861C45.507 51.2869 45.7548 50.7365 46.1873 50.3509C46.6254 49.9602 47.1944 49.7769 47.7898 49.8361C48.8261 49.9383 49.638 50.9094 49.638 52.0468V55.1178C49.638 55.7923 50.1928 56.3393 50.8773 56.3393C51.5617 56.3393 52.1166 55.7925 52.1166 55.1178V53.1635C52.1166 52.5895 52.3644 52.039 52.797 51.6534C53.2351 51.2627 53.8043 51.0796 54.3994 51.1386C55.4358 51.2408 56.2477 52.2119 56.2477 53.3493V56.4205C56.2477 57.095 56.8025 57.6419 57.487 57.6419C58.1714 57.6419 58.7263 57.0951 58.7263 56.4205V54.4662C58.7263 53.8921 58.9741 53.3416 59.4067 52.956C59.8448 52.5655 60.4135 52.3821 61.0091 52.4414C62.0455 52.5434 62.8574 53.5146 62.8574 54.6519V68.1462H62.8566Z" fill="#2C3B84"/>
</svg>
