<svg width="74" height="73" viewBox="0 0 74 73" fill="none" xmlns="http://www.w3.org/2000/svg">
<g clip-path="url(#clip0_1077_7449)">
<path d="M16.3854 13.016L16.4559 16.3243C16.4629 16.6544 16.6262 16.9622 16.8973 17.1562C17.0824 17.2888 17.3033 17.3579 17.5268 17.3579C17.6307 17.3579 17.7348 17.3431 17.8363 17.3129L21.052 16.3562L24.2677 17.3129C24.5882 17.4083 24.936 17.3507 25.2068 17.1563C25.4778 16.9622 25.6411 16.6545 25.6481 16.3244L25.7186 13.0162L27.634 10.2956C27.8248 10.0245 27.8761 9.68102 27.7725 9.36711C27.669 9.05321 27.4223 8.80518 27.1061 8.69665L23.9352 7.60868L21.9054 4.97244C21.7029 4.70949 21.3871 4.55493 21.052 4.55493C20.717 4.55493 20.4013 4.70949 20.1988 4.97244L18.1687 7.60854L14.9978 8.69651C14.6816 8.80504 14.4351 9.05307 14.3314 9.36697C14.2277 9.68088 14.2791 10.0243 14.4699 10.2955L16.3854 13.016ZM19.1786 9.49788C19.3778 9.42961 19.5521 9.30476 19.6796 9.13908L21.052 7.35699L22.4242 9.13908C22.5518 9.30476 22.7261 9.42947 22.9253 9.49788L25.0698 10.2338L23.7743 12.0739C23.6542 12.2443 23.5877 12.4461 23.5835 12.6535L23.5359 14.8896L21.3615 14.2428C21.1599 14.1825 20.9442 14.1825 20.7425 14.2428L18.5682 14.8896L18.5205 12.6535C18.5162 12.4459 18.4498 12.2443 18.3296 12.0739L17.0341 10.2338L19.1786 9.49788Z" fill="#A92D94"/>
<path d="M32.6017 8.63345L32.6723 11.9413C32.6793 12.2712 32.8422 12.5788 33.1132 12.7729C33.384 12.9672 33.7313 13.025 34.0517 12.9302L37.2682 11.9769L40.4848 12.9302C40.5861 12.9601 40.69 12.9748 40.7933 12.9748C41.017 12.9748 41.2381 12.9057 41.4233 12.7728C41.6941 12.5787 41.8572 12.2711 41.8642 11.9411L41.9348 8.63331L43.8498 5.91683C44.0409 5.64586 44.0923 5.30254 43.989 4.98863C43.8858 4.67472 43.6395 4.42656 43.3235 4.31775L40.1514 3.22555L38.121 0.59297C37.9187 0.330444 37.6033 0.176166 37.2687 0.176025C37.2685 0.176025 37.2684 0.176025 37.2682 0.176025C36.9337 0.176025 36.6185 0.330022 36.416 0.592267L34.3813 3.22583L31.2127 4.31817C30.8967 4.42698 30.6506 4.67515 30.5473 4.98905C30.4441 5.30282 30.4958 5.64628 30.6867 5.91711L32.6017 8.63345ZM35.3922 5.11419C35.5905 5.04606 35.7639 4.92191 35.8908 4.75735L37.2675 2.97555L38.6411 4.75651C38.7683 4.92163 38.942 5.04606 39.1405 5.11433L41.286 5.85307L39.9909 7.69033C39.8705 7.86093 39.804 8.06279 39.7997 8.27056L39.752 10.5082L37.5767 9.86345C37.4761 9.83361 37.3721 9.81883 37.2682 9.81883C37.1644 9.81883 37.0604 9.83361 36.9597 9.86345L34.7847 10.5082L34.737 8.27056C34.7327 8.06265 34.6661 7.86093 34.5457 7.69033L33.2503 5.85264L35.3922 5.11419Z" fill="#A92D94"/>
<path d="M48.8146 13.0159L48.8888 16.3253C48.8962 16.6552 49.0596 16.9627 49.3305 17.1565C49.6016 17.3505 49.9491 17.4081 50.2692 17.3126L53.4847 16.3561L56.696 17.3126C56.7977 17.3429 56.9021 17.3577 57.0059 17.3577C57.2292 17.3577 57.4498 17.2888 57.6349 17.1564C57.9059 16.9627 58.0694 16.655 58.0768 16.3252L58.151 13.0163L60.067 10.2954C60.2578 10.0241 60.3091 9.68063 60.2055 9.36673C60.102 9.05282 59.8554 8.8048 59.5391 8.69627L56.3682 7.6083L54.3381 4.9722C54.1357 4.70939 53.8202 4.55483 53.4853 4.55469C53.4852 4.55469 53.485 4.55469 53.4849 4.55469C53.1502 4.55469 52.8347 4.70897 52.6321 4.97149L50.598 7.60816L47.4302 8.69627C47.1143 8.8048 46.8678 9.05254 46.7644 9.36631C46.6607 9.67993 46.7117 10.0233 46.9022 10.2944L48.8146 13.0159ZM51.6077 9.49764C51.8065 9.42937 51.9804 9.30493 52.1079 9.13968L53.484 7.35591L54.8571 9.13897C54.9847 9.30465 55.1589 9.42937 55.3582 9.49778L57.5027 10.2337L56.207 12.0736C56.0871 12.244 56.0207 12.4453 56.0162 12.6523L55.966 14.8895L53.7947 14.2427C53.5926 14.1824 53.377 14.1823 53.1752 14.2427L50.9994 14.8899L50.9493 12.6523C50.9447 12.4454 50.8785 12.2445 50.7591 12.0745L49.4652 10.2337L51.6077 9.49764Z" fill="#A92D94"/>
<path d="M52.2584 30.1243C52.2584 26.1778 50.6985 22.4679 47.8663 19.6787C42.0238 13.9203 32.5136 13.9203 26.6665 19.6787C20.8241 25.4369 20.8239 34.81 26.6668 40.5734C29.5903 43.4524 33.4293 44.892 37.268 44.892C41.1067 44.892 44.945 43.4523 47.8663 40.5729C50.6987 37.7813 52.2584 34.0705 52.2584 30.1243ZM28.1813 21.1719C30.6873 18.7037 33.9773 17.4701 37.2678 17.4701C40.5577 17.4701 43.8479 18.7043 46.3516 21.1719C48.7792 23.5626 50.1161 26.742 50.1161 30.1243C50.1161 33.3254 48.9169 36.3448 46.7304 38.6875C46.1584 36.3019 44.6677 34.1994 42.5632 32.8458C43.4626 31.7176 44.0009 30.2974 44.0009 28.7548C44.0009 25.0959 40.9807 22.1191 37.2682 22.1191C33.5558 22.1191 30.5358 25.0957 30.5358 28.7548C30.5358 30.2975 31.0742 31.7177 31.9734 32.8459C29.8682 34.2 28.3772 36.3034 27.8057 38.6901C23.1794 33.7266 23.3032 25.9796 28.1813 21.1719ZM32.6783 28.7548C32.6783 26.2601 34.7374 24.2306 37.2684 24.2306C39.7995 24.2306 41.8586 26.2601 41.8586 28.7548C41.8586 31.2494 39.7995 33.2789 37.2684 33.2789C34.7374 33.2789 32.6783 31.2494 32.6783 28.7548ZM29.7074 40.3646C29.8833 37.8391 31.3656 35.5585 33.6239 34.3297C34.6753 34.9996 35.926 35.3904 37.2684 35.3904C38.6108 35.3904 39.8615 34.9996 40.9129 34.3297C43.1705 35.5582 44.6526 37.8379 44.8294 40.3625C40.3426 43.5859 34.1972 43.5866 29.7074 40.3646Z" fill="#A92D94"/>
<path d="M71.9302 23.2065C71.1901 22.3781 70.169 21.8833 69.055 21.813C67.9418 21.7415 66.8664 22.1062 66.0253 22.8371C65.4798 23.3108 65.078 23.9011 64.843 24.5567C64.6553 24.5187 64.4643 24.4918 64.2709 24.4788C63.1599 24.4077 62.082 24.7718 61.2398 25.5023C60.3977 26.2325 59.8948 27.2384 59.8234 28.3371L59.7014 30.2728L59.1331 39.0875C58.8427 39.2363 58.5588 39.4123 58.2849 39.6165C58.271 39.6267 58.2576 39.6374 58.2441 39.6483L50.7841 45.7884C47.5018 48.4872 47.1709 50.8396 46.869 54.7651L46.3955 60.9498H45.2284C43.9009 60.9498 42.821 62.016 42.821 63.3265V69.875C42.821 71.1833 43.9011 72.2476 45.2284 72.2476H52.0958C52.6875 72.2476 53.167 71.7751 53.167 71.1919C53.167 70.6087 52.6875 70.1362 52.0958 70.1362H45.2284C45.0847 70.1362 44.9634 70.0165 44.9634 69.875V63.3265C44.9634 63.1828 45.0848 63.0613 45.2284 63.0613H63.918C64.0617 63.0613 64.183 63.1827 64.183 63.3265V69.875C64.183 70.0166 64.0616 70.1362 63.918 70.1362H57.0547C56.463 70.1362 55.9835 70.6087 55.9835 71.1919C55.9835 71.7751 56.463 72.2476 57.0547 72.2476H63.9182C65.2456 72.2476 66.3255 71.1832 66.3255 69.875V63.3265C66.3255 62.016 65.2454 60.9498 63.9182 60.9498H63.2533C68.6995 55.3643 71.4783 49.2982 71.9482 42.0426L72.9676 26.1924C73.0388 25.0954 72.6705 24.0351 71.9302 23.2065ZM61.8398 30.405L61.9616 28.4698C61.9963 27.9362 62.2427 27.4453 62.655 27.0875C63.0675 26.7298 63.5928 26.5512 64.1295 26.5858C64.2728 26.5955 64.4122 26.6224 64.5477 26.6593L63.7441 39.1198C63.475 38.9613 63.186 38.8287 62.8795 38.7287C62.3728 38.5635 61.8465 38.4928 61.3173 38.5093L61.8398 30.405ZM70.8293 26.0579L69.81 41.9085C69.3334 49.2659 66.2769 55.3263 60.2044 60.9498H48.5438L49.0051 54.9244C49.2856 51.2796 49.5205 49.5769 52.1568 47.4093L59.5963 41.2863C60.7456 40.4399 61.7239 40.576 62.2063 40.7331C62.8545 40.9445 63.3469 41.4255 63.5234 42.0205C63.7656 42.8347 63.415 43.7587 62.5349 44.6234C61.9543 45.1956 61.0491 46.1235 60.0907 47.1059C58.7903 48.4391 57.3161 49.9499 56.6004 50.6212C56.1718 51.023 56.1549 51.6915 56.5627 52.1139C56.9703 52.5362 57.6484 52.5529 58.0772 52.1511C58.8276 51.4475 60.2548 49.9844 61.6351 48.5696C62.586 47.5949 63.4841 46.6742 64.0487 46.1177C65.3117 44.8769 65.8954 43.4082 65.7043 42.0081L66.7494 25.8041C66.7841 25.2698 67.03 24.7787 67.4417 24.4213C67.8528 24.0641 68.3756 23.8861 68.918 23.9201C69.4613 23.9545 69.9599 24.1966 70.3221 24.602C70.6841 25.0067 70.8643 25.5236 70.8293 26.0579Z" fill="#A92D94"/>
<path d="M29.3083 60.9497H28.1411L27.6675 54.7646C27.3657 50.8419 27.035 48.491 23.7528 45.7885L16.2923 39.6482C16.2789 39.6372 16.2653 39.6267 16.2515 39.6161C15.9707 39.4071 15.687 39.2315 15.4029 39.0843L14.709 28.3347C14.6377 27.2384 14.1357 26.2326 13.2956 25.5028C12.4543 24.772 11.3771 24.4076 10.2621 24.4791C10.0683 24.4921 9.87862 24.5182 9.69295 24.5554C9.45743 23.9003 9.05495 23.3102 8.50878 22.8365C7.66654 22.1062 6.58936 21.7415 5.47761 21.813C3.1727 21.9586 1.41752 23.9232 1.56506 26.1918L2.58854 42.0425C3.05529 49.2972 5.83253 55.3635 11.2793 60.9497H10.6185C9.29104 60.9497 8.21114 62.0159 8.21114 63.3264V69.8749C8.21114 71.1832 9.29118 72.2475 10.6185 72.2475H17.4819C18.0736 72.2475 18.5531 71.7749 18.5531 71.1917C18.5531 70.6086 18.0736 70.136 17.4819 70.136H10.6186C10.4749 70.136 10.3537 70.0164 10.3537 69.8749V63.3264C10.3537 63.1827 10.4751 63.0612 10.6186 63.0612H29.3083C29.4519 63.0612 29.5732 63.1825 29.5732 63.3264V69.8749C29.5732 70.0165 29.4518 70.136 29.3083 70.136H22.4448C21.8531 70.136 21.3736 70.6086 21.3736 71.1917C21.3736 71.7749 21.8531 72.2475 22.4448 72.2475H29.3083C30.6357 72.2475 31.7156 71.183 31.7156 69.8749V63.3264C31.7157 62.0159 30.6357 60.9497 29.3083 60.9497ZM10.4029 26.5859C10.9434 26.5529 11.4677 26.7297 11.8789 27.0869C12.2905 27.4445 12.5365 27.9356 12.571 28.4694L13.2186 38.4998C12.3244 38.4741 11.4888 38.7072 10.7926 39.1185L9.98874 26.6582C10.1224 26.6218 10.26 26.5955 10.4029 26.5859ZM4.72663 41.9086L3.70315 26.0574C3.63116 24.9501 4.48854 23.9914 5.61458 23.9201C6.15774 23.8871 6.68119 24.064 7.09353 24.4217C7.50587 24.7794 7.75224 25.2704 7.7868 25.8034L7.80308 26.056C7.80366 26.0674 7.80437 26.0788 7.80523 26.0902L8.83085 41.9912C8.64932 43.2581 9.07751 44.7318 10.4835 46.1173C11.0616 46.6856 11.9817 47.6282 12.9561 48.6262C14.3145 50.0178 15.7192 51.4567 16.4593 52.1508C16.888 52.5525 17.5659 52.5361 17.9738 52.1136C18.3817 51.6912 18.3647 51.0228 17.9361 50.621C17.2301 49.9591 15.8421 48.5371 14.4999 47.1622C13.5178 46.1562 12.5902 45.2059 11.9974 44.6232C10.6155 43.2612 10.7784 42.0339 11.3916 41.3398C12.1018 40.5352 13.5465 40.261 14.9403 41.2861L22.3795 47.4088C25.0162 49.5796 25.2512 51.2816 25.5314 54.9237L25.9927 60.9496H14.328C8.25498 55.3256 5.19981 49.2652 4.72663 41.9086Z" fill="#A92D94"/>
</g>
<defs>
<clipPath id="clip0_1077_7449">
<rect width="73.1264" height="72.0715" fill="white" transform="translate(0.703125 0.176025)"/>
</clipPath>
</defs>
</svg>
